<svg width="37" height="37" viewBox="0 0 37 37" fill="none" xmlns="http://www.w3.org/2000/svg">
<path d="M18.5 0C8.2806 0 0 8.2806 0 18.5C0 28.7194 8.2806 37 18.5 37C28.7194 37 37 28.7194 37 18.5C37 8.2806 28.7194 0 18.5 0ZM18.5 27.75C13.394 27.75 9.25 23.606 9.25 18.5C9.25 13.394 13.394 9.25 18.5 9.25C23.606 9.25 27.75 13.394 27.75 18.5C27.75 23.606 23.606 27.75 18.5 27.75Z" fill="url(#paint0_linear_381_629)"/>
<path d="M27.75 27.75H18.5C13.394 27.75 9.25 23.606 9.25 18.5C9.25 13.394 13.394 9.25 18.5 9.25V0C8.2806 0 0 8.2806 0 18.5C0 28.7194 8.2806 37 18.5 37H37C37 31.894 32.856 27.75 27.75 27.75Z" fill="url(#paint1_linear_381_629)"/>
<defs>
<linearGradient id="paint0_linear_381_629" x1="18.5" y1="9.3462" x2="18.5" y2="28.4308" gradientUnits="userSpaceOnUse">
<stop stop-color="#20BDFF"/>
<stop offset="1" stop-color="#2E4A8B"/>
</linearGradient>
<linearGradient id="paint1_linear_381_629" x1="18.5" y1="9.3018" x2="18.5" y2="27.75" gradientUnits="userSpaceOnUse">
<stop stop-color="#20BDFF"/>
<stop offset="1" stop-color="#4CFEEF"/>
</linearGradient>
</defs>
</svg>
