<svg width="12" height="12" viewBox="0 0 12 12" fill="none" xmlns="http://www.w3.org/2000/svg">
<path d="M12 9.14995V3.74995C12 3.74995 6.54 7.55995 6.009 7.75765C5.487 7.56895 0 3.74995 0 3.74995V9.14995C0 9.89995 0.159 10.05 0.9 10.05H11.1C11.8587 10.05 12 9.91825 12 9.14995ZM11.9913 2.69125C11.9913 2.14495 11.832 1.94995 11.1 1.94995H0.9C0.147 1.94995 0 2.18395 0 2.72995L0.00899999 2.81395C0.00899999 2.81395 5.4297 6.54595 6.009 6.74995C6.621 6.51295 12 2.72995 12 2.72995L11.9913 2.69125Z" fill="white"/>
</svg>
