<svg width="400" height="400" viewBox="0 0 400 400" fill="none" xmlns="http://www.w3.org/2000/svg">
<path d="M383.324 270.615C343.032 364.815 236.672 405.276 153.338 398.378C130.584 396.494 84.8036 392.704 49.0574 358.893C-19.5904 293.96 -9.01797 158.232 56.6976 78.3231C65.1605 68.0326 123.739 -0.913578 215.022 0.00917744C281.855 0.684873 328.764 38.4463 334.468 43.1508C341.674 49.0936 357.567 63.2157 371.89 85.6197C405.545 138.261 408.503 211.749 383.324 270.615Z" fill="#D9F4FF"/>
<path d="M270.855 278.586C270.729 278.586 270.603 278.547 270.495 278.466C270.232 278.267 270.18 277.892 270.379 277.629C270.862 276.99 271.363 276.353 271.869 275.734C272.077 275.478 272.454 275.442 272.709 275.65C272.964 275.859 273.002 276.235 272.793 276.49C272.298 277.097 271.806 277.723 271.332 278.35C271.214 278.505 271.035 278.586 270.855 278.586Z" fill="#80D9FF"/>
<path d="M382.482 304.159C382.203 304.159 381.953 303.962 381.896 303.678C381.581 302.094 381.198 300.503 380.759 298.949C380.669 298.631 380.854 298.302 381.171 298.212C381.487 298.118 381.819 298.306 381.909 298.624C382.357 300.208 382.747 301.83 383.068 303.445C383.133 303.768 382.923 304.083 382.599 304.147C382.56 304.155 382.52 304.159 382.482 304.159ZM378.678 291.863C378.445 291.863 378.225 291.727 378.128 291.5C377.495 290.018 376.795 288.54 376.044 287.105C375.891 286.812 376.004 286.451 376.297 286.298C376.589 286.144 376.95 286.259 377.103 286.55C377.867 288.014 378.582 289.521 379.227 291.031C379.356 291.334 379.215 291.685 378.912 291.815C378.835 291.847 378.756 291.863 378.678 291.863ZM372.442 280.601C372.253 280.601 372.067 280.512 371.951 280.345C371.028 279.015 370.043 277.709 369.024 276.461C368.815 276.205 368.854 275.829 369.109 275.62C369.364 275.412 369.74 275.448 369.949 275.705C370.988 276.977 371.991 278.309 372.932 279.663C373.12 279.934 373.053 280.306 372.782 280.495C372.678 280.567 372.559 280.601 372.442 280.601ZM277.763 270.872C277.605 270.872 277.447 270.809 277.329 270.685C277.103 270.445 277.113 270.067 277.353 269.841C278.547 268.712 279.803 267.614 281.085 266.579C281.342 266.371 281.718 266.411 281.925 266.669C282.132 266.925 282.092 267.302 281.836 267.509C280.578 268.524 279.345 269.601 278.174 270.709C278.058 270.818 277.911 270.872 277.763 270.872ZM364.061 270.837C363.913 270.837 363.765 270.783 363.65 270.673C362.479 269.563 361.249 268.487 359.994 267.473C359.737 267.265 359.697 266.889 359.904 266.633C360.111 266.376 360.488 266.336 360.744 266.543C362.024 267.577 363.278 268.675 364.471 269.806C364.711 270.033 364.721 270.411 364.494 270.65C364.377 270.774 364.219 270.837 364.061 270.837ZM287.973 263.032C287.773 263.032 287.577 262.932 287.464 262.749C287.291 262.468 287.378 262.1 287.659 261.927C289.063 261.06 290.515 260.239 291.973 259.487C292.266 259.335 292.627 259.45 292.777 259.744C292.929 260.037 292.814 260.397 292.52 260.548C291.089 261.286 289.664 262.092 288.286 262.943C288.188 263.004 288.08 263.032 287.973 263.032ZM353.858 263.001C353.752 263.001 353.644 262.972 353.546 262.912C352.176 262.069 350.751 261.267 349.309 260.528C349.016 260.378 348.9 260.018 349.05 259.724C349.2 259.431 349.56 259.315 349.854 259.465C351.323 260.217 352.776 261.035 354.172 261.895C354.453 262.068 354.54 262.435 354.368 262.717C354.255 262.9 354.059 263.001 353.858 263.001ZM299.554 257.419C299.31 257.419 299.081 257.268 298.993 257.025C298.88 256.715 299.04 256.373 299.35 256.259C300.898 255.698 302.487 255.19 304.073 254.752C304.391 254.664 304.719 254.85 304.807 255.168C304.895 255.486 304.709 255.815 304.391 255.903C302.835 256.333 301.277 256.831 299.758 257.382C299.691 257.407 299.622 257.419 299.554 257.419ZM342.268 257.417C342.2 257.417 342.132 257.406 342.065 257.382C340.547 256.834 338.988 256.339 337.43 255.91C337.112 255.823 336.925 255.494 337.013 255.176C337.1 254.858 337.429 254.671 337.747 254.759C339.334 255.195 340.923 255.7 342.47 256.258C342.781 256.37 342.941 256.712 342.829 257.022C342.741 257.266 342.512 257.417 342.268 257.417ZM329.783 254.307C329.755 254.307 329.726 254.305 329.697 254.301C328.101 254.071 326.474 253.904 324.86 253.8C324.531 253.779 324.281 253.495 324.302 253.165C324.323 252.836 324.612 252.595 324.936 252.607C326.582 252.713 328.24 252.885 329.867 253.118C330.193 253.165 330.42 253.467 330.373 253.794C330.331 254.092 330.075 254.307 329.783 254.307ZM312.038 254.297C311.746 254.297 311.49 254.082 311.448 253.783C311.402 253.457 311.629 253.155 311.955 253.108C313.585 252.876 315.244 252.705 316.886 252.602C317.22 252.596 317.499 252.832 317.52 253.161C317.54 253.49 317.29 253.774 316.961 253.795C315.35 253.896 313.722 254.063 312.124 254.291C312.095 254.295 312.067 254.297 312.038 254.297Z" fill="#80D9FF"/>
<path d="M383.658 314.475C383.336 314.475 383.071 314.22 383.061 313.896C383.037 313.113 382.998 312.318 382.944 311.535C382.921 311.206 383.17 310.92 383.499 310.898C383.826 310.891 384.113 311.124 384.136 311.453C384.19 312.251 384.231 313.062 384.255 313.86C384.265 314.19 384.006 314.465 383.676 314.475C383.67 314.475 383.664 314.475 383.658 314.475Z" fill="#80D9FF"/>
<path d="M365.992 360.144C365.842 360.144 365.692 360.088 365.576 359.976C365.339 359.746 365.334 359.368 365.563 359.131C366.114 358.564 366.657 357.983 367.178 357.403C367.399 357.159 367.777 357.138 368.022 357.358C368.267 357.578 368.287 357.956 368.067 358.202C367.535 358.792 366.981 359.385 366.42 359.963C366.303 360.084 366.147 360.144 365.992 360.144Z" fill="#80D9FF"/>
<path d="M320.985 379.219L320.444 379.217C320.114 379.213 319.849 378.943 319.853 378.614C319.856 378.286 320.123 378.022 320.45 378.022C320.451 378.022 320.454 378.022 320.456 378.022L320.985 378.024C322.395 378.024 323.826 377.975 325.238 377.879C325.569 377.872 325.852 378.105 325.875 378.434C325.897 378.763 325.649 379.048 325.32 379.071C323.881 379.169 322.423 379.219 320.985 379.219ZM312.624 378.661C312.598 378.661 312.571 378.659 312.544 378.656C310.941 378.44 309.324 378.16 307.739 377.823C307.417 377.754 307.211 377.437 307.28 377.114C307.348 376.791 307.664 376.588 307.988 376.654C309.543 376.985 311.13 377.261 312.703 377.471C313.029 377.515 313.259 377.816 313.215 378.143C313.175 378.443 312.919 378.661 312.624 378.661ZM333.058 378.044C332.778 378.044 332.529 377.847 332.473 377.562C332.409 377.238 332.62 376.924 332.943 376.86C334.504 376.554 336.07 376.181 337.599 375.756C337.916 375.665 338.246 375.852 338.335 376.17C338.423 376.488 338.238 376.817 337.92 376.906C336.361 377.341 334.765 377.72 333.174 378.033C333.135 378.041 333.096 378.044 333.058 378.044ZM300.305 375.729C300.24 375.729 300.174 375.718 300.109 375.696C298.577 375.163 297.049 374.566 295.568 373.92C295.266 373.788 295.127 373.436 295.259 373.134C295.391 372.831 295.742 372.692 296.045 372.825C297.498 373.458 298.997 374.044 300.501 374.567C300.813 374.675 300.978 375.016 300.87 375.327C300.784 375.574 300.553 375.729 300.305 375.729ZM345.172 374.348C344.938 374.348 344.717 374.21 344.621 373.981C344.493 373.677 344.636 373.327 344.94 373.2C346.399 372.587 347.858 371.907 349.277 371.177C349.57 371.026 349.931 371.142 350.081 371.435C350.232 371.729 350.116 372.089 349.823 372.24C348.376 372.983 346.889 373.677 345.402 374.301C345.327 374.333 345.249 374.348 345.172 374.348ZM288.823 370.392C288.719 370.392 288.614 370.365 288.519 370.308C287.128 369.482 285.752 368.59 284.427 367.657C284.157 367.468 284.093 367.095 284.282 366.825C284.472 366.554 284.845 366.49 285.115 366.68C286.414 367.595 287.765 368.47 289.128 369.281C289.412 369.45 289.505 369.816 289.337 370.1C289.226 370.288 289.027 370.392 288.823 370.392ZM356.296 368.292C356.105 368.292 355.917 368.201 355.802 368.032C355.616 367.759 355.686 367.387 355.959 367.201C357.272 366.306 358.567 365.349 359.808 364.357C360.066 364.151 360.441 364.193 360.647 364.451C360.853 364.708 360.811 365.084 360.554 365.29C359.29 366.301 357.97 367.276 356.632 368.189C356.529 368.258 356.412 368.292 356.296 368.292ZM278.653 362.853C278.509 362.853 278.365 362.802 278.251 362.697C277.058 361.609 275.89 360.457 274.778 359.273C274.553 359.033 274.565 358.655 274.805 358.429C275.045 358.203 275.423 358.214 275.649 358.455C276.739 359.617 277.886 360.747 279.056 361.815C279.3 362.037 279.317 362.415 279.094 362.659C278.977 362.788 278.815 362.853 278.653 362.853ZM270.213 353.415C270.028 353.415 269.846 353.33 269.729 353.169C268.98 352.139 268.251 351.07 267.561 349.992C267.375 349.701 267.192 349.409 267.012 349.117C266.838 348.836 266.926 348.468 267.207 348.296C267.487 348.122 267.855 348.21 268.028 348.49C268.205 348.777 268.385 349.063 268.567 349.347C269.244 350.406 269.96 351.455 270.695 352.466C270.889 352.733 270.83 353.106 270.563 353.3C270.457 353.378 270.334 353.415 270.213 353.415ZM263.819 342.481C263.593 342.481 263.376 342.351 263.275 342.132C262.602 340.659 261.978 339.141 261.42 337.62C261.307 337.31 261.465 336.966 261.775 336.853C262.084 336.738 262.428 336.899 262.542 337.208C263.089 338.7 263.701 340.19 264.362 341.635C264.499 341.934 264.367 342.289 264.067 342.426C263.987 342.463 263.902 342.481 263.819 342.481ZM259.747 330.487C259.475 330.487 259.229 330.299 259.165 330.023C258.803 328.445 258.499 326.832 258.259 325.229C258.211 324.903 258.436 324.599 258.762 324.55C259.084 324.501 259.392 324.726 259.441 325.052C259.676 326.626 259.975 328.209 260.329 329.756C260.403 330.077 260.202 330.398 259.881 330.472C259.836 330.482 259.791 330.487 259.747 330.487Z" fill="#80D9FF"/>
<path d="M258.184 317.894C257.86 317.894 257.594 317.635 257.587 317.311C257.569 316.515 257.567 315.704 257.579 314.9C257.584 314.57 257.858 314.32 258.186 314.312C258.516 314.317 258.779 314.589 258.774 314.919C258.761 315.708 258.764 316.503 258.781 317.284C258.789 317.614 258.527 317.887 258.197 317.894C258.193 317.894 258.188 317.894 258.184 317.894Z" fill="#80D9FF"/>
<path d="M273.2 309.053C273.121 309.365 273.248 309.692 273.517 309.868L281.183 314.895C281.106 319.176 281.71 323.501 283.042 327.701L277.129 334.7C276.922 334.945 276.893 335.296 277.057 335.572L282.684 345.021C282.848 345.297 283.17 345.438 283.484 345.373L292.453 343.506C295.512 346.678 299.025 349.269 302.826 351.24L303.593 360.377C303.62 360.697 303.847 360.965 304.159 361.044L314.817 363.746C315.129 363.825 315.456 363.697 315.632 363.428L320.658 355.76C324.938 355.838 329.261 355.234 333.46 353.902L340.458 359.816C340.703 360.023 341.053 360.052 341.329 359.887L350.776 354.26C351.052 354.095 351.193 353.774 351.128 353.459L349.262 344.488C352.433 341.429 355.024 337.915 356.994 334.113L366.129 333.346C366.449 333.319 366.717 333.092 366.795 332.78L369.497 322.119C369.576 321.808 369.448 321.48 369.18 321.304L361.513 316.277C361.591 311.996 360.987 307.672 359.655 303.471L365.568 296.472C365.775 296.227 365.804 295.877 365.639 295.601L360.013 286.152C359.848 285.876 359.527 285.734 359.212 285.8L350.244 287.666C347.185 284.494 343.672 281.903 339.871 279.932L339.104 270.796C339.077 270.476 338.85 270.208 338.538 270.129L327.88 267.427C327.568 267.348 327.241 267.475 327.065 267.744L322.039 275.412C317.759 275.334 313.436 275.939 309.236 277.271L302.239 271.357C301.994 271.149 301.644 271.121 301.368 271.285L291.921 276.913C291.645 277.077 291.504 277.399 291.569 277.714L293.435 286.684C290.264 289.743 287.673 293.258 285.703 297.059L276.568 297.827C276.248 297.854 275.98 298.081 275.901 298.392L273.2 309.053Z" fill="#80D9FF"/>
<path d="M321.35 326.249C321.346 326.249 321.343 326.249 321.343 326.249C318.492 326.246 315.817 325.135 313.805 323.119C311.794 321.104 310.687 318.425 310.69 315.578C310.693 312.73 311.804 310.053 313.82 308.042C317.979 303.888 324.742 303.895 328.894 308.056C330.905 310.071 332.011 312.749 332.009 315.597C332.006 318.445 330.895 321.122 328.88 323.133C326.867 325.142 324.193 326.249 321.35 326.249ZM321.349 306.718C318.984 306.718 316.76 307.638 315.085 309.31C313.409 310.984 312.484 313.21 312.482 315.579C312.48 317.948 313.4 320.176 315.073 321.853C316.747 323.53 318.972 324.454 321.341 324.457C321.344 324.457 321.347 324.457 321.35 324.457C323.715 324.457 325.939 323.536 327.614 321.865C329.29 320.191 330.215 317.965 330.217 315.596C330.219 313.227 329.299 310.998 327.626 309.321C325.952 307.645 323.726 306.72 321.358 306.718L321.349 306.718Z" fill="#B6E9FF"/>
<path d="M321.627 343.054C312.271 343.055 303.143 338.272 298.017 329.665C297.016 327.983 296.194 326.198 295.575 324.36L297.273 323.788C297.852 325.506 298.62 327.176 299.556 328.748C305.239 338.291 316.189 342.805 326.509 340.791C326.529 340.788 326.548 340.784 326.567 340.78C326.587 340.776 326.606 340.772 326.626 340.768C329.403 340.214 332.132 339.186 334.699 337.656C340.582 334.151 344.749 328.565 346.431 321.926C346.964 319.822 347.228 317.692 347.227 315.577C347.226 311.017 346 306.525 343.606 302.505C336.372 290.358 320.607 286.361 308.463 293.597C304.47 295.976 301.202 299.385 299.013 303.456L297.435 302.606C299.777 298.25 303.274 294.602 307.546 292.056C320.539 284.317 337.407 288.592 345.145 301.588C347.706 305.889 349.019 310.695 349.02 315.573C349.02 317.837 348.738 320.115 348.168 322.366C346.368 329.469 341.91 335.447 335.616 339.196C331.229 341.81 326.397 343.054 321.627 343.054Z" fill="#B6E9FF"/>
<path d="M29.9289 31.2324C29.7808 31.2324 29.6319 31.1863 29.5045 31.0899C29.194 30.8552 29.1324 30.4132 29.3671 30.1021C29.9375 29.3482 30.5293 28.5957 31.126 27.866C31.3719 27.5639 31.8166 27.5211 32.1178 27.7662C32.4192 28.0127 32.4637 28.4568 32.2173 28.7583C31.632 29.4743 31.0514 30.213 30.4919 30.953C30.3533 31.1361 30.1423 31.2324 29.9289 31.2324Z" fill="#80D9FF"/>
<path d="M161.69 61.4163C161.36 61.4163 161.066 61.1843 160.999 60.8489C160.626 58.9794 160.175 57.1008 159.656 55.2672C159.55 54.8919 159.768 54.5028 160.143 54.3968C160.516 54.2859 160.907 54.5083 161.013 54.8829C161.542 56.7531 162.002 58.6674 162.382 60.5735C162.458 60.9555 162.21 61.3268 161.828 61.4025C161.781 61.4122 161.735 61.4163 161.69 61.4163ZM157.199 46.9029C156.925 46.9029 156.665 46.7425 156.55 46.4746C155.804 44.7263 154.977 42.9807 154.091 41.2867C153.91 40.941 154.044 40.5155 154.389 40.3351C154.734 40.1534 155.16 40.2883 155.34 40.6326C156.243 42.3596 157.087 44.1389 157.847 45.9211C158 46.2791 157.834 46.6937 157.476 46.8466C157.385 46.885 157.291 46.9029 157.199 46.9029ZM149.839 33.611C149.616 33.611 149.396 33.5057 149.259 33.3081C148.17 31.7388 147.008 30.1964 145.805 28.7235C145.558 28.4219 145.603 27.9777 145.905 27.7312C146.206 27.4854 146.65 27.5288 146.897 27.831C148.123 29.3328 149.307 30.905 150.417 32.5038C150.639 32.8234 150.56 33.2626 150.24 33.4851C150.118 33.5704 149.978 33.611 149.839 33.611ZM38.0858 22.1266C37.8989 22.1266 37.712 22.0523 37.5733 21.9056C37.3062 21.6225 37.3186 21.1764 37.6015 20.9092C39.0115 19.5768 40.4936 18.2815 42.0071 17.0592C42.3094 16.8142 42.7537 16.8616 42.9985 17.1653C43.243 17.4683 43.1955 17.9125 42.8925 18.157C41.4076 19.3558 39.9532 20.627 38.5702 21.9339C38.4337 22.0626 38.2596 22.1266 38.0858 22.1266ZM139.946 22.0853C139.772 22.0853 139.597 22.0213 139.461 21.8919C138.08 20.5821 136.628 19.311 135.146 18.1142C134.843 17.8692 134.796 17.4256 135.04 17.1227C135.285 16.8197 135.729 16.7728 136.032 17.0166C137.542 18.2375 139.023 19.5334 140.431 20.8686C140.714 21.1365 140.726 21.5826 140.458 21.865C140.319 22.0117 140.133 22.0853 139.946 22.0853ZM50.1365 12.8734C49.8999 12.8734 49.6693 12.7548 49.5358 12.5386C49.3314 12.2075 49.4343 11.773 49.7654 11.5684C51.4228 10.5446 53.1364 9.57566 54.8581 8.68807C55.2042 8.50907 55.6296 8.64532 55.8076 8.99175C55.9862 9.33817 55.8503 9.76295 55.5039 9.94139C53.8145 10.8125 52.1329 11.7634 50.5061 12.7681C50.3909 12.8396 50.2628 12.8734 50.1365 12.8734ZM127.904 12.8362C127.778 12.8362 127.651 12.8024 127.535 12.7315C125.918 11.7358 124.236 10.7891 122.535 9.91722C122.188 9.74036 122.051 9.31544 122.229 8.9683C122.406 8.62202 122.831 8.48491 123.178 8.66262C124.911 9.55021 126.626 10.5157 128.274 11.5307C128.606 11.7353 128.709 12.1691 128.505 12.5009C128.372 12.7169 128.141 12.8362 127.904 12.8362ZM63.8064 6.24708C63.5183 6.24708 63.2477 6.06936 63.1439 5.78298C63.011 5.41654 63.1999 5.01249 63.5659 4.87881C65.3929 4.2157 67.2682 3.61664 69.1402 3.0995C69.5151 2.99613 69.9033 3.21516 70.0072 3.59119C70.1109 3.96649 69.8909 4.35481 69.5154 4.45876C67.6797 4.96617 65.8399 5.55365 64.0471 6.20433C63.9675 6.23321 63.8863 6.24708 63.8064 6.24708ZM114.223 6.24565C114.143 6.24565 114.063 6.23249 113.984 6.20361C112.192 5.55765 110.352 4.97303 108.513 4.4669C108.138 4.36368 107.917 3.97593 108.02 3.59991C108.124 3.2246 108.512 3.00428 108.887 3.10765C110.761 3.62279 112.636 4.21841 114.462 4.87738C114.828 5.00963 115.018 5.41311 114.886 5.77941C114.782 6.06736 114.512 6.24565 114.223 6.24565ZM99.4868 2.57407C99.4534 2.57407 99.4198 2.57193 99.3856 2.56721C97.5021 2.29656 95.5811 2.09825 93.6761 1.97572C93.2875 1.95099 92.9929 1.61557 93.0176 1.22654C93.0427 0.838219 93.3835 0.553843 93.7662 0.568284C95.7079 0.692957 97.6659 0.896126 99.5859 1.17078C99.9711 1.22654 100.239 1.58326 100.184 1.96886C100.133 2.32058 99.8316 2.57407 99.4868 2.57407ZM78.5422 2.56235C78.1969 2.56235 77.8953 2.30828 77.8452 1.95642C77.7904 1.57154 78.0582 1.2141 78.4438 1.15906C80.3672 0.884974 82.3255 0.68395 84.2638 0.562136C84.6583 0.555273 84.9874 0.83336 85.0118 1.22182C85.0363 1.61014 84.7412 1.94484 84.3526 1.96958C82.4509 2.08939 80.5298 2.28641 78.6426 2.55563C78.6089 2.5602 78.5755 2.56235 78.5422 2.56235Z" fill="#80D9FF"/>
<path d="M163.078 73.5947C162.699 73.5947 162.386 73.2931 162.374 72.911C162.346 71.9864 162.3 71.0487 162.236 70.1235C162.209 69.7353 162.503 69.3986 162.891 69.3718C163.278 69.3635 163.616 69.6389 163.643 70.0271C163.707 70.9696 163.755 71.9258 163.783 72.8684C163.795 73.2573 163.49 73.5822 163.1 73.5947C163.093 73.5947 163.086 73.5947 163.078 73.5947Z" fill="#80D9FF"/>
<path d="M142.225 127.499C142.048 127.499 141.871 127.433 141.734 127.3C141.455 127.029 141.449 126.582 141.72 126.303C142.37 125.634 143.011 124.948 143.626 124.263C143.886 123.975 144.332 123.951 144.621 124.21C144.911 124.47 144.935 124.916 144.674 125.206C144.047 125.903 143.394 126.603 142.731 127.285C142.593 127.428 142.409 127.499 142.225 127.499Z" fill="#80D9FF"/>
<path d="M89.105 150.015L88.4665 150.012C88.0771 150.008 87.7646 149.689 87.7683 149.3C87.7722 148.913 88.0871 148.602 88.4733 148.602H88.4802L89.1049 148.605C90.7698 148.605 92.459 148.547 94.1253 148.433C94.5156 148.424 94.8501 148.7 94.8767 149.088C94.9031 149.477 94.61 149.813 94.2216 149.84C92.5233 149.956 90.802 150.015 89.105 150.015ZM79.2363 149.356C79.205 149.356 79.1733 149.354 79.1417 149.35C77.2493 149.096 75.3411 148.765 73.4703 148.367C73.0897 148.286 72.8465 147.911 72.9279 147.531C73.009 147.149 73.3818 146.91 73.7643 146.987C75.5997 147.378 77.4723 147.703 79.3291 147.952C79.7149 148.004 79.9859 148.359 79.9341 148.744C79.8865 149.099 79.5839 149.356 79.2363 149.356ZM103.355 148.628C103.025 148.628 102.73 148.395 102.664 148.059C102.589 147.677 102.838 147.306 103.22 147.231C105.062 146.869 106.911 146.429 108.715 145.927C109.089 145.82 109.479 146.041 109.584 146.416C109.688 146.792 109.469 147.18 109.094 147.285C107.254 147.798 105.37 148.245 103.492 148.615C103.446 148.624 103.4 148.628 103.355 148.628ZM64.6957 145.895C64.6189 145.895 64.5409 145.883 64.4644 145.856C62.6552 145.228 60.8518 144.523 59.104 143.761C58.7473 143.605 58.5842 143.189 58.7397 142.832C58.8947 142.475 59.3098 142.311 59.6674 142.467C61.3823 143.215 63.1519 143.907 64.9271 144.524C65.2948 144.652 65.4896 145.054 65.3619 145.421C65.2606 145.713 64.9876 145.895 64.6957 145.895ZM117.653 144.265C117.378 144.265 117.116 144.103 117.003 143.833C116.853 143.474 117.021 143.061 117.38 142.91C119.102 142.187 120.824 141.384 122.499 140.523C122.845 140.344 123.271 140.481 123.449 140.828C123.627 141.174 123.49 141.599 123.144 141.777C121.436 142.655 119.681 143.473 117.926 144.21C117.837 144.248 117.744 144.265 117.653 144.265ZM51.1428 139.596C51.0203 139.596 50.8964 139.564 50.7835 139.497C49.1425 138.522 47.5178 137.469 45.954 136.368C45.6356 136.144 45.5592 135.704 45.7832 135.386C46.0076 135.067 46.4469 134.991 46.7655 135.215C48.2997 136.295 49.8938 137.328 51.5033 138.285C51.8382 138.484 51.9481 138.916 51.7495 139.251C51.6178 139.473 51.3834 139.596 51.1428 139.596ZM130.784 137.118C130.559 137.118 130.337 137.01 130.201 136.81C129.982 136.488 130.065 136.049 130.386 135.83C131.936 134.773 133.465 133.643 134.929 132.472C135.234 132.229 135.676 132.279 135.92 132.583C136.163 132.887 136.114 133.331 135.81 133.574C134.317 134.767 132.76 135.918 131.181 136.995C131.059 137.078 130.921 137.118 130.784 137.118ZM39.1386 130.698C38.9692 130.698 38.7988 130.637 38.6639 130.513C37.2556 129.229 35.8768 127.869 34.5651 126.472C34.2987 126.188 34.3129 125.742 34.5964 125.476C34.8798 125.209 35.3262 125.221 35.593 125.507C36.8798 126.878 38.2329 128.211 39.6138 129.472C39.9016 129.734 39.9219 130.18 39.6597 130.468C39.5206 130.621 39.33 130.698 39.1386 130.698ZM29.1762 119.557C28.9584 119.557 28.7436 119.457 28.6055 119.267C27.7215 118.051 26.8603 116.79 26.0462 115.517C25.827 115.174 25.6108 114.829 25.3981 114.485C25.1937 114.153 25.2967 113.719 25.6281 113.515C25.9589 113.309 26.3933 113.414 26.5981 113.744C26.8067 114.083 27.0188 114.42 27.2339 114.756C28.0333 116.006 28.8782 117.244 29.7457 118.438C29.975 118.752 29.9051 119.193 29.5905 119.422C29.465 119.513 29.3198 119.557 29.1762 119.557ZM21.6295 106.651C21.362 106.651 21.1066 106.498 20.9878 106.239C20.1931 104.5 19.4561 102.709 18.7975 100.914C18.6636 100.548 18.8513 100.142 19.2168 100.009C19.5813 99.8732 19.9868 100.062 20.1213 100.428C20.7671 102.189 21.4903 103.947 22.2703 105.653C22.4321 106.006 22.2762 106.425 21.9222 106.587C21.8275 106.63 21.7277 106.651 21.6295 106.651ZM16.8228 92.4942C16.5017 92.4942 16.2111 92.2731 16.1364 91.9467C15.7091 90.0848 15.3495 88.1808 15.0673 86.2878C15.0101 85.9029 15.2756 85.544 15.6608 85.4863C16.0409 85.4291 16.4047 85.6942 16.4621 86.0799C16.7389 87.937 17.0918 89.8052 17.5106 91.6313C17.5978 92.0108 17.3605 92.3895 16.9812 92.4761C16.9281 92.4886 16.8752 92.4942 16.8228 92.4942Z" fill="#80D9FF"/>
<path d="M14.9738 77.6283C14.5917 77.6283 14.2778 77.3226 14.2695 76.9391C14.2485 76.0002 14.2453 75.0433 14.2602 74.0939C14.2663 73.7042 14.5892 73.4089 14.9762 73.3999C15.3656 73.406 15.6763 73.7269 15.6702 74.1159C15.6553 75.0473 15.6584 75.9864 15.6787 76.9075C15.6877 77.2972 15.3793 77.6194 14.99 77.6284C14.9845 77.6283 14.9792 77.6283 14.9738 77.6283Z" fill="#80D9FF"/>
<path d="M32.7011 67.1956C32.6079 67.5633 32.7583 67.9498 33.0754 68.1576L42.1243 74.0909C42.0325 79.1442 42.7458 84.2484 44.3177 89.2063L37.339 97.4675C37.0942 97.7571 37.0603 98.1705 37.2543 98.4963L43.8955 109.649C44.0897 109.975 44.4692 110.142 44.8403 110.065L55.4266 107.862C59.0364 111.606 63.1835 114.664 67.6696 116.99L68.5757 127.775C68.6075 128.153 68.8754 128.469 69.2431 128.562L81.8236 131.751C82.1914 131.844 82.5778 131.694 82.7855 131.377L88.7176 122.326C93.7696 122.418 98.8727 121.704 103.829 120.132L112.089 127.112C112.378 127.357 112.792 127.391 113.117 127.197L124.268 120.554C124.594 120.36 124.761 119.98 124.683 119.609L122.481 109.021C126.224 105.41 129.282 101.262 131.607 96.7748L142.389 95.8686C142.767 95.8367 143.083 95.5686 143.176 95.2009L146.365 82.6176C146.458 82.2497 146.308 81.8634 145.99 81.6555L136.942 75.7221C137.033 70.669 136.32 65.5647 134.748 60.6068L141.727 52.3454C141.972 52.0557 142.006 51.6427 141.812 51.3167L135.17 40.1636C134.976 39.8378 134.597 39.6708 134.226 39.7481L123.639 41.9512C120.03 38.2073 115.882 35.1488 111.396 32.8227L110.49 22.0386C110.459 21.6605 110.19 21.3442 109.823 21.2511L97.2422 18.0619C96.8747 17.9689 96.4882 18.119 96.2804 18.4362L90.3484 27.4869C85.2963 27.3951 80.1933 28.1087 75.2366 29.681L66.977 22.7006C66.6877 22.4558 66.2744 22.4218 65.9485 22.6161L54.7982 29.2588C54.4725 29.4528 54.3056 29.8324 54.3827 30.2039L56.5851 40.7925C52.8422 44.4031 49.7845 48.5513 47.4589 53.0381L36.6771 53.9446C36.2991 53.9763 35.9831 54.2444 35.8897 54.6121L32.7011 67.1956Z" fill="#80D9FF"/>
<path d="M89.5326 87.4906C89.5326 87.4906 89.5248 87.4906 89.5206 87.4906C86.1601 87.4872 83.0019 86.1754 80.6278 83.7963C78.2537 81.4172 76.9477 78.2559 76.9512 74.8949C76.9543 71.5332 78.2661 68.374 80.6446 65.9996C85.5546 61.0968 93.537 61.1051 98.4373 66.0161C100.811 68.3952 102.117 71.5565 102.114 74.9175C102.111 78.2793 100.799 81.4385 98.4205 83.8128C96.0449 86.1843 92.8889 87.4906 89.5326 87.4906ZM89.5323 64.4372C86.7401 64.4372 84.1151 65.5238 82.1385 67.4967C80.1595 69.4723 79.0684 72.0999 79.066 74.8963C79.0633 77.6928 80.1496 80.3231 82.1244 82.3021C84.0996 84.2812 86.727 85.3725 89.5228 85.3753C89.5259 85.3753 89.5296 85.3753 89.5296 85.3753C92.3251 85.3753 94.9501 84.2887 96.9266 82.3158C98.9055 80.3404 99.9967 77.7126 99.9991 74.9162C100.002 72.1198 98.9155 69.4893 96.9407 67.5103C94.9657 65.5314 92.3381 64.4399 89.5425 64.4371C89.5392 64.4372 89.5353 64.4372 89.5323 64.4372Z" fill="#B6E9FF"/>
<path d="M89.858 107.326C78.8148 107.327 68.0404 101.682 61.9905 91.5224C60.8088 89.5378 59.8388 87.4308 59.1084 85.2603L61.1124 84.5855C61.7957 86.614 62.7024 88.5842 63.8073 90.4398C70.5152 101.704 83.4402 107.033 95.6214 104.655C95.6442 104.651 95.6669 104.646 95.6896 104.642C95.7134 104.637 95.7358 104.633 95.7595 104.628C99.0369 103.973 102.258 102.76 105.289 100.955C112.233 96.8182 117.15 90.2242 119.136 82.3881C119.765 79.9044 120.076 77.3903 120.076 74.8934C120.075 69.5114 118.627 64.2091 115.802 59.4648C107.263 45.1269 88.6553 40.4093 74.3207 48.9493C69.6073 51.7573 65.75 55.7816 63.1664 60.5865L61.3041 59.584C64.0689 54.4422 68.1961 50.1364 73.2385 47.1314C88.5744 37.9965 108.484 43.0419 117.619 58.3823C120.642 63.4586 122.19 69.1313 122.192 74.8892C122.192 77.561 121.859 80.2506 121.186 82.9072C119.062 91.2915 113.8 98.3469 106.371 102.772C101.191 105.858 95.4891 107.326 89.858 107.326Z" fill="#B6E9FF"/>
<path d="M171.277 295.798L164.239 358.933H245.892L235.257 295.798H171.277Z" fill="url(#paint0_linear_372_684)"/>
<path d="M0 108.96V282.638C0 296.926 11.3827 308.609 25.662 308.977C89.0835 310.613 310.901 314.58 371.274 313.689C381.65 313.536 390.056 305.231 390.355 294.855C391.52 254.508 393.41 157.485 386.413 112.441C384.94 102.955 376.935 95.8617 367.342 95.5548C314.203 93.8544 79.0624 88.4552 18.7178 89.8108C8.31035 90.0445 0 98.5478 0 108.96Z" fill="url(#paint1_linear_372_684)"/>
<path d="M10.8955 108.114V273.12C10.8955 281.462 17.5902 288.259 25.9291 288.384L362.588 292.544C370.856 292.668 377.632 286.015 377.663 277.744L378.226 114.213C378.248 108.299 373.538 103.454 367.628 103.31L22.9515 96.3454C16.3412 96.1844 10.8955 101.5 10.8955 108.114Z" fill="#2C68F2"/>
<path d="M380.198 299.323H380.19L10.8876 293.029C10.621 293.024 10.4084 292.805 10.4132 292.538C10.4179 292.272 10.6483 292.075 10.9036 292.064L380.206 298.358C380.472 298.363 380.685 298.582 380.68 298.849C380.675 299.112 380.46 299.323 380.198 299.323Z" fill="#80D9FF"/>
<path d="M199.189 307.011C196.805 307.011 194.864 305.071 194.864 302.685C194.864 300.3 196.805 298.359 199.189 298.359C201.574 298.359 203.514 300.3 203.514 302.685C203.514 305.071 201.574 307.011 199.189 307.011ZM199.189 299.324C197.336 299.324 195.829 300.832 195.829 302.685C195.829 304.538 197.336 306.046 199.189 306.046C201.042 306.046 202.549 304.538 202.549 302.685C202.549 300.832 201.042 299.324 199.189 299.324Z" fill="#80D9FF"/>
<path d="M263.482 371.847H143.977C140.731 371.847 138.292 369.535 138.92 367.052L140.454 360.986C140.915 359.162 142.921 357.823 145.304 357.748L260.512 354.153C263.001 354.075 265.206 355.397 265.748 357.293L268.513 366.954C269.231 369.465 266.781 371.847 263.482 371.847Z" fill="url(#paint2_linear_372_684)"/>
<path d="M208.311 359.486C208.047 359.486 207.832 359.275 207.828 359.011C207.824 358.744 208.037 358.525 208.303 358.521L213.24 358.449H213.247C213.511 358.449 213.726 358.66 213.73 358.924C213.733 359.191 213.521 359.41 213.254 359.414L208.318 359.486H208.311Z" fill="#80D9FF"/>
<path d="M143.347 368.598C143.322 368.598 143.296 368.596 143.271 368.592C143.007 368.55 142.828 368.302 142.87 368.039L143.575 363.627C143.96 361.212 146.015 359.433 148.46 359.397L200.822 358.631C201.097 358.618 201.308 358.84 201.311 359.106C201.315 359.373 201.102 359.592 200.836 359.596L148.474 360.362C146.499 360.39 144.839 361.828 144.527 363.779L143.823 368.191C143.785 368.428 143.58 368.598 143.347 368.598Z" fill="#80D9FF"/>
<path opacity="0.03" d="M353.361 110.924L31.6318 106.962C26.5621 106.9 22.4388 111.049 22.3665 116.237L20.2988 266.101C20.2275 271.223 24.1821 275.462 29.1843 275.639L352.738 287.09C357.239 287.249 361.457 285.531 364.696 282.328C367.935 279.126 369.611 274.715 369.611 270.106V127.917C369.611 118.611 362.454 111.036 353.361 110.924Z" fill="#2C68F2"/>
<path d="M29.1444 102.773H193.618C198.102 102.773 201.715 107.312 201.633 112.844L199.319 270.276C199.21 277.686 194.271 283.595 188.266 283.502L28.9673 281.036C24.5773 280.968 21.0482 276.556 21.0508 271.14L21.1273 112.659C21.1301 107.198 24.7187 102.773 29.1444 102.773Z" fill="#20BDFF"/>
<path d="M31.7454 107.416H189.678C193.984 107.416 197.453 111.766 197.375 117.068L195.153 267.954C195.048 275.055 190.306 280.719 184.539 280.63L31.5753 278.266C27.3599 278.201 23.9711 273.973 23.9736 268.781L24.0471 116.89C24.0497 111.656 27.4956 107.416 31.7454 107.416Z" fill="#80D9FF"/>
<path d="M140.477 125.599C140.461 125.599 140.444 125.599 140.428 125.599L36.13 124.436C33.2891 124.404 30.9774 122.157 30.977 119.427L30.9766 115.337C30.9761 114.261 31.4128 113.252 32.206 112.494C32.9903 111.746 34.0305 111.334 35.1346 111.334H141.184C142.307 111.334 143.38 111.797 144.127 112.604C144.844 113.379 145.194 114.375 145.114 115.411L144.613 121.902C144.453 123.984 142.64 125.599 140.477 125.599ZM35.1346 112.781C34.404 112.781 33.719 113.051 33.2056 113.542C32.701 114.023 32.4236 114.66 32.4236 115.336L32.424 119.427C32.4244 121.368 34.094 122.965 36.1459 122.988L140.444 124.151C140.455 124.152 140.466 124.152 140.477 124.152C141.888 124.152 143.068 123.12 143.171 121.791L143.671 115.299C143.72 114.671 143.504 114.063 143.064 113.588C142.59 113.075 141.905 112.782 141.184 112.782H35.1346V112.781Z" fill="white"/>
<path opacity="0.4" d="M139.204 123.406L38.026 122.554C35.6408 122.534 33.7218 121.135 33.7214 119.416L33.7207 116.42C33.7204 115.094 35.2122 114.019 37.0525 114.019H139.929C141.743 114.019 143.175 115.129 143.042 116.433L142.556 121.188C142.427 122.449 140.959 123.421 139.204 123.406Z" fill="white"/>
<path opacity="0.59" d="M173.848 140.967H31.7404C30.7975 140.967 30.0332 140.125 30.0332 139.085V134.05C30.0332 133.004 30.8067 132.159 31.7554 132.168L173.864 133.553C174.8 133.563 175.556 134.403 175.556 135.436V139.085C175.556 140.125 174.791 140.967 173.848 140.967Z" fill="white"/>
<path opacity="0.4" d="M185.093 175.252L35.4381 173.256C32.7772 173.22 30.6387 171.053 30.6387 168.391V147.838C30.6387 145.101 32.8729 142.89 35.6095 142.919L184.83 144.515C187.773 144.547 190.142 146.942 190.142 149.886V170.269C190.142 173.048 187.871 175.289 185.093 175.252Z" fill="white"/>
<path opacity="0.59" d="M160.932 190.553H31.5281C30.6696 190.553 29.9736 189.71 29.9736 188.67V183.636C29.9736 182.59 30.6781 181.744 31.5418 181.753L160.946 183.139C161.799 183.148 162.487 183.988 162.487 185.021V188.671C162.487 189.71 161.791 190.553 160.932 190.553Z" fill="white"/>
<path opacity="0.4" d="M185.035 227.91L35.3795 225.724C32.7186 225.685 30.5801 223.311 30.5801 220.397V197.892C30.5801 194.894 32.8143 192.473 35.5509 192.505L184.771 194.253C187.714 194.288 190.083 196.91 190.083 200.134V222.454C190.083 225.496 187.812 227.951 185.035 227.91Z" fill="white"/>
<path opacity="0.59" d="M188.869 244.056H32.1589C31.1193 244.056 30.2764 243.214 30.2764 242.174V237.139C30.2764 236.093 31.1294 235.248 32.1755 235.257L188.885 236.642C189.918 236.652 190.751 237.491 190.751 238.525V242.174C190.751 243.214 189.908 244.056 188.869 244.056Z" fill="white"/>
<path opacity="0.4" d="M185.34 276.776L35.6852 274.876C33.0243 274.842 30.8857 272.779 30.8857 270.247V250.69C30.8857 248.086 33.1199 245.982 35.8565 246.01L185.077 247.528C188.02 247.558 190.389 249.838 190.389 252.639V272.034C190.389 274.678 188.118 276.811 185.34 276.776Z" fill="white"/>
<path d="M228.353 60.1904H389.543C393.938 60.1904 397.478 64.6772 397.399 70.1461L395.131 225.78C395.024 233.105 390.184 238.947 380.277 238.855L230.217 236.511C225.003 236.43 220.635 232.344 220.431 227.132C220.424 226.967 220.421 226.801 220.421 226.633L220.496 69.9631C220.498 64.5649 224.015 60.1904 228.353 60.1904Z" fill="#20BDFF"/>
<path d="M231.908 64.4043H386.688C390.908 64.4043 394.308 68.6674 394.231 73.8637L392.054 221.738C391.951 228.698 387.303 234.249 381.651 234.161L231.741 231.845C227.61 231.781 224.289 227.637 224.291 222.549L224.363 73.6898C224.365 68.5607 227.743 64.4043 231.908 64.4043Z" fill="#B6E9FF"/>
<path d="M379.085 94.31H237.368C235.633 94.31 234.227 92.9031 234.227 91.1677V83.5216C234.227 81.7007 235.702 80.2246 237.523 80.2246H378.529C380.305 80.2246 381.745 81.6648 381.745 83.4412V91.6502C381.744 93.1191 380.554 94.31 379.085 94.31Z" fill="#20BDFF"/>
<path opacity="0.27" d="M369.801 90.0226H315.735C314.844 90.3577 314.121 89.5575 314.121 88.5702V85.9209C314.121 84.9337 314.844 84.1333 315.735 84.1333H369.801C370.693 84.1333 371.415 84.9337 371.415 85.9209V88.5702C371.415 89.5573 370.693 90.3577 369.801 90.0226Z" fill="white"/>
<path d="M340.251 164.313C340.251 168.021 337.249 171.03 333.542 171.037L239.384 171.231C236.923 171.231 234.928 169.19 234.928 166.673V116.639C234.928 114.093 236.965 112.041 239.453 112.081L335.864 113.615C338.298 113.653 340.251 115.683 340.251 118.173L340.251 164.313Z" fill="#20BDFF"/>
<path d="M328.198 225.904L287.911 225.569C286.55 225.558 285.456 224.445 285.467 223.083L285.802 182.724C285.813 181.387 286.888 180.303 288.224 180.279L328.007 181.034C329.692 181.066 331.037 182.449 331.023 184.135L330.684 223.459C330.673 224.821 329.56 225.915 328.198 225.904Z" fill="#80D9FF"/>
<path d="M276.958 225.904L236.671 225.569C235.31 225.558 234.215 224.445 234.227 223.083L234.562 182.724C234.573 181.387 235.647 180.303 236.984 180.279L276.767 181.034C278.452 181.066 279.797 182.449 279.782 184.135L279.444 223.459C279.432 224.821 278.319 225.915 276.958 225.904Z" fill="#80D9FF"/>
<path d="M378.921 226.858L338.634 226.523C337.273 226.512 336.178 225.399 336.19 224.037L336.525 183.678C336.536 182.341 337.61 181.257 338.947 181.233L378.73 181.988C380.415 182.02 381.76 183.403 381.745 185.089L381.406 224.413C381.395 225.775 380.282 226.869 378.921 226.858Z" fill="#80D9FF"/>
<path d="M378.358 173.481H349.23C347.359 173.481 345.843 171.955 345.843 170.071V116.838C345.843 115.256 347.073 113.971 348.595 113.962L378.506 113.793C380.317 113.873 381.745 115.375 381.745 117.201V170.071C381.745 171.955 380.228 173.481 378.358 173.481Z" fill="#80D9FF"/>
<path d="M268.056 77.1856C265.444 77.1856 263.319 75.0601 263.319 72.4477C263.319 69.8353 265.444 67.71 268.056 67.71C270.668 67.71 272.793 69.8353 272.793 72.4477C272.793 75.06 270.668 77.1856 268.056 77.1856ZM268.056 68.6749C265.976 68.6749 264.284 70.3674 264.284 72.4475C264.284 74.528 265.976 76.2205 268.056 76.2205C270.136 76.2205 271.828 74.528 271.828 72.4475C271.828 70.3674 270.136 68.6749 268.056 68.6749Z" fill="white"/>
<path d="M253.332 77.5306C250.721 77.5306 248.596 75.4053 248.596 72.7929C248.596 70.1805 250.721 68.0552 253.332 68.0552C255.944 68.0552 258.069 70.1805 258.069 72.7929C258.069 75.4053 255.944 77.5306 253.332 77.5306ZM253.332 69.0203C251.253 69.0203 249.561 70.7126 249.561 72.7929C249.561 74.8732 251.253 76.5656 253.332 76.5656C255.412 76.5656 257.104 74.873 257.104 72.7929C257.104 70.7128 255.412 69.0203 253.332 69.0203Z" fill="white"/>
<path d="M239.182 77.5306C236.57 77.5306 234.445 75.4053 234.445 72.7929C234.445 70.1805 236.57 68.0552 239.182 68.0552C241.794 68.0552 243.919 70.1805 243.919 72.7929C243.919 75.4053 241.794 77.5306 239.182 77.5306ZM239.182 69.0203C237.102 69.0203 235.41 70.7126 235.41 72.7929C235.41 74.8732 237.102 76.5656 239.182 76.5656C241.262 76.5656 242.954 74.873 242.954 72.7929C242.954 70.7128 241.262 69.0203 239.182 69.0203Z" fill="white"/>
<path d="M289.782 151.562C283.515 151.562 278.426 146.472 278.426 140.215C278.426 133.947 283.515 128.856 289.77 128.856C296.037 128.856 301.126 133.947 301.126 140.203V140.215C301.126 146.472 296.037 151.562 289.782 151.562ZM289.782 129.527C283.884 129.527 279.096 134.316 279.096 140.203C279.096 146.102 283.884 150.891 289.77 150.891C295.667 150.891 300.456 146.102 300.456 140.215V140.203C300.456 134.316 295.667 129.527 289.782 129.527Z" fill="white"/>
<path d="M286.646 145.911C286.329 145.911 286.067 145.658 286.059 145.339L285.79 135.316C285.782 134.986 285.941 134.68 286.218 134.499C286.494 134.318 286.837 134.293 287.137 134.433L297.035 139.064C297.362 139.217 297.571 139.536 297.58 139.896C297.59 140.257 297.398 140.586 297.08 140.756L288.342 145.415C288.056 145.568 287.7 145.459 287.548 145.173C287.395 144.887 287.503 144.531 287.79 144.378L296.123 139.935L286.975 135.655L287.233 145.307C287.242 145.632 286.986 145.902 286.662 145.911C286.656 145.911 286.651 145.911 286.646 145.911Z" fill="white"/>
<path d="M161.031 66.5794C176.367 43.1611 207.811 34.6288 227.269 38.1797L231.173 47.2882C211.326 50.4698 197.373 54.0549 186.961 71.2924C186.397 72.227 185.32 72.725 184.244 72.5406L161.97 68.7201C160.98 68.5503 160.481 67.4195 161.031 66.5794Z" fill="#04D0BE"/>
<path d="M222.573 25.0672L249.338 36.95C251.174 37.7654 251.28 40.333 249.517 41.2963L226.064 54.1095C225.316 54.4431 224.458 53.9627 224.35 53.1504L220.768 26.0586C220.636 25.0595 221.801 24.4197 222.573 25.0672Z" fill="#04D0BE"/>
<path d="M92.9214 388.535H97.6689V337.182H92.9214V388.535Z" fill="#80D9FF"/>
<path d="M74.5059 389.528H116.087V386.708C116.087 386.558 115.966 386.437 115.816 386.437H74.7983C74.6368 386.437 74.506 386.568 74.506 386.729V389.528H74.5059Z" fill="#80D9FF"/>
<path d="M66.6416 335.29C66.6416 338.274 69.0833 340.717 72.0675 340.717H116.777C119.762 340.717 122.203 338.274 122.203 335.29V330.382C122.203 327.397 119.762 324.955 116.777 324.955H72.0675C69.0832 324.955 66.6416 327.397 66.6416 330.382V335.29Z" fill="#80D9FF"/>
<path d="M121.738 379.439C121.738 379.439 135.294 389.213 132.94 395.779C132.94 395.779 118.108 389.378 116.316 384.336C114.524 379.294 116.619 377.066 116.619 377.066L121.738 379.439Z" fill="url(#paint3_linear_372_684)"/>
<path d="M119.7 371.246L117.483 377.655C117.149 378.623 117.483 379.724 118.348 380.271C118.781 380.545 119.374 380.798 120.183 380.981C121.325 381.24 122.504 380.713 123.053 379.678L125.704 374.684L119.7 371.246Z" fill="url(#paint4_linear_372_684)"/>
<path d="M98.13 313.556C98.13 313.556 125.975 318.383 137.92 329.419C149.864 340.456 126.956 375.661 126.956 375.661C126.956 375.661 123.203 375.638 118.655 371.739C118.655 371.739 132.237 345.261 120.532 337.54C107.371 328.859 92.2051 326.904 92.2051 326.904L97.8609 314.407L98.13 313.556Z" fill="url(#paint5_linear_372_684)"/>
<path d="M130.584 392.148C127.602 390.767 119.161 384.857 117.738 384.596C116.315 384.336 113.847 386.008 113.847 386.008C113.847 386.008 113.246 387.088 113.888 388.972C115.87 391.37 120.269 395.941 126.183 397.645C130.534 398.898 133.577 397.73 135.472 396.363C134.429 394.774 132.57 393.067 130.584 392.148Z" fill="url(#paint6_linear_372_684)"/>
<path d="M126.187 397.644C120.272 395.94 115.873 391.369 113.892 388.971C114.326 390.244 115.326 391.883 117.464 393.806C122.767 398.573 132.894 400.291 135.051 399.96C136.779 399.695 136.616 398.099 135.475 396.362C133.58 397.729 130.537 398.897 126.187 397.644Z" fill="url(#paint7_linear_372_684)"/>
<path d="M111.32 381.836C111.354 382.658 113.033 385.476 114.014 387.057C114.48 387.808 115.298 388.267 116.182 388.27C116.743 388.271 117.387 388.222 117.973 388.054C118.851 387.802 119.345 386.865 119.088 385.988L117.17 379.438L111.32 381.836Z" fill="url(#paint8_linear_372_684)"/>
<path d="M71.3246 305.193C71.3246 305.193 65.1406 321.732 71.3246 326.762C77.5085 331.792 92.2608 337.454 95.5562 347.472C98.8516 357.49 104.444 376.959 111.928 383.854C111.928 383.854 117.187 383.345 119.154 381.249C119.154 381.249 114.892 352.185 112.081 344.727C109.646 338.269 106.059 328.947 99.1854 323.737C97.2176 322.245 97.5604 319.883 98.4728 317.588L100.134 313.409L71.3246 305.193Z" fill="url(#paint9_linear_372_684)"/>
<path d="M135.821 292.23C125.452 292.855 128.683 276.287 128.87 275.627L113.133 286.746C113.133 286.746 113.966 295.606 127.05 300.254C130.36 301.43 133.386 301.482 136.061 300.907C134.92 297.58 135.152 294.594 135.821 292.23Z" fill="url(#paint10_linear_372_684)"/>
<path d="M155.869 287.243C152.005 284.555 147.628 287.243 147.628 287.243C142.462 290.623 138.64 292.06 135.82 292.23C135.151 294.594 134.92 297.58 136.06 300.907C141.848 299.662 145.988 295.473 147.788 293.323C148.435 292.549 149.582 292.415 150.374 293.04C151.179 293.676 151.96 294.546 151.819 295.462C151.539 297.268 153.635 297.842 153.792 297.187C153.95 296.532 153.076 292.649 153.076 292.649C153.076 292.649 157.266 296.864 158.902 298.483C160.538 300.103 162.595 298.483 162.595 298.483C162.595 298.483 159.733 289.931 155.869 287.243Z" fill="url(#paint11_linear_372_684)"/>
<path d="M87.4754 250.04C87.4754 250.04 102.56 243.999 130.633 267.181C130.633 267.181 132.978 272.035 130.42 276.357C127.862 280.678 103.488 301.733 100.138 313.409C100.138 313.409 85.6168 318.128 70.5996 306.937C70.5996 306.937 71.925 274.441 87.4754 250.04Z" fill="url(#paint12_linear_372_684)"/>
<path d="M117.294 244.651L109.868 253.655C109.131 254.549 108.968 255.793 109.478 256.833C110.509 258.936 112.955 261.998 118.378 261.575C119.992 261.449 121.421 260.475 122.126 259.018L127.318 248.282L117.294 244.651Z" fill="url(#paint13_linear_372_684)"/>
<path d="M75.794 288.603C74.0429 281.469 91.7805 265.566 91.7805 265.566L87.4728 250.039C87.4728 250.039 49.1716 275.542 58.9322 296.051C60.3315 298.991 62.1898 301.051 64.3446 302.428C67.4287 294.124 72.3436 290.316 75.794 288.603Z" fill="url(#paint14_linear_372_684)"/>
<path d="M102.66 287.991C102.66 287.991 81.63 296.158 76.4968 290.015C76.1487 289.598 75.9217 289.124 75.7944 288.605C72.3439 290.319 67.4288 294.127 64.3447 302.43C75.4054 309.5 94.311 298.498 99.4231 295.254C100.264 294.721 101.273 294.534 102.248 294.736C104.22 295.145 107.626 295.746 109.463 295.463C112.15 295.049 116.01 304.531 120.366 301.606C120.366 301.606 116.636 285.125 102.66 287.991Z" fill="url(#paint15_linear_372_684)"/>
<path d="M135.228 236.603C135.228 236.603 134.137 246.323 132.017 250.533C129.896 254.742 129.252 257.895 124.064 256.002C118.875 254.108 116.255 249.471 116.442 244.169C116.442 244.169 116.674 235.966 118.906 233.838C121.138 231.709 135.228 236.603 135.228 236.603Z" fill="url(#paint16_linear_372_684)"/>
<path d="M119.735 242.174L120.331 242.517C120.331 242.517 120.775 236.064 123.443 236.421C126.11 236.778 135.662 239.957 139.253 237.985C142.715 236.084 143.303 231.393 141.539 228.969C141.428 228.816 141.21 228.785 141.05 228.886L140.639 229.145C140.358 229.322 140.004 229.067 140.083 228.744C140.158 228.438 139.838 228.177 139.559 228.325C138.473 228.908 136.095 229.503 131.559 227.899C125.123 225.622 119.921 225.763 117.511 229.73C117.359 229.982 117.006 229.965 116.864 229.708C116.585 229.198 115.969 228.68 114.605 228.923C112.235 229.347 110.882 233.209 112.734 238.093C112.822 238.325 112.671 238.584 112.424 238.597C111.551 238.645 110.038 239.084 111.736 241.807C113.473 244.593 115.042 245.302 115.684 245.481C115.857 245.529 116.038 245.45 116.118 245.289L117.949 241.598C118.044 241.407 118.28 241.336 118.464 241.442L119.735 242.174Z" fill="url(#paint17_linear_372_684)"/>
<path d="M119.453 243.005C119.453 243.005 121.02 237.297 117.993 237.408C114.966 237.518 115.946 243.635 117.628 244.851L119.453 243.005Z" fill="url(#paint18_linear_372_684)"/>
<path d="M113.434 304.095C113.468 304.097 113.502 304.098 113.536 304.097L157.66 304.049C158.751 304.048 159.634 303.163 159.633 302.072C159.632 300.98 158.744 300.079 157.656 300.098L113.531 300.147C112.441 300.147 111.557 301.033 111.559 302.124C111.56 303.181 112.391 304.043 113.434 304.095Z" fill="url(#paint19_linear_372_684)"/>
<path d="M197.326 264.023H160.579C157.869 264.023 155.401 265.588 154.245 268.041L137.257 304.071H182.923C184.67 304.071 186.24 303.003 186.882 301.378L200.055 268.038C200.817 266.111 199.397 264.023 197.326 264.023Z" fill="url(#paint20_linear_372_684)"/>
<path d="M171.439 282.499C170.643 284.973 171.231 287.377 172.753 287.866C174.275 288.356 176.154 286.748 176.951 284.273C177.747 281.799 177.159 279.395 175.637 278.905C174.115 278.415 172.235 280.024 171.439 282.499Z" fill="#2C68F2"/>
<path d="M191.368 398.754C191.612 398.754 191.861 398.707 192.1 398.608C193.04 398.216 193.475 397.16 193.07 396.249L154.183 308.71C153.779 307.799 152.689 307.379 151.747 307.77C150.806 308.162 150.372 309.218 150.776 310.129L189.664 397.668C189.965 398.347 190.649 398.754 191.368 398.754Z" fill="#20BDFF"/>
<path d="M147.561 398.755C148.279 398.755 148.963 398.348 149.265 397.668L188.152 310.129C188.557 309.218 188.122 308.162 187.182 307.77C186.242 307.378 185.151 307.799 184.746 308.71L145.858 396.249C145.454 397.16 145.888 398.216 146.829 398.608C147.068 398.707 147.316 398.755 147.561 398.755Z" fill="#20BDFF"/>
<path d="M70.9938 398.754C71.2383 398.754 71.4867 398.707 71.7257 398.608C72.6664 398.216 73.1009 397.16 72.6963 396.249L33.8089 308.71C33.4043 307.799 32.3148 307.379 31.3729 307.77C30.4322 308.162 29.9977 309.218 30.4024 310.129L69.2897 397.668C69.5914 398.347 70.2753 398.754 70.9938 398.754Z" fill="#20BDFF"/>
<path d="M27.1878 398.755C27.9064 398.755 28.5902 398.348 28.892 397.668L67.7793 310.129C68.1839 309.218 67.7494 308.162 66.8087 307.77C65.8687 307.378 64.7776 307.799 64.3727 308.71L25.4854 396.249C25.0807 397.16 25.5153 398.216 26.456 398.608C26.6947 398.707 26.9434 398.755 27.1878 398.755Z" fill="#20BDFF"/>
<path d="M22.6266 306.006C22.5274 305.432 22.6625 304.838 22.9948 304.387C23.3272 303.936 23.822 303.675 24.3443 303.675H201.253C201.94 303.675 202.58 304.067 202.95 304.715C203.32 305.363 203.369 306.177 203.081 306.875L201.164 311.522C200.725 312.586 199.774 313.267 198.727 313.267H25.5582C24.5846 313.267 23.7477 312.494 23.5627 311.423L22.6266 306.006Z" fill="#20BDFF"/>
<defs>
<linearGradient id="paint0_linear_372_684" x1="205.066" y1="295.798" x2="205.066" y2="358.933" gradientUnits="userSpaceOnUse">
<stop stop-color="#152F6C"/>
<stop offset="1" stop-color="#2E4A8B"/>
</linearGradient>
<linearGradient id="paint1_linear_372_684" x1="195.748" y1="89.5947" x2="195.748" y2="313.818" gradientUnits="userSpaceOnUse">
<stop stop-color="#152F6C"/>
<stop offset="1" stop-color="#2E4A8B"/>
</linearGradient>
<linearGradient id="paint2_linear_372_684" x1="203.73" y1="354.149" x2="203.73" y2="371.847" gradientUnits="userSpaceOnUse">
<stop stop-color="#152F6C"/>
<stop offset="1" stop-color="#2E4A8B"/>
</linearGradient>
<linearGradient id="paint3_linear_372_684" x1="124.403" y1="377.066" x2="124.403" y2="395.779" gradientUnits="userSpaceOnUse">
<stop stop-color="#152F6C"/>
<stop offset="1" stop-color="#2E4A8B"/>
</linearGradient>
<linearGradient id="paint4_linear_372_684" x1="117.355" y1="376.146" x2="125.704" y2="376.146" gradientUnits="userSpaceOnUse">
<stop stop-color="#FEBBBA"/>
<stop offset="1" stop-color="#FF928E"/>
</linearGradient>
<linearGradient id="paint5_linear_372_684" x1="116.787" y1="313.556" x2="116.787" y2="375.661" gradientUnits="userSpaceOnUse">
<stop stop-color="#152F6C"/>
<stop offset="1" stop-color="#2E4A8B"/>
</linearGradient>
<linearGradient id="paint6_linear_372_684" x1="124.532" y1="384.569" x2="124.532" y2="398.179" gradientUnits="userSpaceOnUse">
<stop stop-color="#152F6C"/>
<stop offset="1" stop-color="#2E4A8B"/>
</linearGradient>
<linearGradient id="paint7_linear_372_684" x1="113.892" y1="394.485" x2="136.341" y2="394.485" gradientUnits="userSpaceOnUse">
<stop stop-color="#4F52FF"/>
<stop offset="1" stop-color="#4042E2"/>
</linearGradient>
<linearGradient id="paint8_linear_372_684" x1="111.32" y1="383.854" x2="119.156" y2="383.854" gradientUnits="userSpaceOnUse">
<stop stop-color="#FEBBBA"/>
<stop offset="1" stop-color="#FF928E"/>
</linearGradient>
<linearGradient id="paint9_linear_372_684" x1="93.8653" y1="305.193" x2="93.8653" y2="383.854" gradientUnits="userSpaceOnUse">
<stop stop-color="#152F6C"/>
<stop offset="1" stop-color="#2E4A8B"/>
</linearGradient>
<linearGradient id="paint10_linear_372_684" x1="124.597" y1="275.627" x2="124.597" y2="301.264" gradientUnits="userSpaceOnUse">
<stop stop-color="#00FFE8"/>
<stop offset="1" stop-color="#00CFBC"/>
</linearGradient>
<linearGradient id="paint11_linear_372_684" x1="156.664" y1="246.336" x2="148.921" y2="296.823" gradientUnits="userSpaceOnUse">
<stop stop-color="#FEBBBA"/>
<stop offset="1" stop-color="#FF928E"/>
</linearGradient>
<linearGradient id="paint12_linear_372_684" x1="101.107" y1="249.331" x2="101.107" y2="314.397" gradientUnits="userSpaceOnUse">
<stop stop-color="#00FFE8"/>
<stop offset="1" stop-color="#00CFBC"/>
</linearGradient>
<linearGradient id="paint13_linear_372_684" x1="109.183" y1="253.133" x2="127.318" y2="253.133" gradientUnits="userSpaceOnUse">
<stop stop-color="#FEBBBA"/>
<stop offset="1" stop-color="#FF928E"/>
</linearGradient>
<linearGradient id="paint14_linear_372_684" x1="74.5602" y1="250.039" x2="74.5602" y2="302.428" gradientUnits="userSpaceOnUse">
<stop stop-color="#00FFE8"/>
<stop offset="1" stop-color="#00CFBC"/>
</linearGradient>
<linearGradient id="paint15_linear_372_684" x1="96.8157" y1="293.808" x2="27.3616" y2="414.472" gradientUnits="userSpaceOnUse">
<stop stop-color="#FEBBBA"/>
<stop offset="1" stop-color="#FF928E"/>
</linearGradient>
<linearGradient id="paint16_linear_372_684" x1="46.9927" y1="368.661" x2="31.3395" y2="393.825" gradientUnits="userSpaceOnUse">
<stop stop-color="#FEBBBA"/>
<stop offset="1" stop-color="#FF928E"/>
</linearGradient>
<linearGradient id="paint17_linear_372_684" x1="126.736" y1="226.414" x2="126.736" y2="245.495" gradientUnits="userSpaceOnUse">
<stop stop-color="#152F6C"/>
<stop offset="1" stop-color="#2E4A8B"/>
</linearGradient>
<linearGradient id="paint18_linear_372_684" x1="40.7662" y1="364.801" x2="25.1143" y2="389.967" gradientUnits="userSpaceOnUse">
<stop stop-color="#FEBBBA"/>
<stop offset="1" stop-color="#FF928E"/>
</linearGradient>
<linearGradient id="paint19_linear_372_684" x1="135.596" y1="300.098" x2="135.596" y2="304.097" gradientUnits="userSpaceOnUse">
<stop stop-color="#152F6C"/>
<stop offset="1" stop-color="#2E4A8B"/>
</linearGradient>
<linearGradient id="paint20_linear_372_684" x1="168.76" y1="264.023" x2="168.76" y2="304.071" gradientUnits="userSpaceOnUse">
<stop stop-color="#152F6C"/>
<stop offset="1" stop-color="#2E4A8B"/>
</linearGradient>
</defs>
</svg>
