<svg width="400" height="400" viewBox="0 0 400 400" fill="none" xmlns="http://www.w3.org/2000/svg">
<path d="M383.853 261.804C344.839 352.938 241.854 392.082 161.164 385.408C139.133 383.585 94.8045 379.919 60.1927 347.208C-6.27694 284.389 3.96004 153.081 67.5905 75.7732C75.7847 65.8176 132.504 -0.88392 220.891 0.00888037C285.603 0.662571 331.024 37.1947 336.547 41.7458C343.524 47.4952 358.913 61.1575 372.782 82.8321C405.368 133.76 408.233 204.855 383.853 261.804Z" fill="#D9F4FF"/>
<g opacity="0.3">
<path d="M273.511 73.2064C272.75 73.2064 272.096 72.6315 272.016 71.8585C271.838 70.1678 271.732 68.4443 271.699 66.736C271.684 65.9048 272.345 65.2181 273.176 65.2024C273.186 65.2024 273.196 65.2024 273.206 65.2024C274.024 65.2024 274.695 65.8572 274.71 66.6784C274.741 68.3014 274.842 69.9386 275.011 71.5445C275.097 72.371 274.497 73.1117 273.67 73.1982C273.617 73.2041 273.564 73.2064 273.511 73.2064ZM273.608 60.0964C273.55 60.0964 273.49 60.0929 273.43 60.0859C272.604 59.9883 272.014 59.2401 272.111 58.4147C272.312 56.7194 272.587 55.0159 272.93 53.3517C273.097 52.5376 273.89 52.015 274.708 52.1801C275.522 52.3477 276.047 53.1437 275.879 53.9571C275.554 55.539 275.293 57.1572 275.102 58.7686C275.012 59.5339 274.361 60.0964 273.608 60.0964ZM276.592 47.3339C276.424 47.3339 276.253 47.3057 276.086 47.2463C275.303 46.9671 274.894 46.1064 275.173 45.3235C275.745 43.7186 276.394 42.1185 277.102 40.5678C277.448 39.8118 278.341 39.4797 279.097 39.8235C279.854 40.1687 280.187 41.0616 279.842 41.8175C279.169 43.29 278.553 44.809 278.01 46.3334C277.791 46.9494 277.21 47.3339 276.592 47.3339ZM282.357 35.556C282.079 35.556 281.799 35.4796 281.548 35.3197C280.847 34.873 280.641 33.9423 281.088 33.2417C282.006 31.8045 282.997 30.3895 284.033 29.0362C284.538 28.3773 285.483 28.2514 286.144 28.7559C286.804 29.2609 286.93 30.2054 286.424 30.8656C285.44 32.1506 284.499 33.4944 283.628 34.8606C283.34 35.3102 282.854 35.556 282.357 35.556ZM290.605 25.3587C290.216 25.3587 289.828 25.2093 289.534 24.9114C288.949 24.3201 288.955 23.3672 289.547 22.7834C290.757 21.5882 292.036 20.428 293.348 19.3358C293.986 18.8031 294.936 18.889 295.469 19.528C296.001 20.1663 295.915 21.1151 295.276 21.6478C294.029 22.6859 292.814 23.7887 291.663 24.9244C291.369 25.214 290.987 25.3587 290.605 25.3587ZM300.904 17.2395C300.401 17.2395 299.909 16.9879 299.624 16.5294C299.185 15.8234 299.401 14.8957 300.107 14.4566C301.555 13.5573 303.059 12.7084 304.578 11.9348C305.319 11.5574 306.226 11.8519 306.603 12.5926C306.981 13.3327 306.686 14.2392 305.945 14.6166C304.502 15.352 303.073 16.1579 301.698 17.0126C301.45 17.1665 301.175 17.2395 300.904 17.2395ZM356.083 13.6565C355.875 13.6565 355.663 13.613 355.461 13.5213C353.988 12.8523 352.466 12.2387 350.938 11.6979C350.154 11.4205 349.743 10.5604 350.021 9.77746C350.298 8.9938 351.159 8.58361 351.943 8.86099C353.553 9.43063 355.156 10.0767 356.707 10.781C357.464 11.1248 357.799 12.0172 357.455 12.7738C357.203 13.3285 356.656 13.6565 356.083 13.6565ZM312.74 11.6067C312.115 11.6067 311.532 11.2152 311.317 10.592C311.045 9.80609 311.463 8.94958 312.249 8.67858C313.861 8.12311 315.516 7.631 317.169 7.216C317.976 7.01728 318.794 7.5023 318.997 8.30879C319.199 9.1147 318.709 9.93238 317.903 10.1352C316.333 10.5291 314.761 10.9964 313.231 11.5237C313.068 11.5796 312.903 11.6067 312.74 11.6067ZM343.605 9.61333C343.506 9.61333 343.405 9.60398 343.304 9.58343C341.717 9.26069 340.096 9.00259 338.485 8.81521C337.659 8.71883 337.067 7.97159 337.163 7.14626C337.259 6.32093 338.007 5.72549 338.833 5.82542C340.528 6.02285 342.234 6.29456 343.904 6.6336C344.719 6.79943 345.245 7.59415 345.079 8.40828C344.934 9.12136 344.306 9.61333 343.605 9.61333ZM325.538 8.75753C324.778 8.75753 324.125 8.18434 324.043 7.41258C323.954 6.58612 324.553 5.84483 325.38 5.75597C327.073 5.57553 328.797 5.46555 330.504 5.43025C330.514 5.42969 330.525 5.42969 330.536 5.42969C331.353 5.42969 332.023 6.08281 332.041 6.90276C332.058 7.73405 331.398 8.42175 330.567 8.43876C328.946 8.47277 327.308 8.57738 325.7 8.74916C325.645 8.75455 325.591 8.75753 325.538 8.75753Z" fill="#80D9FF"/>
<path d="M365.277 18.8815C364.98 18.8815 364.68 18.7945 364.418 18.6124C363.781 18.1692 363.124 17.7323 362.465 17.3127C361.763 16.8665 361.557 15.936 362.003 15.2352C362.45 14.5339 363.381 14.3264 364.083 14.7743C364.776 15.2152 365.467 15.6749 366.138 16.1411C366.82 16.6155 366.989 17.5536 366.514 18.2355C366.222 18.6563 365.753 18.8815 365.277 18.8815Z" fill="#80D9FF"/>
</g>
<g opacity="0.3">
<path d="M389.739 57.7064C389.012 57.7064 388.373 57.1797 388.254 56.4396C388.131 55.6736 387.99 54.8971 387.835 54.1322C387.67 53.3175 388.197 52.5232 389.011 52.3581C389.83 52.1923 390.621 52.7197 390.787 53.5338C390.95 54.3392 391.098 55.1569 391.228 55.9633C391.359 56.784 390.8 57.5557 389.979 57.6874C389.898 57.7005 389.818 57.7064 389.739 57.7064Z" fill="#80D9FF"/>
<path d="M331.896 125.634C331.203 125.634 330.507 125.623 329.809 125.599C328.978 125.571 328.327 124.875 328.355 124.044C328.383 123.214 329.083 122.56 329.91 122.59C331.521 122.645 333.131 122.633 334.712 122.556C335.543 122.516 336.249 123.155 336.29 123.985C336.331 124.815 335.69 125.521 334.86 125.562C333.881 125.61 332.884 125.634 331.896 125.634ZM321.901 124.79C321.816 124.79 321.731 124.783 321.645 124.768C319.989 124.485 318.326 124.129 316.704 123.709C315.899 123.501 315.415 122.68 315.623 121.876C315.832 121.071 316.655 120.585 317.458 120.796C319 121.194 320.579 121.532 322.153 121.801C322.972 121.941 323.523 122.719 323.383 123.538C323.258 124.272 322.621 124.79 321.901 124.79ZM342.728 124.626C342.018 124.626 341.386 124.123 341.25 123.4C341.096 122.583 341.634 121.796 342.452 121.642C344.015 121.349 345.587 120.983 347.125 120.557C347.926 120.336 348.756 120.804 348.978 121.604C349.201 122.406 348.731 123.235 347.93 123.457C346.311 123.906 344.655 124.291 343.009 124.601C342.915 124.618 342.821 124.626 342.728 124.626ZM309.49 121.228C309.298 121.228 309.104 121.191 308.917 121.114C307.365 120.475 305.821 119.762 304.33 118.995C303.59 118.614 303.299 117.707 303.68 116.968C304.061 116.229 304.968 115.938 305.708 116.319C307.124 117.047 308.59 117.724 310.064 118.331C310.833 118.647 311.199 119.527 310.883 120.296C310.643 120.876 310.082 121.228 309.49 121.228ZM355.065 120.852C354.483 120.852 353.928 120.513 353.682 119.944C353.352 119.181 353.703 118.295 354.467 117.965C355.927 117.335 357.38 116.633 358.787 115.88C359.52 115.487 360.432 115.762 360.825 116.495C361.218 117.228 360.942 118.14 360.21 118.532C358.729 119.326 357.199 120.065 355.662 120.728C355.467 120.812 355.264 120.852 355.065 120.852ZM366.274 114.464C365.809 114.464 365.35 114.249 365.055 113.844C364.566 113.172 364.715 112.231 365.388 111.742C366.678 110.805 367.944 109.803 369.15 108.763C369.78 108.22 370.73 108.29 371.274 108.92C371.817 109.549 371.747 110.499 371.117 111.042C369.848 112.136 368.516 113.191 367.158 114.177C366.891 114.371 366.581 114.464 366.274 114.464ZM375.824 105.786C375.47 105.786 375.114 105.662 374.828 105.409C374.204 104.86 374.145 103.908 374.695 103.285C375.752 102.089 376.769 100.836 377.719 99.5591C378.215 98.8925 379.158 98.7532 379.826 99.2498C380.493 99.7461 380.632 100.688 380.135 101.355C379.136 102.699 378.065 104.018 376.954 105.277C376.656 105.614 376.241 105.786 375.824 105.786ZM383.251 95.2337C383.006 95.2337 382.757 95.1738 382.527 95.0473C381.798 94.6471 381.533 93.7323 381.933 93.0041C382.702 91.6068 383.419 90.1612 384.066 88.7069C384.403 87.9475 385.294 87.6053 386.053 87.9421C386.813 88.2794 387.155 89.1689 386.818 89.9284C386.137 91.4603 385.381 92.9828 384.572 94.4536C384.298 94.9521 383.783 95.2337 383.251 95.2337ZM388.182 83.3047C388.044 83.3047 387.903 83.2853 387.764 83.2453C386.965 83.0156 386.504 82.1815 386.734 81.3831C387.174 79.8547 387.555 78.2875 387.866 76.7239C388.028 75.9085 388.823 75.3801 389.636 75.5411C390.452 75.7028 390.982 76.4951 390.82 77.3105C390.493 78.9564 390.092 80.6066 389.628 82.2155C389.438 82.875 388.836 83.3047 388.182 83.3047ZM390.368 70.5932C390.337 70.5932 390.306 70.5919 390.274 70.5902C389.444 70.5396 388.813 69.826 388.863 68.9967C388.935 67.8256 388.971 66.6389 388.971 65.4679C388.971 65.0441 388.966 64.6208 388.957 64.1993C388.939 63.3682 389.598 62.6797 390.43 62.6622C391.271 62.6274 391.95 63.303 391.968 64.1335C391.977 64.5775 391.983 65.0218 391.983 65.468C391.983 66.6995 391.944 67.9487 391.869 69.1802C391.821 69.9783 391.157 70.5932 390.368 70.5932Z" fill="#80D9FF"/>
<path d="M298.14 115.002C297.84 115.002 297.538 114.913 297.275 114.728C296.608 114.26 295.938 113.768 295.284 113.268C294.624 112.762 294.499 111.817 295.005 111.158C295.511 110.498 296.456 110.373 297.116 110.879C297.737 111.354 298.373 111.821 299.007 112.266C299.687 112.743 299.851 113.682 299.373 114.362C299.079 114.779 298.613 115.002 298.14 115.002Z" fill="#80D9FF"/>
</g>
<path d="M300.173 97.5456C300.363 97.7781 300.68 97.8647 300.961 97.7611L309.001 94.8064C312.17 97.2457 315.751 99.1977 319.645 100.535L321.605 108.862C321.674 109.154 321.921 109.371 322.219 109.401L332.442 110.436C332.741 110.466 333.026 110.304 333.152 110.032L336.744 102.266C340.826 101.736 344.726 100.542 348.321 98.787L355.604 103.293C355.859 103.451 356.187 103.429 356.419 103.24L364.38 96.7477C364.613 96.5579 364.699 96.2415 364.596 95.96L361.639 87.9257C364.08 84.7584 366.033 81.1791 367.371 77.2885L375.704 75.3288C375.996 75.2602 376.213 75.0137 376.243 74.7151L377.279 64.499C377.309 64.2005 377.146 63.9156 376.874 63.7897L369.103 60.2C368.573 56.1201 367.378 52.2223 365.622 48.6303L370.131 41.3514C370.289 41.0964 370.268 40.769 370.078 40.5367L363.582 32.5813C363.392 32.3487 363.075 32.2622 362.794 32.3658L354.754 35.3205C351.585 32.881 348.003 30.9292 344.11 29.592L342.149 21.2643C342.081 20.9723 341.834 20.756 341.535 20.7256L331.313 19.6909C331.014 19.6605 330.729 19.8231 330.603 20.0955L327.011 27.861C322.929 28.3907 319.028 29.5852 315.434 31.3399L308.151 26.8341C307.895 26.6761 307.568 26.6975 307.335 26.8871L299.375 33.3792C299.142 33.5689 299.056 33.8852 299.159 34.1669L302.115 42.2012C299.674 45.3685 297.721 48.9478 296.383 52.8384L288.051 54.7981C287.758 54.8667 287.542 55.1133 287.512 55.412L286.476 65.6278C286.446 65.9264 286.609 66.2112 286.881 66.3372L294.651 69.9269C295.182 74.0067 296.377 77.9045 298.132 81.4966L293.624 88.7754C293.466 89.0305 293.487 89.3576 293.677 89.5904L300.173 97.5456Z" fill="#80D9FF"/>
<path d="M331.871 75.3871C326.836 75.3871 322.416 71.6926 321.66 66.5701C320.83 60.9392 324.738 55.684 330.372 54.8539C333.101 54.4512 335.824 55.1361 338.038 56.7802C340.252 58.4244 341.693 60.8322 342.095 63.5598C342.925 69.1907 339.017 74.446 333.383 75.276C332.875 75.3507 332.37 75.3871 331.871 75.3871ZM331.894 57.15C331.506 57.15 331.115 57.1782 330.723 57.2359C326.403 57.872 323.407 61.9022 324.044 66.2187C324.68 70.5358 328.712 73.5321 333.032 72.8943C337.352 72.2583 340.348 68.228 339.712 63.9116C339.403 61.8199 338.298 59.9741 336.601 58.7132C335.221 57.6885 333.583 57.15 331.894 57.15Z" fill="#B6E9FF"/>
<path d="M332.08 90.2936C331.216 90.2936 330.346 90.2501 329.474 90.162C329.199 90.1343 328.925 90.102 328.652 90.0656C327.303 89.8852 325.971 89.5977 324.677 89.2079C324.659 89.2027 324.641 89.1973 324.624 89.1921C324.574 89.1768 324.524 89.1615 324.474 89.1456C324.376 89.1155 324.279 89.0843 324.182 89.0533C323.928 88.971 323.766 88.7352 323.765 88.4813C323.765 88.4196 323.775 88.3567 323.795 88.2949C323.897 87.9787 324.237 87.8065 324.553 87.9081C326.182 88.4353 327.878 88.7905 329.595 88.9639C338.123 89.8286 346.08 86.1322 351.035 79.8612C353.792 76.3735 355.62 72.0888 356.1 67.3484C356.184 66.5172 356.226 65.6879 356.226 64.8637C356.225 59.3168 354.331 53.9834 350.775 49.6281C346.69 44.6249 340.899 41.5111 334.471 40.8605C321.195 39.5179 309.31 49.2143 307.966 62.476C307.883 63.2936 307.842 64.1126 307.842 64.929C307.843 68.4673 308.618 71.9661 310.125 75.1716C310.164 75.2545 310.182 75.3415 310.182 75.4273C310.182 75.6531 310.054 75.8699 309.836 75.9721C309.534 76.1126 309.176 75.985 309.034 75.683C307.453 72.3176 306.638 68.6442 306.638 64.9296C306.637 64.0725 306.681 63.2131 306.767 62.3548C308.179 48.4311 320.665 38.2527 334.592 39.6624C341.341 40.3455 347.419 43.6145 351.708 48.8668C355.442 53.439 357.43 59.0383 357.431 64.8614C357.431 65.7267 357.387 66.5972 357.299 67.4696C356.615 74.2145 353.344 80.2893 348.089 84.5751C343.513 88.3074 337.908 90.2936 332.08 90.2936Z" fill="#B6E9FF"/>
<g opacity="0.3">
<path d="M222.124 112.865C221.722 112.865 221.351 112.603 221.232 112.197C221.009 111.44 220.807 110.666 220.63 109.897C220.515 109.396 220.828 108.898 221.329 108.783C221.83 108.666 222.328 108.981 222.443 109.481C222.612 110.214 222.805 110.952 223.017 111.675C223.162 112.167 222.879 112.683 222.386 112.828C222.299 112.854 222.211 112.865 222.124 112.865Z" fill="#80D9FF"/>
<path d="M220.748 105.85C220.277 105.85 219.873 105.493 219.824 105.015C219.686 103.663 219.616 102.289 219.616 100.931C219.616 100.645 219.619 100.359 219.625 100.071C219.637 99.5571 220.089 99.1695 220.575 99.1604C221.088 99.1713 221.496 99.5961 221.485 100.109C221.48 100.384 221.476 100.658 221.476 100.931C221.476 102.227 221.543 103.537 221.674 104.826C221.727 105.337 221.355 105.793 220.844 105.845C220.812 105.848 220.78 105.85 220.748 105.85ZM220.953 96.2012C220.909 96.2012 220.864 96.1985 220.819 96.1922C220.311 96.1186 219.958 95.6475 220.031 95.1393C220.265 93.5091 220.603 91.8788 221.035 90.2949C221.17 89.7993 221.683 89.5088 222.177 89.6424C222.672 89.7776 222.964 90.2877 222.83 90.7833C222.418 92.2947 222.096 93.8495 221.872 95.4044C221.805 95.8673 221.408 96.2012 220.953 96.2012ZM223.492 86.8904C223.374 86.8904 223.254 86.8676 223.138 86.8205C222.663 86.6253 222.437 86.0816 222.632 85.607C223.259 84.0866 223.987 82.588 224.799 81.1547C225.052 80.7073 225.617 80.5502 226.066 80.8034C226.513 81.0557 226.67 81.623 226.418 82.0696C225.645 83.4366 224.95 84.8644 224.352 86.3149C224.205 86.6734 223.858 86.8904 223.492 86.8904ZM228.245 78.4878C228.052 78.4878 227.858 78.428 227.692 78.3054C227.279 77.9995 227.192 77.4169 227.499 77.0047C228.481 75.6813 229.554 74.4078 230.688 73.2188C231.043 72.8475 231.632 72.8348 232.003 73.1878C232.375 73.5418 232.389 74.13 232.034 74.5022C230.953 75.6351 229.929 76.8503 228.993 78.1121C228.81 78.3581 228.529 78.4878 228.245 78.4878ZM234.906 71.5005C234.637 71.5005 234.37 71.3842 234.186 71.1602C233.861 70.7636 233.919 70.1781 234.316 69.8522C235.589 68.8093 236.939 67.8344 238.328 66.9558C238.762 66.6799 239.336 66.8097 239.611 67.2435C239.886 67.6774 239.757 68.252 239.323 68.526C237.998 69.3648 236.711 70.2941 235.496 71.29C235.323 71.4316 235.114 71.5005 234.906 71.5005ZM243.062 66.3413C242.714 66.3413 242.379 66.1442 242.22 65.8083C242.001 65.3446 242.2 64.7908 242.664 64.5712C244.153 63.8686 245.7 63.2524 247.261 62.7404C247.751 62.5815 248.274 62.8467 248.435 63.334C248.595 63.8215 248.329 64.347 247.841 64.5068C246.352 64.995 244.878 65.5824 243.459 66.2522C243.33 66.3132 243.195 66.3413 243.062 66.3413ZM252.23 63.3322C251.794 63.3322 251.405 63.0245 251.318 62.5815C251.219 62.0778 251.548 61.5894 252.052 61.4906C253.663 61.1757 255.314 60.9578 256.96 60.8424C257.474 60.8152 257.918 61.1938 257.953 61.7056C257.989 62.2176 257.603 62.6615 257.09 62.6978C255.52 62.8068 253.945 63.0147 252.409 63.315C252.349 63.3268 252.289 63.3322 252.23 63.3322ZM266.67 63.2143C266.616 63.2143 266.561 63.2097 266.506 63.1998C265.171 62.9628 263.8 62.7949 262.429 62.7006C262.222 62.6851 262.018 62.6724 261.815 62.6625C261.301 62.6353 260.907 62.1987 260.934 61.6859C260.96 61.1721 261.401 60.7636 261.911 60.8054C262.128 60.8172 262.345 60.83 262.562 60.8463C263.994 60.9452 265.431 61.1212 266.831 61.37C267.337 61.4598 267.674 61.9419 267.584 62.4475C267.504 62.8975 267.112 63.2143 266.67 63.2143Z" fill="#80D9FF"/>
</g>
<g opacity="0.3">
<path d="M260.334 141.033C259.826 141.033 259.411 140.625 259.404 140.116C259.398 139.603 259.809 139.181 260.322 139.174C261.868 139.154 263.427 139.04 264.953 138.834C265.46 138.771 265.931 139.122 266 139.631C266.068 140.14 265.711 140.608 265.202 140.677C263.601 140.892 261.967 141.012 260.347 141.033C260.343 141.033 260.338 141.033 260.334 141.033ZM255.581 140.809C255.547 140.809 255.514 140.807 255.48 140.804C253.871 140.631 252.255 140.359 250.678 139.995C250.178 139.879 249.866 139.38 249.981 138.88C250.097 138.379 250.599 138.07 251.097 138.183C252.601 138.531 254.143 138.79 255.679 138.955C256.19 139.01 256.559 139.468 256.504 139.978C256.453 140.456 256.05 140.809 255.581 140.809ZM269.745 139.763C269.332 139.763 268.956 139.487 268.846 139.069C268.715 138.573 269.012 138.065 269.509 137.934C271.005 137.541 272.49 137.053 273.922 136.484C274.401 136.296 274.94 136.528 275.129 137.005C275.319 137.481 275.086 138.022 274.609 138.212C273.107 138.808 271.551 139.319 269.982 139.731C269.902 139.753 269.823 139.763 269.745 139.763ZM246.325 138.665C246.219 138.665 246.111 138.647 246.006 138.609C244.484 138.054 242.981 137.4 241.539 136.664C241.081 136.43 240.9 135.87 241.133 135.413C241.367 134.957 241.927 134.776 242.384 135.008C243.759 135.71 245.192 136.333 246.643 136.862C247.126 137.038 247.375 137.572 247.198 138.054C247.061 138.431 246.704 138.665 246.325 138.665ZM278.569 136.256C278.239 136.256 277.92 136.081 277.752 135.772C277.505 135.321 277.671 134.757 278.122 134.511C279.476 133.772 280.8 132.942 282.055 132.044C282.474 131.744 283.054 131.841 283.353 132.259C283.652 132.677 283.556 133.257 283.138 133.556C281.821 134.497 280.434 135.368 279.014 136.143C278.872 136.22 278.719 136.256 278.569 136.256ZM286.293 130.737C286.041 130.737 285.791 130.635 285.607 130.435C285.26 130.057 285.286 129.468 285.664 129.122C286.805 128.077 287.892 126.954 288.896 125.785C289.23 125.395 289.818 125.35 290.207 125.684C290.597 126.018 290.642 126.605 290.308 126.994C289.256 128.22 288.117 129.398 286.921 130.492C286.743 130.656 286.518 130.737 286.293 130.737ZM292.473 123.526C292.296 123.526 292.117 123.476 291.959 123.37C291.531 123.086 291.415 122.508 291.7 122.081C292.557 120.795 293.343 119.444 294.035 118.067C294.265 117.609 294.824 117.423 295.283 117.654C295.742 117.884 295.927 118.443 295.697 118.902C294.971 120.345 294.147 121.762 293.248 123.112C293.069 123.381 292.774 123.526 292.473 123.526Z" fill="#80D9FF"/>
<path d="M237.824 134.327C237.645 134.327 237.463 134.276 237.304 134.168C236.644 133.722 235.995 133.255 235.374 132.779C234.967 132.467 234.889 131.883 235.201 131.475C235.515 131.07 236.098 130.992 236.506 131.303C237.098 131.757 237.717 132.202 238.346 132.628C238.772 132.916 238.883 133.494 238.595 133.919C238.415 134.184 238.122 134.327 237.824 134.327Z" fill="#80D9FF"/>
</g>
<path d="M238.598 122.32C238.725 122.475 238.937 122.533 239.126 122.464L244.505 120.487C246.626 122.119 249.023 123.425 251.628 124.32L252.94 129.892C252.986 130.088 253.151 130.232 253.351 130.253L260.191 130.945C260.391 130.965 260.582 130.857 260.666 130.674L263.07 125.478C265.801 125.123 268.411 124.324 270.817 123.15L275.69 126.165C275.861 126.271 276.08 126.257 276.236 126.13L281.563 121.786C281.719 121.659 281.776 121.447 281.707 121.259L279.729 115.882C281.362 113.763 282.669 111.368 283.564 108.764L289.14 107.453C289.336 107.407 289.481 107.242 289.501 107.043L290.194 100.206C290.214 100.007 290.105 99.816 289.923 99.7319L284.723 97.3298C284.369 94.5996 283.569 91.9914 282.394 89.5878L285.411 84.717C285.516 84.5464 285.502 84.3274 285.375 84.1719L281.028 78.8484C280.901 78.6928 280.69 78.635 280.501 78.7043L275.121 80.6815C273.001 79.0491 270.604 77.743 267.999 76.8482L266.687 71.2757C266.641 71.0804 266.476 70.9355 266.276 70.9153L259.435 70.2229C259.236 70.2026 259.045 70.3113 258.961 70.4936L256.557 75.6899C253.825 76.0444 251.215 76.8437 248.81 78.0178L243.937 75.0028C243.766 74.8971 243.547 74.9114 243.391 75.0382L238.064 79.3823C237.909 79.5093 237.851 79.7209 237.92 79.9094L239.898 85.2857C238.265 87.4051 236.958 89.8001 236.063 92.4037L230.487 93.7149C230.291 93.7608 230.146 93.9258 230.126 94.1257L229.433 100.962C229.413 101.161 229.522 101.352 229.704 101.436L234.904 103.838C235.258 106.568 236.058 109.177 237.233 111.58L234.216 116.451C234.11 116.622 234.124 116.841 234.251 116.996L238.598 122.32Z" fill="#80D9FF"/>
<path d="M259.799 107.615C258.299 107.615 256.844 107.137 255.617 106.226C254.109 105.106 253.128 103.466 252.854 101.608C252.288 97.7739 254.95 94.194 258.788 93.6276C262.631 93.0684 266.208 95.7234 266.774 99.5583C267.048 101.416 266.581 103.27 265.461 104.777C264.34 106.284 262.699 107.265 260.839 107.539C260.492 107.59 260.144 107.615 259.799 107.615ZM259.817 95.4112C259.567 95.4112 259.314 95.4293 259.059 95.4666C256.236 95.8832 254.278 98.5164 254.694 101.337C254.896 102.704 255.618 103.911 256.727 104.734C257.837 105.558 259.201 105.9 260.569 105.7C261.936 105.498 263.144 104.777 263.968 103.668C264.792 102.559 265.135 101.196 264.934 99.8288C264.555 97.2628 262.339 95.4112 259.817 95.4112Z" fill="#B6E9FF"/>
<path d="M259.933 117.992C259.344 117.992 258.751 117.962 258.154 117.902C256.967 117.782 255.791 117.541 254.657 117.186C254.606 117.169 254.555 117.153 254.504 117.137C254.111 117.009 253.861 116.645 253.86 116.253C253.86 116.158 253.875 116.061 253.906 115.966C254.064 115.477 254.589 115.212 255.077 115.368C256.133 115.711 257.231 115.94 258.34 116.052H258.341C258.402 116.058 258.463 116.064 258.523 116.069C261.151 116.31 263.738 115.887 266.098 114.87C267.379 114.318 268.594 113.59 269.71 112.696C269.719 112.689 269.728 112.682 269.737 112.674C269.765 112.652 269.793 112.63 269.82 112.607C273.061 109.964 275.078 106.218 275.499 102.059C275.554 101.521 275.581 100.984 275.581 100.451C275.581 96.8599 274.355 93.4071 272.052 90.5869C269.407 87.3482 265.659 85.3332 261.498 84.9121C257.339 84.4927 253.259 85.7144 250.018 88.3567C246.778 90.9998 244.76 94.7459 244.339 98.9049C244.285 99.434 244.259 99.9642 244.259 100.492C244.259 102.784 244.761 105.048 245.736 107.123C245.796 107.251 245.825 107.385 245.825 107.518C245.825 107.866 245.627 108.202 245.29 108.359C244.825 108.576 244.271 108.378 244.052 107.913C242.961 105.591 242.399 103.057 242.398 100.494C242.398 99.9026 242.428 99.3098 242.488 98.7179C242.96 94.0643 245.216 89.8736 248.842 86.9164C252.468 83.96 257.027 82.5876 261.685 83.0623C266.341 83.5333 270.534 85.788 273.493 89.4124C276.069 92.5666 277.441 96.4296 277.441 100.447C277.441 101.043 277.411 101.644 277.35 102.246C276.437 111.255 268.806 117.992 259.933 117.992Z" fill="#B6E9FF"/>
<path d="M172.865 387.034H25.4365V181.987C25.4365 171.216 34.1731 162.485 44.9502 162.485H170.604C181.381 162.485 190.118 171.216 190.118 181.987V369.792C190.118 379.314 182.394 387.034 172.865 387.034Z" fill="#20BDFF"/>
<path d="M165.451 387.034H0.769531V168.215C0.769531 165.05 3.33643 162.485 6.50269 162.485H159.717C162.884 162.485 165.451 165.051 165.451 168.215V387.034Z" fill="#80D9FF"/>
<path d="M340.005 302.886C340.005 302.886 318.881 299.349 317.73 299.349H258.926C255.001 299.349 251.79 302.558 251.79 306.481V312.93C251.79 316.852 255.001 320.062 258.926 320.062H317.73C318.286 320.062 318.825 319.991 319.345 319.869C326.231 318.731 333.118 313.075 340.005 302.886Z" fill="#04D0BE"/>
<path d="M339.777 303.756C419.925 113.417 271.445 113.253 289.938 293.378L339.777 303.756Z" fill="#04D0BE"/>
<path d="M334.259 301.933C414.407 107.962 261.63 113.151 280.123 296.713L334.259 301.933Z" fill="url(#paint0_linear_372_794)"/>
<path d="M295.233 314.769H288.989V382.253H295.233V314.769Z" fill="#04D0BE"/>
<path d="M319.455 383.554H264.766V379.897C264.766 379.673 264.947 379.492 265.171 379.492H319.019C319.26 379.492 319.455 379.688 319.455 379.928V383.554H319.455Z" fill="#04D0BE"/>
<path d="M259.002 372.979C259.002 372.979 241.171 385.823 244.267 394.452C244.267 394.452 263.776 386.04 266.133 379.414C268.49 372.788 265.734 369.861 265.734 369.861L259.002 372.979Z" fill="url(#paint1_linear_372_794)"/>
<path d="M261.682 362.214L264.598 370.637C265.038 371.908 264.598 373.356 263.46 374.074C262.89 374.434 262.112 374.767 261.047 375.008C259.545 375.348 257.995 374.655 257.273 373.296L253.785 366.733L261.682 362.214Z" fill="url(#paint2_linear_372_794)"/>
<path d="M290.054 286.398C290.054 286.398 253.432 292.741 237.722 307.244C222.012 321.748 252.141 368.012 252.141 368.012C252.141 368.012 257.078 367.981 263.06 362.857C263.06 362.857 245.195 328.062 260.591 317.916C277.9 306.508 297.847 303.939 297.847 303.939L290.409 287.516L290.054 286.398Z" fill="url(#paint3_linear_372_794)"/>
<path d="M247.365 389.679C251.287 387.864 262.39 380.099 264.261 379.756C266.133 379.413 269.379 381.611 269.379 381.611C269.379 381.611 270.169 383.03 269.324 385.506C266.718 388.657 260.932 394.664 253.153 396.903C247.431 398.549 243.429 397.014 240.937 395.218C242.308 393.131 244.753 390.887 247.365 389.679Z" fill="url(#paint4_linear_372_794)"/>
<path d="M253.154 396.904C260.933 394.666 266.719 388.659 269.325 385.507C268.754 387.18 267.438 389.334 264.626 391.861C257.652 398.125 244.332 400.383 241.496 399.948C239.223 399.599 239.437 397.503 240.937 395.22C243.43 397.016 247.432 398.551 253.154 396.904Z" fill="#20BDFF"/>
<path d="M272.707 376.13C272.663 377.21 270.454 380.913 269.164 382.99C268.55 383.978 267.476 384.581 266.313 384.584C265.575 384.586 264.727 384.522 263.958 384.301C262.802 383.969 262.153 382.739 262.491 381.586L265.013 372.979L272.707 376.13Z" fill="url(#paint5_linear_372_794)"/>
<path d="M325.309 275.411C325.309 275.411 333.442 297.146 325.309 303.755C317.176 310.365 297.773 317.806 293.439 330.971C289.104 344.135 281.749 369.72 271.906 378.781C271.906 378.781 264.99 378.112 262.401 375.357C262.401 375.357 268.007 337.163 271.705 327.363C274.907 318.876 279.624 306.626 288.665 299.779C291.253 297.819 290.802 294.714 289.603 291.699L287.417 286.208L325.309 275.411Z" fill="url(#paint6_linear_372_794)"/>
<path d="M240.482 258.378C254.119 259.2 249.869 237.426 249.624 236.56L270.322 251.171C270.322 251.171 269.226 262.815 252.017 268.922C247.663 270.467 243.684 270.536 240.166 269.78C241.666 265.408 241.361 261.485 240.482 258.378Z" fill="#2C68F1"/>
<path d="M214.113 251.824C219.195 248.291 224.952 251.824 224.952 251.824C231.747 256.265 236.774 258.154 240.482 258.377C241.362 261.484 241.667 265.407 240.167 269.779C232.555 268.144 227.109 262.639 224.742 259.814C223.89 258.797 222.382 258.62 221.34 259.442C220.282 260.276 219.254 261.42 219.441 262.624C219.808 264.997 217.052 265.751 216.845 264.891C216.637 264.03 217.787 258.927 217.787 258.927C217.787 258.927 212.276 264.466 210.124 266.594C207.973 268.723 205.268 266.594 205.268 266.594C205.268 266.594 209.031 255.357 214.113 251.824Z" fill="url(#paint7_linear_372_794)"/>
<path d="M304.07 202.935C304.07 202.935 284.23 194.996 247.307 225.46C247.307 225.46 244.223 231.839 247.587 237.518C250.952 243.197 283.009 270.865 287.416 286.209C287.416 286.209 306.514 292.411 326.265 277.704C326.265 277.704 324.522 235 304.07 202.935Z" fill="#2C68F2"/>
<path d="M264.846 195.85L274.612 207.683C275.582 208.858 275.796 210.492 275.125 211.86C273.77 214.623 270.553 218.646 263.419 218.09C261.297 217.925 259.418 216.645 258.491 214.73L251.662 200.622L264.846 195.85Z" fill="url(#paint8_linear_372_794)"/>
<path d="M319.43 253.611C321.733 244.237 298.404 223.338 298.404 223.338L304.07 202.934C304.07 202.934 354.445 236.448 341.608 263.399C339.767 267.263 337.323 269.969 334.489 271.779C330.433 260.867 323.969 255.863 319.43 253.611Z" fill="#2C68F2"/>
<path d="M284.096 252.805C284.096 252.805 311.756 263.537 318.507 255.464C318.965 254.917 319.263 254.294 319.431 253.612C323.969 255.864 330.433 260.868 334.49 271.78C319.942 281.07 295.077 266.612 288.353 262.349C287.247 261.648 285.921 261.402 284.638 261.668C282.045 262.206 277.565 262.996 275.149 262.624C271.614 262.08 266.537 274.54 260.809 270.696C260.809 270.696 265.714 249.038 284.096 252.805Z" fill="url(#paint9_linear_372_794)"/>
<path d="M243.598 178.469C243.499 178.849 245.887 204.715 245.887 204.715L260.636 203.039L262.018 178.188C262.018 178.188 245.242 172.101 243.598 178.469Z" fill="url(#paint10_linear_372_794)"/>
<path d="M258.176 183.338L258.474 196.477C258.478 196.646 258.46 196.81 258.418 196.973C258.161 197.972 257.026 201.345 253.644 199.974C250.575 198.73 247.755 197.64 245.682 198.034C244.751 198.21 244.107 199.062 244.194 200.005C244.412 202.355 245 207.642 246.212 212.157C246.458 213.073 247.371 213.64 248.305 213.476C251.122 212.98 257.034 211.768 261.561 209.679C262.175 209.397 262.586 208.809 262.631 208.135C262.853 204.85 263.561 194.87 264.189 192.12C264.779 189.538 268.162 188.324 269.619 187.915C270.096 187.781 270.494 187.46 270.727 187.022C271.551 185.475 272.853 181.829 268.3 179.777C267.347 179.348 266.943 178.226 267.402 177.287C268.315 175.418 268.936 172.482 265.463 170.445C261.933 168.375 258.944 170.049 257.27 171.492C256.593 172.076 255.611 172.068 254.912 171.511C254.514 171.194 253.973 171.046 253.262 171.387C252.304 171.847 251.158 171.336 250.8 170.336C250.111 168.415 248.514 166.263 244.811 166.486C238.241 166.883 236.726 173.945 237.968 178.316C239.209 182.688 246.308 181.854 250.014 180.125C252.831 178.81 256.072 180.867 257.464 181.929C257.904 182.265 258.164 182.784 258.176 183.338Z" fill="url(#paint11_linear_372_794)"/>
<path d="M264.25 196.903C264.25 196.903 262.414 189.192 265.337 187.674C268.26 186.155 272.191 187.541 270.713 192.819C268.874 199.383 264.25 196.903 264.25 196.903Z" fill="url(#paint12_linear_372_794)"/>
<path d="M269.924 273.969C269.88 273.971 269.835 273.972 269.791 273.972L211.757 273.908C210.322 273.907 209.161 272.744 209.162 271.31C209.164 269.875 210.332 268.691 211.763 268.716L269.797 268.78C271.231 268.781 272.393 269.944 272.391 271.378C272.39 272.767 271.297 273.901 269.924 273.969Z" fill="url(#paint13_linear_372_794)"/>
<path d="M159.589 221.31H207.92C211.485 221.31 214.731 223.366 216.251 226.589L238.595 273.937H178.532C176.235 273.937 174.17 272.534 173.326 270.398L156 226.585C154.998 224.053 156.865 221.31 159.589 221.31Z" fill="url(#paint14_linear_372_794)"/>
<path d="M193.636 245.587C194.683 248.839 193.91 251.997 191.908 252.641C189.906 253.285 187.434 251.17 186.387 247.919C185.34 244.667 186.113 241.509 188.115 240.864C190.117 240.221 192.589 242.335 193.636 245.587Z" fill="#20BDFF"/>
<path d="M167.424 398.36C167.103 398.36 166.776 398.298 166.462 398.168C165.225 397.653 164.653 396.265 165.185 395.068L216.332 280.031C216.863 278.835 218.297 278.282 219.536 278.796C220.773 279.311 221.344 280.699 220.812 281.896L169.666 396.933C169.269 397.825 168.369 398.36 167.424 398.36Z" fill="#2C68F1"/>
<path d="M225.043 398.359C224.098 398.359 223.198 397.825 222.801 396.932L171.655 281.895C171.123 280.698 171.694 279.31 172.932 278.795C174.168 278.28 175.603 278.833 176.136 280.03L227.282 395.067C227.814 396.264 227.242 397.652 226.005 398.167C225.691 398.297 225.364 398.359 225.043 398.359Z" fill="#2C68F2"/>
<path d="M325.744 398.36C325.422 398.36 325.096 398.298 324.781 398.168C323.544 397.653 322.973 396.265 323.505 395.068L374.651 280.031C375.183 278.835 376.616 278.282 377.855 278.796C379.092 279.311 379.664 280.699 379.131 281.896L327.985 396.933C327.588 397.825 326.689 398.36 325.744 398.36Z" fill="#2C68F2"/>
<path d="M383.364 398.359C382.419 398.359 381.52 397.825 381.123 396.932L329.976 281.895C329.444 280.698 330.016 279.31 331.253 278.795C332.489 278.28 333.924 278.833 334.457 280.03L385.603 395.067C386.135 396.264 385.564 397.652 384.327 398.167C384.013 398.297 383.686 398.359 383.364 398.359Z" fill="#2C68F2"/>
<path d="M389.362 276.481C389.492 275.726 389.315 274.946 388.877 274.353C388.44 273.76 387.789 273.417 387.102 273.417H154.425C153.521 273.417 152.68 273.932 152.194 274.783C151.707 275.635 151.642 276.705 152.021 277.623L154.542 283.728C155.119 285.126 156.37 286.022 157.747 286.022H385.506C386.786 286.022 387.887 285.006 388.13 283.599L389.362 276.481Z" fill="#B6E9FF"/>
<path d="M86.6161 266.084C86.6161 266.084 111.281 222.83 103.63 216.387C95.9779 209.945 95.8416 228.657 92.7447 226.007C89.6478 223.356 94.6985 207.731 93.3226 196.874C91.9466 186.017 88.9588 171.493 85.1001 186.088C81.2413 200.684 81.7233 215.074 80.0517 207.639C78.3803 200.203 72.6162 161.444 65.203 173.01C57.7898 184.575 56.2342 199.632 63.7067 208.405C71.1794 217.177 81.2107 226.973 68.8774 220.506C56.5442 214.04 48.1379 216.924 61.3299 228.64C61.3299 228.64 81.167 245.047 72.5551 244.278C63.943 243.509 50.2321 252.593 64.3621 259.157C64.3621 259.157 84.436 262.071 86.6161 266.084Z" fill="#20BDFF"/>
<path d="M76.369 305.528C76.369 305.528 28.2942 303.248 30.4217 292.124C32.5493 281 48.24 288.449 55.2217 289.155C62.2035 289.861 58.1071 285.091 43.8858 275.086C29.6645 265.081 21.8462 250.428 36.9044 257.261C51.9627 264.093 57.9807 276.924 56.9612 267.874C55.9414 258.824 36.5853 233.346 52.957 243.778C69.3288 254.21 68.2091 263.864 68.7029 271.48C69.1967 279.097 71.3776 256.74 76.4964 260.071C81.6151 263.401 78.7093 266.823 76.8768 275.676C75.0441 284.529 80.1743 277.393 81.8699 274.487C83.5654 271.581 87.7308 278.55 83.6502 288.166C79.5696 297.782 76.369 305.528 76.369 305.528Z" fill="#2E4A8B"/>
<path d="M85.9433 356.177C85.9112 356.205 85.8899 356.239 85.8814 356.273C85.8774 356.276 85.8754 356.341 85.8784 356.291L85.8849 356.154L85.9119 355.608L85.957 354.492L86.0316 352.237L86.1473 347.708L86.3044 338.638C86.3813 332.588 86.4085 326.537 86.3893 320.485C86.3538 308.383 86.1348 296.281 85.6732 284.191C85.4336 278.147 85.1273 272.107 84.7468 266.072C84.3461 260.04 83.8595 254.015 83.2433 248.007C82.6221 242.001 81.8393 236.014 80.7982 230.084C79.7335 224.17 78.447 218.261 76.3209 212.726L76.3097 212.696C76.1006 212.152 76.3727 211.542 76.9171 211.333C77.4568 211.126 78.062 211.392 78.2761 211.927C80.5799 217.69 81.9544 223.671 83.1197 229.656C84.2568 235.65 85.128 241.679 85.8364 247.719C86.5396 253.76 87.1116 259.812 87.5969 265.868C88.0624 271.925 88.4527 277.986 88.7759 284.049C89.4049 296.177 89.7904 308.313 89.9919 320.45C90.0943 326.519 90.1499 332.589 90.1556 338.66L90.1222 347.77L90.0681 352.33L90.0235 354.618L89.9926 355.774L89.9716 356.363L89.9664 356.51C89.9655 356.555 89.9528 356.714 89.9418 356.811C89.9177 357.034 89.8807 357.257 89.8328 357.473C89.475 358.547 88.314 359.127 87.2401 358.769C86.1657 358.411 85.5852 357.251 85.9433 356.177Z" fill="#20BDFF"/>
<path d="M85.6807 358.508C85.6628 358.562 85.6549 358.62 85.657 358.676C85.6557 358.691 85.6665 358.761 85.6623 358.728L85.6498 358.643L85.6004 358.3L85.4934 357.595L85.2664 356.166L84.7912 353.296L83.7964 347.553C83.1173 343.725 82.4098 339.901 81.6763 336.082C80.2111 328.444 78.6419 320.826 76.9388 313.241C75.2255 305.659 73.3827 298.107 71.2509 290.649C70.1824 286.921 69.0287 283.221 67.7339 279.584C66.4282 275.958 64.9981 272.357 63.1344 269.076L63.1193 269.05C62.8313 268.543 63.0092 267.899 63.5163 267.611C64.0167 267.328 64.6514 267.498 64.9448 267.989C67.0086 271.45 68.5347 275.096 69.9485 278.766C71.3457 282.443 72.592 286.162 73.7513 289.903C76.0632 297.386 78.0774 304.943 79.9617 312.527C81.8354 320.113 83.5732 327.729 85.2073 335.367C86.0253 339.185 86.8174 343.009 87.5813 346.84L88.7043 352.594L89.2455 355.48L89.5077 356.932L89.6357 357.669L89.6985 358.048L89.7141 358.143L89.742 358.377C89.7583 358.554 89.7646 358.732 89.761 358.908C89.6507 360.034 88.6476 360.857 87.521 360.747C86.3941 360.636 85.5702 359.634 85.6807 358.508Z" fill="#2E4A8B"/>
<path d="M95.9847 274.816C95.9847 274.816 144.722 267.054 140.072 256.725C135.422 246.397 121.887 257.278 115.259 259.582C108.631 261.886 107.679 260.737 119.193 247.71C130.706 234.683 131.781 221.167 118.717 231.302C105.654 241.437 110.176 250.837 109.069 241.797C107.962 232.757 125.423 198.242 111.917 212.183C98.4102 226.123 96.7596 237.988 98.0457 245.512C99.3317 253.035 92.025 231.792 87.8182 236.218C83.6113 240.644 87.2314 243.299 91.0675 251.486C94.9035 259.673 88.2578 253.92 85.9346 251.486C83.6113 249.052 81.1758 256.797 87.3754 265.205C93.5747 273.614 95.9847 274.816 95.9847 274.816Z" fill="#2E4A8B"/>
<path d="M92.3127 357.473C92.2669 357.28 92.2319 357.081 92.2095 356.882C92.1994 356.797 92.1881 356.649 92.1876 356.617L92.184 356.505L92.1689 356.059L92.1476 355.19L92.1182 353.475L92.0854 350.061L92.0762 343.244C92.0909 338.701 92.143 334.16 92.2298 329.62C92.4015 320.539 92.7107 311.46 93.2023 302.387C93.7074 293.314 94.3857 284.244 95.4645 275.201C96.0053 270.68 96.6679 266.167 97.5302 261.677C98.4144 257.192 99.4534 252.711 101.198 248.372C101.416 247.831 102.031 247.569 102.572 247.786C103.107 248.001 103.369 248.604 103.165 249.14L103.153 249.171C101.586 253.281 100.635 257.691 99.8518 262.104C99.0852 266.53 98.5112 271.002 98.0577 275.489C97.1525 284.466 96.6424 293.494 96.305 302.528C95.9808 311.564 95.8381 320.61 95.8324 329.655C95.8286 334.178 95.8592 338.701 95.9272 343.222L96.0602 349.999L96.1544 353.382L96.2139 355.065L96.2494 355.894L96.2702 356.297L96.2753 356.398C96.2776 356.436 96.2745 356.359 96.2695 356.345C96.259 356.286 96.2358 356.228 96.2016 356.177C96.5597 357.25 95.9792 358.411 94.9052 358.768C93.8316 359.126 92.6707 358.546 92.3127 357.473Z" fill="#2E4A8B"/>
<path d="M68.9798 348.082H109.335C111.98 348.082 113.937 350.541 113.342 353.117C110.76 364.296 107.666 375.639 101.334 387.152C100.165 389.279 97.9381 390.612 95.51 390.612H82.3417C79.9503 390.612 77.756 389.299 76.6228 387.195C71.5503 377.774 66.6701 366.545 64.2606 353.8C63.6998 350.834 65.9592 348.082 68.9798 348.082Z" fill="#2E4A8B"/>
<path d="M17.2897 41.2484C17.2897 41.2484 1.61919 49.9239 0.322617 64.6064C-0.973811 79.2889 0.214688 140.23 31.638 155.23C63.0614 170.229 104.655 166.772 120.576 165.133C136.498 163.493 145.325 152.679 147.297 145.234C149.269 137.789 152.454 110.053 135.705 101.107C118.957 92.1605 101.366 78.4544 83.7876 65.1081C66.2097 51.762 36.0852 29.976 17.2897 41.2484Z" fill="#2E4A8B"/>
<path d="M130.768 106.17C130.768 106.17 126.538 106.393 126.02 115.089C126.02 115.089 135.827 123.876 149.074 125.967C150.069 126.124 147.684 119.182 147.326 118.242C145.62 113.767 140.247 110.886 130.768 106.17Z" fill="url(#paint15_linear_372_794)"/>
<path d="M83.1335 95.9446H92.0586C92.0586 95.9446 119.452 65.71 137.419 62.6597C137.419 62.6597 149.925 78.6141 136.753 108.424C135.693 110.822 132.729 111.888 130.518 110.477C129.857 110.055 129.382 109.489 129.094 108.78L130.153 83.3266C130.153 83.3266 106.787 103.751 102.725 107.692C98.6636 111.634 78.0184 109.231 83.1335 95.9446Z" fill="url(#paint16_linear_372_794)"/>
<path d="M169.421 159.424C165.68 156.149 159.721 152.474 151.118 151.42L148.209 153.198C148.209 153.198 150.064 155.933 153.453 158.822C156.568 160.63 161.378 163.079 165.366 163.61C169.243 164.126 169.815 161.784 169.421 159.424Z" fill="url(#paint17_linear_372_794)"/>
<path d="M147.325 118.242C145.021 118.987 144.008 122.249 138.161 120.092C132.505 118.005 128.3 115.313 126.136 113.761C126.088 114.182 126.047 114.621 126.02 115.089C126.02 115.089 136.36 124.919 149.608 127.01C150.602 127.167 151.391 126.175 151.032 125.235C150.389 123.548 149.229 120.989 147.325 118.242Z" fill="#20BDFF"/>
<path d="M172.239 162.22C171.502 161.383 170.56 160.421 169.421 159.423C169.815 161.784 169.243 164.125 165.366 163.609C161.379 163.078 156.569 160.629 153.454 158.821C157.358 162.149 163.298 165.681 170.796 165.473C172.461 165.427 173.339 163.47 172.239 162.22Z" fill="#80D9FF"/>
<path d="M83.4607 102.399L125.256 102.851C125.256 102.851 149.125 122.586 153.454 152.68C153.454 152.68 154.173 154.893 149.858 155.271C149.858 155.271 135.428 145.852 126.018 129.199C114.481 108.78 91.624 117.972 91.624 117.972C84.1138 112.561 73.5017 111.459 65.5068 109.656L83.4607 102.399Z" fill="url(#paint18_linear_372_794)"/>
<path d="M84.4471 68.7507C84.4471 68.7507 88.9465 91.2855 110.992 100.2L118.834 99.2769L120.684 102.225L102.29 102.811C102.29 102.811 86.5662 96.5874 78.2355 79.6283C77.9604 79.0679 73.3729 69.6017 84.4471 68.7507Z" fill="url(#paint19_linear_372_794)"/>
<path d="M86.8604 102.03C86.8604 102.03 81.7439 88.1305 80.6442 74.6248C80.6442 74.6248 84.3872 71.4099 86.7269 70.0229C87.4846 69.5737 87.7707 68.6237 87.3877 67.8308C85.6675 64.2696 75.2652 50.2867 74.4861 50.0924C70.2508 49.0361 52.8808 40.7823 40.6472 57.5054C35.397 64.6824 41.6891 86.7757 65.5083 109.656L70.4221 110.595L86.8604 102.03Z" fill="url(#paint20_linear_372_794)"/>
<path d="M67.1438 77.6692C67.1438 77.6692 81.3592 94.4904 99.5336 96.9495C99.5336 96.9495 104.231 92.67 107.723 94.198C111.216 95.7258 116.005 102.47 116.005 102.47H92.669C92.669 102.47 70.6039 101.693 59.5781 88.3211C60.4654 83.642 63.1222 80.8469 67.1438 77.6692Z" fill="url(#paint21_linear_372_794)"/>
<path d="M58.8516 38.2944L55.7412 48.6618C55.5987 49.1367 55.7747 49.6511 56.1841 49.9313C57.6817 50.9563 61.5955 52.9947 66.9646 51.0138C67.5786 50.7871 67.9994 50.2141 68.0527 49.5621L68.79 40.5306L58.8516 38.2944Z" fill="url(#paint22_linear_372_794)"/>
<path d="M77.0645 29.8973C77.0645 29.8973 75.5352 40.644 71.4043 43.9491C67.2735 47.2539 59.2252 44.7655 56.5068 36.6638L61.9232 22.8113L77.0645 29.8973Z" fill="url(#paint23_linear_372_794)"/>
<path d="M61.3123 31.776C61.6265 31.8772 61.9555 31.6759 62.0046 31.3497C62.1536 30.3576 62.5259 28.3943 63.2795 27.057C63.2795 27.057 62.8853 25.647 66.845 27.777C70.8047 29.9071 76.7522 33.0359 80.2537 31.1728C83.6676 29.3563 87.1258 20.2142 78.1034 21.908C77.7601 21.9725 77.4444 21.6991 77.4701 21.351C77.5809 19.8484 77.4318 16.3917 73.9291 15.2822C70.6514 14.2439 72.4112 15.9269 71.6719 16.8194C71.4543 17.082 71.9464 15.9253 67.2889 16.6019C65.6909 16.8341 63.6404 12.5942 59.715 14.323C56.4816 15.747 55.9787 17.7373 56.0322 18.9776C56.0495 19.3794 55.6414 19.6518 55.2758 19.4834C54.2856 19.0276 52.6927 18.7909 51.167 20.7014C49.0576 23.3427 52.072 25.6331 52.9762 26.2335C53.1243 26.3319 53.2165 26.4949 53.2176 26.6728C53.2261 28.0463 53.4402 34.038 56.445 37.4177C56.7053 37.7104 57.1861 37.6245 57.3377 37.2636L59.6513 31.7546C59.7588 31.4988 60.0441 31.3677 60.3085 31.4527L61.3123 31.776Z" fill="url(#paint24_linear_372_794)"/>
<path d="M61.3613 32.8943C61.3613 32.8943 59.9484 27.1434 57.8023 29.0107C55.6562 30.8778 58.3618 34.9873 60.8204 35.7707L61.3613 32.8943Z" fill="url(#paint25_linear_372_794)"/>
<path d="M114.827 103.777L125.305 68.8565C125.732 67.4319 126.999 66.4211 128.484 66.3197L142.63 65.3523C144.068 65.2539 145.137 66.6578 144.66 68.0168L132.947 101.365C132.569 102.44 131.604 103.199 130.471 103.314L116.54 104.86L114.827 103.777Z" fill="#20BDFF"/>
<path d="M134.153 80.6919C133.37 82.27 132.019 83.1943 131.135 82.7566C130.251 82.3189 130.168 80.6847 130.951 79.1067C131.733 77.5286 133.084 76.6042 133.968 77.042C134.852 77.4797 134.935 79.1138 134.153 80.6919Z" fill="#80D9FF"/>
<path d="M116.542 104.859C116.519 104.859 116.496 104.858 116.473 104.857L86.7906 103.357C86.0568 103.321 85.492 102.696 85.5291 101.963C85.5661 101.229 86.1938 100.653 86.9249 100.702L116.608 102.201C117.342 102.238 117.906 102.863 117.869 103.596C117.833 104.306 117.246 104.859 116.542 104.859Z" fill="#20BDFF"/>
<defs>
<linearGradient id="paint0_linear_372_794" x1="318.117" y1="157.748" x2="318.117" y2="301.933" gradientUnits="userSpaceOnUse">
<stop stop-color="#00FFE8"/>
<stop offset="1" stop-color="#00CFBC"/>
</linearGradient>
<linearGradient id="paint1_linear_372_794" x1="255.496" y1="369.861" x2="255.496" y2="394.452" gradientUnits="userSpaceOnUse">
<stop stop-color="#152F6C"/>
<stop offset="1" stop-color="#2E4A8B"/>
</linearGradient>
<linearGradient id="paint2_linear_372_794" x1="264.766" y1="368.654" x2="253.785" y2="368.654" gradientUnits="userSpaceOnUse">
<stop stop-color="#FEBBBA"/>
<stop offset="1" stop-color="#FF928E"/>
</linearGradient>
<linearGradient id="paint3_linear_372_794" x1="265.516" y1="286.398" x2="265.516" y2="368.012" gradientUnits="userSpaceOnUse">
<stop stop-color="#152F6C"/>
<stop offset="1" stop-color="#2E4A8B"/>
</linearGradient>
<linearGradient id="paint4_linear_372_794" x1="255.325" y1="379.719" x2="255.325" y2="397.604" gradientUnits="userSpaceOnUse">
<stop stop-color="#152F6C"/>
<stop offset="1" stop-color="#2E4A8B"/>
</linearGradient>
<linearGradient id="paint5_linear_372_794" x1="272.707" y1="378.782" x2="262.401" y2="378.782" gradientUnits="userSpaceOnUse">
<stop stop-color="#FEBBBA"/>
<stop offset="1" stop-color="#FF928E"/>
</linearGradient>
<linearGradient id="paint6_linear_372_794" x1="295.663" y1="275.411" x2="295.663" y2="378.781" gradientUnits="userSpaceOnUse">
<stop stop-color="#152F6C"/>
<stop offset="1" stop-color="#2E4A8B"/>
</linearGradient>
<linearGradient id="paint7_linear_372_794" x1="241.217" y1="260.016" x2="205.268" y2="260.016" gradientUnits="userSpaceOnUse">
<stop stop-color="#FEBBBA"/>
<stop offset="1" stop-color="#FF928E"/>
</linearGradient>
<linearGradient id="paint8_linear_372_794" x1="275.514" y1="206.996" x2="251.662" y2="206.996" gradientUnits="userSpaceOnUse">
<stop stop-color="#FEBBBA"/>
<stop offset="1" stop-color="#FF928E"/>
</linearGradient>
<linearGradient id="paint9_linear_372_794" x1="291.783" y1="260.449" x2="383.014" y2="419.083" gradientUnits="userSpaceOnUse">
<stop stop-color="#FEBBBA"/>
<stop offset="1" stop-color="#FF928E"/>
</linearGradient>
<linearGradient id="paint10_linear_372_794" x1="249.22" y1="180.098" x2="268.214" y2="225.725" gradientUnits="userSpaceOnUse">
<stop stop-color="#FEBBBA"/>
<stop offset="1" stop-color="#FF928E"/>
</linearGradient>
<linearGradient id="paint11_linear_372_794" x1="254.562" y1="166.47" x2="254.562" y2="213.504" gradientUnits="userSpaceOnUse">
<stop stop-color="#152F6C"/>
<stop offset="1" stop-color="#2E4A8B"/>
</linearGradient>
<linearGradient id="paint12_linear_372_794" x1="283.7" y1="221.232" x2="266.69" y2="191.505" gradientUnits="userSpaceOnUse">
<stop stop-color="#FEBBBA"/>
<stop offset="1" stop-color="#FF928E"/>
</linearGradient>
<linearGradient id="paint13_linear_372_794" x1="240.777" y1="268.716" x2="240.777" y2="273.972" gradientUnits="userSpaceOnUse">
<stop stop-color="#152F6C"/>
<stop offset="1" stop-color="#2E4A8B"/>
</linearGradient>
<linearGradient id="paint14_linear_372_794" x1="197.16" y1="221.31" x2="197.16" y2="273.937" gradientUnits="userSpaceOnUse">
<stop stop-color="#152F6C"/>
<stop offset="1" stop-color="#2E4A8B"/>
</linearGradient>
<linearGradient id="paint15_linear_372_794" x1="137.667" y1="106.17" x2="137.667" y2="125.969" gradientUnits="userSpaceOnUse">
<stop stop-color="#152F6C"/>
<stop offset="1" stop-color="#2E4A8B"/>
</linearGradient>
<linearGradient id="paint16_linear_372_794" x1="112.555" y1="62.6597" x2="112.555" y2="111.109" gradientUnits="userSpaceOnUse">
<stop stop-color="#152F6C"/>
<stop offset="1" stop-color="#2E4A8B"/>
</linearGradient>
<linearGradient id="paint17_linear_372_794" x1="158.868" y1="151.42" x2="158.868" y2="163.682" gradientUnits="userSpaceOnUse">
<stop stop-color="#152F6C"/>
<stop offset="1" stop-color="#2E4A8B"/>
</linearGradient>
<linearGradient id="paint18_linear_372_794" x1="109.503" y1="102.399" x2="109.503" y2="155.271" gradientUnits="userSpaceOnUse">
<stop stop-color="#152F6C"/>
<stop offset="1" stop-color="#2E4A8B"/>
</linearGradient>
<linearGradient id="paint19_linear_372_794" x1="108.523" y1="75.9854" x2="88.8475" y2="99.3974" gradientUnits="userSpaceOnUse">
<stop stop-color="#FEBBBA"/>
<stop offset="1" stop-color="#FF928E"/>
</linearGradient>
<linearGradient id="paint20_linear_372_794" x1="63.239" y1="47.1279" x2="63.239" y2="110.595" gradientUnits="userSpaceOnUse">
<stop stop-color="#00FFE8"/>
<stop offset="1" stop-color="#00CFBC"/>
</linearGradient>
<linearGradient id="paint21_linear_372_794" x1="85.5648" y1="97.2755" x2="124.889" y2="43.4445" gradientUnits="userSpaceOnUse">
<stop stop-color="#FEBBBA"/>
<stop offset="1" stop-color="#FF928E"/>
</linearGradient>
<linearGradient id="paint22_linear_372_794" x1="61.4903" y1="52.6868" x2="62.9382" y2="39.6478" gradientUnits="userSpaceOnUse">
<stop stop-color="#FEBBBA"/>
<stop offset="1" stop-color="#FF928E"/>
</linearGradient>
<linearGradient id="paint23_linear_372_794" x1="69.2222" y1="41.312" x2="62.8399" y2="20.2486" gradientUnits="userSpaceOnUse">
<stop stop-color="#FEBBBA"/>
<stop offset="1" stop-color="#FF928E"/>
</linearGradient>
<linearGradient id="paint24_linear_372_794" x1="67.1437" y1="13.9075" x2="67.1437" y2="37.5939" gradientUnits="userSpaceOnUse">
<stop stop-color="#152F6C"/>
<stop offset="1" stop-color="#2E4A8B"/>
</linearGradient>
<linearGradient id="paint25_linear_372_794" x1="62.6034" y1="43.318" x2="56.2211" y2="22.2544" gradientUnits="userSpaceOnUse">
<stop stop-color="#FEBBBA"/>
<stop offset="1" stop-color="#FF928E"/>
</linearGradient>
</defs>
</svg>
