<svg width="400" height="400" viewBox="0 0 400 400" fill="none" xmlns="http://www.w3.org/2000/svg">
<path d="M353.635 343.736C345.421 352.342 337.649 357.893 331.509 362.278C259.331 413.825 173.926 398.8 155.775 395.13C128.971 389.712 77.1607 379.238 39.7027 335.393C-16.9681 269.059 -8.14372 164.552 35.814 95.5661C43.8546 82.9473 86.3272 12.9101 172.653 1.67837C224.896 -5.11903 285.794 8.59043 329.896 45.3665C422.468 122.563 415.878 278.513 353.635 343.736Z" fill="#D9F4FF"/>
<path d="M292.051 285.058C345.816 232.581 345.816 147.498 292.051 95.0202C238.286 42.5426 151.115 42.5426 97.3502 95.0202C43.5852 147.498 43.5852 232.581 97.3502 285.058C151.115 337.536 238.286 337.536 292.051 285.058Z" fill="#20BDFF"/>
<path d="M194.703 304.726C259.597 304.726 312.203 253.378 312.203 190.039C312.203 126.699 259.597 75.3516 194.703 75.3516C129.809 75.3516 77.2021 126.699 77.2021 190.039C77.2021 253.378 129.809 304.726 194.703 304.726Z" fill="#2C68F0"/>
<path d="M194.705 310.47C126.67 310.47 71.3193 256.445 71.3193 190.038C71.3193 123.632 126.67 69.6067 194.705 69.6067C262.74 69.6067 318.09 123.632 318.09 190.038C318.09 256.445 262.74 310.47 194.705 310.47ZM194.705 75.3511C129.915 75.3511 77.2048 126.799 77.2048 190.038C77.2048 253.277 129.915 304.725 194.705 304.725C259.495 304.725 312.205 253.277 312.205 190.038C312.205 126.799 259.495 75.3511 194.705 75.3511Z" fill="white"/>
<path d="M194.705 259.957C234.268 259.957 266.339 228.653 266.339 190.038C266.339 151.423 234.268 120.12 194.705 120.12C155.143 120.12 123.071 151.423 123.071 190.038C123.071 228.653 155.143 259.957 194.705 259.957Z" fill="#5085FF"/>
<path d="M194.704 265.702C151.96 265.702 117.185 231.76 117.185 190.039C117.185 148.318 151.96 114.377 194.704 114.377C237.448 114.377 272.223 148.318 272.223 190.039C272.223 231.76 237.448 265.702 194.704 265.702ZM194.704 125.865C158.45 125.865 128.955 154.653 128.955 190.039C128.955 225.425 158.45 254.214 194.704 254.214C230.958 254.214 260.453 225.425 260.453 190.039C260.453 154.653 230.958 125.865 194.704 125.865Z" fill="white"/>
<path d="M194.703 217.128C210.031 217.128 222.456 205 222.456 190.04C222.456 175.079 210.031 162.951 194.703 162.951C179.376 162.951 166.95 175.079 166.95 190.04C166.95 205 179.376 217.128 194.703 217.128Z" fill="#04D0BE"/>
<path d="M194.704 222.873C176.155 222.873 161.065 208.144 161.065 190.039C161.065 171.935 176.155 157.206 194.704 157.206C213.252 157.206 228.342 171.935 228.342 190.039C228.342 208.144 213.252 222.873 194.704 222.873ZM194.704 168.695C182.646 168.695 172.836 178.27 172.836 190.04C172.836 201.809 182.646 211.384 194.704 211.384C206.762 211.384 216.572 201.809 216.572 190.04C216.572 178.27 206.762 168.695 194.704 168.695Z" fill="white"/>
<path d="M326.069 62.1621L328.993 65.0153L218.299 173.058L215.376 170.205L326.069 62.1621Z" fill="url(#paint0_linear_372_1102)"/>
<path d="M217.447 163.323C219.124 161.686 227.03 169.403 225.353 171.039L196.029 193.54C194.946 194.371 193.542 193.001 194.394 191.944L217.447 163.323Z" fill="url(#paint1_linear_372_1102)"/>
<path d="M328.932 65.0781L343.823 66.5227L323.38 86.4767C316.682 93.0144 307.332 96.275 297.906 95.3605L328.932 65.0781Z" fill="#80D9FF"/>
<path d="M326.006 62.2256L324.526 47.6904L304.082 67.6443C297.384 74.1821 294.043 83.3075 294.98 92.5079L326.006 62.2256Z" fill="#80D9FF"/>
<g opacity="0.3">
<path d="M121.644 42.107C121.228 42.5132 120.554 42.5128 120.138 42.1067C119.33 41.3176 118.475 40.551 117.596 39.8282C117.152 39.4625 117.09 38.8176 117.455 38.3787C117.459 38.3735 117.464 38.3683 117.468 38.363C117.847 37.9239 118.519 37.8681 118.969 38.2382C119.894 38.9991 120.794 39.8061 121.645 40.6368C122.034 41.0165 122.059 41.6173 121.72 42.0255C121.696 42.0538 121.671 42.0811 121.644 42.107ZM113.072 36.5965C112.101 35.9976 111.095 35.4337 110.08 34.9197C109.558 34.6554 109.354 34.0278 109.625 33.518C109.899 33.0073 110.539 32.8095 111.062 33.0741C112.129 33.6146 113.188 34.2082 114.21 34.8382C114.707 35.1449 114.856 35.7873 114.542 36.2728C114.519 36.308 114.494 36.3416 114.468 36.3731C114.133 36.7767 113.533 36.8809 113.072 36.5965ZM104.939 32.7451C103.859 32.3732 102.749 32.0427 101.64 31.7627C101.07 31.6189 100.728 31.0515 100.875 30.4957C101.023 29.9404 101.604 29.6059 102.174 29.7494C103.342 30.0444 104.511 30.3925 105.648 30.7841C106.203 30.9751 106.494 31.569 106.298 32.1107C106.257 32.2261 106.196 32.3298 106.121 32.4197C105.846 32.7515 105.376 32.8954 104.939 32.7451ZM96.1279 30.7658C94.9885 30.6388 93.8304 30.5588 92.6853 30.5274C92.0972 30.5112 91.6337 30.0327 91.6502 29.4589C91.6673 28.8851 92.1573 28.4331 92.7449 28.4486C93.9506 28.4818 95.17 28.5662 96.369 28.6994C96.9534 28.7646 97.3734 29.2798 97.3067 29.8503C97.2829 30.0545 97.2 30.2381 97.0765 30.3867C96.855 30.6534 96.5032 30.8074 96.1279 30.7658ZM87.0844 30.752C85.9474 30.8748 84.7994 31.0469 83.6731 31.2641C83.0956 31.375 82.5356 31.0084 82.4216 30.445C82.3076 29.8812 82.6836 29.3346 83.2608 29.2239C84.4457 28.9956 85.6537 28.8145 86.8502 28.6853C87.4348 28.622 87.9614 29.0334 88.026 29.6043C88.0587 29.8919 87.9678 30.1651 87.7948 30.3735C87.6245 30.5785 87.3746 30.7206 87.0844 30.752ZM78.2634 32.6914C77.1808 33.0572 76.1009 33.4728 75.0535 33.9272C74.5159 34.1603 73.8861 33.9239 73.6475 33.3994C73.4085 32.8746 73.6503 32.2603 74.1882 32.0268C75.2903 31.5486 76.4273 31.1112 77.5666 30.7263C78.1227 30.5387 78.7291 30.8263 78.9217 31.3689C79.0468 31.7214 78.9661 32.0946 78.7418 32.3646C78.6208 32.51 78.4585 32.6256 78.2634 32.6914ZM51.0911 60.7523C50.5218 60.6077 50.1803 60.0398 50.3286 59.484C50.6324 58.3456 50.9914 57.2047 51.3955 56.0933C51.5923 55.5521 52.2013 55.269 52.7557 55.4612C53.31 55.653 53.5999 56.2475 53.4033 56.7885C53.0196 57.8438 52.6789 58.9271 52.3905 60.0082C52.3509 60.1566 52.2806 60.2888 52.1877 60.4008C51.9327 60.7076 51.5085 60.8585 51.0911 60.7523ZM70.1071 36.4888C69.1354 37.0801 68.1783 37.7196 67.2622 38.3904C66.7912 38.7347 66.1235 38.6417 65.7706 38.1822C65.4174 37.7225 65.5151 37.0731 65.984 36.7265C66.9487 36.0203 67.9568 35.3468 68.9801 34.7241C69.4794 34.4204 70.1363 34.569 70.4477 35.0564C70.6946 35.4428 70.6497 35.9264 70.3715 36.2614C70.299 36.3488 70.2103 36.4259 70.1071 36.4888ZM54.2046 52.2149C53.683 51.9496 53.4805 51.3214 53.7525 50.8122C54.3097 49.7693 54.9205 48.736 55.5672 47.7408C55.8805 47.2541 56.5406 47.1125 57.0375 47.4198C57.5341 47.7274 57.6813 48.3699 57.3662 48.8549C56.7514 49.8006 56.171 50.7825 55.6418 51.7738C55.608 51.8371 55.5682 51.8953 55.524 51.9486C55.2115 52.3247 54.6614 52.4474 54.2046 52.2149ZM63.0263 41.9692C62.2152 42.7574 61.4282 43.5899 60.6873 44.4445C60.3074 44.8832 59.6353 44.9377 59.186 44.5667C58.7428 44.2006 58.6825 43.5568 59.0464 43.1186C59.0512 43.113 59.0561 43.1071 59.0611 43.1017C59.8407 42.2019 60.6691 41.3251 61.5227 40.4956C61.9399 40.0906 62.6143 40.092 63.0295 40.4989C63.4172 40.8789 63.4414 41.4787 63.1028 41.8863C63.079 41.9147 63.0533 41.9424 63.0263 41.9692Z" fill="#80D9FF"/>
<path d="M50.9637 67.603C51.0958 67.444 51.1815 67.2454 51.1981 67.0256C51.2383 66.4909 51.291 65.9484 51.3538 65.4122C51.4209 64.8418 51.0013 64.3261 50.4171 64.2608C49.8326 64.1952 49.3035 64.6044 49.2374 65.1753C49.171 65.739 49.1158 66.3097 49.0733 66.8724C49.0299 67.4449 49.4707 67.9437 50.0571 67.9858C50.4187 68.012 50.7514 67.8586 50.9637 67.603Z" fill="#80D9FF"/>
</g>
<g opacity="0.3">
<path d="M61.413 97.6177C61.7369 97.2279 61.7323 96.6557 61.3782 96.2699C61.0116 95.8709 60.6474 95.4573 60.2962 95.0413C59.9218 94.5981 59.2504 94.5351 58.7965 94.9003C58.3406 95.2672 58.278 95.9212 58.652 96.3641C59.0222 96.802 59.4056 97.2376 59.7913 97.6579C60.184 98.0855 60.8575 98.1214 61.2958 97.7383C61.3387 97.7006 61.3778 97.6601 61.413 97.6177Z" fill="#80D9FF"/>
<path d="M123.174 97.7101C122.782 98.1379 122.108 98.1743 121.67 97.7909C121.232 97.4078 121.195 96.7516 121.587 96.3228C122.334 95.5083 123.057 94.6501 123.745 93.7625C124.097 93.3056 124.769 93.2144 125.238 93.5608C125.707 93.9072 125.799 94.5593 125.445 95.0174C125.147 95.4019 124.843 95.7802 124.535 96.1518C124.094 96.682 123.637 97.2064 123.174 97.7101ZM127.175 90.6739C126.662 90.3927 126.48 89.7588 126.768 89.2583C127.321 88.297 127.839 87.3029 128.307 86.3029C128.549 85.7804 129.182 85.5501 129.718 85.7884C130.253 86.0267 130.489 86.6435 130.245 87.1657C129.752 88.2186 129.208 89.2654 128.625 90.2766C128.595 90.329 128.561 90.3781 128.523 90.4232C128.202 90.8096 127.634 90.9258 127.175 90.6739ZM119.015 101.662C118.111 102.411 117.162 103.131 116.194 103.804C115.714 104.137 115.049 104.028 114.708 103.56C114.367 103.093 114.479 102.444 114.958 102.11C115.877 101.471 116.778 100.787 117.637 100.076C118.085 99.705 118.758 99.7588 119.138 100.197C119.475 100.584 119.47 101.142 119.154 101.523C119.113 101.573 119.067 101.62 119.015 101.662ZM130.961 82.5583C130.397 82.3939 130.077 81.8144 130.246 81.2643C130.569 80.2097 130.85 79.1289 131.08 78.0523C131.2 77.4897 131.765 77.1297 132.341 77.2474C132.917 77.3648 133.286 77.9155 133.165 78.4775C132.923 79.6114 132.627 80.7496 132.287 81.8599C132.246 81.994 132.179 82.1144 132.094 82.2168C131.831 82.5344 131.387 82.6826 130.961 82.5583ZM111.249 106.764C110.199 107.299 109.111 107.798 108.015 108.247C107.472 108.47 106.848 108.221 106.621 107.691C106.393 107.162 106.648 106.552 107.19 106.33C108.232 105.904 109.265 105.43 110.262 104.921C110.783 104.655 111.427 104.852 111.699 105.361C111.902 105.74 111.842 106.185 111.583 106.498C111.494 106.605 111.381 106.696 111.249 106.764ZM102.524 110.079C101.377 110.379 100.204 110.634 99.0368 110.839C98.4576 110.94 97.9039 110.565 97.7997 109.999C97.6957 109.433 98.0807 108.893 98.6599 108.792C99.7687 108.598 100.884 108.355 101.974 108.07C102.542 107.922 103.126 108.252 103.278 108.807C103.37 109.141 103.283 109.481 103.076 109.73C102.939 109.895 102.75 110.02 102.524 110.079ZM93.2665 111.46C92.0793 111.508 90.8767 111.509 89.6927 111.46C89.1046 111.436 88.6483 110.952 88.6727 110.378C88.6973 109.804 89.1939 109.359 89.7813 109.383C90.9067 109.429 92.0489 109.428 93.1775 109.382C93.7653 109.358 94.2618 109.804 94.2862 110.378C94.2977 110.641 94.2076 110.886 94.0498 111.076C93.8639 111.299 93.5843 111.447 93.2665 111.46ZM83.9208 110.837C82.7517 110.631 81.5779 110.374 80.4322 110.072C79.8642 109.923 79.5277 109.352 79.6808 108.798C79.8337 108.244 80.4187 107.915 80.9867 108.064C82.0744 108.351 83.1888 108.595 84.2996 108.791C84.8785 108.893 85.2631 109.433 85.1585 109.998C85.1255 110.177 85.0477 110.336 84.9384 110.468C84.7015 110.753 84.3171 110.907 83.9208 110.837ZM74.9391 108.223C73.8478 107.772 72.7619 107.269 71.7111 106.728C71.1907 106.46 70.991 105.831 71.2656 105.323C71.5394 104.817 72.1841 104.621 72.7047 104.889C73.7028 105.402 74.7343 105.88 75.7708 106.309C76.3124 106.533 76.5654 107.143 76.3358 107.672C76.2959 107.764 76.2441 107.848 76.1826 107.922C75.891 108.272 75.3863 108.408 74.9391 108.223ZM66.7731 103.753C66.0623 103.258 65.3585 102.735 64.6813 102.199C64.436 102.005 64.1939 101.809 63.9542 101.61C63.5056 101.239 63.4365 100.581 63.8305 100.145C64.2106 99.7066 64.8829 99.6526 65.3319 100.024C65.5597 100.212 65.7901 100.399 66.0232 100.583C66.6671 101.093 67.3358 101.59 68.0115 102.061C68.4902 102.395 68.601 103.044 68.2591 103.511C68.2462 103.529 68.233 103.546 68.2193 103.563C67.8672 103.986 67.2336 104.075 66.7731 103.753Z" fill="#80D9FF"/>
<path d="M133.726 73.4196C133.86 73.259 133.945 73.0585 133.961 72.8369C134.001 72.2752 134.029 71.7022 134.045 71.1337C134.061 70.5595 133.597 70.0815 133.009 70.0658C132.421 70.0503 131.931 70.5021 131.915 71.0766C131.9 71.6168 131.873 72.161 131.836 72.6943C131.795 73.2668 132.238 73.7634 132.825 73.8028C133.185 73.8268 133.515 73.6736 133.726 73.4196Z" fill="#80D9FF"/>
</g>
<path d="M121.743 59.9675C121.699 59.7644 121.529 59.6106 121.318 59.5844L115.307 58.8353C114.114 56.3306 112.504 53.9935 110.497 51.9338L111.985 46.2042C112.037 46.0032 111.953 45.7921 111.775 45.6784L105.697 41.7885C105.519 41.6747 105.287 41.6836 105.119 41.8104L100.329 45.4271C97.5933 44.4518 94.7551 43.9418 91.9261 43.8727L88.8255 38.791C88.7169 38.6129 88.5043 38.5217 88.2964 38.5639L81.1801 40.0086C80.9722 40.0507 80.8145 40.2171 80.7877 40.4229L80.0203 46.2899C77.454 47.4542 75.0595 49.0263 72.9495 50.9855L67.0793 49.533C66.8734 49.482 66.657 49.5642 66.5407 49.7375L62.5552 55.6706C62.4387 55.844 62.4479 56.0704 62.5777 56.2344L66.2831 60.9097C65.2837 63.5797 64.7614 66.3499 64.6908 69.1111L59.4843 72.1375C59.3019 72.2435 59.2083 72.4509 59.2517 72.6539L60.7318 79.5999C60.775 79.8027 60.9456 79.9566 61.1561 79.9829L67.1672 80.732C68.36 83.2369 69.9707 85.5738 71.9779 87.6335L70.4899 93.3631C70.4376 93.5641 70.5218 93.7753 70.6994 93.8888L76.7781 97.7788C76.9557 97.8925 77.1877 97.8836 77.3557 97.7567L82.1457 94.1401C84.8812 95.1154 87.7193 95.6254 90.5483 95.6944L93.6489 100.776C93.7575 100.954 93.9699 101.046 94.1781 101.003L101.294 99.5586C101.502 99.5163 101.66 99.3501 101.687 99.1445L102.454 93.2774C105.02 92.1131 107.415 90.541 109.525 88.5819L115.395 90.0344C115.601 90.0852 115.817 90.0031 115.934 89.8298L119.919 83.8967C120.036 83.7233 120.027 83.4969 119.897 83.3329L116.191 78.6577C117.191 75.9877 117.713 73.2176 117.784 70.4563L122.99 67.43C123.173 67.3239 123.266 67.1164 123.223 66.9135L121.743 59.9675Z" fill="#80D9FF"/>
<path d="M96.1809 75.0346C93.2145 77.6952 88.5836 77.5044 85.8574 74.6089C84.5367 73.2065 83.8548 71.3858 83.9374 69.4827C84.0195 67.5798 84.856 65.8216 86.2935 64.5329C89.26 61.8723 93.8908 62.063 96.617 64.9585C99.0969 67.5927 99.159 71.5713 96.9159 74.2716C96.6936 74.5394 96.4484 74.7947 96.1809 75.0346ZM85.6404 69.5531C85.5772 71.0123 86.1 72.408 87.1127 73.4837C89.2026 75.7033 92.7535 75.8499 95.0278 73.8099C97.3034 71.77 97.4521 68.3041 95.362 66.0841C93.272 63.8644 89.7211 63.7178 87.4469 65.7578C87.2407 65.9428 87.051 66.1402 86.8777 66.3487C86.1255 67.2544 85.6918 68.3671 85.6404 69.5531Z" fill="#20BDFF"/>
<path d="M105.018 80.8726C105.404 80.4089 105.767 79.9234 106.107 79.4175C106.214 79.2582 106.319 79.0971 106.42 78.9346C106.922 78.1328 107.357 77.2934 107.72 76.4293C107.725 76.4175 107.73 76.4058 107.735 76.394C107.749 76.3606 107.763 76.3271 107.776 76.2933C107.803 76.228 107.829 76.1625 107.855 76.0969C107.923 75.9246 107.866 75.735 107.726 75.6243C107.692 75.5974 107.654 75.5753 107.611 75.5592C107.391 75.4765 107.145 75.5838 107.06 75.7977C106.624 76.9006 106.064 77.9648 105.394 78.9611C102.07 83.9116 96.4927 86.5708 90.8369 86.4998C87.6909 86.4608 84.5208 85.5766 81.7003 83.7715C81.2056 83.4551 80.731 83.1165 80.2779 82.7578C77.2282 80.3438 75.1393 77.0073 74.3291 73.2047C73.3982 68.8367 74.2658 64.3761 76.772 60.6451C81.9488 52.9401 92.5753 50.7851 100.466 55.8348C100.953 56.1462 101.421 56.4804 101.87 56.8359C103.815 58.3758 105.394 60.3142 106.485 62.5171C106.513 62.574 106.553 62.6218 106.6 62.6589C106.724 62.7571 106.901 62.7829 107.054 62.7103C107.266 62.6096 107.355 62.362 107.252 62.1547C106.106 59.842 104.449 57.8067 102.407 56.1901C101.936 55.8169 101.444 55.4662 100.934 55.1392C92.649 49.8374 81.4891 52.1055 76.0592 60.1888C73.428 64.1058 72.5174 68.7883 73.4947 73.3739C74.3451 77.3662 76.5382 80.8687 79.7397 83.4031C80.2155 83.7796 80.7137 84.135 81.2327 84.4672C85.2461 87.0353 90.0435 87.9244 94.7415 86.9707C98.8327 86.1401 102.422 83.9985 105.018 80.8726Z" fill="#20BDFF"/>
<g opacity="0.3">
<path d="M166.423 31.7193C166.602 31.5036 166.623 31.1906 166.453 30.9503C166.136 30.5016 165.8 30.0561 165.456 29.6263C165.232 29.3471 164.819 29.2978 164.532 29.5162C164.245 29.734 164.196 30.1384 164.419 30.4177C164.748 30.8272 165.067 31.2518 165.37 31.68C165.576 31.9717 165.986 32.045 166.285 31.8438C166.338 31.808 166.384 31.7659 166.423 31.7193Z" fill="#80D9FF"/>
<path d="M163.131 27.9782C162.874 28.2294 162.458 28.2305 162.2 27.9801C161.55 27.3489 160.859 26.7427 160.147 26.1791C159.997 26.0602 159.844 25.9427 159.691 25.8261C159.404 25.6086 159.352 25.2052 159.575 24.925C159.796 24.6683 160.211 24.5944 160.498 24.8118C160.659 24.9338 160.818 25.0569 160.976 25.1813C161.722 25.7722 162.447 26.4076 163.128 27.0698C163.37 27.304 163.386 27.676 163.176 27.9288C163.162 27.9458 163.147 27.962 163.131 27.9782ZM156.932 23.9863C155.977 23.4298 154.979 22.926 153.964 22.4893C153.632 22.3459 153.481 21.9674 153.628 21.6426C153.774 21.32 154.163 21.1709 154.495 21.3142C155.559 21.7718 156.605 22.2999 157.606 22.8837C157.918 23.0656 158.02 23.46 157.834 23.7647C157.818 23.7913 157.799 23.8166 157.78 23.8402C157.577 24.0843 157.216 24.1521 156.932 23.9863ZM150.829 21.3618C149.765 21.0509 148.67 20.8022 147.574 20.6222C147.216 20.5633 146.974 20.232 147.035 19.8825C147.095 19.5316 147.434 19.2965 147.793 19.3556C148.942 19.5443 150.09 19.8056 151.206 20.131C151.554 20.2329 151.752 20.5907 151.648 20.9305C151.622 21.0131 151.581 21.0873 151.528 21.1506C151.366 21.3467 151.092 21.4384 150.829 21.3618ZM144.251 20.281C143.14 20.2342 142.016 20.2544 140.911 20.3414C140.549 20.3697 140.232 20.1063 140.203 19.7528C140.174 19.4002 140.443 19.0898 140.805 19.061C141.964 18.97 143.143 18.9488 144.308 18.9979C144.671 19.013 144.953 19.3131 144.937 19.6675C144.93 19.8102 144.877 19.9401 144.791 20.0435C144.664 20.1961 144.468 20.2903 144.251 20.281ZM137.603 20.8005C136.514 21.0188 135.429 21.3048 134.378 21.6506C134.034 21.7639 133.66 21.5832 133.544 21.2469C133.428 20.9108 133.612 20.5462 133.958 20.4334C135.059 20.0709 136.197 19.7712 137.338 19.542C137.694 19.4709 138.041 19.6945 138.114 20.0417C138.156 20.238 138.101 20.4317 137.981 20.576C137.888 20.6872 137.757 20.7692 137.603 20.8005ZM131.285 22.8794C130.284 23.3491 129.305 23.8842 128.373 24.4704C128.067 24.6624 127.66 24.5765 127.463 24.2785C127.267 23.9804 127.354 23.5843 127.66 23.3905C128.637 22.7759 129.665 22.2145 130.715 21.7218C131.042 21.5684 131.435 21.7026 131.592 22.0221C131.706 22.2535 131.666 22.5185 131.511 22.7053C131.451 22.7766 131.376 22.8369 131.285 22.8794ZM125.682 26.4019C124.833 27.0947 124.017 27.8488 123.257 28.644C123.009 28.9029 122.593 28.9171 122.327 28.675C122.062 28.4334 122.051 28.0308 122.295 27.767C123.092 26.9341 123.947 26.1432 124.838 25.4165C125.117 25.1893 125.532 25.2254 125.765 25.4975C125.97 25.7368 125.966 26.0794 125.772 26.3132C125.745 26.3447 125.715 26.3746 125.682 26.4019ZM118.444 34.1633C118.126 33.9916 118.011 33.6011 118.187 33.2906C118.674 32.4315 119.218 31.5837 119.801 30.7729C119.889 30.6492 119.979 30.5273 120.069 30.4059C120.273 30.1144 120.694 30.0554 120.988 30.265C121.282 30.4738 121.346 30.8752 121.133 31.1623C121.048 31.2757 120.964 31.3907 120.88 31.5086C120.321 32.2845 119.803 33.0932 119.338 33.9124C119.319 33.9462 119.297 33.9777 119.273 34.0065C119.076 34.244 118.727 34.3164 118.444 34.1633Z" fill="#80D9FF"/>
</g>
<g opacity="0.3">
<path d="M164.88 64.4759C164.147 65.3361 163.352 66.1597 162.521 66.925C162.256 67.1677 161.84 67.156 161.59 66.8977C161.341 66.6393 161.358 66.2337 161.618 65.9897C162.412 65.2604 163.169 64.4745 163.869 63.6538C164.101 63.3811 164.516 63.3444 164.795 63.5711C165.072 63.7963 165.112 64.1967 164.886 64.469C164.884 64.4713 164.882 64.4736 164.88 64.4759ZM166.012 61.9562C165.707 61.7637 165.62 61.3659 165.817 61.0684C166.411 60.1726 166.955 59.2327 167.434 58.2745C167.594 57.9582 167.988 57.8234 168.314 57.9797C168.641 58.1351 168.776 58.5193 168.617 58.8383C168.115 59.8423 167.544 60.8274 166.922 61.7659C166.909 61.7858 166.895 61.8043 166.88 61.8223C166.671 62.0737 166.298 62.1363 166.012 61.9562ZM159.872 69.0773C158.946 69.7393 157.972 70.3518 156.975 70.8976C156.658 71.0711 156.257 70.9607 156.079 70.6516C155.901 70.3423 156.014 69.9525 156.331 69.7773C157.282 69.2568 158.211 68.6727 159.094 68.0415C159.388 67.8318 159.799 67.894 160.014 68.1796C160.194 68.4202 160.178 68.7425 159.994 68.9636C159.959 69.0055 159.919 69.0438 159.872 69.0773ZM169.1 56.1275C168.757 56.0122 168.574 55.6466 168.692 55.3113C169.048 54.3026 169.343 53.2628 169.57 52.22C169.646 51.8736 169.996 51.6521 170.35 51.7251C170.706 51.799 170.933 52.1399 170.857 52.4869C170.62 53.5805 170.31 54.6716 169.936 55.7294C169.91 55.8024 169.872 55.8681 169.825 55.9248C169.656 56.1283 169.369 56.2176 169.1 56.1275ZM153.874 72.3598C152.815 72.7842 151.719 73.1495 150.614 73.4463C150.264 73.5405 149.902 73.3393 149.805 72.9974C149.709 72.6554 149.914 72.3017 150.265 72.2076C151.319 71.9252 152.365 71.5764 153.374 71.1713C153.71 71.0367 154.095 71.1931 154.233 71.5217C154.328 71.7464 154.282 71.9938 154.135 72.1704C154.068 72.251 153.98 72.3174 153.874 72.3598ZM147.244 74.1424C146.11 74.3072 144.955 74.406 143.812 74.4366C143.449 74.4464 143.147 74.1672 143.137 73.8126C143.127 73.4585 143.413 73.1626 143.777 73.153C144.866 73.1237 145.968 73.0292 147.051 72.8719C147.41 72.8196 147.745 73.0619 147.799 73.4127C147.827 73.5979 147.771 73.7767 147.659 73.9119C147.559 74.0321 147.414 74.1178 147.244 74.1424ZM140.367 74.3244C139.225 74.2194 138.079 74.0447 136.962 73.8059C136.606 73.7298 136.382 73.3875 136.46 73.041C136.537 72.6947 136.889 72.4758 137.243 72.5512C138.308 72.7794 139.401 72.9457 140.49 73.0453C140.852 73.0786 141.118 73.3919 141.084 73.745C141.072 73.8762 141.019 73.994 140.94 74.0889C140.806 74.2499 140.595 74.3451 140.367 74.3244Z" fill="#80D9FF"/>
<path d="M171.226 49.478C171.306 49.3818 171.358 49.2621 171.37 49.1294C171.419 48.5817 171.451 48.0304 171.466 47.4901C171.476 47.1357 171.19 46.8402 170.826 46.8303C170.464 46.8216 170.161 47.1003 170.151 47.4548C170.136 47.9699 170.105 48.496 170.059 49.0187C170.028 49.372 170.296 49.6834 170.658 49.7138C170.884 49.7326 171.093 49.6381 171.226 49.478Z" fill="#80D9FF"/>
</g>
<path d="M163.289 40.0215C163.26 39.8856 163.146 39.7827 163.005 39.7652L158.983 39.2638C158.185 37.5878 157.107 36.024 155.764 34.6458L156.76 30.8118C156.795 30.6773 156.738 30.5361 156.619 30.4599L152.552 27.857C152.433 27.7808 152.278 27.7868 152.165 27.8716L148.96 30.2918C147.13 29.6391 145.23 29.2978 143.337 29.2517L141.263 25.8512C141.19 25.732 141.048 25.671 140.908 25.6992L136.147 26.6659C136.007 26.6942 135.902 26.8055 135.884 26.9431L135.37 30.8689C133.653 31.6481 132.051 32.7 130.639 34.0111L126.711 33.0392C126.573 33.0051 126.428 33.0601 126.35 33.176L123.684 37.1462C123.606 37.2623 123.612 37.4138 123.699 37.5235L126.178 40.652C125.509 42.4386 125.16 44.2923 125.113 46.1401L121.629 48.1651C121.506 48.236 121.444 48.3748 121.473 48.5107L122.463 53.1586C122.492 53.2944 122.606 53.3973 122.747 53.4149L126.77 53.9163C127.568 55.5923 128.646 57.1563 129.989 58.5345L128.993 62.3685C128.958 62.503 129.014 62.6442 129.133 62.7204L133.201 65.3234C133.32 65.3995 133.475 65.3936 133.587 65.3086L136.792 62.8886C138.623 63.5413 140.522 63.8825 142.415 63.9287L144.49 67.3292C144.563 67.4484 144.705 67.5094 144.844 67.4811L149.606 66.5145C149.745 66.4862 149.85 66.3749 149.869 66.2373L150.382 62.3113C152.099 61.5323 153.701 60.4802 155.114 59.1693L159.042 60.1412C159.179 60.1752 159.324 60.1203 159.402 60.0042L162.069 56.0341C162.147 55.9182 162.141 55.7666 162.054 55.6569L159.574 52.5283C160.243 50.7417 160.593 48.888 160.64 47.0403L164.124 45.0152C164.246 44.9442 164.308 44.8054 164.279 44.6695L163.289 40.0215Z" fill="#80D9FF"/>
<path d="M146.243 50.1658C145.264 51.0443 143.994 51.4978 142.665 51.4427C141.338 51.3882 140.111 50.8319 139.211 49.8763C137.354 47.9043 137.488 44.8307 139.508 43.0124C141.529 41.2004 144.684 41.3306 146.54 43.3025C147.439 44.2578 147.904 45.4979 147.848 46.7943C147.802 47.848 147.417 48.8366 146.748 49.6412C146.595 49.8261 146.426 50.0016 146.243 50.1658ZM140.18 49.007C140.842 49.71 141.744 50.1193 142.721 50.1597C143.698 50.1999 144.633 49.8663 145.353 49.2206C146.072 48.5739 146.492 47.6939 146.533 46.74C146.575 45.7867 146.232 44.8743 145.571 44.1718C144.205 42.7212 141.885 42.6254 140.398 43.9582C140.264 44.0787 140.142 44.2064 140.03 44.3406C138.906 45.6935 138.937 47.6875 140.18 49.007Z" fill="#20BDFF"/>
<path d="M152.395 54.2285C152.657 53.9128 152.905 53.5817 153.138 53.235C153.601 52.5464 153.993 51.8112 154.303 51.0477C154.316 51.0133 154.33 50.9789 154.344 50.9445C154.449 50.6783 154.36 50.3857 154.145 50.2148C154.092 50.1734 154.032 50.1392 153.966 50.1143C153.627 49.9866 153.248 50.1528 153.116 50.4825C152.833 51.198 152.471 51.8869 152.038 52.5303L152.038 52.5306C152.014 52.566 151.99 52.6011 151.966 52.636C150.928 54.1497 149.542 55.3535 147.932 56.1771C147.057 56.624 146.116 56.9586 145.127 57.1685C145.119 57.1703 145.111 57.1719 145.103 57.1736C145.078 57.1786 145.054 57.184 145.029 57.1888C142.132 57.7767 139.173 57.2287 136.699 55.645C136.379 55.4402 136.071 55.2212 135.778 54.9889C133.804 53.4262 132.452 51.2661 131.927 48.804C131.324 45.9762 131.886 43.0889 133.509 40.6738C135.131 38.2606 137.62 36.6043 140.517 36.0157C143.414 35.4278 146.373 35.9758 148.847 37.5595C149.162 37.7608 149.466 37.9774 149.756 38.2072C151.016 39.2044 152.037 40.4589 152.744 41.885C152.787 41.9728 152.848 42.0466 152.922 42.104C153.113 42.2557 153.385 42.2955 153.622 42.1834C153.949 42.0282 154.087 41.6453 153.928 41.3253C153.138 39.7297 151.994 38.3256 150.586 37.2103C150.261 36.9527 149.922 36.7107 149.569 36.4853C146.8 34.7134 143.491 34.1001 140.249 34.7582C137.008 35.4164 134.222 37.2642 132.408 39.969C130.593 42.6713 129.964 45.9015 130.639 49.0655C131.226 51.8198 132.739 54.2364 134.947 55.9847C135.275 56.2441 135.619 56.4895 135.977 56.7187C141.338 60.1488 148.442 58.9873 152.395 54.2285Z" fill="#20BDFF"/>
<path d="M86.1437 357.57C86.1437 357.57 85.4028 361.448 85.0206 365.289C84.8712 366.79 86.0452 368.106 87.5887 368.183C92.8323 368.445 104.049 368.965 108.077 368.827C108.683 368.806 109.084 368.205 108.866 367.653C108.682 367.191 108.324 366.815 107.865 366.604L89.4114 358.117L86.1437 357.57Z" fill="url(#paint2_linear_372_1102)"/>
<path d="M85.5889 355.283L86.1082 359.934C86.1082 359.934 89.3405 361.44 91.5741 359.799L90.2802 354.61L85.5889 355.283Z" fill="url(#paint3_linear_372_1102)"/>
<path d="M86.8673 267.946C86.6116 269.157 84.9663 328.476 91.2037 355.124C91.3054 355.559 91.0758 356.004 90.6512 356.169C89.6507 356.557 87.6915 357.114 85.3493 357.169C84.6241 357.186 83.9784 356.72 83.7804 356.039C81.9835 349.853 73.3858 318.863 72.5134 289.328C71.5386 256.325 72.5245 288.205 72.5245 288.205L73.4846 267.819L86.8673 267.946Z" fill="url(#paint4_linear_372_1102)"/>
<path d="M64.8015 359.398C64.8015 359.398 63.6634 361.349 62.5293 366.549C62.3245 367.488 62.9893 368.395 63.9674 368.498C65.698 368.68 68.3623 368.919 70.4985 368.924C71.4831 368.927 72.2597 368.097 72.1506 367.142C71.9326 365.238 71.2259 362.111 68.9727 359.658L64.8015 359.398Z" fill="url(#paint5_linear_372_1102)"/>
<path d="M63.8789 353.414L65.1297 360.452C65.1297 360.452 66.4252 361.411 69.0129 360.749L68.4569 353.184L63.8789 353.414Z" fill="url(#paint6_linear_372_1102)"/>
<path d="M61.1323 269.527C55.5123 300.78 61.5288 346.905 63.6217 355.941C63.7499 356.495 64.2021 356.922 64.7745 357.02C65.7464 357.186 67.348 357.33 68.9325 356.896C69.4784 356.747 69.8656 356.272 69.8931 355.719C70.257 348.432 70.1678 303.68 75.292 286.041C75.5517 285.147 76.12 284.371 76.9011 283.84L86.5767 277.26L87.4189 266.488L61.1323 269.527Z" fill="url(#paint7_linear_372_1102)"/>
<path d="M95.5729 210.529C79.6503 210.124 62.0363 214.299 62.0363 214.299C57.025 241.289 60.6372 272.509 60.6372 272.509C72.9352 275.78 86.8926 270.824 86.8926 270.824C89.0522 259.543 98.9239 227.83 98.9239 227.83C106.714 226.96 113.145 224.828 118.452 221.981C114.47 217.388 112.629 211.574 111.838 208.139C106.191 209.795 100.484 210.654 95.5729 210.529Z" fill="url(#paint8_linear_372_1102)"/>
<path d="M142.837 188.071C141.291 186.212 139.302 187.066 139.302 187.066C136.864 196.707 124.499 204.427 111.838 208.139C112.629 211.573 114.47 217.387 118.452 221.98C139.516 210.677 142.837 188.071 142.837 188.071Z" fill="url(#paint9_linear_372_1102)"/>
<path d="M142.453 188.538C142.612 189.047 140.709 189.803 139.613 187.715C139.584 186.719 139.005 182.448 139.623 181.643C142.911 177.353 149.258 171.997 149.258 171.997C150.311 173.031 149.425 174.029 149.425 174.029L146.342 177.105C146.969 178.238 147.739 179.196 148.091 180.562C148.357 181.596 148.177 182.697 147.634 183.631C147.089 184.568 146.346 185.787 145.645 186.739C144.319 188.541 142.453 188.538 142.453 188.538Z" fill="url(#paint10_linear_372_1102)"/>
<path d="M144.986 179.107L142.181 181.383L141.285 183.667L143.74 186.377C143.74 186.377 144.618 181.837 145.248 180.858C145.877 179.879 145.56 179.4 144.986 179.107Z" fill="url(#paint11_linear_372_1102)"/>
<path d="M67.9971 229.407L62.0361 214.299C62.0361 214.299 47.0646 224.025 44.4961 236.51C47.3047 236.738 52.4122 237.499 57.3942 240.013C58.552 234.117 67.9971 229.407 67.9971 229.407Z" fill="url(#paint12_linear_372_1102)"/>
<path d="M80.8562 243.69C80.8562 243.69 64.0652 252.747 58.507 244.828C57.3531 243.183 57.0891 241.558 57.3926 240.013C52.4105 237.499 47.3032 236.738 44.4944 236.509C43.7201 240.273 44.0707 244.287 46.3011 248.361C55.9998 266.078 83.0271 247.729 83.0271 247.729L80.8562 243.69Z" fill="url(#paint13_linear_372_1102)"/>
<path d="M79.5653 197.76L74.3584 212.015C74.2721 212.251 74.3692 212.515 74.593 212.638C75.967 213.396 80.9222 215.597 86.9555 211.942C87.5841 211.561 88.0154 210.935 88.1173 210.219L89.8792 197.855L79.5653 197.76Z" fill="url(#paint14_linear_372_1102)"/>
<path d="M90.7203 184.618C90.7203 184.618 96.1847 194.893 95.4312 199.016C94.6776 203.139 87.7844 202.778 81.7954 199.368L77.6953 188.29L90.7203 184.618Z" fill="url(#paint15_linear_372_1102)"/>
<path d="M82.1136 193.949C82.3594 193.845 82.4525 193.554 82.3082 193.334C81.8687 192.665 81.0465 191.301 80.7913 190.111C80.7913 190.111 79.7972 189.477 83.3515 188.681C86.9058 187.886 92.2067 186.649 93.347 183.714C94.4588 180.851 91.6821 173.601 87.0828 179.314C86.9079 179.532 86.5693 179.533 86.3987 179.312C85.6634 178.359 83.7245 176.377 80.9946 177.543C78.4399 178.633 78.1356 180.45 78.1616 181.367C78.1693 181.637 77.92 181.844 77.6488 181.791C76.3651 181.54 73.2807 181.305 71.8098 184.382C70.5984 186.917 71.3557 188.365 72.051 189.076C72.2763 189.306 72.1729 189.682 71.8599 189.772C71.0122 190.017 69.9139 190.706 70.0043 192.64C70.1292 195.314 73.1925 195.107 74.0651 194.993C74.2081 194.974 74.3515 195.023 74.4471 195.129C75.1865 195.943 78.5196 199.401 82.1595 199.848C82.4746 199.887 82.7222 199.585 82.6218 199.291L81.0885 194.802C81.0173 194.594 81.1214 194.367 81.328 194.28L82.1136 193.949Z" fill="url(#paint16_linear_372_1102)"/>
<path d="M82.7425 194.589C82.7425 194.589 78.8066 191.899 78.4953 194.131C78.1842 196.362 82.0313 197.4 83.95 196.585L82.7425 194.589Z" fill="url(#paint17_linear_372_1102)"/>
<path d="M77.4273 258.003L86.574 226.825C86.6778 226.471 86.9872 226.213 87.3618 226.17C89.0189 225.982 93.821 225.452 99.3654 224.994C106.044 224.443 113.799 223.996 118.434 224.376C119.093 224.43 119.491 225.11 119.198 225.689C116.563 230.893 105.722 252.063 100.293 258.997C100.113 259.227 99.8352 259.362 99.539 259.359L78.3171 259.166C77.6995 259.16 77.2573 258.582 77.4273 258.003Z" fill="url(#paint18_linear_372_1102)"/>
<path d="M79.6373 250.47C79.6373 250.47 78.363 245.356 78.8771 243.542C79.3911 241.728 80.3868 239.395 83.7061 239.913C87.0254 240.432 90.9408 241.796 90.9408 241.796C90.9408 241.796 90.7431 244.16 88.2203 243.397L89.7847 244.579C89.7847 244.579 89.5611 246.471 87.4302 245.46L88.8852 247.027C88.8852 247.027 87.97 248.581 86.4023 247.584C84.8346 246.587 84.0831 251.086 79.6373 250.47Z" fill="url(#paint19_linear_372_1102)"/>
<path d="M98.7559 234.303C98.7559 235.75 99.958 236.924 101.441 236.924C102.924 236.924 104.126 235.75 104.126 234.303C104.126 232.856 102.924 231.682 101.441 231.682C99.958 231.682 98.7559 232.856 98.7559 234.303Z" fill="#80D9FF"/>
<path d="M87.6088 236.029L89.471 229.863C89.6995 229.106 90.3233 228.537 91.0986 228.379C96.9355 227.19 112.911 226.938 113.072 226.936L113.061 226.239C112.402 226.249 96.8561 226.495 90.9528 227.697C89.9197 227.908 89.0895 228.662 88.786 229.666L86.9238 235.832L87.6088 236.029Z" fill="#20BDFF"/>
<path d="M325.328 189.661C325.582 189.188 326.3 189.262 326.446 189.777C326.989 191.683 328.302 195.008 331.056 196.189C331.195 196.249 331.326 196.309 331.453 196.369C331.578 196.004 331.58 195.579 331.281 195.133C330.424 193.855 331.971 192.11 331.971 192.11C331.971 192.11 332.073 193.647 333.27 194.615C334.301 195.448 334.795 197.303 334.091 198.824C332.6 204.477 330.367 211.953 339.064 217.415C347.761 222.876 360.008 207.107 360.008 207.107L353.93 225.916C353.93 225.916 344.547 232.674 333.634 223.171C322.72 213.668 329.954 199.841 329.954 199.841C329.954 199.841 321.63 196.563 325.328 189.661Z" fill="url(#paint20_linear_372_1102)"/>
<path d="M361.534 179.472C361.534 179.472 359.014 168.44 371.961 171.36C371.961 171.36 378.245 170.358 378.564 176.147C378.564 176.147 382.615 178.753 379.649 183.763C379.649 183.763 391.688 179.224 396.933 189.524C402.178 199.823 397.357 205.49 392.302 206.966C392.302 206.966 396.397 208.973 394.459 213.504C392.521 218.035 382.705 221.23 376.906 215.719C376.906 215.719 360.406 217.847 360.737 206.472C360.737 206.472 353.062 201.635 361.123 192.234C369.183 182.833 361.534 179.472 361.534 179.472Z" fill="url(#paint21_linear_372_1102)"/>
<path d="M360.823 205.042C363.424 204.281 370.999 202.876 378.204 209.365C379.426 210.466 379.925 212.138 379.489 213.705C377.554 220.658 372.448 241.203 376.925 250.092C376.925 250.092 369.036 258.581 360.429 251.739C360.429 251.739 356.567 235.311 351.509 228.1C348.017 223.121 357.077 209.403 359.37 206.089C359.717 205.588 360.229 205.216 360.823 205.042Z" fill="url(#paint22_linear_372_1102)"/>
<path d="M368.005 191.227C368.005 191.227 371.852 201.849 372.141 206.535C372.141 206.535 367.889 208.422 363.882 205.237C363.882 205.237 363.462 194.627 362.854 192.727L368.005 191.227Z" fill="url(#paint23_linear_372_1102)"/>
<path d="M362.66 176.744C362.66 176.744 352.597 190.49 358.612 194.482C364.628 198.475 371.791 188.707 371.791 188.707C371.791 188.707 374.126 181.183 371.685 178.631C369.243 176.079 362.66 176.744 362.66 176.744Z" fill="url(#paint24_linear_372_1102)"/>
<path d="M367.321 173.459C367.321 173.459 362.698 174.528 362.05 176.57C361.402 178.612 368.606 180.505 370.624 180.597L372.25 188.836C372.25 188.836 377.058 181.086 375.154 176.61C373.249 172.134 367.321 173.459 367.321 173.459Z" fill="url(#paint25_linear_372_1102)"/>
<path d="M369.84 187.695C369.84 187.695 373.757 183.267 375.315 186.154C376.873 189.04 371.789 191.207 370.029 189.79L369.84 187.695Z" fill="url(#paint26_linear_372_1102)"/>
<path d="M350.381 286.23C350.41 286.976 349.069 292.892 348.339 296.047C348.045 297.316 348.25 298.645 348.912 299.775L374.196 341.311C374.502 341.813 374.725 342.357 374.86 342.927C375.324 344.876 376.285 349.653 375.783 353.998L374.475 356.65L380.132 355.396L381.363 340.569L379.761 339.615C378.378 338.792 377.3 337.561 376.684 336.099C374.397 330.678 368.72 316.88 367.256 310.155C365.593 302.513 356.898 296.306 356.898 296.306L358.426 292.781L350.381 286.23Z" fill="url(#paint27_linear_372_1102)"/>
<path d="M386.418 350.294C386.418 350.294 383.363 345.567 383.004 343.726C382.645 341.886 381.644 338.637 379.761 339.615C379.761 339.615 378.873 348.554 379.179 352.047C379.485 355.539 375.134 355.427 375.134 355.427C375.134 355.427 373.935 355.592 373.056 356.448C372.45 357.04 372.884 358.067 373.739 358.121C375.163 358.21 377.425 358.234 379.8 357.786C380.63 357.629 381.245 356.94 381.295 356.116L381.922 345.829L385.775 350.578L386.418 350.294Z" fill="url(#paint28_linear_372_1102)"/>
<path d="M365.484 292.846C365.484 292.846 366.376 329.999 366.497 335.276C366.618 340.553 365.643 352.246 360.224 355.742L362.582 357.446C362.582 357.446 365.529 355.001 368.408 350.296C371.643 345.01 372.621 344.044 372.621 344.044L371.548 341.899C371.078 340.959 370.94 339.897 371.156 338.873C372.325 333.34 376.232 314.938 377.298 310.975C378.556 306.297 378.646 300.05 374.269 294.821C369.892 289.592 365.484 292.846 365.484 292.846Z" fill="url(#paint29_linear_372_1102)"/>
<path d="M370.49 359.121C370.658 359.122 370.801 359.005 370.825 358.842C371.005 357.604 371.756 352.638 372.37 351.352C373.074 349.879 375.373 343.681 372.369 343.155C372.369 343.155 364.901 353.805 363.467 355.24C362.034 356.676 360.225 355.742 360.225 355.742C360.225 355.742 358.828 356.145 357.774 357.459C357.273 358.084 357.74 359.002 358.554 359.009L363.584 359.056C365.045 359.07 366.359 358.204 366.902 356.88C367.787 354.721 369.308 351.555 371.081 350.15L370.159 358.759C370.139 358.951 370.292 359.119 370.49 359.121Z" fill="url(#paint30_linear_372_1102)"/>
<path d="M359.237 247.732C359.237 247.732 360.371 251.259 358.629 257.067L347.827 293.887C347.657 294.466 347.977 295.071 348.557 295.274C351.788 296.406 362.411 299.606 376.911 298.63C377.641 298.581 378.253 298.076 378.412 297.379C379.368 293.181 382.627 278.86 383.299 275.917C385.856 264.704 388.712 252.612 376.149 245.3C370.359 247.72 364.959 249.147 359.237 247.732Z" fill="url(#paint31_linear_372_1102)"/>
<path d="M379.234 210.753C379.234 210.753 391.525 220.722 394.575 234.346C397.626 247.969 376.615 249.417 376.615 249.417C376.615 249.417 373.763 246.309 370.377 247.417C366.99 248.526 370.114 241.992 374.076 242.009C378.038 242.026 376.203 245.084 381.808 242.606C387.267 240.192 390.642 232.727 376.712 221.41C375.904 220.754 375.26 219.918 374.872 218.965C372.166 212.316 374.312 207.957 379.234 210.753Z" fill="url(#paint32_linear_372_1102)"/>
<path d="M302.321 312.542H297.937V358.818H302.321V312.542Z" fill="#80D9FF"/>
<path d="M319.329 359.708H280.931V357.232C280.931 357.061 281.073 356.923 281.248 356.923H319.012C319.187 356.923 319.329 357.061 319.329 357.232V359.708Z" fill="#80D9FF"/>
<path d="M326.592 310.833C326.592 313.523 324.337 315.723 321.581 315.723H280.294C277.538 315.723 275.283 313.523 275.283 310.833V306.411C275.283 303.721 277.538 301.52 280.294 301.52H321.581C324.337 301.52 326.592 303.721 326.592 306.411V310.833Z" fill="#80D9FF"/>
<path d="M261.267 344.763C261.267 344.763 247.094 350.721 247.906 356.957C247.906 356.957 262.557 354.215 265.179 350.128C267.801 346.04 266.356 343.673 266.356 343.673L261.267 344.763Z" fill="url(#paint33_linear_372_1102)"/>
<path d="M264.74 337.952L265.459 344.024C265.568 344.94 265.046 345.844 264.157 346.157C263.712 346.313 263.128 346.421 262.361 346.424C261.28 346.43 260.323 345.736 260.034 344.719L258.64 339.808L264.74 337.952Z" fill="url(#paint34_linear_372_1102)"/>
<path d="M295.703 291.393C295.703 291.393 269.634 290.215 256.662 297.599C243.69 304.982 257.32 340.42 257.32 340.42C257.32 340.42 260.708 341.131 265.587 338.586C265.587 338.586 258.624 312.644 270.719 308.131C284.317 303.057 298.382 304.291 298.382 304.291L295.776 292.194L295.703 291.393Z" fill="url(#paint35_linear_372_1102)"/>
<path d="M250.755 354.221C253.719 353.587 262.509 350.032 263.845 350.08C265.179 350.128 267.071 352.08 267.071 352.08C267.071 352.08 267.397 353.147 266.442 354.679C264.177 356.403 259.298 359.568 253.626 359.915C249.453 360.17 246.943 358.549 245.507 356.977C246.764 355.783 248.781 354.643 250.755 354.221Z" fill="url(#paint36_linear_372_1102)"/>
<path d="M253.625 359.914C259.297 359.567 264.176 356.403 266.441 354.679C265.796 355.714 264.566 356.962 262.255 358.236C256.523 361.397 247.048 360.937 245.17 360.225C243.665 359.655 244.13 358.283 245.506 356.977C246.942 358.549 249.452 360.169 253.625 359.914Z" fill="url(#paint37_linear_372_1102)"/>
<path d="M270.183 348.903C269.989 349.619 267.913 351.771 266.713 352.971C266.142 353.542 265.314 353.786 264.516 353.616C264.01 353.508 263.439 353.34 262.945 353.078C262.203 352.684 261.945 351.764 262.351 351.042L265.387 345.654L270.183 348.903Z" fill="url(#paint38_linear_372_1102)"/>
<path d="M321.536 289.26C321.536 289.26 323.811 305.017 317.232 308.238C310.652 311.458 296.221 313.567 291.251 321.739C286.281 329.911 277.354 345.951 269.23 350.56C269.23 350.56 264.59 349.087 263.234 346.86C263.234 346.86 272.877 322.118 276.9 316.104C280.384 310.896 285.478 303.393 292.715 300.148C294.787 299.219 294.949 297.074 294.585 294.877L293.92 290.877L321.536 289.26Z" fill="url(#paint39_linear_372_1102)"/>
<path d="M260.558 271.399C269.782 273.969 273.91 248.631 273.873 248.014L288.016 264.154C288.016 264.154 279.589 278.627 266.865 280.167C263.646 280.557 260.907 280.013 258.61 278.986C260.303 276.281 260.689 273.609 260.558 271.399Z" fill="url(#paint40_linear_372_1102)"/>
<path d="M243.476 263.104C247.496 261.491 250.906 264.709 250.906 264.709C254.89 268.689 258.049 270.698 260.557 271.397C260.688 273.607 260.302 276.279 258.61 278.984C253.64 276.762 250.742 272.269 249.549 270.027C249.119 269.22 248.112 268.878 247.273 269.274C246.421 269.677 245.543 270.29 245.488 271.123C245.379 272.767 243.376 272.864 243.364 272.257C243.352 271.65 244.916 268.404 244.916 268.404C244.916 268.404 240.296 271.296 238.498 272.402C236.7 273.509 235.169 271.683 235.169 271.683C235.169 271.683 239.455 264.716 243.476 263.104Z" fill="url(#paint41_linear_372_1102)"/>
<path d="M317.982 237.588C317.982 237.588 305.587 229.334 275.65 244.262C275.65 244.262 272.567 248.076 274.011 252.377C275.455 256.677 293.23 279.95 293.921 290.876C293.921 290.876 306.072 297.857 321.845 290.936C321.845 290.936 327.134 262.086 317.982 237.588Z" fill="url(#paint42_linear_372_1102)"/>
<path d="M292.171 227.035L297.07 236.404C297.556 237.334 297.455 238.46 296.787 239.276C295.438 240.925 292.622 243.143 287.817 241.714C286.387 241.288 285.293 240.153 284.948 238.734L282.409 228.277L292.171 227.035Z" fill="url(#paint43_linear_372_1102)"/>
<path d="M327.162 270.302C328.001 264.607 312.583 253.569 312.583 253.569L317.983 237.587C317.983 237.587 347.405 258.08 341.218 274.816C340.33 277.215 339.008 278.963 337.394 280.202C334.279 273.965 330.053 271.373 327.162 270.302Z" fill="url(#paint44_linear_372_1102)"/>
<path d="M305.653 271.882C305.653 271.882 323.094 276.637 326.713 271.455C326.958 271.104 327.102 270.716 327.163 270.302C330.054 271.373 334.28 273.965 337.395 280.202C329.114 286.561 313.147 279.433 308.809 277.296C308.095 276.945 307.275 276.876 306.512 277.109C304.969 277.578 302.295 278.308 300.805 278.228C298.626 278.112 296.286 285.799 292.577 283.853C292.577 283.853 294.263 270.719 305.653 271.882Z" fill="url(#paint45_linear_372_1102)"/>
<path d="M285.892 211.724C285.737 211.855 279.275 222.87 275.986 228.485C274.982 230.2 275.734 232.382 277.593 233.16L279.018 233.756C280.965 234.571 285.152 235.253 286.8 233.954L297.187 223.252C297.187 223.252 289.386 208.772 285.892 211.724Z" fill="url(#paint46_linear_372_1102)"/>
<path d="M300.113 220.33C301.387 219.632 302.919 218.217 301.726 215.715C300.514 213.172 298.119 212.952 296.576 213.114C295.952 213.179 295.388 212.792 295.206 212.206C295.103 211.872 294.85 211.577 294.303 211.493C293.566 211.379 293.108 210.644 293.3 209.94C293.67 208.588 293.607 206.752 291.379 205.435C287.426 203.099 283.73 206.493 282.701 209.443C281.672 212.393 286.105 214.688 288.936 215.156C291.088 215.512 292.139 217.935 292.519 219.077C292.639 219.438 292.582 219.832 292.368 220.149L289.209 224.833C290.078 225.9 290.848 227.027 291.606 228.167C291.89 227.868 292.139 227.62 292.333 227.446C293.705 226.219 296.144 226.852 297.149 227.19C297.478 227.3 297.836 227.274 298.145 227.118C299.239 226.566 301.448 225.016 299.638 222.085C299.259 221.472 299.474 220.681 300.113 220.33Z" fill="url(#paint47_linear_372_1102)"/>
<path d="M290.458 230.17C290.458 230.17 292.477 225.105 294.772 225.387C297.067 225.67 298.784 227.983 295.822 230.384C292.138 233.371 290.458 230.17 290.458 230.17Z" fill="url(#paint48_linear_372_1102)"/>
<path d="M283.381 282.724C283.35 282.725 283.319 282.726 283.287 282.726L242.541 282.682C241.533 282.682 240.718 281.884 240.719 280.901C240.72 279.917 241.54 279.105 242.545 279.122L283.291 279.166C284.299 279.167 285.114 279.964 285.113 280.948C285.112 281.9 284.345 282.677 283.381 282.724Z" fill="url(#paint49_linear_372_1102)"/>
<path d="M205.91 246.613H239.844C242.347 246.613 244.626 248.023 245.694 250.233L261.381 282.701H219.21C217.597 282.701 216.148 281.739 215.555 280.275L203.39 250.23C202.687 248.494 203.997 246.613 205.91 246.613Z" fill="url(#paint50_linear_372_1102)"/>
<path d="M229.816 263.261C230.551 265.491 230.008 267.656 228.603 268.098C227.197 268.54 225.462 267.09 224.726 264.86C223.991 262.63 224.534 260.464 225.94 260.023C227.345 259.581 229.081 261.031 229.816 263.261Z" fill="#80D9FF"/>
<path d="M211.411 368.024C211.185 368.024 210.956 367.982 210.735 367.892C209.867 367.539 209.465 366.588 209.839 365.767L245.75 286.882C246.123 286.061 247.13 285.682 247.999 286.035C248.868 286.388 249.269 287.34 248.896 288.16L212.985 367.045C212.706 367.658 212.075 368.024 211.411 368.024Z" fill="#80D9FF"/>
<path d="M251.867 368.023C251.203 368.023 250.572 367.656 250.293 367.044L214.382 288.159C214.008 287.338 214.41 286.386 215.278 286.033C216.146 285.68 217.154 286.059 217.528 286.88L253.439 365.765C253.812 366.586 253.411 367.538 252.542 367.891C252.322 367.98 252.093 368.023 251.867 368.023Z" fill="#80D9FF"/>
<path d="M322.572 368.024C322.347 368.024 322.117 367.982 321.896 367.892C321.028 367.539 320.626 366.587 321 365.766L356.911 286.881C357.285 286.061 358.291 285.682 359.16 286.034C360.029 286.387 360.43 287.339 360.057 288.16L324.146 367.045C323.867 367.657 323.236 368.024 322.572 368.024Z" fill="#80D9FF"/>
<path d="M363.027 368.023C362.363 368.023 361.732 367.656 361.453 367.044L325.542 288.159C325.168 287.338 325.57 286.386 326.438 286.033C327.306 285.68 328.314 286.059 328.688 286.88L364.599 365.765C364.972 366.586 364.571 367.538 363.703 367.891C363.482 367.98 363.252 368.023 363.027 368.023Z" fill="#80D9FF"/>
<path d="M367.239 284.446C367.33 283.929 367.205 283.394 366.898 282.987C366.592 282.581 366.135 282.345 365.652 282.345H202.284C201.65 282.345 201.059 282.698 200.718 283.282C200.376 283.866 200.33 284.6 200.596 285.229L202.367 289.416C202.772 290.375 203.65 290.989 204.617 290.989H364.531C365.43 290.989 366.203 290.292 366.374 289.328L367.239 284.446Z" fill="#80D9FF"/>
<defs>
<linearGradient id="paint0_linear_372_1102" x1="393.097" y1="58.4497" x2="361.819" y2="196.681" gradientUnits="userSpaceOnUse">
<stop stop-color="#152F6C"/>
<stop offset="1" stop-color="#2E4A8B"/>
</linearGradient>
<linearGradient id="paint1_linear_372_1102" x1="243.331" y1="162.068" x2="234.672" y2="200.336" gradientUnits="userSpaceOnUse">
<stop stop-color="#152F6C"/>
<stop offset="1" stop-color="#2E4A8B"/>
</linearGradient>
<linearGradient id="paint2_linear_372_1102" x1="122.421" y1="357.192" x2="120.824" y2="371.798" gradientUnits="userSpaceOnUse">
<stop stop-color="#152F6C"/>
<stop offset="1" stop-color="#2E4A8B"/>
</linearGradient>
<linearGradient id="paint3_linear_372_1102" x1="85.5669" y1="357.55" x2="91.5954" y2="357.608" gradientUnits="userSpaceOnUse">
<stop stop-color="#FEBBBA"/>
<stop offset="1" stop-color="#FF928E"/>
</linearGradient>
<linearGradient id="paint4_linear_372_1102" x1="102.029" y1="264.828" x2="43.6715" y2="318.765" gradientUnits="userSpaceOnUse">
<stop stop-color="#152F6C"/>
<stop offset="1" stop-color="#2E4A8B"/>
</linearGradient>
<linearGradient id="paint5_linear_372_1102" x1="77.616" y1="359.079" x2="74.9063" y2="370.943" gradientUnits="userSpaceOnUse">
<stop stop-color="#152F6C"/>
<stop offset="1" stop-color="#2E4A8B"/>
</linearGradient>
<linearGradient id="paint6_linear_372_1102" x1="63.8436" y1="357.046" x2="69.0486" y2="357.096" gradientUnits="userSpaceOnUse">
<stop stop-color="#FEBBBA"/>
<stop offset="1" stop-color="#FF928E"/>
</linearGradient>
<linearGradient id="paint7_linear_372_1102" x1="103.568" y1="263.452" x2="46.8681" y2="340.641" gradientUnits="userSpaceOnUse">
<stop stop-color="#152F6C"/>
<stop offset="1" stop-color="#2E4A8B"/>
</linearGradient>
<linearGradient id="paint8_linear_372_1102" x1="88.915" y1="208.139" x2="88.915" y2="273.626" gradientUnits="userSpaceOnUse">
<stop stop-color="#00FFE8"/>
<stop offset="1" stop-color="#00CFBC"/>
</linearGradient>
<linearGradient id="paint9_linear_372_1102" x1="111.876" y1="204.263" x2="142.676" y2="204.562" gradientUnits="userSpaceOnUse">
<stop stop-color="#FEBBBA"/>
<stop offset="1" stop-color="#FF928E"/>
</linearGradient>
<linearGradient id="paint10_linear_372_1102" x1="135.865" y1="199.447" x2="115.588" y2="245.521" gradientUnits="userSpaceOnUse">
<stop stop-color="#FEBBBA"/>
<stop offset="1" stop-color="#FF928E"/>
</linearGradient>
<linearGradient id="paint11_linear_372_1102" x1="142.727" y1="184.224" x2="151.185" y2="171.173" gradientUnits="userSpaceOnUse">
<stop stop-color="#FEBBBA"/>
<stop offset="1" stop-color="#FF928E"/>
</linearGradient>
<linearGradient id="paint12_linear_372_1102" x1="64.5" y1="215.5" x2="50.5" y2="240" gradientUnits="userSpaceOnUse">
<stop stop-color="#00FFE8"/>
<stop offset="1" stop-color="#00CFBC"/>
</linearGradient>
<linearGradient id="paint13_linear_372_1102" x1="44.0607" y1="246.218" x2="83.0381" y2="246.597" gradientUnits="userSpaceOnUse">
<stop stop-color="#FEBBBA"/>
<stop offset="1" stop-color="#FF928E"/>
</linearGradient>
<linearGradient id="paint14_linear_372_1102" x1="72.7183" y1="225.21" x2="86.8893" y2="197.027" gradientUnits="userSpaceOnUse">
<stop stop-color="#FEBBBA"/>
<stop offset="1" stop-color="#FF928E"/>
</linearGradient>
<linearGradient id="paint15_linear_372_1102" x1="93.559" y1="196.433" x2="76.9439" y2="185.827" gradientUnits="userSpaceOnUse">
<stop stop-color="#FEBBBA"/>
<stop offset="1" stop-color="#FF928E"/>
</linearGradient>
<linearGradient id="paint16_linear_372_1102" x1="106.903" y1="176.421" x2="100.598" y2="204.723" gradientUnits="userSpaceOnUse">
<stop stop-color="#152F6C"/>
<stop offset="1" stop-color="#2E4A8B"/>
</linearGradient>
<linearGradient id="paint17_linear_372_1102" x1="89.0722" y1="200.152" x2="74.1233" y2="190.61" gradientUnits="userSpaceOnUse">
<stop stop-color="#FEBBBA"/>
<stop offset="1" stop-color="#FF928E"/>
</linearGradient>
<linearGradient id="paint18_linear_372_1102" x1="142.939" y1="223.059" x2="134.322" y2="267.408" gradientUnits="userSpaceOnUse">
<stop stop-color="#152F6C"/>
<stop offset="1" stop-color="#2E4A8B"/>
</linearGradient>
<linearGradient id="paint19_linear_372_1102" x1="78.7549" y1="245.184" x2="90.9408" y2="245.184" gradientUnits="userSpaceOnUse">
<stop stop-color="#FEBBBA"/>
<stop offset="1" stop-color="#FF928E"/>
</linearGradient>
<linearGradient id="paint20_linear_372_1102" x1="321.615" y1="176.419" x2="353.182" y2="228.252" gradientUnits="userSpaceOnUse">
<stop stop-color="#FEBBBA"/>
<stop offset="1" stop-color="#FF928E"/>
</linearGradient>
<linearGradient id="paint21_linear_372_1102" x1="412.381" y1="171.712" x2="379.853" y2="193.932" gradientUnits="userSpaceOnUse">
<stop stop-color="#09005D"/>
<stop offset="1" stop-color="#1A0F91"/>
</linearGradient>
<linearGradient id="paint22_linear_372_1102" x1="365.181" y1="204.364" x2="365.181" y2="254.405" gradientUnits="userSpaceOnUse">
<stop stop-color="#00FFE8"/>
<stop offset="1" stop-color="#00CFBC"/>
</linearGradient>
<linearGradient id="paint23_linear_372_1102" x1="361.884" y1="211.8" x2="367.771" y2="198.406" gradientUnits="userSpaceOnUse">
<stop stop-color="#FEBBBA"/>
<stop offset="1" stop-color="#FF928E"/>
</linearGradient>
<linearGradient id="paint24_linear_372_1102" x1="361.568" y1="179.509" x2="373.519" y2="206.018" gradientUnits="userSpaceOnUse">
<stop stop-color="#FEBBBA"/>
<stop offset="1" stop-color="#FF928E"/>
</linearGradient>
<linearGradient id="paint25_linear_372_1102" x1="403.506" y1="158.721" x2="370.978" y2="180.941" gradientUnits="userSpaceOnUse">
<stop stop-color="#09005D"/>
<stop offset="1" stop-color="#1A0F91"/>
</linearGradient>
<linearGradient id="paint26_linear_372_1102" x1="367.42" y1="176.87" x2="379.371" y2="203.378" gradientUnits="userSpaceOnUse">
<stop stop-color="#FEBBBA"/>
<stop offset="1" stop-color="#FF928E"/>
</linearGradient>
<linearGradient id="paint27_linear_372_1102" x1="396.282" y1="377.273" x2="352.284" y2="295.909" gradientUnits="userSpaceOnUse">
<stop stop-color="#FEBBBA"/>
<stop offset="1" stop-color="#FF928E"/>
</linearGradient>
<linearGradient id="paint28_linear_372_1102" x1="394.117" y1="338.808" x2="387.02" y2="361.101" gradientUnits="userSpaceOnUse">
<stop stop-color="#152F6C"/>
<stop offset="1" stop-color="#2E4A8B"/>
</linearGradient>
<linearGradient id="paint29_linear_372_1102" x1="344.219" y1="317.58" x2="413.138" y2="340.9" gradientUnits="userSpaceOnUse">
<stop stop-color="#FEBBBA"/>
<stop offset="1" stop-color="#FF928E"/>
</linearGradient>
<linearGradient id="paint30_linear_372_1102" x1="383.076" y1="342.621" x2="378.56" y2="362.516" gradientUnits="userSpaceOnUse">
<stop stop-color="#152F6C"/>
<stop offset="1" stop-color="#2E4A8B"/>
</linearGradient>
<linearGradient id="paint31_linear_372_1102" x1="406.804" y1="243.509" x2="386" y2="306.787" gradientUnits="userSpaceOnUse">
<stop stop-color="#152F6C"/>
<stop offset="1" stop-color="#2E4A8B"/>
</linearGradient>
<linearGradient id="paint32_linear_372_1102" x1="391.897" y1="253.14" x2="328.596" y2="156.982" gradientUnits="userSpaceOnUse">
<stop stop-color="#FEBBBA"/>
<stop offset="1" stop-color="#FF928E"/>
</linearGradient>
<linearGradient id="paint33_linear_372_1102" x1="277.406" y1="343.228" x2="274.64" y2="360.184" gradientUnits="userSpaceOnUse">
<stop stop-color="#152F6C"/>
<stop offset="1" stop-color="#2E4A8B"/>
</linearGradient>
<linearGradient id="paint34_linear_372_1102" x1="265.875" y1="342.721" x2="258.365" y2="341.018" gradientUnits="userSpaceOnUse">
<stop stop-color="#FEBBBA"/>
<stop offset="1" stop-color="#FF928E"/>
</linearGradient>
<linearGradient id="paint35_linear_372_1102" x1="325.08" y1="289.677" x2="310.401" y2="350.591" gradientUnits="userSpaceOnUse">
<stop stop-color="#152F6C"/>
<stop offset="1" stop-color="#2E4A8B"/>
</linearGradient>
<linearGradient id="paint36_linear_372_1102" x1="279.322" y1="349.749" x2="277.97" y2="362.529" gradientUnits="userSpaceOnUse">
<stop stop-color="#152F6C"/>
<stop offset="1" stop-color="#2E4A8B"/>
</linearGradient>
<linearGradient id="paint37_linear_372_1102" x1="265.341" y1="359.53" x2="245.146" y2="354.951" gradientUnits="userSpaceOnUse">
<stop stop-color="#4F52FF"/>
<stop offset="1" stop-color="#4042E2"/>
</linearGradient>
<linearGradient id="paint38_linear_372_1102" x1="269.781" y1="350.678" x2="262.732" y2="349.08" gradientUnits="userSpaceOnUse">
<stop stop-color="#FEBBBA"/>
<stop offset="1" stop-color="#FF928E"/>
</linearGradient>
<linearGradient id="paint39_linear_372_1102" x1="355.025" y1="287.208" x2="336.651" y2="363.081" gradientUnits="userSpaceOnUse">
<stop stop-color="#152F6C"/>
<stop offset="1" stop-color="#2E4A8B"/>
</linearGradient>
<linearGradient id="paint40_linear_372_1102" x1="273.313" y1="248.014" x2="273.313" y2="280.293" gradientUnits="userSpaceOnUse">
<stop stop-color="#00FFE8"/>
<stop offset="1" stop-color="#00CFBC"/>
</linearGradient>
<linearGradient id="paint41_linear_372_1102" x1="260.812" y1="272.603" x2="236.225" y2="267.028" gradientUnits="userSpaceOnUse">
<stop stop-color="#FEBBBA"/>
<stop offset="1" stop-color="#FF928E"/>
</linearGradient>
<linearGradient id="paint42_linear_372_1102" x1="298.496" y1="235.312" x2="298.496" y2="293.997" gradientUnits="userSpaceOnUse">
<stop stop-color="#00FFE8"/>
<stop offset="1" stop-color="#00CFBC"/>
</linearGradient>
<linearGradient id="paint43_linear_372_1102" x1="297.792" y1="236.077" x2="281.479" y2="232.378" gradientUnits="userSpaceOnUse">
<stop stop-color="#FEBBBA"/>
<stop offset="1" stop-color="#FF928E"/>
</linearGradient>
<linearGradient id="paint44_linear_372_1102" x1="327.328" y1="237.587" x2="327.328" y2="280.202" gradientUnits="userSpaceOnUse">
<stop stop-color="#00FFE8"/>
<stop offset="1" stop-color="#00CFBC"/>
</linearGradient>
<linearGradient id="paint45_linear_372_1102" x1="310.778" y1="275.969" x2="373.647" y2="366.165" gradientUnits="userSpaceOnUse">
<stop stop-color="#FEBBBA"/>
<stop offset="1" stop-color="#FF928E"/>
</linearGradient>
<linearGradient id="paint46_linear_372_1102" x1="288.742" y1="215.622" x2="280.9" y2="253.312" gradientUnits="userSpaceOnUse">
<stop stop-color="#FEBBBA"/>
<stop offset="1" stop-color="#FF928E"/>
</linearGradient>
<linearGradient id="paint47_linear_372_1102" x1="313.22" y1="203.87" x2="305.271" y2="232.466" gradientUnits="userSpaceOnUse">
<stop stop-color="#152F6C"/>
<stop offset="1" stop-color="#2E4A8B"/>
</linearGradient>
<linearGradient id="paint48_linear_372_1102" x1="291.974" y1="251.473" x2="293.914" y2="228.067" gradientUnits="userSpaceOnUse">
<stop stop-color="#FEBBBA"/>
<stop offset="1" stop-color="#FF928E"/>
</linearGradient>
<linearGradient id="paint49_linear_372_1102" x1="310.161" y1="279.001" x2="310.072" y2="283.722" gradientUnits="userSpaceOnUse">
<stop stop-color="#152F6C"/>
<stop offset="1" stop-color="#2E4A8B"/>
</linearGradient>
<linearGradient id="paint50_linear_372_1102" x1="294.21" y1="245.405" x2="287.548" y2="291.734" gradientUnits="userSpaceOnUse">
<stop stop-color="#152F6C"/>
<stop offset="1" stop-color="#2E4A8B"/>
</linearGradient>
</defs>
</svg>
