<svg width="150" height="37" viewBox="0 0 150 37" fill="none" xmlns="http://www.w3.org/2000/svg">
<path d="M18.5 0C8.2806 0 0 8.2806 0 18.5C0 28.7194 8.2806 37 18.5 37C28.7194 37 37 28.7194 37 18.5C37 8.2806 28.7194 0 18.5 0ZM18.5 27.75C13.394 27.75 9.25 23.606 9.25 18.5C9.25 13.394 13.394 9.25 18.5 9.25C23.606 9.25 27.75 13.394 27.75 18.5C27.75 23.606 23.606 27.75 18.5 27.75Z" fill="white"/>
<path d="M27.75 27.75H18.5C13.394 27.75 9.25 23.606 9.25 18.5C9.25 13.394 13.394 9.25 18.5 9.25V0C8.2806 0 0 8.2806 0 18.5C0 28.7194 8.2806 37 18.5 37H37C37 31.894 32.856 27.75 27.75 27.75Z" fill="white"/>
<path d="M49.6817 30.24C47.691 30.24 45.7833 29.9742 43.9586 29.4426C42.1339 28.8869 40.6646 28.1741 39.5508 27.3043L41.5059 22.8826C42.5723 23.6558 43.8283 24.2961 45.2738 24.8035C46.7431 25.2868 48.2242 25.5284 49.7172 25.5284C50.8547 25.5284 51.7671 25.4197 52.4543 25.2022C53.1653 24.9606 53.6866 24.6344 54.0184 24.2236C54.3502 23.8129 54.5161 23.3417 54.5161 22.8102C54.5161 22.1336 54.2554 21.6021 53.734 21.2155C53.2127 20.8047 52.5254 20.4785 51.6723 20.2369C50.8192 19.9711 49.8712 19.7295 48.8285 19.512C47.8095 19.2704 46.7787 18.9805 45.736 18.6422C44.7169 18.3039 43.7809 17.869 42.9277 17.3375C42.0746 16.8059 41.3755 16.1052 40.8305 15.2354C40.3091 14.3655 40.0484 13.2541 40.0484 11.901C40.0484 10.4513 40.4276 9.13444 41.1859 7.95049C41.968 6.74239 43.1292 5.78799 44.6695 5.08729C46.2336 4.36243 48.1887 4 50.5348 4C52.0989 4 53.6392 4.1933 55.1559 4.57989C56.6726 4.94232 58.0115 5.49805 59.1727 6.24707L57.3954 10.705C56.2342 10.0284 55.073 9.53311 53.9118 9.219C52.7506 8.88073 51.6131 8.7116 50.4992 8.7116C49.3854 8.7116 48.4731 8.84449 47.7621 9.11027C47.0512 9.37606 46.5417 9.72641 46.2336 10.1613C45.9255 10.5721 45.7715 11.0553 45.7715 11.611C45.7715 12.2634 46.0322 12.795 46.5535 13.2057C47.0749 13.5923 47.7621 13.9064 48.6153 14.1481C49.4684 14.3897 50.4045 14.6313 51.4235 14.8729C52.4662 15.1145 53.497 15.3924 54.5161 15.7065C55.5588 16.0206 56.5067 16.4435 57.3598 16.975C58.2129 17.5066 58.9002 18.2073 59.4215 19.0771C59.9666 19.947 60.2391 21.0463 60.2391 22.3752C60.2391 23.8008 59.8481 25.1056 59.0661 26.2895C58.284 27.4734 57.111 28.4278 55.5469 29.1527C54.0065 29.8776 52.0515 30.24 49.6817 30.24Z" fill="white"/>
<path d="M73.0252 30.095C70.9635 30.095 69.1269 29.6722 67.5154 28.8265C65.9039 27.9567 64.6361 26.7607 63.7119 25.2384C62.8114 23.7162 62.3611 21.9886 62.3611 20.0557C62.3611 18.0986 62.8114 16.371 63.7119 14.8729C64.6361 13.3507 65.9039 12.1668 67.5154 11.3211C69.1269 10.4513 70.9635 10.0164 73.0252 10.0164C75.0395 10.0164 76.7932 10.4513 78.2861 11.3211C79.7791 12.1668 80.8811 13.387 81.592 14.9817L77.2908 17.3375C76.7932 16.4193 76.1652 15.7428 75.4068 15.3078C74.6722 14.8729 73.8665 14.6555 72.9896 14.6555C72.0417 14.6555 71.1886 14.8729 70.4303 15.3078C69.6719 15.7428 69.0676 16.3589 68.6174 17.1562C68.1908 17.9536 67.9775 18.9201 67.9775 20.0557C67.9775 21.1913 68.1908 22.1578 68.6174 22.9551C69.0676 23.7525 69.6719 24.3686 70.4303 24.8035C71.1886 25.2384 72.0417 25.4559 72.9896 25.4559C73.8665 25.4559 74.6722 25.2505 75.4068 24.8398C76.1652 24.4049 76.7932 23.7162 77.2908 22.7739L81.592 25.166C80.8811 26.7365 79.7791 27.9567 78.2861 28.8265C76.7932 29.6722 75.0395 30.095 73.0252 30.095Z" fill="white"/>
<path d="M96.5153 29.8051V25.9995L96.1599 25.166V18.3523C96.1599 17.1442 95.7925 16.2018 95.0579 15.5253C94.347 14.8488 93.245 14.5105 91.7521 14.5105C90.733 14.5105 89.7259 14.6796 88.7306 15.0179C87.7589 15.332 86.9295 15.7669 86.2423 16.3226L84.2516 12.3722C85.2943 11.6231 86.5503 11.0432 88.0196 10.6325C89.4889 10.2217 90.9819 10.0164 92.4985 10.0164C95.4134 10.0164 97.6765 10.7171 99.288 12.1184C100.899 13.5198 101.705 15.7065 101.705 18.6784V29.8051H96.5153ZM90.6856 30.095C89.1927 30.095 87.913 29.8413 86.8466 29.3339C85.7802 28.8023 84.9626 28.0896 84.3938 27.1956C83.8251 26.3016 83.5407 25.2989 83.5407 24.1874C83.5407 23.0276 83.8132 22.0128 84.3583 21.143C84.927 20.2731 85.8157 19.5966 87.0243 19.1134C88.2329 18.606 89.8088 18.3523 91.7521 18.3523H96.8353V21.6504H92.3563C91.053 21.6504 90.1524 21.8678 89.6548 22.3028C89.1808 22.7377 88.9438 23.2813 88.9438 23.9337C88.9438 24.6586 89.2164 25.2384 89.7614 25.6734C90.3302 26.0841 91.1003 26.2895 92.072 26.2895C92.9962 26.2895 93.8256 26.072 94.5603 25.6371C95.2949 25.178 95.8281 24.5136 96.1599 23.6438L97.013 26.2533C96.6101 27.5097 95.8755 28.4641 94.8091 29.1165C93.7427 29.7688 92.3682 30.095 90.6856 30.095Z" fill="white"/>
<path d="M118.028 30.095C116.416 30.095 115.006 29.7326 113.798 29.0077C112.589 28.2829 111.641 27.1835 110.954 25.7096C110.291 24.2116 109.959 22.3269 109.959 20.0557C109.959 17.7603 110.279 15.8756 110.919 14.4018C111.558 12.9279 112.483 11.8285 113.691 11.1036C114.9 10.3788 116.345 10.0164 118.028 10.0164C119.829 10.0164 121.44 10.4392 122.862 11.2849C124.308 12.1064 125.445 13.2661 126.275 14.7642C127.128 16.2622 127.555 18.0261 127.555 20.0557C127.555 22.1095 127.128 23.8854 126.275 25.3834C125.445 26.8815 124.308 28.0412 122.862 28.8628C121.44 29.6843 119.829 30.095 118.028 30.095ZM106.724 36.8362V10.3063H112.02V14.293L111.914 20.0919L112.269 25.8546V36.8362H106.724ZM117.068 25.4559C117.992 25.4559 118.81 25.2384 119.521 24.8035C120.256 24.3686 120.836 23.7525 121.263 22.9551C121.713 22.1336 121.938 21.1671 121.938 20.0557C121.938 18.9201 121.713 17.9536 121.263 17.1562C120.836 16.3589 120.256 15.7428 119.521 15.3078C118.81 14.8729 117.992 14.6555 117.068 14.6555C116.144 14.6555 115.314 14.8729 114.58 15.3078C113.845 15.7428 113.265 16.3589 112.838 17.1562C112.411 17.9536 112.198 18.9201 112.198 20.0557C112.198 21.1671 112.411 22.1336 112.838 22.9551C113.265 23.7525 113.845 24.3686 114.58 24.8035C115.314 25.2384 116.144 25.4559 117.068 25.4559Z" fill="white"/>
<path d="M140.758 30.095C138.577 30.095 136.658 29.6601 134.999 28.7903C133.364 27.9204 132.096 26.7365 131.196 25.2384C130.295 23.7162 129.845 21.9886 129.845 20.0557C129.845 18.0986 130.283 16.371 131.16 14.8729C132.061 13.3507 133.281 12.1668 134.821 11.3211C136.362 10.4513 138.104 10.0164 140.047 10.0164C141.919 10.0164 143.601 10.4271 145.094 11.2486C146.611 12.046 147.808 13.2057 148.685 14.728C149.561 16.226 150 18.0261 150 20.1282C150 20.3456 149.988 20.5993 149.964 20.8893C149.941 21.1551 149.917 21.4088 149.893 21.6504H134.359V18.3523H146.978L144.846 19.3308C144.846 18.316 144.644 17.4341 144.241 16.6851C143.838 15.9361 143.282 15.3562 142.571 14.9454C141.86 14.5105 141.03 14.293 140.082 14.293C139.134 14.293 138.293 14.5105 137.558 14.9454C136.848 15.3562 136.291 15.9481 135.888 16.7213C135.485 17.4703 135.283 18.3643 135.283 19.4033V20.2731C135.283 21.3363 135.509 22.2786 135.959 23.1001C136.433 23.8975 137.085 24.5136 137.914 24.9485C138.767 25.3593 139.762 25.5646 140.9 25.5646C141.919 25.5646 142.808 25.4076 143.566 25.0935C144.348 24.7794 145.059 24.3082 145.699 23.68L148.649 26.9419C147.772 27.9567 146.67 28.7419 145.343 29.2977C144.016 29.8292 142.488 30.095 140.758 30.095Z" fill="white"/>
</svg>
