<svg width="12" height="12" viewBox="0 0 12 12" fill="none" xmlns="http://www.w3.org/2000/svg">
<path d="M0 1.33333C0 0.979711 0.140476 0.640573 0.390524 0.390524C0.640573 0.140476 0.979711 0 1.33333 0H3.52C3.65986 0.000106196 3.79615 0.0441975 3.90957 0.126033C4.02299 0.207869 4.1078 0.323304 4.152 0.456L5.15067 3.45133C5.20127 3.60356 5.19528 3.76893 5.13381 3.9171C5.07234 4.06527 4.9595 4.1863 4.816 4.258L3.31133 5.01133C4.04894 6.64388 5.35665 7.95136 6.98933 8.68867L7.74133 7.184C7.81303 7.0405 7.93407 6.92766 8.08224 6.86619C8.23041 6.80472 8.39577 6.79873 8.548 6.84933L11.544 7.848C11.6768 7.89223 11.7923 7.97715 11.8742 8.0907C11.956 8.20426 12 8.34069 12 8.48067V10.6667C12 11.0203 11.8595 11.3594 11.6095 11.6095C11.3594 11.8595 11.0203 12 10.6667 12H10C4.47733 12 0 7.52267 0 2V1.33333Z" fill="#2E4A8B"/>
</svg>
