<svg width="400" height="400" viewBox="0 0 400 400" fill="none" xmlns="http://www.w3.org/2000/svg">
<path d="M375.647 276.734C334.474 369.444 230.048 407.408 149.018 398.818C126.893 396.473 82.3778 391.755 48.2507 357.431C-17.2879 291.515 -4.21471 156.945 61.4292 78.9578C69.8829 68.9147 128.351 1.66629 217.246 4.4866C282.331 6.55145 327.25 45.0307 332.71 49.8215C339.607 55.8736 354.799 70.2297 368.292 92.7777C399.997 145.757 401.376 218.799 375.647 276.734Z" fill="#D9F4FF"/>
<path d="M281.321 235.87C281.872 232.511 284.062 229.647 287.158 228.37C295.032 225.123 302.689 220 309.388 213.093C322.563 199.51 328.938 182.225 327.871 166.989C327.603 163.157 329.484 159.52 332.766 157.634C341.461 152.639 350.345 145.066 358.197 135.416C378.347 110.651 384.07 81.5963 370.98 70.5195C357.89 59.4428 330.943 70.5391 310.793 95.3037C302.784 105.147 297.055 115.668 293.881 125.469C292.667 129.215 289.427 131.865 285.579 132.27C272.74 133.62 259.223 140.148 248.269 151.442C245.2 154.606 242.501 157.971 240.178 161.465C238.144 164.525 234.591 166.157 230.993 165.697C212.166 163.292 192.068 169.838 177.229 185.138C152.538 210.594 151.757 250.632 175.484 274.565C199.211 298.499 238.461 297.264 263.152 271.807C273.119 261.532 279.186 248.879 281.321 235.87Z" fill="#80D9FF"/>
<path opacity="0.36" d="M351.367 100.844C349.073 104.931 346.591 108.889 344.044 112.806C341.492 116.718 338.864 120.58 336.148 124.376C330.725 131.974 325.016 139.361 319.064 146.538C313.118 153.72 306.891 160.661 300.437 167.374C299.63 168.212 298.839 169.068 298.018 169.892L295.555 172.367C293.915 174.018 292.282 175.677 290.591 177.275L288.076 179.695C287.234 180.497 286.411 181.321 285.547 182.098L280.41 186.82C279.562 187.617 278.671 188.363 277.801 189.134L275.177 191.431C274.298 192.191 273.43 192.965 272.541 193.713L269.857 195.936L267.172 198.158L265.829 199.269C265.38 199.637 264.918 199.989 264.463 200.349L258.982 204.65C258.077 205.379 257.13 206.051 256.201 206.747L253.404 208.821L250.607 210.894C249.667 211.573 248.708 212.227 247.759 212.894L242.049 216.872L236.222 220.672C235.246 221.297 234.288 221.952 233.297 222.552L230.326 224.356L227.354 226.159L225.869 227.061L225.126 227.512L224.371 227.94L218.319 231.351L216.806 232.204L216.049 232.63L215.28 233.032L212.2 234.634L209.117 236.229L207.576 237.025C207.063 237.293 206.549 237.559 206.023 237.799L199.752 240.765C198.704 241.253 197.668 241.769 196.61 242.234L193.425 243.601L187.05 246.32C186.871 246.397 186.664 246.31 186.589 246.127C186.515 245.946 186.596 245.739 186.771 245.66L186.783 245.654L193.089 242.813L196.244 241.402C197.291 240.922 198.316 240.392 199.354 239.89L205.56 236.839C206.081 236.592 206.589 236.319 207.096 236.045L208.621 235.228L211.672 233.597L214.725 231.972L215.488 231.566L216.238 231.134L217.737 230.27L223.735 226.817L224.484 226.383L225.22 225.927L226.691 225.015L229.634 223.192L232.577 221.368C233.558 220.762 234.506 220.1 235.473 219.469L241.249 215.647L246.924 211.668C247.867 211 248.819 210.347 249.754 209.668L252.533 207.595L255.312 205.521C256.234 204.825 257.175 204.153 258.074 203.425C265.396 197.773 272.458 191.781 279.382 185.632C293.159 173.245 306.048 159.84 318.042 145.649C324.035 138.549 329.77 131.223 335.256 123.707C338.013 119.96 340.683 116.146 343.278 112.28C343.929 111.315 344.575 110.347 345.207 109.369C345.847 108.397 346.478 107.418 347.101 106.435C348.354 104.473 349.587 102.494 350.756 100.485L350.757 100.483C350.856 100.312 351.073 100.255 351.24 100.357C351.407 100.456 351.462 100.674 351.367 100.844Z" fill="white"/>
<path d="M350.683 275.236C359.497 264.035 363.394 250.716 362.415 238.732C362.217 236.308 363.406 234.048 365.466 232.91C371.095 229.799 376.797 224.887 382.162 218.07C397.471 198.615 404.228 171.02 393.004 161.835C381.78 152.649 356.825 165.351 341.516 184.806C336.824 190.768 333.584 196.671 331.668 202.257C330.862 204.609 328.759 206.19 326.261 206.344C313.626 207.125 300.388 214.055 290.805 226.233C287.444 230.503 284.799 235.082 282.866 239.778C281.714 242.577 278.741 244.08 275.721 243.353C257.42 238.945 237.933 244.714 225.89 259.948C208.809 281.556 213.496 314.766 236.17 332.855C258.567 350.722 290.161 347.943 307.038 326.496C313.26 318.59 316.618 309.242 317.28 299.666C317.468 296.949 319.336 294.744 321.95 294.142C332.421 291.734 342.791 285.264 350.683 275.236Z" fill="#80D9FF"/>
<path opacity="0.36" d="M375.986 185.565C374.163 189.158 372.169 192.644 370.124 196.1C368.088 199.563 365.935 202.949 363.755 206.318C359.354 213.027 354.738 219.593 349.857 225.952C340.133 238.7 329.491 250.744 317.932 261.852C312.191 267.446 306.118 272.694 299.885 277.737C293.641 282.768 287.113 287.456 280.361 291.797C278.66 292.864 276.97 293.947 275.262 294.999L270.047 298.018C268.32 299.042 266.517 299.938 264.736 300.869L262.062 302.257L260.725 302.951L259.358 303.591L253.877 306.111C252.973 306.548 252.028 306.903 251.098 307.287L248.299 308.416L245.497 309.534C244.563 309.904 243.597 310.204 242.649 310.543L236.928 312.473L236.79 312.129L242.289 309.718C243.203 309.315 244.134 308.95 245.033 308.516L247.726 307.206L250.42 305.907C251.316 305.472 252.227 305.066 253.096 304.578L258.363 301.766L259.683 301.071L260.972 300.322L263.549 298.823C265.264 297.82 266.999 296.854 268.657 295.759L273.701 292.597C275.353 291.499 276.985 290.372 278.627 289.262C279.443 288.7 280.275 288.159 281.079 287.58L283.485 285.833L285.895 284.094C286.699 283.515 287.508 282.942 288.284 282.325L292.986 278.69C293.778 278.095 294.535 277.454 295.3 276.825L297.6 274.944L299.907 273.07L302.161 271.134C303.655 269.832 305.177 268.564 306.649 267.237L311.044 263.233C312.507 261.896 313.929 260.515 315.374 259.158C321.114 253.687 326.649 247.997 332.017 242.146C337.383 236.291 342.555 230.253 347.596 224.098C352.609 217.92 357.488 211.622 362.172 205.168C363.36 203.566 364.502 201.931 365.665 200.31L369.079 195.391C369.648 194.571 370.208 193.744 370.762 192.913C371.322 192.086 371.872 191.252 372.421 190.417C373.529 188.755 374.609 187.07 375.667 185.375L375.986 185.565Z" fill="white"/>
<path d="M8.88287 224.955C4.93837 209.001 7.10682 193.231 13.7307 181.221C15.0705 178.792 14.888 175.861 13.2744 173.673C8.86601 167.695 5.22209 159.805 2.82147 150.095C-4.02992 122.383 1.83514 90.3502 17.8232 86.2394C33.811 82.1286 53.8676 107.496 60.7191 135.209C62.8187 143.701 63.4331 151.426 62.8168 158.177C62.5573 161.02 64.0084 163.688 66.5389 165.064C79.3363 172.022 89.8861 185.679 94.1746 203.025C95.6787 209.109 96.2929 215.165 96.1108 220.996C96.0022 224.473 98.3969 227.484 101.882 228.195C123.009 232.503 140.612 247.989 146.034 269.717C153.723 300.533 133.311 332.849 101.232 340.667C69.545 348.388 37.9318 330.128 30.3792 299.58C27.5948 288.318 28.4681 276.946 32.2564 266.648C33.3312 263.727 32.4164 260.521 29.974 258.623C20.1916 251.023 12.4143 239.239 8.88287 224.955Z" fill="#80D9FF"/>
<path opacity="0.36" d="M24.4561 119.237C24.6754 123.866 25.1222 128.467 25.6364 133.063C26.1379 137.66 26.7979 142.235 27.4935 146.804C28.9408 155.933 30.6795 165.018 32.7899 174.016C36.9593 192.025 42.413 209.747 49.2601 226.94C52.6251 235.559 56.4981 243.979 60.6334 252.264C64.785 260.542 69.393 268.6 74.3968 276.406C75.6701 278.344 76.924 280.294 78.2122 282.221L82.2334 287.902C83.5528 289.808 85.0123 291.619 86.4323 293.454L88.5691 296.202L89.6371 297.574L90.7621 298.905L95.2928 304.196C96.0301 305.091 96.8487 305.92 97.6376 306.773L100.026 309.31L102.422 311.837C103.222 312.677 104.088 313.46 104.917 314.273L109.975 319.066L110.279 318.775L105.678 313.589C104.914 312.724 104.115 311.891 103.382 311.002L101.189 308.328L98.9897 305.665C98.2598 304.775 97.5009 303.91 96.8232 302.979L92.6513 297.488L91.6018 296.122L90.6092 294.715L88.625 291.901C87.3075 290.022 85.9522 288.171 84.7369 286.224L80.9614 280.478C79.7535 278.531 78.5805 276.563 77.3887 274.608C76.8011 273.625 76.1881 272.658 75.6216 271.663L73.9314 268.674L72.2337 265.689C71.6676 264.695 71.0927 263.706 70.573 262.685L67.3742 256.611C66.8276 255.606 66.3391 254.571 65.8354 253.544L64.3196 250.465L62.7927 247.392L61.35 244.278C60.4018 242.196 59.4092 240.134 58.4973 238.036L55.7905 231.728C54.892 229.624 54.0566 227.493 53.1853 225.377C49.7638 216.887 46.6582 208.267 43.8026 199.561C40.9508 190.853 38.3865 182.047 36.0128 173.184C33.6799 164.311 31.542 155.377 29.6806 146.375C29.1926 144.129 28.7668 141.871 28.3129 139.616L27.0571 132.832C26.848 131.7 26.6513 130.567 26.463 129.432C26.2662 128.298 26.0834 127.162 25.9014 126.025C25.5242 123.754 25.1875 121.474 24.8773 119.194L24.4561 119.237Z" fill="white"/>
<path d="M217.527 96.2198C216.889 96.2198 216.36 95.7045 216.335 95.0484C216.312 94.4403 213.762 33.9966 188.263 12.6122C180.876 6.41681 172.168 4.07114 162.381 5.64316C150.911 7.48433 141.251 13.2679 133.669 22.8322C127.552 30.5487 122.752 40.733 119.402 53.1026C113.665 74.2862 114.199 94.7605 114.205 94.9647C114.225 95.6369 113.706 96.1988 113.047 96.2192C112.371 96.2225 111.837 95.711 111.817 95.0389C111.811 94.8314 111.264 74.0385 117.086 52.506C120.52 39.8005 125.469 29.3088 131.794 21.3226C139.763 11.2609 149.928 5.17633 162.01 3.23668C172.5 1.55154 181.845 4.07455 189.783 10.7324C200.867 20.0299 209.107 37.0515 214.274 61.3249C218.101 79.3052 218.716 94.801 218.722 94.9556C218.747 95.6273 218.233 96.1931 217.574 96.2188C217.558 96.2194 217.543 96.2198 217.527 96.2198Z" fill="#2E4A8B"/>
<path d="M15.9174 354.716L55.5232 76.1885L204.307 73.6375L252.263 370.197H28.8006C20.8518 370.196 14.7574 362.873 15.9174 354.716Z" fill="#2C68F1"/>
<path d="M233.205 76.1885L204.309 73.6375L252.264 370.197H280.951C286.767 370.197 291.113 364.652 289.928 358.745L233.205 76.1885Z" fill="#2E4A8B"/>
<path d="M81.0387 95.5826C80.3959 95.5826 79.8649 95.0616 79.8453 94.4017C79.8391 94.1942 79.2925 73.4012 85.1139 51.8688C88.5491 39.1633 93.4976 28.6716 99.8224 20.6853C107.791 10.6237 117.957 4.53912 130.039 2.59947C140.529 0.914331 149.874 3.43735 157.811 10.0952C168.896 19.3927 177.136 36.4143 182.303 60.6877C186.13 78.668 186.745 94.1638 186.751 94.3184C186.776 94.9901 186.262 95.5559 185.603 95.5816C184.935 95.6021 184.389 95.0829 184.364 94.4112C184.341 93.8031 181.791 33.359 156.292 11.9746C148.905 5.7796 140.197 3.43507 130.41 5.00595C118.932 6.84855 109.266 12.6387 101.681 22.216C95.5629 29.9407 90.7637 40.1349 87.4167 52.5164C81.6899 73.6985 82.2269 94.1238 82.2329 94.3275C82.253 94.9996 81.7346 95.5615 81.0755 95.582C81.0633 95.5826 81.0508 95.5826 81.0387 95.5826Z" fill="#2E4A8B"/>
<path d="M75.2607 274.931C75.2607 274.931 125.079 341.252 138.445 354.131C153.959 369.081 180.374 348.457 174.446 333.788C168.517 319.12 115.328 267.26 115.328 267.26L75.2607 274.931Z" fill="url(#paint0_linear_372_1273)"/>
<path d="M96.8271 208.932L251.775 94.926L298.598 260.938L111.006 274.684L96.8271 208.932Z" fill="url(#paint1_linear_372_1273)"/>
<path d="M293.39 172.891C307.195 219.851 310.78 260.246 301.397 263.114C292.015 265.983 273.217 230.239 259.413 183.278C245.608 136.318 242.023 95.9234 251.406 93.055C260.788 90.1867 279.586 125.93 293.39 172.891Z" fill="#01D9C6"/>
<path d="M300.976 256.905C298.973 255.782 293.822 250.661 286.284 235.651C278.999 221.146 271.619 201.699 265.503 180.893C259.386 160.087 255.059 139.707 253.317 123.507C251.515 106.744 253.054 99.5776 254.121 97.5156C256.125 98.6389 261.276 103.76 268.814 118.77C276.098 133.275 283.479 152.722 289.595 173.528C295.711 194.334 300.039 214.714 301.78 230.914C303.583 247.677 302.044 254.843 300.976 256.905Z" fill="#00E4CF"/>
<path d="M67.8953 213.902C75.7467 210.451 87.3095 206.539 100.787 205.628C103.139 229.034 110.549 251.914 122.377 274.335L86.8046 285.21C81.1331 286.944 75.0619 284.221 72.4981 278.778C67.3588 267.869 59.5335 249.285 57.3004 233.12C56.1793 225.008 60.5175 217.144 67.8953 213.902Z" fill="#2E4A8B"/>
<path d="M65.7382 232.788C65.0901 232.788 64.467 232.529 63.9849 232.041C63.3212 231.37 63.0805 230.423 63.3416 229.507C63.4368 229.174 63.7785 228.98 64.1063 229.079C64.4333 229.176 64.6214 229.525 64.5263 229.859C64.3933 230.324 64.5158 230.806 64.8536 231.148C65.1914 231.49 65.6644 231.61 66.1203 231.471L93.8358 222.998C94.1627 222.898 94.432 222.674 94.5937 222.368C94.7558 222.061 94.7909 221.709 94.6927 221.376L94.1015 219.364C93.8992 218.676 93.1847 218.284 92.5106 218.49L64.5895 227.026C64.2633 227.126 63.9193 226.937 63.8216 226.604C63.7237 226.272 63.9091 225.921 64.2353 225.821L92.1563 217.285C93.4845 216.878 94.8857 217.651 95.2834 219.003L95.8745 221.015C96.0671 221.67 95.998 222.362 95.6797 222.965C95.3617 223.567 94.8324 224.007 94.1899 224.203L66.4744 232.676C66.2297 232.751 65.9821 232.788 65.7382 232.788Z" fill="#91B3FA"/>
<path d="M66.9475 246.062C66.2991 246.062 65.6759 245.804 65.1936 245.315C64.53 244.644 64.2896 243.697 64.5505 242.782C64.6458 242.448 64.9878 242.255 65.3151 242.353C65.6422 242.451 65.8302 242.799 65.7351 243.133C65.6022 243.599 65.7247 244.081 66.0625 244.422C66.4003 244.764 66.8741 244.886 67.3293 244.746L95.0448 236.273C95.7197 236.066 96.1042 235.339 95.9018 234.65L95.3107 232.639C95.2127 232.305 94.9933 232.031 94.6927 231.866C94.3921 231.701 94.0464 231.665 93.7199 231.765L65.7985 240.301C65.4725 240.4 65.1284 240.211 65.0306 239.879C64.9328 239.546 65.1181 239.195 65.4443 239.096L93.3653 230.56C94.0073 230.363 94.6867 230.434 95.2777 230.758C95.8681 231.083 96.2997 231.622 96.4924 232.278L97.0835 234.289C97.4811 235.642 96.7253 237.072 95.3989 237.477L67.6834 245.951C67.4386 246.025 67.1912 246.062 66.9475 246.062Z" fill="#91B3FA"/>
<path opacity="0.51" d="M120.429 196.674C120.232 196.674 120.039 196.579 119.919 196.4C119.727 196.113 119.799 195.722 120.081 195.526L238.555 112.985C238.837 112.79 239.221 112.863 239.413 113.15C239.605 113.437 239.532 113.828 239.251 114.024L120.777 196.564C120.67 196.639 120.549 196.674 120.429 196.674Z" fill="white"/>
<path opacity="0.51" d="M104.885 209.472C104.705 209.472 104.526 209.392 104.405 209.238C104.19 208.968 104.232 208.572 104.497 208.353L110.411 203.483C110.677 203.265 111.065 203.307 111.279 203.577C111.493 203.847 111.452 204.243 111.186 204.462L105.272 209.332C105.158 209.426 105.021 209.472 104.885 209.472Z" fill="white"/>
<path d="M73.7284 259.966C73.0802 259.966 72.4571 259.707 71.9748 259.219C71.3112 258.548 71.0708 257.601 71.3318 256.686C71.4272 256.352 71.7701 256.16 72.0965 256.257C72.4235 256.354 72.6116 256.704 72.5165 257.037C72.3835 257.503 72.5059 257.985 72.8435 258.326C73.1813 258.668 73.6547 258.789 74.1105 258.649L101.826 250.176C102.501 249.97 102.885 249.242 102.683 248.553L102.092 246.543C101.889 245.854 101.175 245.462 100.501 245.668L72.5797 254.204C72.2527 254.303 71.9093 254.116 71.8118 253.783C71.7139 253.45 71.8993 253.099 72.2255 253L100.147 244.464C101.474 244.058 102.876 244.829 103.274 246.182L103.865 248.192C104.262 249.545 103.506 250.976 102.18 251.381L74.4648 259.854C74.2201 259.929 73.9724 259.966 73.7284 259.966Z" fill="#91B3FA"/>
<path d="M81.1081 275.444C80.46 275.444 79.8367 275.185 79.3546 274.697C78.691 274.026 78.4507 273.079 78.7118 272.164C78.807 271.83 79.1487 271.638 79.4764 271.735C79.8035 271.833 79.9918 272.181 79.8964 272.515C79.7635 272.981 79.8857 273.463 80.2235 273.804C80.5611 274.146 81.0351 274.267 81.4905 274.128L109.206 265.655C109.533 265.555 109.802 265.331 109.964 265.024C110.126 264.718 110.161 264.365 110.063 264.032L109.471 262.021C109.373 261.688 109.154 261.413 108.854 261.248C108.553 261.083 108.208 261.047 107.881 261.147L79.9593 269.683C79.6332 269.781 79.2891 269.594 79.1913 269.261C79.0935 268.928 79.2788 268.577 79.6051 268.478L107.526 259.942C108.169 259.745 108.848 259.816 109.438 260.141C110.029 260.465 110.46 261.005 110.653 261.66L111.244 263.671C111.437 264.326 111.368 265.019 111.05 265.621C110.732 266.224 110.202 266.663 109.56 266.86L81.8446 275.333C81.5996 275.407 81.3521 275.444 81.1081 275.444Z" fill="#91B3FA"/>
<path d="M154.886 348.567C149.474 348.567 144.416 346.224 140.83 342.005L103.94 298.609C103.717 298.346 103.744 297.949 104.002 297.721C104.259 297.493 104.649 297.521 104.872 297.785L141.762 341.182C145.415 345.478 150.702 347.697 156.271 347.255C161.744 346.826 166.545 343.88 169.443 339.174C169.598 338.923 169.752 338.666 169.906 338.405C170.081 338.106 170.46 338.009 170.752 338.188C171.044 338.367 171.139 338.753 170.964 339.051C170.806 339.321 170.647 339.585 170.488 339.843C167.38 344.891 162.233 348.049 156.366 348.509C155.871 348.548 155.377 348.567 154.886 348.567Z" fill="#91B3FA"/>
<path d="M98.9513 292.409C98.7787 292.409 98.607 292.336 98.485 292.192L94.3695 287.351C94.1463 287.089 94.1742 286.692 94.4316 286.464C94.6885 286.237 95.0783 286.264 95.3015 286.527L99.417 291.368C99.6403 291.631 99.6124 292.028 99.355 292.256C99.2384 292.359 99.0946 292.409 98.9513 292.409Z" fill="#91B3FA"/>
<path d="M306.461 138.203L349.472 87.6259C351.371 85.3936 354.628 85.0145 356.971 86.7532C359.82 88.8677 360.058 93.1123 357.463 95.5438L309.128 140.846C308.559 141.379 307.727 141.499 307.035 141.147C305.947 140.592 305.664 139.14 306.461 138.203Z" fill="#00FBE5"/>
<path d="M321.221 184.66L386.867 184.147C389.764 184.125 392.163 181.844 392.387 178.898C392.661 175.316 389.65 172.375 386.152 172.808L320.982 180.875C320.215 180.97 319.585 181.538 319.399 182.303C319.105 183.507 320.004 184.67 321.221 184.66Z" fill="#00FBE5"/>
<path d="M323.363 157.421L387.339 120.148C390.163 118.502 393.636 119.493 395.333 122.427C397.397 125.996 395.95 130.788 392.338 132.353L325.031 161.495C324.239 161.838 323.342 161.61 322.778 160.922C321.888 159.839 322.177 158.111 323.363 157.421Z" fill="#00FBE5"/>
<path d="M6.71585 390.646C6.71585 390.646 5.55825 392.507 5.26701 397.717C5.23983 398.203 5.61692 398.616 6.09364 398.616H15.1476C15.5119 398.616 15.7719 398.252 15.6553 397.9C15.1248 396.299 13.5206 392.395 9.9413 390.164L6.71585 390.646Z" fill="url(#paint2_linear_372_1273)"/>
<path d="M6.32324 387.115L6.83536 391.494C6.87953 391.872 7.1698 392.174 7.54048 392.218C8.0356 392.276 8.75549 392.317 9.4549 392.199C10.0908 392.092 10.5484 391.515 10.5484 390.858V386.63L6.32324 387.115Z" fill="url(#paint3_linear_372_1273)"/>
<path d="M29.1154 390.164C29.1154 390.164 27.3825 392.911 27.4195 396.681C27.4283 397.569 28.1574 398.276 29.0284 398.276H43.09C43.7483 398.276 44.0157 397.414 43.4768 397.028C40.8159 395.122 35.5861 391.563 31.8034 390.164H29.1154Z" fill="url(#paint4_linear_372_1273)"/>
<path d="M27.668 385.435L28.7602 390.843C28.8824 391.447 29.4625 391.854 30.0537 391.72C30.4129 391.638 30.837 391.481 31.2899 391.192C31.7203 390.918 31.9386 390.396 31.8505 389.886L30.7206 383.334L27.668 385.435Z" fill="url(#paint5_linear_372_1273)"/>
<path d="M8.32788 310.246C8.32788 310.246 4.52997 313.66 3.81524 317.768C3.1005 321.876 5.8403 388.647 5.8403 388.647C5.8403 388.647 9.63807 389.291 11.5958 388.082C11.5958 388.082 13.9177 344.748 15.6826 334.735C15.6826 334.735 24.9385 379.623 27.5032 387.733C27.5032 387.733 31.1619 388.187 32.3418 387.477C32.3418 387.477 29.9172 329.29 26.8706 318.945L8.32788 310.246Z" fill="url(#paint6_linear_372_1273)"/>
<path d="M41.3974 268.772C25.8348 272.745 22.9453 277.312 22.9453 277.312L34.1272 286.497C34.1272 286.497 48.8987 281.034 56.7589 268.96C54.0334 267.462 51.8404 265.522 50.323 263.946C47.9638 266.064 45.0275 267.845 41.3974 268.772Z" fill="url(#paint7_linear_372_1273)"/>
<path d="M57.5343 237.887C57.3488 237.4 56.6465 237.493 56.5902 238.013L56.0618 242.886C55.9598 243.828 56.1436 244.778 56.5887 245.61L58.0825 247.821C58.6833 248.943 58.7857 250.271 58.3598 251.474C57.3405 254.353 54.9404 259.796 50.3213 263.944C51.8387 265.52 54.0317 267.46 56.7571 268.958C59.6412 264.527 61.5961 259.208 61.5478 252.939C62.3336 252.36 62.6386 251.314 62.2916 250.39L57.5343 237.887Z" fill="url(#paint8_linear_372_1273)"/>
<path d="M51.0698 278.834C45.4415 272.649 34.7209 269.855 28.514 268.707C25.7947 268.205 23.1143 269.748 22.1508 272.389C19.3576 280.046 11.7607 299.967 10.2883 303.391C9.08037 306.2 7.81895 308.944 7.0174 310.659C6.53858 311.683 6.95692 312.909 7.95956 313.402C13.1818 315.969 22.5784 318.873 26.3879 320.006C27.2258 320.256 28.0603 319.614 28.0603 318.724C28.0603 317.969 28.2615 317.228 28.6424 316.581L43.0699 292.063C52.0625 302.231 59.9375 303.161 65.9872 300.935C64.97 297.729 64.3044 294.517 63.9852 291.299C55.0479 289.738 51.0698 278.834 51.0698 278.834Z" fill="url(#paint9_linear_372_1273)"/>
<path d="M78.7565 289.593L77.1437 287.4C71.922 291.057 67.5574 291.924 63.9844 291.299C64.3036 294.517 64.9692 297.729 65.9864 300.935C73.9563 298.003 78.7565 289.593 78.7565 289.593Z" fill="url(#paint10_linear_372_1273)"/>
<path d="M77.6191 289.633L86.7059 289.994L95.072 285.229C93.8711 284.462 87.0802 286.031 87.0802 286.031C87.0802 286.031 79.981 284.936 78.0596 284.933C76.4637 284.931 76.6917 287.271 76.8148 288.065C76.8399 288.226 76.8606 288.324 76.8606 288.324L77.6191 289.633Z" fill="url(#paint11_linear_372_1273)"/>
<path d="M37.0531 257.348L32.2588 269.279C32.2588 269.279 37.7675 273.167 42.1995 272.797L44.5922 262.07L37.0531 257.348Z" fill="url(#paint12_linear_372_1273)"/>
<path d="M45.1499 249.215C45.2597 249.374 48.6182 261.747 48.6182 261.747L41.6495 263.553L36.7578 252.307C36.7578 252.307 43.3115 246.559 45.1499 249.215Z" fill="url(#paint13_linear_372_1273)"/>
<path d="M39.3827 254.017L41.5034 260.142C41.5305 260.221 41.5669 260.293 41.614 260.361C41.9018 260.778 42.995 262.139 44.2917 260.913C45.4682 259.801 46.5584 258.805 47.565 258.623C48.017 258.542 48.4548 258.823 48.5772 259.275C48.8821 260.399 49.5231 262.945 49.7491 265.244C49.795 265.711 49.4792 266.133 49.0274 266.22C47.6663 266.484 44.7805 266.958 42.3714 266.784C42.0449 266.761 41.7577 266.561 41.6215 266.258C40.9575 264.778 38.9234 260.289 38.1667 259.128C37.4566 258.038 35.7156 258.068 34.9856 258.134C34.7462 258.156 34.5109 258.077 34.3302 257.915C33.6916 257.345 32.4758 255.887 34.1858 254.142C34.5437 253.777 34.5341 253.187 34.1652 252.834C33.431 252.13 32.6456 250.881 33.8689 249.332C35.1125 247.758 36.754 248.008 37.7598 248.383C38.1664 248.534 38.61 248.359 38.8311 247.979C38.957 247.763 39.1765 247.599 39.5572 247.633C40.0701 247.678 40.5014 247.241 40.4922 246.716C40.4745 245.708 40.8286 244.434 42.544 243.889C45.5883 242.923 47.4867 245.922 47.6747 248.16C47.8627 250.398 44.5039 251.254 42.5287 251.103C41.0271 250.988 39.912 252.506 39.4638 253.241C39.3217 253.473 39.2934 253.758 39.3827 254.017Z" fill="#283042"/>
<path d="M38.9587 261.35C38.9587 261.35 38.4669 257.465 36.882 257.274C35.2972 257.084 33.7546 258.412 35.3302 260.593C37.2902 263.305 38.9587 261.35 38.9587 261.35Z" fill="url(#paint14_linear_372_1273)"/>
<path d="M382.63 53.138C392.223 43.3555 392.223 27.4951 382.63 17.7127C373.038 7.93027 357.485 7.93026 347.892 17.7127C338.3 27.4951 338.3 43.3555 347.892 53.1379C357.485 62.9203 373.038 62.9204 382.63 53.138Z" fill="#20BDFF"/>
<path d="M365.736 51.0529C365.464 51.0529 365.191 51.0468 364.917 51.0344C355.547 50.6131 348.237 43.0059 348.62 34.0765C348.806 29.7342 350.759 25.7366 354.118 22.82C357.454 19.9235 361.786 18.443 366.306 18.6441C375.675 19.0653 382.987 26.6724 382.603 35.602V35.6027C382.417 39.9445 380.464 43.9419 377.105 46.8585C373.971 49.5792 369.96 51.0529 365.736 51.0529ZM365.488 20.9111C361.795 20.9111 358.298 22.1928 355.571 24.5604C352.691 27.0608 351.017 30.4757 350.859 34.1758C350.53 41.847 356.88 48.3855 365.015 48.7512C368.969 48.9252 372.748 47.639 375.652 45.118C378.532 42.6176 380.205 39.2027 380.364 35.5021C380.693 27.8313 374.342 21.2927 366.208 20.9272C365.967 20.9167 365.727 20.9111 365.488 20.9111Z" fill="white"/>
<path d="M369.671 34.9129C369.667 37.5705 369.489 40.2335 369.032 42.8535C368.916 43.508 368.781 44.1593 368.621 44.8045C368.461 45.4492 368.276 46.0886 368.049 46.7136C367.82 47.337 367.555 47.9515 367.195 48.513C367.013 48.7917 366.808 49.0588 366.554 49.2785C366.427 49.3877 366.287 49.4844 366.134 49.5554C365.981 49.6258 365.814 49.6703 365.644 49.6734C365.475 49.6784 365.305 49.6446 365.149 49.5802C364.992 49.5166 364.849 49.424 364.719 49.3185C364.459 49.1056 364.249 48.8414 364.064 48.565C363.698 48.0074 363.429 47.3941 363.198 46.7718C362.968 46.1478 362.781 45.5091 362.619 44.8646C362.457 44.2198 362.322 43.5688 362.205 42.9147C361.972 41.6059 361.813 40.2845 361.706 38.9597C361.599 37.6343 361.546 36.305 361.539 34.9753C361.536 34.3107 361.554 33.646 361.577 32.9818C361.601 32.3176 361.637 31.6538 361.685 30.991C361.781 29.6655 361.924 28.3428 362.138 27.031C362.245 26.3753 362.37 25.7223 362.519 25.0751C362.67 24.4282 362.845 23.7863 363.062 23.1585C363.171 22.8448 363.29 22.5345 363.426 22.2315C363.562 21.9285 363.713 21.6322 363.892 21.352C364.071 21.073 364.276 20.8068 364.533 20.5937C364.661 20.4879 364.802 20.396 364.956 20.3338C365.11 20.2707 365.277 20.2387 365.443 20.2452C365.609 20.2501 365.773 20.2924 365.925 20.3606C366.076 20.4291 366.215 20.5222 366.343 20.6278C366.598 20.8402 366.81 21.1002 366.997 21.373C367.37 21.9225 367.651 22.5286 367.895 23.1453C368.137 23.7636 368.336 24.3978 368.51 25.0387C368.683 25.6799 368.83 26.3284 368.957 26.9804C369.459 29.5915 369.663 32.2548 369.671 34.9129ZM369.479 34.9129C369.481 33.5888 369.432 32.2642 369.324 30.9445C369.218 29.625 369.058 28.3094 368.819 27.0079C368.699 26.3575 368.56 25.7106 368.395 25.0708C368.229 24.4316 368.037 23.7987 367.803 23.1823C367.568 22.5676 367.296 21.9638 366.934 21.4181C366.752 21.1472 366.547 20.8898 366.301 20.6806C366.178 20.5766 366.044 20.4852 365.899 20.4179C365.755 20.3514 365.6 20.3077 365.441 20.3035C365.283 20.2984 365.125 20.3309 364.979 20.3924C364.832 20.4534 364.698 20.5432 364.575 20.6468C364.329 20.8559 364.13 21.1186 363.957 21.3952C363.785 21.6729 363.637 21.9673 363.506 22.2687C363.375 22.5701 363.26 22.8792 363.155 23.1917C362.946 23.8174 362.779 24.4575 362.637 25.1028C362.494 25.7484 362.377 26.3997 362.277 27.054C362.079 28.3627 361.95 29.682 361.868 31.0038C361.786 32.3257 361.758 33.6507 361.76 34.975C361.757 36.2992 361.8 37.6237 361.896 38.9442C361.993 40.2645 362.141 41.5816 362.363 42.8856C362.475 43.5376 362.604 44.186 362.76 44.8279C362.916 45.4696 363.097 46.1054 363.32 46.725C363.544 47.3428 363.806 47.9509 364.16 48.4988C364.338 48.7702 364.541 49.0278 364.787 49.2319C364.91 49.3332 365.043 49.4209 365.188 49.4809C365.332 49.5411 365.486 49.5745 365.641 49.5691C365.796 49.5652 365.949 49.5232 366.09 49.4567C366.232 49.3898 366.363 49.2977 366.483 49.1928C366.723 48.9817 366.921 48.7207 367.097 48.4469C367.444 47.8948 367.703 47.2854 367.924 46.6664C368.144 46.0455 368.323 45.4094 368.477 44.7674C368.631 44.1251 368.76 43.4762 368.87 42.824C369.091 41.5198 369.237 40.2025 369.335 38.8822C369.434 37.562 369.479 36.2374 369.479 34.9129Z" fill="white"/>
<path d="M365.607 50.062C365.41 50.062 365.202 50.0199 365.008 49.9401C364.83 49.8675 364.658 49.7634 364.485 49.6225C364.225 49.4099 363.992 49.1436 363.752 48.7839C363.419 48.2768 363.131 47.6822 362.844 46.9099C362.628 46.3218 362.435 45.6846 362.253 44.9614C362.097 44.3397 361.96 43.6929 361.833 42.9845C361.61 41.7297 361.445 40.424 361.329 38.9918C361.224 37.6904 361.168 36.3399 361.162 34.9776C361.158 34.2658 361.179 33.5628 361.199 32.9686C361.224 32.2932 361.26 31.6184 361.308 30.963C361.412 29.523 361.562 28.2165 361.765 26.968C361.881 26.2565 362.007 25.6083 362.152 24.9857C362.321 24.2586 362.502 23.6185 362.705 23.03C362.829 22.6746 362.952 22.3606 363.082 22.0705C363.241 21.7172 363.402 21.4133 363.575 21.1408C363.809 20.7759 364.038 20.507 364.294 20.2937C364.465 20.1522 364.641 20.0452 364.817 19.9741C365.021 19.8904 365.242 19.851 365.458 19.8586C365.663 19.8647 365.872 19.9143 366.077 20.0065C366.249 20.0841 366.413 20.1888 366.581 20.3268C366.836 20.5394 367.066 20.8006 367.307 21.1506C367.647 21.6519 367.945 22.2391 368.246 23.0005C368.475 23.5867 368.681 24.2194 368.875 24.9357C369.043 25.5594 369.191 26.2035 369.328 26.9055C369.805 29.3853 370.041 32.0041 370.049 34.912V34.9135C370.045 37.8397 369.834 40.4592 369.404 42.9217C369.279 43.6297 369.143 44.2764 368.988 44.9002C368.809 45.6225 368.618 46.2599 368.404 46.8491C368.12 47.6231 367.836 48.2193 367.511 48.726C367.276 49.0886 367.049 49.3574 366.798 49.5747C366.63 49.7192 366.464 49.8282 366.291 49.9088C366.078 50.0063 365.864 50.0575 365.651 50.0612C365.636 50.0617 365.622 50.062 365.607 50.062ZM365.41 20.6909C365.315 20.6909 365.217 20.7114 365.124 20.751C365.023 20.7931 364.92 20.8585 364.816 20.9461C364.63 21.1042 364.458 21.3138 364.276 21.6045C364.128 21.8429 363.989 22.1121 363.852 22.4268C363.735 22.6945 363.624 22.9861 363.513 23.3182C363.326 23.878 363.16 24.4904 363.006 25.1888C362.872 25.7936 362.756 26.4233 362.651 27.1143C362.466 28.3388 362.333 29.6194 362.246 31.0284C362.171 32.2329 362.136 33.5237 362.138 34.9745C362.135 36.3137 362.18 37.6391 362.273 38.9158C362.376 40.317 362.527 41.5943 362.736 42.8197C362.853 43.5049 362.981 44.1316 363.128 44.7352C363.297 45.4284 363.476 46.0355 363.675 46.5914C363.932 47.299 364.186 47.8376 364.476 48.2854C364.662 48.5694 364.838 48.7755 365.026 48.9317C365.129 49.0175 365.232 49.0817 365.33 49.1224C365.434 49.1657 365.532 49.1814 365.629 49.1829C365.727 49.1802 365.829 49.1542 365.932 49.1053C366.031 49.0584 366.134 48.9888 366.237 48.8988C366.422 48.7361 366.595 48.5255 366.78 48.2355C367.064 47.7854 367.315 47.2441 367.569 46.5339C367.767 45.9761 367.944 45.3676 368.11 44.6749C368.254 44.0748 368.381 43.4477 368.498 42.7583C368.703 41.5438 368.854 40.2665 368.958 38.8537C369.053 37.5798 369.101 36.2542 369.101 34.9131V34.9124C369.103 33.5766 369.052 32.2525 368.948 30.9768C368.835 29.5729 368.671 28.2983 368.447 27.0797C368.323 26.4009 368.186 25.7764 368.029 25.1702C367.851 24.4834 367.662 23.879 367.451 23.3226C367.183 22.6222 366.919 22.0856 366.621 21.6358C366.43 21.3506 366.251 21.1415 366.059 20.9788C365.953 20.8889 365.846 20.8184 365.743 20.7705C365.635 20.7205 365.529 20.6933 365.432 20.691C365.425 20.6909 365.417 20.6909 365.41 20.6909Z" fill="white"/>
<path d="M376.218 34.9141C376.209 36.6255 375.995 38.3377 375.547 39.9881C375.092 41.6348 374.405 43.2187 373.473 44.641C373.007 45.3512 372.479 46.0199 371.89 46.6267C371.3 47.233 370.648 47.7773 369.94 48.2333C369.232 48.6878 368.466 49.0513 367.665 49.298C366.865 49.5454 366.029 49.6743 365.192 49.6753C364.356 49.6752 363.52 49.547 362.719 49.3003C361.917 49.0542 361.151 48.6911 360.442 48.2372C359.734 47.7816 359.081 47.2379 358.49 46.6318C357.899 46.0254 357.37 45.3569 356.903 44.6466C355.97 43.2241 355.282 41.6395 354.824 39.9921C354.599 39.1669 354.432 38.3253 354.321 37.4764C354.211 36.6272 354.155 35.7709 354.151 34.9143C354.156 34.0576 354.212 33.2013 354.322 32.3523C354.434 31.5035 354.602 30.6622 354.828 29.8372C355.286 28.1903 355.975 26.6067 356.909 25.1859C357.377 24.4762 357.906 23.8084 358.496 23.203C359.087 22.5976 359.74 22.0545 360.448 21.6003C361.157 21.1475 361.923 20.7873 362.723 20.5411C363.523 20.2941 364.357 20.1653 365.193 20.1646C366.028 20.1661 366.862 20.2956 367.662 20.5433C368.461 20.7898 369.226 21.1509 369.935 21.6043C370.642 22.059 371.294 22.6027 371.884 23.2083C372.473 23.8141 373.001 24.4818 373.467 25.1917C374.4 26.6124 375.087 28.1955 375.544 29.8414C375.992 31.4907 376.208 33.2027 376.218 34.9141ZM375.998 34.9141C375.996 33.222 375.79 31.5284 375.354 29.8951C374.915 28.2642 374.255 26.6899 373.346 25.2741C372.892 24.5668 372.376 23.9003 371.798 23.2944C371.22 22.6894 370.581 22.142 369.883 21.6871C369.184 21.2346 368.429 20.8705 367.637 20.6243C366.846 20.3779 366.02 20.2482 365.192 20.2454C364.365 20.249 363.539 20.3793 362.748 20.6264C361.957 20.8733 361.202 21.2382 360.504 21.6909C359.806 22.1464 359.169 22.6942 358.592 23.2995C358.015 23.9057 357.5 24.5724 357.047 25.2796C356.14 26.6953 355.481 28.2691 355.045 29.8989C354.827 30.7148 354.67 31.5468 354.563 32.385C354.456 33.2233 354.404 34.0686 354.402 34.9141C354.404 35.7597 354.457 36.6049 354.565 37.4431C354.672 38.2811 354.83 39.1129 355.048 39.9285C355.485 41.5579 356.145 43.1305 357.053 44.5448C357.506 45.2512 358.021 45.9172 358.598 46.5226C359.175 47.1269 359.812 47.6743 360.51 48.1283C361.208 48.58 361.962 48.9422 362.752 49.189C363.541 49.4365 364.366 49.5673 365.192 49.5717C366.019 49.5682 366.844 49.4382 367.634 49.1913C368.424 48.9452 369.179 48.5835 369.878 48.1323C370.576 47.6787 371.214 47.132 371.792 46.528C372.37 45.9228 372.886 45.257 373.34 44.5506C374.25 43.136 374.911 41.5627 375.351 39.9327C375.788 38.2996 375.995 36.6061 375.998 34.9141Z" fill="white"/>
<path d="M365.193 50.0614C364.323 50.0614 363.454 49.9296 362.61 49.6698C361.793 49.4195 360.997 49.0474 360.241 48.5639C359.528 48.1052 358.848 47.5469 358.222 46.9037C357.631 46.2974 357.082 45.6101 356.589 44.8613C355.662 43.4491 354.946 41.8459 354.46 40.0963C354.232 39.2616 354.059 38.3974 353.945 37.526C353.835 36.6731 353.777 35.7945 353.772 34.9144C353.777 34.0295 353.836 33.1509 353.947 32.2992C354.061 31.4275 354.235 30.5636 354.463 29.7311C354.95 27.9808 355.667 26.3788 356.595 24.968C357.087 24.2207 357.636 23.5343 358.228 22.9276C358.856 22.2843 359.535 21.7268 360.247 21.2703C360.997 20.7912 361.793 20.4208 362.614 20.1686C363.455 19.9088 364.323 19.7763 365.191 19.7756C366.062 19.7772 366.93 19.9102 367.771 20.1708C368.589 20.4235 369.385 20.7944 370.134 21.274C370.846 21.7316 371.524 22.2896 372.151 22.9327C372.742 23.5398 373.29 24.2262 373.781 24.9736C374.707 26.385 375.423 27.9865 375.907 29.7337C376.354 31.3768 376.586 33.1175 376.596 34.9103V34.9149C376.587 36.7072 376.356 38.4484 375.911 40.0902C375.428 41.8397 374.713 43.4423 373.787 44.8552C373.296 45.6041 372.748 46.2917 372.157 46.8983C371.532 47.5416 370.853 48.1007 370.141 48.5597C369.386 49.0433 368.59 49.4159 367.774 49.6674C366.932 49.9275 366.063 50.0602 365.193 50.0614ZM365.191 20.6313C364.407 20.6347 363.621 20.7568 362.858 20.9951C362.121 21.2254 361.397 21.5692 360.706 22.0166C360.066 22.4341 359.446 22.9563 358.862 23.5684C358.319 24.1394 357.814 24.7866 357.363 25.4909C356.512 26.8187 355.855 28.3358 355.409 29.9999C355.204 30.7691 355.046 31.5882 354.938 32.4336C354.835 33.2438 354.782 34.078 354.78 34.9136C354.782 35.7486 354.836 36.583 354.94 37.3916C355.048 38.2354 355.207 39.0541 355.413 39.8249C355.859 41.4879 356.518 43.0038 357.369 44.3305C357.82 45.0339 358.325 45.6798 358.869 46.2505C359.453 46.8622 360.073 47.3837 360.712 47.8001C361.398 48.2433 362.121 48.5856 362.862 48.8172C363.623 49.0558 364.408 49.179 365.194 49.1828C365.977 49.1794 366.762 49.0572 367.523 48.8193C368.265 48.5878 368.989 48.246 369.676 47.8031C370.315 47.3881 370.936 46.867 371.521 46.2551C372.066 45.6847 372.572 45.0388 373.024 44.3356C373.877 43.0093 374.537 41.4927 374.986 39.8278C375.403 38.2699 375.616 36.6161 375.62 34.9122C375.617 33.2091 375.405 31.5548 374.989 29.9955C374.541 28.3306 373.882 26.8129 373.03 25.485C372.578 24.7815 372.072 24.1347 371.527 23.5633C370.944 22.9529 370.322 22.431 369.68 22.0123C368.99 21.5659 368.266 21.223 367.528 20.9934C366.764 20.7556 365.978 20.6338 365.191 20.6313Z" fill="white"/>
<path d="M352.326 29.0718L355.637 29.0443L358.948 29.0289L365.571 29.0164L372.194 29.03L375.505 29.0469L378.816 29.0766C378.822 29.0766 378.826 29.0812 378.826 29.0866C378.826 29.0866 378.821 29.0964 378.816 29.0965L375.505 29.1261L372.194 29.143L365.571 29.1568L358.948 29.1443L355.637 29.1288L352.326 29.1013C352.318 29.1013 352.312 29.0947 352.312 29.0947C352.312 29.0783 352.318 29.0719 352.326 29.0718Z" fill="white"/>
<path d="M365.572 29.5443L355.636 29.5165L352.165 29.4872L351.934 29.2509L351.934 29.0776L351.942 28.6995L352.323 28.6847L358.947 28.6417L365.571 28.6292L375.507 28.6601L379.195 28.6931L379.204 29.474L378.816 29.4839L372.196 29.5304L365.572 29.5443Z" fill="white"/>
<path d="M356.168 23.394C356.952 23.3814 357.736 23.3759 358.519 23.3666L360.87 23.3511C361.654 23.3444 362.437 23.3452 363.221 23.3432L365.572 23.3386L370.274 23.3524L372.625 23.3693C373.408 23.3794 374.192 23.3852 374.976 23.3989L374.985 23.4036C374.985 23.4144 374.981 23.4188 374.981 23.4188C374.192 23.4326 373.408 23.4384 372.625 23.4485L370.274 23.4654L365.572 23.479L363.221 23.4745C362.438 23.4726 361.654 23.4732 360.87 23.4665L358.519 23.451C357.736 23.4418 356.952 23.4364 356.169 23.4236C356.161 23.4235 356.154 23.4168 356.154 23.4085C356.154 23.4006 356.161 23.3942 356.168 23.394Z" fill="white"/>
<path d="M365.573 23.8666L362.611 23.8606C362.03 23.8599 361.448 23.8588 360.867 23.8538L357.732 23.8299C357.209 23.8245 356.685 23.8199 356.162 23.811L355.79 23.8051L355.775 23.0213L356.162 23.007C356.669 22.9986 357.175 22.9938 357.681 22.9884L360.868 22.9639C361.419 22.9594 361.971 22.9581 362.524 22.9575L365.571 22.9514L373.483 22.9919C373.983 22.9975 374.482 23.0027 374.982 23.0115L375.367 23.0184L375.35 23.7963L374.975 23.8062C374.459 23.8153 373.935 23.821 373.412 23.8267L370.276 23.8528L365.573 23.8666Z" fill="white"/>
<path d="M351.177 34.75L354.776 34.7227L358.375 34.7071L365.573 34.6946L372.771 34.7084L376.37 34.7254L379.969 34.755C379.974 34.755 379.979 34.7594 379.979 34.7649C379.979 34.7649 379.974 34.7747 379.969 34.7749L376.37 34.8044L372.771 34.8213L365.573 34.8351L358.375 34.8226L354.776 34.807L351.177 34.7797C351.17 34.7796 351.163 34.7729 351.163 34.7648C351.163 34.7567 351.17 34.7501 351.177 34.75Z" fill="white"/>
<path d="M365.574 35.222L354.774 35.194L350.799 35.1638L350.784 34.377L351.174 34.3624L358.373 34.3196L365.572 34.3071L376.371 34.3378L380.13 34.3684L380.359 34.6063L380.344 35.1521L379.968 35.1618L372.772 35.2084L365.574 35.222Z" fill="white"/>
<path d="M352.326 40.4282L355.637 40.4008L358.948 40.3853L365.571 40.3728L372.194 40.3866L375.505 40.4035L378.816 40.4331C378.822 40.4331 378.826 40.4376 378.826 40.4376C378.826 40.4487 378.821 40.4529 378.816 40.4529L375.505 40.4825L372.194 40.4994L365.571 40.5134L358.948 40.5008L355.637 40.4854L352.326 40.4579C352.318 40.4579 352.312 40.4512 352.312 40.443C352.312 40.4348 352.318 40.4282 352.326 40.4282Z" fill="white"/>
<path d="M365.572 40.8999L355.636 40.8719L352.165 40.8436L351.934 40.6071L351.934 40.4336L351.942 40.055L352.323 40.0407L358.947 39.9976L365.571 39.9851L375.507 40.0157L379.195 40.0485L379.204 40.8298L378.816 40.8399L372.196 40.8862L365.572 40.8999Z" fill="white"/>
<path d="M375.448 46.1717H356.641C356.613 46.1717 356.59 46.1483 356.59 46.1196C356.59 46.0911 356.613 46.0676 356.641 46.0676H375.448C375.476 46.0676 375.499 46.0909 375.499 46.1196C375.499 46.1483 375.476 46.1717 375.448 46.1717Z" fill="white"/>
<path d="M375.45 46.559H356.643C356.406 46.559 356.214 46.362 356.214 46.12C356.214 45.878 356.406 45.6809 356.643 45.6809H375.45C375.687 45.6809 375.879 45.878 375.879 46.12C375.879 46.362 375.687 46.559 375.45 46.559Z" fill="white"/>
<path d="M362.286 256.917C375.193 256.917 385.656 246.247 385.656 233.085C385.656 219.923 375.193 209.253 362.286 209.253C349.38 209.253 338.917 219.923 338.917 233.085C338.917 246.247 349.38 256.917 362.286 256.917Z" fill="#20BDFF"/>
<path d="M362.287 248.03C354.206 248.03 347.632 241.326 347.632 233.085C347.632 224.844 354.206 218.14 362.287 218.14C370.368 218.14 376.942 224.844 376.942 233.085C376.942 241.326 370.368 248.03 362.287 248.03ZM362.287 220.644C355.56 220.644 350.088 226.225 350.088 233.085C350.088 239.945 355.56 245.526 362.287 245.526C369.014 245.526 374.486 239.945 374.486 233.085C374.486 226.225 369.014 220.644 362.287 220.644Z" fill="white"/>
<path fill-rule="evenodd" clip-rule="evenodd" d="M357.696 238.84V228.096C357.696 226.948 358.922 226.236 359.89 226.822L368.768 232.194C369.716 232.768 369.716 234.168 368.768 234.742L359.89 240.114C358.922 240.7 357.696 239.988 357.696 238.84Z" fill="white"/>
<path d="M312.358 92.9382C325.422 92.9382 336.013 82.1382 336.013 68.8158C336.013 55.4933 325.422 44.6934 312.358 44.6934C299.294 44.6934 288.704 55.4933 288.704 68.8158C288.704 82.1382 299.294 92.9382 312.358 92.9382Z" fill="#20BDFF"/>
<rect x="304.002" y="65.2678" width="7" height="12.2375" rx="1" fill="white"/>
<rect x="295.999" y="69.3462" width="7" height="8.15831" rx="1" fill="white"/>
<rect x="312" y="62.2075" width="7" height="15.2968" rx="1" fill="white"/>
<rect x="320" y="58.1287" width="7" height="19.376" rx="1" fill="white"/>
<rect x="306" y="67.3062" width="3" height="8.15831" fill="#20BDFF"/>
<rect x="298" y="71.385" width="3" height="4.07915" fill="#20BDFF"/>
<rect x="314" y="64.2476" width="3" height="11.2177" fill="#20BDFF"/>
<rect x="322" y="60.1682" width="3" height="15.2968" fill="#20BDFF"/>
<defs>
<linearGradient id="paint0_linear_372_1273" x1="75.2613" y1="313.291" x2="175.298" y2="313.291" gradientUnits="userSpaceOnUse">
<stop stop-color="#152F6C"/>
<stop offset="1" stop-color="#2E4A8B"/>
</linearGradient>
<linearGradient id="paint1_linear_372_1273" x1="197.713" y1="94.926" x2="197.713" y2="274.684" gradientUnits="userSpaceOnUse">
<stop stop-color="#00FFE8"/>
<stop offset="1" stop-color="#00CFBC"/>
</linearGradient>
<linearGradient id="paint2_linear_372_1273" x1="5.26569" y1="394.39" x2="15.6836" y2="394.39" gradientUnits="userSpaceOnUse">
<stop stop-color="#152F6C"/>
<stop offset="1" stop-color="#2E4A8B"/>
</linearGradient>
<linearGradient id="paint3_linear_372_1273" x1="6.32326" y1="389.452" x2="10.5484" y2="389.452" gradientUnits="userSpaceOnUse">
<stop stop-color="#FEBBBA"/>
<stop offset="1" stop-color="#FF928E"/>
</linearGradient>
<linearGradient id="paint4_linear_372_1273" x1="27.419" y1="394.22" x2="43.765" y2="394.22" gradientUnits="userSpaceOnUse">
<stop stop-color="#152F6C"/>
<stop offset="1" stop-color="#2E4A8B"/>
</linearGradient>
<linearGradient id="paint5_linear_372_1273" x1="27.6679" y1="387.54" x2="31.8698" y2="387.54" gradientUnits="userSpaceOnUse">
<stop stop-color="#FEBBBA"/>
<stop offset="1" stop-color="#FF928E"/>
</linearGradient>
<linearGradient id="paint6_linear_372_1273" x1="3.69646" y1="349.532" x2="32.342" y2="349.532" gradientUnits="userSpaceOnUse">
<stop stop-color="#152F6C"/>
<stop offset="1" stop-color="#2E4A8B"/>
</linearGradient>
<linearGradient id="paint7_linear_372_1273" x1="39.8521" y1="263.946" x2="39.8521" y2="286.497" gradientUnits="userSpaceOnUse">
<stop stop-color="#00FFE8"/>
<stop offset="1" stop-color="#00CFBC"/>
</linearGradient>
<linearGradient id="paint8_linear_372_1273" x1="47.8071" y1="256.41" x2="62.6492" y2="251.457" gradientUnits="userSpaceOnUse">
<stop stop-color="#FEBBBA"/>
<stop offset="1" stop-color="#FF928E"/>
</linearGradient>
<linearGradient id="paint9_linear_372_1273" x1="36.4033" y1="268.613" x2="36.4033" y2="320.061" gradientUnits="userSpaceOnUse">
<stop stop-color="#00FFE8"/>
<stop offset="1" stop-color="#00CFBC"/>
</linearGradient>
<linearGradient id="paint10_linear_372_1273" x1="91.141" y1="265.542" x2="56.5923" y2="307.69" gradientUnits="userSpaceOnUse">
<stop stop-color="#FEBBBA"/>
<stop offset="1" stop-color="#FF928E"/>
</linearGradient>
<linearGradient id="paint11_linear_372_1273" x1="76.7274" y1="287.464" x2="95.072" y2="287.464" gradientUnits="userSpaceOnUse">
<stop stop-color="#FEBBBA"/>
<stop offset="1" stop-color="#FF928E"/>
</linearGradient>
<linearGradient id="paint12_linear_372_1273" x1="53.1835" y1="239.67" x2="19.5056" y2="300.349" gradientUnits="userSpaceOnUse">
<stop stop-color="#FEBBBA"/>
<stop offset="1" stop-color="#FF928E"/>
</linearGradient>
<linearGradient id="paint13_linear_372_1273" x1="42.8824" y1="250.951" x2="42.0703" y2="275.363" gradientUnits="userSpaceOnUse">
<stop stop-color="#FEBBBA"/>
<stop offset="1" stop-color="#FF928E"/>
</linearGradient>
<linearGradient id="paint14_linear_372_1273" x1="34.3257" y1="275.998" x2="37.0374" y2="259.3" gradientUnits="userSpaceOnUse">
<stop stop-color="#FEBBBA"/>
<stop offset="1" stop-color="#FF928E"/>
</linearGradient>
</defs>
</svg>
