<svg width="400" height="400" viewBox="0 0 400 400" fill="none" xmlns="http://www.w3.org/2000/svg">
<path d="M351.938 341.334C341.556 351.923 332.267 358.147 325.155 362.846C255.792 408.673 176.502 395.465 151.987 390.95C112.436 383.666 79.0495 378.528 50.3644 352.885C-14.8166 294.616 -11.6464 173.064 38.1599 97.7674C44.0655 88.8395 93.7964 15.8989 173.258 5.62102C175.202 5.36965 176.652 5.22644 177.922 5.09348C190.214 3.8057 266.389 -2.99104 328.501 48.4989C337.392 55.8695 351.701 69.164 364.969 89.4404C413.485 163.58 413.638 278.406 351.938 341.334Z" fill="#D9F4FF"/>
<path d="M40.3068 2.87742C39.5974 0.903638 41.8979 -0.799251 43.6303 0.405169C61.2217 12.6338 104.718 50.5479 106.294 127.302C108.272 223.602 133.174 255.332 161.014 272.902C161.014 272.902 125.521 267.798 99.0409 235.773C34.0255 157.144 52.9207 37.9712 40.3068 2.87742Z" fill="#80D9FF"/>
<path d="M56.3735 30.7759C59.8323 41.0399 63.0846 51.3658 65.9507 61.7946C68.8717 72.2066 71.4723 82.7017 73.7386 93.2617C75.9638 103.829 77.9883 114.437 79.5543 125.114C81.1687 135.783 82.3183 146.509 83.4344 157.282C84.6106 168.043 85.7338 178.89 87.9826 189.656C90.2168 200.401 93.7832 211.056 99.2114 220.749C100.567 223.165 101.973 225.565 103.507 227.86C104.999 230.184 106.596 232.443 108.233 234.672C111.53 239.117 115.13 243.352 119.032 247.304C126.857 255.189 135.889 261.889 145.552 267.275C146.569 267.842 147.858 267.485 148.431 266.479C148.994 265.491 148.657 264.243 147.681 263.662L147.674 263.658C145.362 262.282 143.068 260.882 140.844 259.385C139.721 258.654 138.632 257.876 137.529 257.117C136.456 256.319 135.352 255.562 134.305 254.731C130.063 251.48 126.057 247.939 122.335 244.122C114.862 236.532 108.496 227.798 103.294 218.547C100.745 213.89 98.5475 209.057 96.7331 204.072C94.9226 199.085 93.4964 193.954 92.3651 188.737C90.1006 178.299 88.8993 167.572 87.6449 156.82C86.3763 146.068 85.0265 135.272 83.2301 124.547C82.3465 119.183 81.3658 113.835 80.2887 108.507C79.7656 105.841 79.1905 103.185 78.6204 100.528C78.0244 97.8761 77.4136 95.2282 76.7812 92.5858C74.2318 82.0205 71.3578 71.5371 68.1533 61.1583C64.8984 50.7948 61.3666 40.5202 57.4408 30.3976C57.3285 30.1082 57.0007 29.9637 56.7084 30.0748C56.4244 30.1826 56.2789 30.4932 56.3735 30.7759Z" fill="white"/>
<path d="M106.955 349.063C106.278 352.864 101.898 354.746 98.6009 352.683C80.41 341.298 31.9203 304.505 23.1417 231.497C15.7287 169.845 5.78774 137.111 0.234421 122.561C-0.939898 119.484 2.53798 116.712 5.32947 118.498C36.1278 138.195 131.473 211.318 106.955 349.063Z" fill="#20BDFF"/>
<path d="M101.758 349.993C101.688 350.059 101.611 350.119 101.526 350.172C100.816 350.619 99.8747 350.411 99.4235 349.709C98.9121 348.913 48.1174 269.103 33.8964 183.841C33.7599 183.02 34.3213 182.245 35.1514 182.108C35.9815 181.973 36.7651 182.529 36.9024 183.35C51.0197 267.992 101.486 347.301 101.994 348.092C102.392 348.711 102.276 349.507 101.758 349.993Z" fill="white"/>
<g opacity="0.3">
<path d="M343.039 99.7511C342.987 100.388 342.456 100.896 341.796 100.912C340.353 100.946 338.888 100.919 337.439 100.831C336.735 100.788 336.199 100.188 336.242 99.4914C336.243 99.4829 336.244 99.4748 336.244 99.4667C336.3 98.782 336.9 98.2644 337.596 98.3069C338.972 98.3907 340.364 98.4165 341.735 98.3841C342.44 98.3673 343.026 98.9196 343.043 99.6179C343.044 99.6628 343.043 99.7072 343.039 99.7511ZM331.95 98.7847C331.946 98.834 331.939 98.8836 331.929 98.9333C331.79 99.6179 331.116 100.062 330.425 99.9241C329.003 99.6415 327.58 99.2961 326.195 98.8973C325.518 98.7022 325.129 98.0036 325.325 97.3299C325.522 96.6594 326.232 96.2742 326.909 96.4693C328.226 96.8484 329.577 97.1764 330.928 97.4447C331.57 97.5723 332.001 98.1548 331.95 98.7847ZM321.352 95.4264C321.34 95.5666 321.305 95.7075 321.243 95.8433C320.953 96.48 320.197 96.7642 319.554 96.4777C318.234 95.8908 316.924 95.2396 315.66 94.5422C315.044 94.2017 314.824 93.4316 315.166 92.822C315.51 92.2122 316.289 91.9935 316.905 92.3334C318.105 92.9957 319.349 93.6139 320.602 94.1715C321.108 94.3969 321.394 94.9085 321.352 95.4264ZM311.777 89.8063C311.758 90.0381 311.674 90.2675 311.522 90.4668C311.096 91.0234 310.294 91.1328 309.732 90.7114C308.578 89.8464 307.448 88.9219 306.373 87.9633C305.85 87.4956 305.808 86.6966 306.28 86.1776C306.752 85.6592 307.56 85.6179 308.084 86.0853C309.105 86.9957 310.178 87.8739 311.275 88.6956C311.636 88.9664 311.811 89.39 311.777 89.8063ZM303.709 82.2146C303.682 82.5398 303.529 82.8546 303.257 83.0809C302.717 83.5304 301.911 83.461 301.457 82.9264C300.528 81.8326 299.633 80.6838 298.798 79.5123C298.391 78.942 298.528 78.1529 299.106 77.7504C299.682 77.3479 300.479 77.4842 300.886 78.0547C301.68 79.1684 302.531 80.2602 303.413 81.2998C303.639 81.565 303.735 81.8947 303.709 82.2146ZM297.539 73.0468C297.505 73.4681 297.259 73.8625 296.851 74.0703C296.224 74.39 295.453 74.1462 295.13 73.5256C294.467 72.2537 293.852 70.9374 293.3 69.6138C293.032 68.9679 293.343 68.2291 293.995 67.9631C294.647 67.697 295.394 68.0049 295.663 68.6504C296.187 69.9081 296.772 71.1585 297.402 72.3672C297.515 72.585 297.558 72.8197 297.539 73.0468ZM298.27 26.6246C298.256 26.7992 298.205 26.9732 298.113 27.1361C297.447 28.3235 296.823 29.5559 296.261 30.7988C295.973 31.436 295.217 31.7216 294.573 31.4363C293.929 31.1513 293.641 30.4035 293.929 29.7659C294.521 28.4571 295.177 27.1589 295.879 25.9083C296.221 25.2977 296.999 25.0778 297.616 25.4169C298.069 25.6653 298.309 26.1455 298.27 26.6246ZM293.579 62.761C293.537 63.2838 293.166 63.7459 292.623 63.8837C291.94 64.0576 291.243 63.6503 291.068 62.974C290.707 61.5879 290.404 60.1694 290.165 58.7578C290.052 58.0687 290.519 57.4173 291.215 57.302C291.911 57.1869 292.569 57.6519 292.686 58.3407C292.912 59.6812 293.201 61.0281 293.543 62.3444C293.579 62.4844 293.59 62.6247 293.579 62.761ZM293.997 36.7948C293.99 36.878 293.976 36.9618 293.951 37.045C293.57 38.3509 293.241 39.6904 292.972 41.0261C292.834 41.711 292.162 42.1558 291.47 42.0196C290.778 41.8831 290.325 41.2178 290.466 40.5329C290.748 39.1276 291.095 37.7179 291.496 36.3438C291.691 35.6729 292.4 35.286 293.078 35.4798C293.671 35.6494 294.045 36.208 293.997 36.7948ZM292.041 51.8575C291.989 52.4935 291.459 53.0015 290.8 53.0183C290.095 53.0364 289.508 52.485 289.49 51.7869C289.452 50.3578 289.477 48.9077 289.563 47.4771C289.563 47.4683 289.564 47.4592 289.565 47.4503C289.621 46.7666 290.219 46.2495 290.914 46.2904C291.619 46.332 292.156 46.9305 292.114 47.6277C292.032 48.9866 292.009 50.3639 292.045 51.7218C292.046 51.7674 292.044 51.8129 292.041 51.8575Z" fill="#80D9FF"/>
<path d="M303.318 19.2856C303.298 19.5337 303.204 19.7787 303.032 19.9857C302.613 20.4892 302.199 21.0099 301.798 21.5329C301.373 22.0897 300.571 22.1999 300.009 21.7788C299.445 21.3579 299.333 20.5643 299.76 20.0077C300.181 19.4573 300.617 18.9098 301.057 18.3799C301.505 17.8406 302.311 17.7627 302.856 18.206C303.192 18.4793 303.35 18.8869 303.318 19.2856Z" fill="#80D9FF"/>
</g>
<g opacity="0.3">
<path d="M337.845 1.43359C337.796 2.04178 337.306 2.54168 336.672 2.59112C336.015 2.642 335.348 2.70755 334.69 2.78578C333.99 2.86914 333.353 2.37466 333.269 1.6814C333.185 0.985134 333.685 0.358415 334.385 0.275052C335.078 0.192829 335.78 0.123715 336.472 0.06985C337.175 0.0152721 337.79 0.535259 337.846 1.23138C337.851 1.29992 337.851 1.36747 337.845 1.43359Z" fill="#80D9FF"/>
<path d="M391.392 54.4303C391.345 55.0101 391.287 55.5915 391.22 56.1739C391.139 56.8676 390.506 57.3657 389.805 57.2862C389.104 57.2066 388.598 56.5762 388.681 55.8861C388.836 54.5416 388.936 53.1941 388.979 51.8653C389.002 51.1667 389.59 50.6194 390.296 50.6412C391.002 50.6631 391.555 51.2468 391.533 51.9448C391.507 52.7666 391.459 53.6029 391.392 54.4303ZM389.995 62.7383C389.99 62.8087 389.978 62.8798 389.96 62.9507C389.607 64.3176 389.193 65.685 388.726 67.0146C388.495 67.6742 387.767 68.0238 387.101 67.7952C386.434 67.5663 386.079 66.8446 386.312 66.1863C386.755 64.9235 387.148 63.6245 387.484 62.3256C387.658 61.6491 388.354 61.2406 389.037 61.413C389.65 61.5676 390.045 62.1355 389.995 62.7383ZM391.278 45.2961C391.229 45.8903 390.76 46.3852 390.139 46.4504C389.437 46.5239 388.808 46.0206 388.733 45.3262C388.591 43.9979 388.389 42.6576 388.133 41.342C388.001 40.656 388.453 39.9933 389.146 39.8613C389.839 39.7293 390.509 40.1782 390.643 40.8639C390.913 42.2493 391.125 43.661 391.275 45.0598C391.283 45.1396 391.284 45.2187 391.278 45.2961ZM386.135 72.8846C386.121 73.0446 386.077 73.2045 385.999 73.3563C385.352 74.612 384.644 75.8556 383.893 77.0524C383.52 77.6454 382.733 77.8277 382.133 77.4592C381.533 77.0907 381.349 76.3118 381.722 75.7183C382.435 74.5819 383.108 73.4012 383.722 72.2085C384.042 71.5862 384.812 71.3389 385.441 71.6558C385.916 71.8955 386.175 72.3891 386.135 72.8846ZM388.925 34.7165C388.885 35.2039 388.56 35.6452 388.062 35.8125C387.394 36.0372 386.668 35.6833 386.441 35.0219C386.007 33.7578 385.512 32.4942 384.97 31.266C384.688 30.6262 384.983 29.8807 385.63 29.6013C386.277 29.3221 387.03 29.6143 387.312 30.2542C387.883 31.5472 388.404 32.8776 388.861 34.2087C388.918 34.3772 388.938 34.5498 388.925 34.7165ZM384.283 24.9039C384.251 25.2935 384.038 25.6631 383.675 25.8825C383.072 26.2461 382.286 26.0579 381.918 25.4616C381.213 24.3185 380.451 23.1915 379.654 22.1119C379.237 21.5487 379.361 20.7578 379.931 20.345C380.501 19.9329 381.3 20.0559 381.717 20.6196C382.556 21.7558 383.358 22.9418 384.1 24.1448C384.246 24.3815 384.304 24.647 384.283 24.9039ZM377.589 16.326C377.565 16.6224 377.436 16.9113 377.202 17.134C376.695 17.6188 375.885 17.6043 375.395 17.1017C374.455 16.1368 373.464 15.2007 372.448 14.3195C371.918 13.8592 371.864 13.0609 372.33 12.5352C372.795 12.0104 373.602 11.9579 374.133 12.4184C375.202 13.3459 376.246 14.331 377.235 15.3462C377.5 15.6179 377.617 15.9769 377.589 16.326ZM369.165 9.3972C369.148 9.60254 369.08 9.80646 368.957 9.99057C368.569 10.5735 367.777 10.7343 367.188 10.3498C366.058 9.61209 364.883 8.91412 363.696 8.27486C363.076 7.94098 362.848 7.17232 363.185 6.56C363.522 5.94653 364.298 5.72009 364.918 6.05397C366.168 6.72715 367.405 7.46231 368.595 8.2388C368.998 8.50214 369.201 8.95245 369.165 9.3972ZM359.405 4.46551C359.395 4.58094 359.369 4.69707 359.326 4.81079C359.077 5.46402 358.339 5.79391 357.679 5.54724C356.416 5.07556 355.116 4.65105 353.813 4.28553C353.134 4.09487 352.741 3.3939 352.933 2.72415C353.125 2.05226 353.832 1.66223 354.511 1.85289C355.882 2.23779 357.251 2.68467 358.581 3.18143C359.127 3.38492 359.449 3.91802 359.405 4.46551ZM348.795 1.77766C348.793 1.80359 348.79 1.82952 348.787 1.85546C348.687 2.54659 348.04 3.02739 347.342 2.92892C346.355 2.78998 345.353 2.67969 344.362 2.6006C344.004 2.57196 343.645 2.54759 343.288 2.52678C342.583 2.48574 342.045 1.88724 342.087 1.19026C342.115 0.483743 342.733 -0.0385244 343.437 0.0022309C343.814 0.0240336 344.19 0.0499674 344.568 0.0800351C345.61 0.163256 346.665 0.279539 347.702 0.425603C348.374 0.520082 348.849 1.11674 348.795 1.77766Z" fill="#80D9FF"/>
<path d="M380.088 81.9628C380.068 82.2134 379.972 82.4602 379.798 82.6681C379.356 83.1946 378.894 83.722 378.426 84.2353C377.953 84.7537 377.145 84.7946 376.621 84.3266C376.097 83.8585 376.055 83.0597 376.529 82.541C376.973 82.0533 377.412 81.5523 377.832 81.0525C378.282 80.5154 379.088 80.4415 379.631 80.8877C379.964 81.1611 380.12 81.5665 380.088 81.9628Z" fill="#80D9FF"/>
</g>
<path d="M365.455 79.0841C365.664 78.9409 365.759 78.6819 365.691 78.439L363.738 71.5112C366.019 69.0234 367.915 66.158 369.313 62.9901L376.494 61.9113C376.746 61.8736 376.946 61.6816 376.992 61.4337L378.565 52.9483C378.611 52.7002 378.493 52.4508 378.271 52.327L371.944 48.7965C371.774 45.344 371.029 41.9992 369.789 38.8726L374.099 33.0812C374.25 32.8783 374.255 32.6028 374.11 32.3953L369.158 25.2948C369.014 25.0872 368.752 24.9934 368.506 25.0612L361.505 26.993C358.991 24.7363 356.094 22.8601 352.893 21.4776L351.803 14.3713C351.764 14.1221 351.571 13.9243 351.32 13.8789L342.744 12.3225C342.494 12.277 342.241 12.3939 342.116 12.6134L338.548 18.8741C335.059 19.0424 331.678 19.7793 328.519 21.0062L322.666 16.7413C322.46 16.5919 322.182 16.5877 321.972 16.7307L314.796 21.6304C314.586 21.7734 314.492 22.0326 314.56 22.2755L316.513 29.2033C314.232 31.6909 312.336 34.5565 310.938 37.7244L303.756 38.8032C303.505 38.8411 303.305 39.0327 303.259 39.2807L301.686 47.7662C301.64 48.0142 301.758 48.2637 301.98 48.3875L308.307 51.918C308.477 55.3705 309.222 58.7153 310.462 61.8419L306.152 67.6332C306.001 67.8361 305.997 68.1118 306.141 68.3192L311.093 75.4197C311.237 75.6272 311.499 75.721 311.745 75.6534L318.746 73.7217C321.261 75.9783 324.157 77.8545 327.358 79.237L328.449 86.3433C328.487 86.5924 328.681 86.7903 328.931 86.8356L337.507 88.392C337.757 88.4375 338.01 88.3208 338.135 88.1012L341.703 81.8405C345.192 81.6722 348.572 80.9352 351.732 79.7084L357.585 83.9732C357.791 84.1227 358.069 84.127 358.279 83.9838L365.455 79.0841Z" fill="#80D9FF"/>
<path d="M348.86 51.0603C348.517 55.2738 345.089 58.724 340.702 59.0104C335.88 59.3251 331.698 55.6996 331.38 50.9283C331.225 48.6167 331.991 46.3846 333.533 44.6428C335.076 42.9005 337.212 41.857 339.548 41.7048C344.37 41.3902 348.551 45.0157 348.87 49.7868C348.898 50.2171 348.895 50.6426 348.86 51.0603ZM333.427 49.8093C333.401 50.1346 333.398 50.4636 333.42 50.7954C333.664 54.4534 336.87 57.2332 340.567 56.9921C344.264 56.7507 347.075 53.5792 346.83 49.92C346.586 46.262 343.379 43.4822 339.683 43.7233C337.892 43.8403 336.254 44.6402 335.071 45.976C334.11 47.0617 333.542 48.3962 333.427 49.8093Z" fill="#B6E9FF"/>
<path d="M361.493 51.8901C361.434 52.6138 361.338 53.3387 361.204 54.0626C361.162 54.2904 361.116 54.5176 361.066 54.744C360.822 55.8604 360.488 56.9558 360.069 58.0131C360.064 58.0275 360.058 58.0419 360.052 58.0563C360.036 58.0971 360.02 58.138 360.003 58.1787C359.971 58.2581 359.938 58.3373 359.905 58.4161C359.818 58.6238 359.607 58.7435 359.392 58.7265C359.34 58.7224 359.287 58.71 359.237 58.689C358.976 58.582 358.853 58.2859 358.961 58.0281C359.518 56.7008 359.935 55.3053 360.198 53.88C361.512 46.801 358.926 39.8921 353.957 35.3215C351.193 32.779 347.691 30.9601 343.712 30.2381C343.014 30.1113 342.315 30.0203 341.617 29.9649C336.923 29.5908 332.279 30.8156 328.351 33.4981C323.838 36.5791 320.808 41.215 319.818 46.5509C317.777 57.5715 325.173 68.1725 336.305 70.1929C336.992 70.3175 337.682 70.4072 338.373 70.462C341.367 70.7004 344.382 70.2879 347.197 69.2434C347.27 69.2164 347.345 69.2069 347.418 69.2129C347.609 69.2281 347.784 69.3498 347.855 69.5395C347.953 69.8015 347.821 70.0927 347.556 70.1907C344.6 71.2873 341.435 71.7208 338.291 71.4704C337.566 71.4128 336.841 71.3186 336.121 71.1879C324.433 69.0668 316.67 57.9293 318.813 46.3687C319.851 40.7666 323.032 35.9004 327.77 32.6657C331.894 29.8495 336.769 28.5638 341.697 28.9563C342.43 29.0147 343.164 29.1102 343.896 29.2429C349.558 30.2706 354.476 33.4181 357.745 38.1057C360.592 42.1879 361.891 47.0126 361.493 51.8901Z" fill="#B6E9FF"/>
<g opacity="0.3">
<path d="M373.098 145.438C373.07 145.774 372.823 146.067 372.471 146.139C371.816 146.274 371.146 146.391 370.483 146.487C370.052 146.55 369.651 146.255 369.588 145.828C369.523 145.401 369.823 145.004 370.255 144.942C370.887 144.85 371.525 144.739 372.151 144.61C372.577 144.522 372.995 144.793 373.084 145.216C373.099 145.291 373.103 145.365 373.098 145.438Z" fill="#80D9FF"/>
<path d="M367.065 146.116C367.033 146.51 366.703 146.825 366.295 146.833C365.142 146.857 363.974 146.823 362.825 146.731C362.583 146.712 362.34 146.69 362.097 146.666C361.663 146.622 361.366 146.217 361.391 145.81C361.435 145.381 361.823 145.068 362.256 145.112C362.489 145.135 362.72 145.156 362.952 145.175C364.048 145.262 365.162 145.295 366.262 145.272C366.698 145.263 367.058 145.605 367.068 146.036C367.068 146.063 367.067 146.09 367.065 146.116ZM358.913 145.293C358.91 145.33 358.904 145.368 358.896 145.405C358.799 145.825 358.376 146.089 357.951 145.993C356.587 145.687 355.231 145.294 353.92 144.826C353.509 144.68 353.299 144.23 353.445 143.826C353.593 143.42 354.045 143.21 354.455 143.357C355.706 143.804 357 144.178 358.301 144.471C358.688 144.557 358.944 144.913 358.913 145.293ZM351.206 142.539C351.198 142.638 351.17 142.737 351.122 142.831C350.925 143.215 350.449 143.368 350.061 143.172C348.817 142.545 347.598 141.834 346.44 141.059C346.079 140.817 345.985 140.333 346.229 139.974C346.474 139.617 346.964 139.524 347.325 139.765C348.429 140.505 349.59 141.183 350.777 141.78C351.071 141.928 351.231 142.233 351.206 142.539ZM344.418 137.995C344.405 138.156 344.341 138.314 344.226 138.445C343.939 138.77 343.44 138.803 343.112 138.519C342.059 137.607 341.054 136.624 340.125 135.594C339.835 135.272 339.865 134.778 340.189 134.492C340.514 134.204 341.013 134.232 341.303 134.554C342.188 135.536 343.147 136.474 344.151 137.343C344.347 137.513 344.438 137.756 344.418 137.995ZM338.959 131.948C338.941 132.173 338.824 132.388 338.622 132.527C338.264 132.773 337.772 132.685 337.524 132.331C336.728 131.194 335.995 129.999 335.346 128.777C335.142 128.395 335.291 127.923 335.677 127.723C336.063 127.522 336.54 127.669 336.743 128.05C337.362 129.216 338.061 130.356 338.821 131.44C338.929 131.595 338.973 131.774 338.959 131.948ZM335.148 124.774C335.125 125.065 334.935 125.332 334.64 125.442C334.232 125.594 333.778 125.39 333.623 124.987C333.13 123.694 332.714 122.358 332.387 121.017C332.286 120.596 332.546 120.175 332.97 120.074C333.393 119.973 333.82 120.231 333.922 120.65C334.234 121.929 334.63 123.203 335.1 124.436C335.143 124.547 335.158 124.662 335.148 124.774ZM333.227 116.898C333.197 117.263 332.91 117.568 332.529 117.61C332.096 117.659 331.706 117.351 331.656 116.922C331.499 115.553 331.428 114.157 331.442 112.771C331.454 112.339 331.805 111.993 332.241 111.998C332.676 112.003 333.026 112.356 333.021 112.787C333.006 114.109 333.075 115.441 333.225 116.747C333.231 116.798 333.231 116.848 333.227 116.898ZM334.112 104.805C334.108 104.85 334.101 104.895 334.088 104.941C333.797 106.042 333.561 107.179 333.388 108.319C333.361 108.491 333.336 108.661 333.314 108.831C333.256 109.258 332.859 109.559 332.427 109.502C331.994 109.445 331.678 109.048 331.748 108.625C331.773 108.444 331.799 108.264 331.827 108.083C332.009 106.891 332.256 105.7 332.562 104.545C332.672 104.128 333.103 103.878 333.525 103.988C333.901 104.085 334.142 104.434 334.112 104.805Z" fill="#80D9FF"/>
</g>
<g opacity="0.3">
<path d="M399.544 115.36C399.509 115.785 399.135 116.105 398.704 116.076C398.269 116.047 397.94 115.675 397.97 115.245C398.058 113.949 398.068 112.637 397.997 111.346C397.978 110.918 398.308 110.547 398.743 110.524C399.179 110.501 399.55 110.832 399.574 111.262C399.647 112.617 399.637 113.992 399.545 115.35C399.544 115.353 399.544 115.357 399.544 115.36ZM399.03 119.323C399.028 119.351 399.024 119.379 399.018 119.407C398.763 120.743 398.422 122.077 398.006 123.372C397.874 123.783 397.431 124.01 397.016 123.879C396.599 123.749 396.372 123.308 396.502 122.899C396.898 121.663 397.223 120.39 397.468 119.116C397.549 118.692 397.962 118.414 398.39 118.494C398.791 118.569 399.062 118.931 399.03 119.323ZM399.11 107.398C399.082 107.743 398.823 108.04 398.462 108.104C398.034 108.18 397.624 107.897 397.547 107.472C397.316 106.193 397.004 104.918 396.62 103.681C396.494 103.267 396.726 102.832 397.143 102.705C397.56 102.579 398.002 102.811 398.13 103.223C398.532 104.52 398.858 105.857 399.1 107.198C399.112 107.266 399.115 107.333 399.11 107.398ZM396.584 126.925C396.577 127.013 396.554 127.102 396.515 127.188C395.942 128.424 395.285 129.638 394.564 130.795C394.335 131.163 393.849 131.277 393.478 131.05C393.108 130.824 392.992 130.343 393.22 129.976C393.908 128.872 394.533 127.715 395.08 126.536C395.262 126.145 395.731 125.972 396.127 126.152C396.436 126.293 396.61 126.607 396.584 126.925ZM396.744 99.7768C396.722 100.052 396.552 100.308 396.279 100.428C395.88 100.604 395.414 100.427 395.236 100.033C394.704 98.8494 394.092 97.6859 393.417 96.5744C393.192 96.2042 393.313 95.7245 393.687 95.5026C394.061 95.2807 394.546 95.4004 394.77 95.7704C395.477 96.9362 396.119 98.156 396.679 99.3969C396.734 99.5204 396.754 99.6511 396.744 99.7768ZM392.6 92.9392C392.582 93.1501 392.479 93.3531 392.298 93.4931C391.954 93.758 391.458 93.6968 391.19 93.3566C390.383 92.3313 389.507 91.3456 388.586 90.4272C388.279 90.1206 388.281 89.6259 388.591 89.3226C388.9 89.0187 389.399 89.0207 389.706 89.3268C390.672 90.2898 391.591 91.3229 392.436 92.3972C392.562 92.5574 392.615 92.7515 392.6 92.9392ZM386.918 87.2804C386.906 87.4286 386.851 87.575 386.751 87.7005C386.481 88.0394 385.985 88.0974 385.642 87.8302C384.612 87.0254 383.523 86.2767 382.405 85.6049C382.033 85.381 381.914 84.9005 382.14 84.5322C382.366 84.1635 382.852 84.0461 383.225 84.2702C384.397 84.975 385.54 85.7601 386.621 86.6039C386.836 86.772 386.939 87.0288 386.918 87.2804Z" fill="#80D9FF"/>
<path d="M392.333 133.746C392.321 133.897 392.264 134.045 392.162 134.171C391.74 134.693 391.3 135.205 390.855 135.692C390.563 136.012 390.064 136.038 389.74 135.749C389.418 135.459 389.392 134.966 389.683 134.645C390.108 134.18 390.527 133.692 390.93 133.195C391.203 132.858 391.7 132.804 392.039 133.073C392.252 133.242 392.353 133.497 392.333 133.746Z" fill="#80D9FF"/>
</g>
<path d="M382.224 132.287C382.364 132.191 382.427 132.018 382.382 131.855L381.075 127.219C382.601 125.555 383.87 123.637 384.805 121.517L389.611 120.795C389.779 120.77 389.913 120.642 389.944 120.476L390.996 114.798C391.027 114.632 390.948 114.465 390.8 114.382L386.566 112.02C386.452 109.71 385.954 107.471 385.124 105.379L388.008 101.504C388.109 101.368 388.112 101.184 388.015 101.045L384.702 96.2933C384.605 96.1544 384.43 96.0917 384.265 96.137L379.58 97.4296C377.898 95.9196 375.96 94.6641 373.818 93.7389L373.088 88.9837C373.063 88.817 372.933 88.6846 372.765 88.6541L367.027 87.6127C366.859 87.5822 366.69 87.6605 366.607 87.8074L364.219 91.9968C361.884 92.1094 359.622 92.6026 357.508 93.4235L353.591 90.5696C353.454 90.4697 353.268 90.4667 353.127 90.5625L348.325 93.841C348.185 93.9368 348.122 94.1102 348.167 94.2727L349.474 98.9085C347.948 100.573 346.679 102.491 345.744 104.611L340.938 105.332C340.77 105.358 340.636 105.486 340.605 105.652L339.552 111.33C339.522 111.496 339.601 111.663 339.749 111.746L343.983 114.108C344.097 116.418 344.595 118.657 345.425 120.749L342.541 124.624C342.44 124.76 342.437 124.944 342.534 125.083L345.847 129.835C345.944 129.973 346.119 130.036 346.283 129.991L350.968 128.698C352.651 130.208 354.589 131.464 356.731 132.389L357.461 137.144C357.486 137.311 357.616 137.443 357.784 137.474L363.522 138.515C363.69 138.546 363.858 138.467 363.942 138.321L366.33 134.131C368.665 134.019 370.927 133.525 373.041 132.704L376.958 135.558C377.095 135.658 377.281 135.661 377.422 135.565L382.224 132.287Z" fill="#80D9FF"/>
<path d="M371.223 113.551C371.121 114.806 370.617 115.992 369.763 116.956C368.712 118.143 367.257 118.854 365.666 118.957C362.382 119.172 359.534 116.703 359.316 113.453C359.105 110.198 361.596 107.384 364.88 107.17C366.472 107.066 368.009 107.581 369.207 108.621C370.407 109.661 371.125 111.101 371.23 112.675C371.249 112.969 371.247 113.262 371.223 113.551ZM360.896 112.712C360.879 112.921 360.877 113.134 360.891 113.35C361.051 115.741 363.146 117.557 365.562 117.399C366.732 117.323 367.803 116.8 368.576 115.927C369.349 115.054 369.731 113.936 369.655 112.777C369.578 111.62 369.049 110.56 368.167 109.796C367.285 109.03 366.154 108.651 364.984 108.728C362.786 108.871 361.068 110.601 360.896 112.712Z" fill="#B6E9FF"/>
<path d="M380.012 114.141C379.972 114.633 379.906 115.128 379.814 115.624C379.632 116.609 379.348 117.577 378.97 118.502C378.952 118.544 378.935 118.585 378.918 118.627C378.783 118.947 378.458 119.132 378.126 119.106C378.046 119.1 377.965 119.081 377.886 119.048C377.484 118.883 377.295 118.426 377.46 118.028C377.822 117.167 378.091 116.263 378.262 115.343V115.342C378.271 115.292 378.28 115.241 378.289 115.191C378.671 113.008 378.49 110.814 377.79 108.77C377.411 107.661 376.877 106.595 376.197 105.6C376.191 105.592 376.186 105.584 376.18 105.576C376.163 105.551 376.146 105.527 376.129 105.503C374.113 102.612 371.08 100.671 367.589 100.037C367.137 99.9548 366.685 99.8962 366.233 99.8602C363.194 99.6181 360.188 100.411 357.644 102.148C354.723 104.142 352.762 107.144 352.121 110.598C351.483 114.05 352.239 117.547 354.254 120.438C356.27 123.328 359.303 125.269 362.794 125.903C363.238 125.984 363.685 126.042 364.132 126.077C366.071 126.232 368.022 125.965 369.845 125.288C369.957 125.247 370.073 125.232 370.185 125.241C370.48 125.265 370.75 125.453 370.861 125.745C371.013 126.15 370.808 126.599 370.399 126.751C368.359 127.507 366.176 127.806 364.007 127.634C363.506 127.594 363.007 127.529 362.51 127.439C358.603 126.73 355.21 124.559 352.955 121.324C350.7 118.09 349.849 114.182 350.569 110.316C351.285 106.451 353.479 103.094 356.748 100.862C359.594 98.9191 362.957 98.0322 366.357 98.3031C366.862 98.3434 367.368 98.409 367.873 98.5006C375.436 99.8737 380.617 106.715 380.012 114.141Z" fill="#B6E9FF"/>
<path d="M95.1644 20.5977C93.6643 80.4689 88.7994 286.987 91.1218 360.172C91.3679 367.925 97.6492 374.148 105.485 374.401C144.238 375.656 255.722 378.837 319.111 376.205C332.313 375.657 342.812 365.075 343.086 352.003C344.404 289.16 347.31 112.408 340.402 31.4378C339.575 21.7363 331.879 14.0106 322.088 13.0414C279.884 8.86388 167.789 -1.34789 113.025 2.16847C103.149 2.80274 95.4096 10.8075 95.1644 20.5977Z" fill="url(#paint0_linear_372_892)"/>
<path d="M110.911 39.2026C108.794 88.2367 102.118 251.362 104.237 311.682C104.547 320.499 111.57 327.628 120.471 328.143C157.117 330.265 251.112 334.944 304.863 330.685C314.542 329.918 322.137 322.173 322.66 312.579C325.384 262.554 333.205 110.662 331.174 51.0173C330.85 41.5024 323.401 33.7318 313.817 32.8803C274.172 29.3583 172.348 20.9779 126.672 23.4438C118.098 23.9069 111.278 30.7135 110.911 39.2026Z" fill="#336DF1"/>
<path opacity="0.5" d="M190.939 12.6304C190.939 14.4675 192.386 15.9826 194.24 16.0786C203.394 16.553 229.179 17.8951 240.703 18.5566C242.975 18.687 244.758 16.6662 244.327 14.4548L244.254 14.0775C243.96 12.5687 242.695 11.4329 241.149 11.2927C233.359 10.5865 209.855 8.62823 194.282 9.17815C192.411 9.24455 190.939 10.7783 190.939 12.6304Z" fill="#3F67F9"/>
<g opacity="0.37">
<path d="M258.189 179.7L215.243 179.589C214.895 179.588 214.613 179.308 214.614 178.964L214.629 173.62C214.629 173.276 214.912 172.997 215.26 172.998L258.207 173.109C258.555 173.11 258.836 173.39 258.835 173.734L258.821 179.078C258.82 179.423 258.537 179.701 258.189 179.7Z" fill="white"/>
</g>
<g opacity="0.37">
<path d="M258.16 190.788L215.213 190.677C214.865 190.676 214.584 190.396 214.585 190.052L214.599 184.708C214.6 184.364 214.883 184.086 215.231 184.086L258.177 184.198C258.525 184.199 258.807 184.479 258.806 184.823L258.792 190.167C258.791 190.511 258.508 190.789 258.16 190.788Z" fill="white"/>
</g>
<g opacity="0.37">
<path d="M258.261 70.418L215.315 70.3067C214.967 70.3059 214.686 70.026 214.687 69.6817L214.701 64.3378C214.702 63.9935 214.984 63.7152 215.332 63.7161L258.279 63.8275C258.627 63.8284 258.908 64.1082 258.907 64.4525L258.893 69.7965C258.892 70.1406 258.609 70.419 258.261 70.418Z" fill="white"/>
</g>
<g opacity="0.41">
<path d="M258.056 202.402L215.11 202.291C214.762 202.29 214.481 202.01 214.481 201.666L214.496 196.322C214.496 195.978 214.779 195.699 215.127 195.7L258.074 195.812C258.422 195.812 258.703 196.092 258.702 196.437L258.688 201.781C258.687 202.125 258.404 202.403 258.056 202.402Z" fill="white"/>
</g>
<g opacity="0.41">
<path d="M258.22 85.8359L215.274 85.7245C214.926 85.7236 214.645 85.4437 214.646 85.0995L214.66 79.7555C214.66 79.4112 214.943 79.1329 215.291 79.1338L258.238 79.2452C258.586 79.2461 258.867 79.5259 258.866 79.8702L258.852 85.2142C258.851 85.5585 258.568 85.8369 258.22 85.8359Z" fill="white"/>
</g>
<g opacity="0.41">
<path d="M258.027 213.49L215.08 213.379C214.733 213.378 214.451 213.098 214.452 212.754L214.466 207.41C214.467 207.066 214.75 206.787 215.098 206.788L258.045 206.9C258.392 206.9 258.674 207.18 258.673 207.525L258.659 212.868C258.658 213.213 258.375 213.491 258.027 213.49Z" fill="white"/>
</g>
<g opacity="0.41">
<path d="M258.189 96.9233L215.243 96.8119C214.895 96.811 214.613 96.5311 214.614 96.1869L214.628 90.8429C214.629 90.4986 214.912 90.2202 215.26 90.2212L258.207 90.3326C258.555 90.3335 258.836 90.6134 258.835 90.9577L258.821 96.3016C258.82 96.6459 258.537 96.9243 258.189 96.9233Z" fill="white"/>
</g>
<g opacity="0.41">
<path d="M292.766 213.594L263.307 213.518C262.959 213.517 262.678 213.237 262.679 212.893L262.693 207.548C262.694 207.204 262.977 206.926 263.324 206.927L292.783 207.003C293.131 207.004 293.412 207.284 293.411 207.628L293.397 212.972C293.396 213.317 293.113 213.595 292.766 213.594Z" fill="white"/>
</g>
<g opacity="0.41">
<path d="M292.93 97.0271L263.471 96.9507C263.123 96.9498 262.842 96.67 262.843 96.3257L262.857 90.9816C262.858 90.6373 263.141 90.3589 263.489 90.3599L292.947 90.4362C293.295 90.4371 293.576 90.717 293.575 91.0613L293.561 96.4053C293.56 96.7496 293.278 97.0279 292.93 97.0271Z" fill="white"/>
</g>
<g opacity="0.41">
<path d="M257.994 225.259L215.047 225.147C214.699 225.146 214.418 224.866 214.419 224.522L214.433 219.178C214.434 218.834 214.717 218.556 215.065 218.556L258.011 218.668C258.359 218.669 258.641 218.948 258.64 219.293L258.626 224.637C258.625 224.981 258.342 225.26 257.994 225.259Z" fill="white"/>
</g>
<g opacity="0.41">
<path d="M258.161 108.693L215.214 108.581C214.866 108.58 214.585 108.3 214.586 107.956L214.6 102.612C214.601 102.268 214.884 101.99 215.232 101.99L258.178 102.102C258.526 102.103 258.808 102.383 258.807 102.727L258.793 108.071C258.792 108.415 258.509 108.694 258.161 108.693Z" fill="white"/>
</g>
<g opacity="0.41">
<path d="M292.843 225.356L263.276 225.28C262.928 225.279 262.647 224.999 262.647 224.655L262.662 219.31C262.663 218.966 262.945 218.688 263.293 218.689L292.86 218.765C293.208 218.766 293.489 219.046 293.488 219.39L293.474 224.734C293.473 225.079 293.191 225.357 292.843 225.356Z" fill="white"/>
</g>
<g opacity="0.41">
<path d="M293.008 108.79L263.441 108.713C263.093 108.712 262.812 108.432 262.813 108.088L262.827 102.744C262.828 102.4 263.11 102.121 263.458 102.122L293.025 102.199C293.373 102.2 293.654 102.48 293.653 102.824L293.639 108.168C293.638 108.512 293.356 108.791 293.008 108.79Z" fill="white"/>
</g>
<g opacity="0.37">
<path d="M257.946 244.157L214.999 244.046C214.652 244.045 214.37 243.765 214.371 243.421L214.385 238.077C214.386 237.733 214.669 237.454 215.017 237.455L257.964 237.567C258.311 237.568 258.593 237.847 258.592 238.192L258.578 243.536C258.577 243.88 258.294 244.158 257.946 244.157Z" fill="white"/>
</g>
<g opacity="0.37">
<path d="M258.109 127.59L215.163 127.478C214.815 127.478 214.533 127.198 214.534 126.853L214.548 121.509C214.549 121.165 214.832 120.887 215.18 120.888L258.127 120.999C258.475 121 258.756 121.28 258.755 121.624L258.741 126.968C258.74 127.312 258.457 127.591 258.109 127.59Z" fill="white"/>
</g>
<g opacity="0.41">
<path d="M257.916 255.245L214.969 255.133C214.621 255.133 214.34 254.853 214.341 254.508L214.355 249.164C214.356 248.82 214.639 248.542 214.987 248.543L257.933 248.654C258.281 248.655 258.562 248.935 258.562 249.279L258.547 254.623C258.547 254.967 258.264 255.246 257.916 255.245Z" fill="white"/>
</g>
<g opacity="0.41">
<path d="M258.08 138.677L215.133 138.566C214.785 138.565 214.504 138.285 214.505 137.941L214.519 132.597C214.52 132.252 214.803 131.974 215.151 131.975L258.097 132.086C258.445 132.087 258.726 132.367 258.726 132.711L258.712 138.055C258.711 138.399 258.428 138.678 258.08 138.677Z" fill="white"/>
</g>
<g opacity="0.41">
<path d="M294.042 255.349L263.194 255.27C262.846 255.269 262.565 254.989 262.565 254.645L262.58 249.3C262.58 248.956 262.863 248.678 263.211 248.679L294.059 248.759C294.407 248.76 294.689 249.039 294.688 249.384L294.674 254.728C294.673 255.072 294.39 255.35 294.042 255.349Z" fill="white"/>
</g>
<g opacity="0.41">
<path d="M294.207 138.784L263.359 138.704C263.011 138.703 262.73 138.423 262.73 138.079L262.745 132.735C262.745 132.39 263.028 132.112 263.376 132.113L294.224 132.193C294.572 132.194 294.854 132.474 294.853 132.818L294.839 138.162C294.838 138.506 294.555 138.785 294.207 138.784Z" fill="white"/>
</g>
<g opacity="0.41">
<path d="M257.876 270.665L214.929 270.554C214.581 270.553 214.3 270.273 214.301 269.929L214.315 264.585C214.316 264.24 214.599 263.962 214.947 263.963L257.893 264.074C258.241 264.075 258.522 264.355 258.522 264.699L258.507 270.043C258.506 270.387 258.224 270.666 257.876 270.665Z" fill="white"/>
</g>
<g opacity="0.41">
<path d="M258.04 154.097L215.093 153.986C214.745 153.985 214.464 153.705 214.465 153.361L214.479 148.017C214.48 147.672 214.763 147.394 215.111 147.395L258.057 147.506C258.405 147.507 258.686 147.787 258.686 148.131L258.671 153.475C258.67 153.82 258.388 154.098 258.04 154.097Z" fill="white"/>
</g>
<g opacity="0.41">
<path d="M257.845 281.751L214.899 281.64C214.551 281.639 214.27 281.359 214.271 281.015L214.285 275.671C214.285 275.327 214.568 275.048 214.916 275.049L257.863 275.161C258.211 275.162 258.492 275.441 258.491 275.786L258.477 281.13C258.476 281.474 258.193 281.752 257.845 281.751Z" fill="white"/>
</g>
<g opacity="0.41">
<path d="M293.2 281.856L263.125 281.778C262.777 281.777 262.496 281.497 262.497 281.153L262.511 275.808C262.512 275.464 262.795 275.186 263.143 275.187L293.217 275.265C293.565 275.266 293.847 275.545 293.846 275.89L293.832 281.234C293.831 281.578 293.548 281.857 293.2 281.856Z" fill="white"/>
</g>
<g opacity="0.41">
<path d="M257.816 293.52L214.87 293.409C214.522 293.408 214.24 293.128 214.241 292.784L214.255 287.44C214.256 287.096 214.539 286.817 214.887 286.818L257.834 286.929C258.182 286.93 258.463 287.21 258.462 287.554L258.448 292.898C258.447 293.243 258.164 293.521 257.816 293.52Z" fill="white"/>
</g>
<g opacity="0.41">
<path d="M293.83 293.617L263.094 293.538C262.746 293.537 262.465 293.257 262.466 292.913L262.48 287.569C262.481 287.224 262.764 286.946 263.112 286.947L293.848 287.027C294.196 287.028 294.477 287.307 294.476 287.652L294.462 292.996C294.461 293.34 294.178 293.618 293.83 293.617Z" fill="white"/>
</g>
<g opacity="0.5">
<path d="M185.375 187.233L154.362 187.153C154.116 187.152 153.916 186.954 153.917 186.71L153.927 182.923C153.928 182.679 154.128 182.482 154.375 182.483L185.388 182.563C185.634 182.564 185.833 182.762 185.833 183.006L185.823 186.793C185.822 187.037 185.622 187.234 185.375 187.233Z" fill="white"/>
</g>
<g opacity="0.5">
<path d="M185.539 70.6687L154.526 70.5884C154.28 70.5877 154.08 70.3894 154.081 70.1455L154.091 66.3589C154.092 66.115 154.292 65.9177 154.539 65.9185L185.552 65.999C185.798 65.9997 185.998 66.1979 185.997 66.4419L185.987 70.2283C185.986 70.4721 185.786 70.6693 185.539 70.6687Z" fill="white"/>
</g>
<g opacity="0.5">
<path d="M185.353 195.546L154.34 195.465C154.093 195.465 153.894 195.267 153.895 195.023L153.905 191.236C153.905 190.992 154.106 190.795 154.352 190.795L185.365 190.876C185.612 190.876 185.811 191.075 185.81 191.319L185.8 195.105C185.799 195.349 185.599 195.547 185.353 195.546Z" fill="white"/>
</g>
<g opacity="0.5">
<path d="M185.517 78.9811L154.504 78.9008C154.257 78.9 154.058 78.7018 154.059 78.4579L154.069 74.6713C154.069 74.4274 154.27 74.2301 154.516 74.2307L185.529 74.3111C185.776 74.3118 185.975 74.51 185.974 74.754L185.964 78.5405C185.964 78.7846 185.763 78.9818 185.517 78.9811Z" fill="white"/>
</g>
<g opacity="0.37">
<path d="M184.979 267.345L142.033 267.234C141.685 267.233 141.403 266.953 141.404 266.608L141.418 261.265C141.419 260.92 141.702 260.642 142.05 260.643L184.997 260.754C185.345 260.755 185.626 261.035 185.625 261.379L185.611 266.723C185.61 267.067 185.327 267.346 184.979 267.345Z" fill="white"/>
<path d="M185.142 150.779L142.196 150.668C141.848 150.667 141.567 150.387 141.567 150.043L141.582 144.699C141.582 144.355 141.865 144.076 142.213 144.077L185.16 144.189C185.508 144.189 185.789 144.469 185.788 144.814L185.774 150.158C185.773 150.502 185.49 150.78 185.142 150.779Z" fill="white"/>
<path d="M185.285 96.9068L142.338 96.7955C141.99 96.7945 141.709 96.5148 141.71 96.1705L141.724 90.8266C141.725 90.4823 142.008 90.204 142.356 90.2048L185.302 90.3163C185.65 90.3171 185.932 90.597 185.931 90.9413L185.917 96.2852C185.916 96.6292 185.633 96.9077 185.285 96.9068Z" fill="white"/>
<path d="M185.142 215.04L142.196 214.928C141.848 214.927 141.567 214.648 141.567 214.303L141.582 208.959C141.582 208.615 141.865 208.337 142.213 208.338L185.16 208.449C185.508 208.45 185.789 208.73 185.788 209.074L185.774 214.418C185.773 214.762 185.49 215.04 185.142 215.04Z" fill="white"/>
<path d="M185 278.596L142.053 278.485C141.705 278.484 141.424 278.204 141.425 277.86L141.439 272.516C141.44 272.172 141.723 271.893 142.071 271.894L185.017 272.006C185.365 272.007 185.646 272.286 185.646 272.631L185.631 277.975C185.631 278.319 185.348 278.597 185 278.596Z" fill="white"/>
<path d="M185.163 226.292L142.216 226.181C141.868 226.18 141.587 225.9 141.588 225.556L141.602 220.212C141.603 219.867 141.886 219.589 142.234 219.59L185.18 219.701C185.528 219.702 185.809 219.982 185.809 220.326L185.795 225.67C185.794 226.014 185.511 226.293 185.163 226.292Z" fill="white"/>
<path d="M185.142 308.094L142.196 307.982C141.848 307.981 141.567 307.702 141.567 307.357L141.582 302.013C141.582 301.669 141.865 301.391 142.213 301.392L185.16 301.503C185.508 301.504 185.789 301.784 185.788 302.128L185.774 307.472C185.773 307.816 185.49 308.094 185.142 308.094Z" fill="white"/>
</g>
<g opacity="0.5">
<path d="M185.103 289.738L154.09 289.657C153.843 289.657 153.644 289.458 153.645 289.214L153.655 285.428C153.655 285.184 153.856 284.987 154.102 284.987L185.115 285.068C185.362 285.068 185.561 285.267 185.56 285.511L185.55 289.297C185.55 289.541 185.349 289.738 185.103 289.738Z" fill="white"/>
</g>
<g opacity="0.5">
<path d="M185.079 298.049L154.066 297.969C153.82 297.969 153.62 297.77 153.621 297.526L153.631 293.74C153.632 293.496 153.832 293.299 154.079 293.299L185.092 293.379C185.338 293.38 185.538 293.578 185.537 293.822L185.527 297.609C185.526 297.853 185.326 298.05 185.079 298.049Z" fill="white"/>
</g>
<g opacity="0.41">
<path d="M256.68 304.782L213.734 304.671C213.386 304.67 213.105 304.39 213.105 304.046L213.12 298.702C213.12 298.357 213.403 298.079 213.751 298.08L256.698 298.191C257.046 298.192 257.327 298.472 257.326 298.816L257.312 304.16C257.311 304.504 257.028 304.783 256.68 304.782Z" fill="white"/>
</g>
<g opacity="0.41">
<path d="M293.193 304.891L261.958 304.81C261.61 304.809 261.329 304.529 261.33 304.185L261.344 298.841C261.345 298.496 261.628 298.218 261.976 298.219L293.211 298.3C293.559 298.301 293.84 298.581 293.839 298.925L293.825 304.269C293.824 304.613 293.541 304.891 293.193 304.891Z" fill="white"/>
</g>
<g opacity="0.41">
<path d="M256.648 316.553L213.702 316.441C213.354 316.44 213.072 316.161 213.073 315.816L213.087 310.472C213.088 310.128 213.371 309.85 213.719 309.851L256.666 309.962C257.014 309.963 257.295 310.243 257.294 310.587L257.28 315.931C257.279 316.275 256.996 316.553 256.648 316.553Z" fill="white"/>
</g>
<g opacity="0.5">
<path d="M185.33 203.858L154.317 203.777C154.071 203.776 153.871 203.578 153.872 203.334L153.882 199.548C153.883 199.304 154.083 199.107 154.33 199.107L185.343 199.188C185.589 199.189 185.789 199.387 185.788 199.631L185.778 203.417C185.777 203.661 185.577 203.858 185.33 203.858Z" fill="white"/>
</g>
<g opacity="0.5">
<path d="M185.496 87.2926L154.483 87.2123C154.237 87.2115 154.037 87.0133 154.038 86.7694L154.048 82.9829C154.049 82.739 154.249 82.5418 154.496 82.5425L185.509 82.6228C185.755 82.6236 185.955 82.8218 185.954 83.0657L185.944 86.8522C185.943 87.0961 185.743 87.2933 185.496 87.2926Z" fill="white"/>
</g>
<g opacity="0.5">
<path d="M185.241 238.477L154.228 238.397C153.982 238.396 153.782 238.198 153.783 237.954L153.793 234.168C153.794 233.924 153.994 233.726 154.241 233.727L185.254 233.807C185.5 233.808 185.7 234.006 185.699 234.25L185.689 238.037C185.688 238.281 185.488 238.478 185.241 238.477Z" fill="white"/>
</g>
<g opacity="0.5">
<path d="M185.403 121.911L154.39 121.831C154.144 121.83 153.945 121.632 153.945 121.388L153.955 117.601C153.956 117.358 154.156 117.16 154.403 117.161L185.416 117.241C185.662 117.242 185.862 117.44 185.861 117.684L185.851 121.471C185.85 121.715 185.65 121.912 185.403 121.911Z" fill="white"/>
</g>
<g opacity="0.5">
<path d="M185.217 246.79L154.204 246.709C153.957 246.709 153.758 246.51 153.759 246.266L153.769 242.48C153.769 242.236 153.97 242.039 154.216 242.04L185.229 242.12C185.476 242.121 185.675 242.319 185.675 242.563L185.664 246.349C185.664 246.593 185.463 246.79 185.217 246.79Z" fill="white"/>
</g>
<g opacity="0.5">
<path d="M185.38 130.223L154.367 130.142C154.12 130.142 153.921 129.943 153.922 129.7L153.932 125.913C153.932 125.669 154.133 125.472 154.379 125.473L185.392 125.553C185.639 125.554 185.838 125.752 185.838 125.996L185.828 129.782C185.827 130.026 185.626 130.223 185.38 130.223Z" fill="white"/>
</g>
<g opacity="0.5">
<path d="M185.195 255.103L154.183 255.022C153.936 255.022 153.737 254.823 153.737 254.579L153.747 250.793C153.748 250.549 153.948 250.352 154.195 250.352L185.208 250.433C185.454 250.433 185.654 250.632 185.653 250.876L185.643 254.662C185.642 254.906 185.442 255.103 185.195 255.103Z" fill="white"/>
</g>
<g opacity="0.5">
<path d="M185.359 138.536L154.346 138.456C154.099 138.455 153.9 138.257 153.9 138.013L153.91 134.227C153.911 133.983 154.111 133.786 154.358 133.786L185.371 133.866C185.617 133.867 185.817 134.065 185.816 134.309L185.806 138.096C185.805 138.34 185.605 138.537 185.359 138.536Z" fill="white"/>
</g>
<path d="M297.213 273.779V277.006C306.485 284.043 315.199 284.595 319.064 282.045C316.738 276.323 314.376 272.928 312.52 270.939C306.441 279.398 297.213 273.779 297.213 273.779Z" fill="url(#paint1_linear_372_892)"/>
<path d="M331.052 265.945L320.197 249.152C319.485 258.624 316.251 265.745 312.519 270.939C314.374 272.928 316.737 276.323 319.062 282.046C328.707 275.683 331.052 265.945 331.052 265.945Z" fill="url(#paint2_linear_372_892)"/>
<path d="M342.595 398.67C337.183 398.916 331.945 398.762 328.447 398.584C331.632 396.341 338.968 391.461 345.108 389.518L349.322 389.269C349.322 389.269 350.75 391.418 351.259 396.335C350.561 397.198 348.52 398.4 342.595 398.67Z" fill="url(#paint3_linear_372_892)"/>
<path d="M328.405 398.614C328.419 398.605 328.434 398.594 328.448 398.584C331.946 398.762 337.184 398.916 342.596 398.67C348.521 398.4 350.562 397.198 351.261 396.336C351.284 396.562 351.308 396.787 351.328 397.026C351.415 398.105 350.606 399.052 349.514 399.134C345.082 399.465 334.093 400.217 328.793 399.941C328.094 399.905 327.835 399.016 328.405 398.614Z" fill="url(#paint4_linear_372_892)"/>
<path d="M381.305 397.237C381.701 394.723 382.337 391.088 382.828 390.159C383.598 388.701 386.235 390.159 386.235 390.159C386.235 390.159 388.087 391.013 388.938 392.437C389.482 393.345 390.984 395.927 392.001 397.68C392.119 397.881 392.167 398.096 392.161 398.304L381.602 398.67C381.344 398.26 381.222 397.76 381.305 397.237Z" fill="url(#paint5_linear_372_892)"/>
<path d="M392.16 398.304C392.142 398.901 391.664 399.442 390.99 399.46L383.467 399.665C382.672 399.687 381.984 399.278 381.601 398.669L392.16 398.304Z" fill="url(#paint6_linear_372_892)"/>
<path d="M380.498 381.804C380.589 382.105 381.954 388.65 382.551 391.522C382.716 392.316 383.439 392.874 384.257 392.833C384.704 392.811 385.224 392.771 385.769 392.702C386.736 392.578 387.473 391.778 387.51 390.814C387.607 388.298 387.654 383.467 386.72 381.595C385.432 379.013 380.498 381.804 380.498 381.804Z" fill="url(#paint7_linear_372_892)"/>
<path d="M350.152 383.677C349.566 383.659 350.385 386.667 349.5 389.624C349.3 390.29 348.796 390.814 348.093 390.823C347.638 390.829 347.098 390.82 346.55 390.776C345.726 390.711 345.063 390.078 344.987 389.263L344.267 381.595L350.152 383.677Z" fill="url(#paint8_linear_372_892)"/>
<path d="M333.783 302.157C334.045 303.415 343.264 356.625 343.823 384.158C343.833 384.619 344.176 385.006 344.638 385.07C345.809 385.232 348.088 385.439 350.298 385.034C350.601 384.978 350.829 384.732 350.848 384.428C351.17 379.297 353.761 335.915 350.588 315.494C350.588 315.494 376.802 370.084 380.775 385.137C380.872 385.503 381.212 385.749 381.594 385.729C382.716 385.67 385.051 385.471 386.905 384.796C387.57 384.553 387.948 383.862 387.78 383.182C385.56 374.173 370.002 312.109 359.438 298.434L333.783 302.157Z" fill="url(#paint9_linear_372_892)"/>
<path d="M318.797 235.54C325.531 233.795 337.951 231.062 347.839 231.645C350.11 231.779 351.929 233.555 352.058 235.803C353.552 261.859 355.593 284.981 359.437 298.434C350.797 301.816 342.232 303.386 333.782 302.157C327.451 288.741 321.917 273.252 317.188 255.662C317.188 255.662 314.414 241.633 317.108 236.956C317.528 236.227 318.08 235.726 318.797 235.54Z" fill="url(#paint10_linear_372_892)"/>
<path d="M332.02 218.46C332.02 218.46 335.532 227.146 337.202 231.966C337.45 232.684 336.885 233.433 336.204 233.781C334.345 234.727 330.378 236.252 326.055 234.853C325.343 234.622 324.877 233.941 324.893 233.2L325.189 219.8L332.02 218.46Z" fill="url(#paint11_linear_372_892)"/>
<path d="M321.606 208.406C321.606 208.406 318.72 216.021 318.704 219.941C318.689 223.861 317.971 226.441 322.58 226.994C327.188 227.547 330.918 225.098 332.798 221.098C332.798 221.098 335.75 214.931 334.889 212.512C334.028 210.092 321.606 208.406 321.606 208.406Z" fill="url(#paint12_linear_372_892)"/>
<path d="M331.095 218.378L330.517 218.408C330.517 218.408 332.643 213.457 330.509 212.716C328.374 211.975 320.006 210.729 318.067 207.913C316.198 205.199 317.544 201.5 319.789 200.369C319.931 200.297 320.106 200.356 320.188 200.492L320.397 200.838C320.54 201.076 320.902 201.02 320.966 200.751C321.027 200.496 321.366 200.423 321.518 200.638C322.11 201.48 323.665 202.817 327.675 203.339C333.364 204.079 337.208 206.145 337.502 209.994C337.52 210.238 337.791 210.359 337.995 210.221C338.398 209.949 339.058 209.797 339.986 210.491C341.601 211.699 341.143 215.072 337.894 217.993C337.74 218.132 337.754 218.381 337.935 218.484C338.571 218.849 339.537 219.744 337.227 221.123C334.864 222.533 333.419 222.466 332.869 222.357C332.721 222.327 332.616 222.2 332.618 222.051L332.652 218.625C332.654 218.448 332.504 218.306 332.325 218.315L331.095 218.378Z" fill="url(#paint13_linear_372_892)"/>
<path d="M330.989 219.099C330.989 219.099 331.99 214.278 334.215 215.501C336.441 216.725 333.376 220.889 331.652 221.155L330.989 219.099Z" fill="url(#paint14_linear_372_892)"/>
<path d="M369.483 270.244C372.813 279.488 369.417 292.407 369.417 292.407L373.806 293.565C373.806 293.565 380.997 283.883 379.7 269.075C375.648 268.463 371.854 269.403 369.483 270.244Z" fill="url(#paint15_linear_372_892)"/>
<path d="M379.702 269.072C379.556 267.407 379.327 265.645 378.987 263.772C376.021 247.44 354.86 234.877 349.881 232.126C349.418 231.87 348.855 232.215 348.871 232.74L349.579 254.941C361.364 256.508 366.941 263.18 369.485 270.241C371.856 269.4 375.651 268.461 379.702 269.072Z" fill="url(#paint16_linear_372_892)"/>
<path d="M277.723 259.482L394.084 303.352C398.965 305.192 401.335 310.997 399.23 315.951L398.884 316.765C397.021 321.149 392.107 323.087 387.933 321.084L274.857 266.826L277.723 259.482Z" fill="url(#paint17_linear_372_892)"/>
<path opacity="0.23" d="M287.866 235.987C288.784 207.693 265.921 184.005 236.8 183.08C207.679 182.154 183.327 204.341 182.409 232.636C181.491 260.931 204.353 284.618 233.475 285.544C262.596 286.469 286.947 264.282 287.866 235.987Z" fill="white"/>
<path d="M176.921 232.782C175.899 264.266 201.339 290.624 233.742 291.653C266.146 292.683 293.243 267.995 294.265 236.511C295.287 205.027 269.847 178.67 237.444 177.64C205.04 176.61 177.943 201.298 176.921 232.782ZM185.54 233.056C186.412 206.197 209.528 185.135 237.172 186.014C264.815 186.893 286.518 209.378 285.646 236.237C284.774 263.097 261.658 284.158 234.014 283.279C206.371 282.401 184.668 259.915 185.54 233.056Z" fill="url(#paint18_linear_372_892)"/>
<path d="M289.558 243.237C289.449 243.22 289.375 243.118 289.393 243.011C289.608 241.682 289.773 240.326 289.885 238.98C289.894 238.871 289.992 238.792 290.1 238.799C290.21 238.808 290.292 238.903 290.283 239.012C290.171 240.368 290.004 241.735 289.787 243.073C289.771 243.17 289.686 243.24 289.59 243.24C289.579 243.239 289.569 243.239 289.558 243.237ZM289.507 227.117C288.968 223.472 288.03 219.872 286.721 216.419C283.014 206.64 276.468 198.194 267.793 191.996C258.91 185.649 248.37 182.108 237.312 181.757C226.918 181.424 216.711 183.964 207.809 189.094C207.714 189.149 207.591 189.117 207.536 189.023C207.48 188.928 207.513 188.808 207.608 188.753C216.575 183.585 226.851 181.03 237.325 181.362C248.462 181.716 259.079 185.282 268.027 191.675C276.765 197.919 283.359 206.428 287.095 216.279L287.095 216.28C288.414 219.76 289.359 223.387 289.902 227.06C289.918 227.168 289.842 227.268 289.733 227.284C289.723 227.286 289.714 227.286 289.704 227.286C289.607 227.286 289.522 227.216 289.507 227.117Z" fill="#91B3FA"/>
<path d="M391.926 319.228C391.955 319.227 391.985 319.221 392.014 319.211C395.587 317.897 397.449 315.737 397.548 312.791C397.648 309.828 395.851 307.084 393.078 305.963L379.104 300.316C378.952 300.254 378.779 300.333 378.72 300.495C378.661 300.656 378.739 300.836 378.892 300.899L392.866 306.546C395.401 307.57 397.044 310.07 396.953 312.766C396.864 315.431 395.135 317.4 391.815 318.621C391.66 318.678 391.579 318.856 391.634 319.019C391.678 319.151 391.799 319.233 391.926 319.228Z" fill="#91B3FA"/>
<path d="M374.704 299.18C374.819 299.175 374.927 299.1 374.97 298.98C375.029 298.819 374.951 298.639 374.798 298.576L372.986 297.845C372.835 297.783 372.661 297.862 372.603 298.024C372.544 298.185 372.621 298.365 372.775 298.428L374.586 299.159C374.625 299.175 374.665 299.181 374.704 299.18Z" fill="#91B3FA"/>
<path d="M292.06 276.606C291.237 276.381 290.568 275.802 290.221 275.031C289.547 273.537 288.788 271.144 290.409 270.414C292.823 269.329 297.212 273.78 297.212 273.78L299.357 277.22L301.318 278.163C299.521 278.653 296.057 277.838 292.06 276.606Z" fill="url(#paint19_linear_372_892)"/>
<path d="M369.71 290.922L363.813 291.805C363.813 291.805 368.686 293.534 368.832 296.282C368.979 299.029 367.085 304.72 366.199 306.269C365.23 307.963 378.487 303.746 373.807 290.922H369.71Z" fill="url(#paint20_linear_372_892)"/>
<path d="M143.473 223.325C143.211 222.842 142.47 222.918 142.319 223.443C141.76 225.389 140.405 228.784 137.563 229.989C137.42 230.05 137.284 230.111 137.153 230.173C137.024 229.8 137.022 229.366 137.331 228.91C138.215 227.606 136.62 225.825 136.62 225.825C136.62 225.825 136.514 227.394 135.279 228.382C134.216 229.233 133.705 231.126 134.432 232.679C135.97 238.45 138.274 246.082 129.301 251.658C120.328 257.233 107.692 241.135 107.692 241.135L113.964 260.336C113.964 260.336 123.644 267.235 134.904 257.534C146.164 247.833 138.7 233.717 138.7 233.717C138.7 233.717 147.289 230.371 143.473 223.325Z" fill="url(#paint21_linear_372_892)"/>
<path d="M106.121 212.923C106.121 212.923 108.721 201.661 95.3637 204.642C95.3637 204.642 88.88 203.619 88.5504 209.529C88.5504 209.529 84.3709 212.189 87.431 217.304C87.431 217.304 75.0104 212.67 69.5987 223.185C64.1871 233.699 69.1615 239.484 74.3761 240.991C74.3761 240.991 70.1512 243.04 72.1511 247.666C74.1508 252.292 84.2785 255.553 90.2612 249.927C90.2612 249.927 107.285 252.1 106.944 240.487C106.944 240.487 114.862 235.549 106.545 225.952C98.2292 216.355 106.121 212.923 106.121 212.923Z" fill="url(#paint22_linear_372_892)"/>
<path d="M106.857 239.027C104.173 238.25 96.3575 236.815 88.9241 243.44C87.6633 244.564 87.1482 246.271 87.5977 247.87C89.5944 254.969 94.8622 275.942 90.2432 285.017C90.2432 285.017 98.383 293.683 107.263 286.698C107.263 286.698 111.247 269.928 116.466 262.565C120.069 257.483 110.721 243.479 108.356 240.095C107.997 239.583 107.47 239.204 106.857 239.027Z" fill="url(#paint23_linear_372_892)"/>
<path d="M99.4453 224.923C99.4453 224.923 95.4758 235.767 95.1771 240.551C95.1771 240.551 99.5643 242.478 103.698 239.226C103.698 239.226 104.132 228.395 104.759 226.455L99.4453 224.923Z" fill="url(#paint24_linear_372_892)"/>
<path d="M104.958 210.138C104.958 210.138 115.341 224.17 109.134 228.246C102.928 232.322 95.5372 222.35 95.5372 222.35C95.5372 222.35 93.1281 214.67 95.6472 212.064C98.1662 209.458 104.958 210.138 104.958 210.138Z" fill="url(#paint25_linear_372_892)"/>
<path d="M100.151 206.784C100.151 206.784 104.921 207.876 105.589 209.96C106.258 212.044 98.8256 213.977 96.7431 214.071L95.0652 222.482C95.0652 222.482 90.1048 214.57 92.0697 210.001C94.0346 205.431 100.151 206.784 100.151 206.784Z" fill="url(#paint26_linear_372_892)"/>
<path d="M97.5508 221.317C97.5508 221.317 93.5097 216.797 91.9022 219.744C90.2947 222.691 95.5397 224.903 97.3554 223.456L97.5508 221.317Z" fill="url(#paint27_linear_372_892)"/>
<path d="M117.627 321.91C117.597 322.671 118.981 328.71 119.734 331.931C120.037 333.227 119.826 334.583 119.143 335.737L93.0559 378.14C92.7403 378.653 92.5106 379.208 92.371 379.789C91.893 381.779 90.9013 386.656 91.4191 391.092L92.7685 393.799L86.932 392.519L85.6623 377.382L87.3147 376.409C88.742 375.569 89.8534 374.312 90.4898 372.819C92.8487 367.285 98.7064 353.199 100.216 346.334C101.932 338.532 110.903 332.195 110.903 332.195L109.327 328.597L117.627 321.91Z" fill="url(#paint28_linear_372_892)"/>
<path d="M80.4465 387.311C80.4465 387.311 83.5983 382.485 83.9691 380.606C84.3399 378.728 85.3723 375.411 87.3154 376.409C87.3154 376.409 88.2311 385.535 87.9154 389.1C87.5998 392.666 92.0891 392.551 92.0891 392.551C92.0891 392.551 93.3264 392.719 94.2325 393.594C94.8582 394.198 94.4107 395.246 93.5279 395.301C92.0588 395.393 89.7253 395.416 87.2751 394.959C86.4188 394.8 85.784 394.096 85.7322 393.255L85.0854 382.753L81.1097 387.601L80.4465 387.311Z" fill="url(#paint29_linear_372_892)"/>
<path d="M102.044 328.664C102.044 328.664 101.124 366.593 100.999 371.98C100.875 377.367 101.88 389.305 107.472 392.873L105.039 394.613C105.039 394.613 101.998 392.117 99.0272 387.313C95.6901 381.917 94.681 380.931 94.681 380.931L95.7884 378.741C96.2732 377.782 96.4156 376.697 96.1925 375.652C94.9859 370.004 90.9549 351.218 89.8552 347.172C88.5571 342.396 88.465 336.019 92.9806 330.68C97.4962 325.342 102.044 328.664 102.044 328.664Z" fill="url(#paint30_linear_372_892)"/>
<path d="M96.8793 396.323C96.7058 396.324 96.5584 396.204 96.5339 396.038C96.3478 394.774 95.5732 389.704 94.9393 388.392C94.2132 386.888 91.8414 380.561 94.9406 380.024C94.9406 380.024 102.646 390.896 104.125 392.361C105.604 393.827 107.47 392.873 107.47 392.873C107.47 392.873 108.912 393.285 109.998 394.626C110.516 395.264 110.034 396.201 109.194 396.209L104.005 396.257C102.497 396.271 101.142 395.387 100.582 394.035C99.6678 391.832 98.0986 388.599 96.2697 387.165L97.2202 395.954C97.2412 396.15 97.0833 396.321 96.8793 396.323Z" fill="url(#paint31_linear_372_892)"/>
<path d="M108.49 282.609C108.49 282.609 107.321 286.209 109.117 292.139L120.263 329.728C120.438 330.318 120.108 330.937 119.509 331.144C116.175 332.3 105.216 335.566 90.2552 334.57C89.5021 334.519 88.8705 334.004 88.7066 333.293C87.7208 329.007 84.3576 314.387 83.665 311.382C81.0262 299.935 78.0799 287.591 91.0413 280.126C97.0148 282.597 102.586 284.054 108.49 282.609Z" fill="url(#paint32_linear_372_892)"/>
<path d="M87.8579 244.856C87.8579 244.856 75.1767 255.034 72.0297 268.942C68.8827 282.85 90.56 284.328 90.56 284.328C90.56 284.328 93.5028 281.154 96.9966 282.286C100.49 283.418 97.2671 276.747 93.1794 276.765C89.0917 276.782 90.9854 279.904 85.2028 277.374C79.5697 274.91 76.088 267.289 90.4602 255.736C91.2933 255.066 91.9582 254.213 92.3584 253.24C95.1505 246.452 92.9359 242.002 87.8579 244.856Z" fill="url(#paint33_linear_372_892)"/>
<path d="M270.784 166.584L167.421 166.473C166.584 166.472 165.907 166.193 165.909 165.848L165.943 160.508C165.945 160.164 166.626 159.886 167.463 159.887L270.826 159.998C271.663 159.999 272.34 160.279 272.338 160.623L272.304 165.963C272.302 166.307 271.621 166.585 270.784 166.584Z" fill="#FBFBFB" fill-opacity="0.7"/>
<path d="M294.715 56.7156L143.798 56.6044C142.575 56.6034 141.587 56.3239 141.59 55.9798L141.639 50.6394C141.642 50.2953 142.636 50.0172 143.859 50.0181L294.777 50.1294C295.999 50.1303 296.988 50.41 296.985 50.754L296.935 56.0944C296.932 56.4382 295.938 56.7165 294.715 56.7156Z" fill="#FBFBFB" fill-opacity="0.7"/>
<defs>
<linearGradient id="paint0_linear_372_892" x1="90.5039" y1="189.332" x2="344.829" y2="189.332" gradientUnits="userSpaceOnUse">
<stop stop-color="#152F6C"/>
<stop offset="1" stop-color="#2E4A8B"/>
</linearGradient>
<linearGradient id="paint1_linear_372_892" x1="304.244" y1="269.315" x2="330.816" y2="340.48" gradientUnits="userSpaceOnUse">
<stop stop-color="#FEBBBA"/>
<stop offset="1" stop-color="#FF928E"/>
</linearGradient>
<linearGradient id="paint2_linear_372_892" x1="321.785" y1="249.152" x2="321.785" y2="282.046" gradientUnits="userSpaceOnUse">
<stop stop-color="#00FFE8"/>
<stop offset="1" stop-color="#00CFBC"/>
</linearGradient>
<linearGradient id="paint3_linear_372_892" x1="328.447" y1="394.033" x2="351.259" y2="394.033" gradientUnits="userSpaceOnUse">
<stop stop-color="#152F6C"/>
<stop offset="1" stop-color="#2E4A8B"/>
</linearGradient>
<linearGradient id="paint4_linear_372_892" x1="351.334" y1="398.168" x2="328.093" y2="398.168" gradientUnits="userSpaceOnUse">
<stop stop-color="#4F52FF"/>
<stop offset="1" stop-color="#4042E2"/>
</linearGradient>
<linearGradient id="paint5_linear_372_892" x1="381.279" y1="394.09" x2="392.162" y2="394.09" gradientUnits="userSpaceOnUse">
<stop stop-color="#152F6C"/>
<stop offset="1" stop-color="#2E4A8B"/>
</linearGradient>
<linearGradient id="paint6_linear_372_892" x1="392.16" y1="398.985" x2="381.601" y2="398.985" gradientUnits="userSpaceOnUse">
<stop stop-color="#4F52FF"/>
<stop offset="1" stop-color="#4042E2"/>
</linearGradient>
<linearGradient id="paint7_linear_372_892" x1="387.559" y1="386.667" x2="380.498" y2="386.667" gradientUnits="userSpaceOnUse">
<stop stop-color="#FEBBBA"/>
<stop offset="1" stop-color="#FF928E"/>
</linearGradient>
<linearGradient id="paint8_linear_372_892" x1="350.152" y1="386.21" x2="344.267" y2="386.21" gradientUnits="userSpaceOnUse">
<stop stop-color="#FEBBBA"/>
<stop offset="1" stop-color="#FF928E"/>
</linearGradient>
<linearGradient id="paint9_linear_372_892" x1="371.742" y1="309.468" x2="306.757" y2="363.785" gradientUnits="userSpaceOnUse">
<stop stop-color="#2E4A8B"/>
<stop offset="1" stop-color="#152F6C"/>
</linearGradient>
<linearGradient id="paint10_linear_372_892" x1="337.684" y1="231.565" x2="337.684" y2="302.573" gradientUnits="userSpaceOnUse">
<stop stop-color="#00FFE8"/>
<stop offset="1" stop-color="#00CFBC"/>
</linearGradient>
<linearGradient id="paint11_linear_372_892" x1="332.45" y1="241.181" x2="329.723" y2="224.187" gradientUnits="userSpaceOnUse">
<stop stop-color="#FEBBBA"/>
<stop offset="1" stop-color="#FF928E"/>
</linearGradient>
<linearGradient id="paint12_linear_372_892" x1="321.262" y1="214.997" x2="340.602" y2="228.406" gradientUnits="userSpaceOnUse">
<stop stop-color="#FEBBBA"/>
<stop offset="1" stop-color="#FF928E"/>
</linearGradient>
<linearGradient id="paint13_linear_372_892" x1="333.837" y1="203.128" x2="318.235" y2="225.759" gradientUnits="userSpaceOnUse">
<stop stop-color="#2E4A8B"/>
<stop offset="1" stop-color="#152F6C"/>
</linearGradient>
<linearGradient id="paint14_linear_372_892" x1="323.431" y1="211.872" x2="342.771" y2="225.282" gradientUnits="userSpaceOnUse">
<stop stop-color="#FEBBBA"/>
<stop offset="1" stop-color="#FF928E"/>
</linearGradient>
<linearGradient id="paint15_linear_372_892" x1="371.157" y1="275.88" x2="399.218" y2="316.843" gradientUnits="userSpaceOnUse">
<stop stop-color="#FEBBBA"/>
<stop offset="1" stop-color="#FF928E"/>
</linearGradient>
<linearGradient id="paint16_linear_372_892" x1="364.287" y1="232.04" x2="364.287" y2="270.241" gradientUnits="userSpaceOnUse">
<stop stop-color="#00FFE8"/>
<stop offset="1" stop-color="#00CFBC"/>
</linearGradient>
<linearGradient id="paint17_linear_372_892" x1="274.857" y1="290.678" x2="400" y2="290.678" gradientUnits="userSpaceOnUse">
<stop stop-color="#152F6C"/>
<stop offset="1" stop-color="#2E4A8B"/>
</linearGradient>
<linearGradient id="paint18_linear_372_892" x1="176.892" y1="234.647" x2="294.294" y2="234.647" gradientUnits="userSpaceOnUse">
<stop stop-color="#152F6C"/>
<stop offset="1" stop-color="#2E4A8B"/>
</linearGradient>
<linearGradient id="paint19_linear_372_892" x1="290.944" y1="263.977" x2="313.923" y2="325.52" gradientUnits="userSpaceOnUse">
<stop stop-color="#FEBBBA"/>
<stop offset="1" stop-color="#FF928E"/>
</linearGradient>
<linearGradient id="paint20_linear_372_892" x1="360.923" y1="285.759" x2="386.372" y2="322.909" gradientUnits="userSpaceOnUse">
<stop stop-color="#FEBBBA"/>
<stop offset="1" stop-color="#FF928E"/>
</linearGradient>
<linearGradient id="paint21_linear_372_892" x1="147.304" y1="209.806" x2="115.236" y2="263.022" gradientUnits="userSpaceOnUse">
<stop stop-color="#FEBBBA"/>
<stop offset="1" stop-color="#FF928E"/>
</linearGradient>
<linearGradient id="paint22_linear_372_892" x1="80.0785" y1="210.304" x2="116.396" y2="253.638" gradientUnits="userSpaceOnUse">
<stop stop-color="#2E4A8B"/>
<stop offset="1" stop-color="#152F6C"/>
</linearGradient>
<linearGradient id="paint23_linear_372_892" x1="102.36" y1="238.334" x2="102.36" y2="289.419" gradientUnits="userSpaceOnUse">
<stop stop-color="#00FFE8"/>
<stop offset="1" stop-color="#00CFBC"/>
</linearGradient>
<linearGradient id="paint24_linear_372_892" x1="105.76" y1="245.926" x2="99.7932" y2="232.206" gradientUnits="userSpaceOnUse">
<stop stop-color="#FEBBBA"/>
<stop offset="1" stop-color="#FF928E"/>
</linearGradient>
<linearGradient id="paint25_linear_372_892" x1="106.085" y1="212.96" x2="93.9699" y2="240.118" gradientUnits="userSpaceOnUse">
<stop stop-color="#FEBBBA"/>
<stop offset="1" stop-color="#FF928E"/>
</linearGradient>
<linearGradient id="paint26_linear_372_892" x1="95.7815" y1="208.605" x2="107.614" y2="222.709" gradientUnits="userSpaceOnUse">
<stop stop-color="#2E4A8B"/>
<stop offset="1" stop-color="#152F6C"/>
</linearGradient>
<linearGradient id="paint27_linear_372_892" x1="100.047" y1="210.266" x2="87.9324" y2="237.424" gradientUnits="userSpaceOnUse">
<stop stop-color="#FEBBBA"/>
<stop offset="1" stop-color="#FF928E"/>
</linearGradient>
<linearGradient id="paint28_linear_372_892" x1="70.2688" y1="414.853" x2="114.924" y2="331.394" gradientUnits="userSpaceOnUse">
<stop stop-color="#FEBBBA"/>
<stop offset="1" stop-color="#FF928E"/>
</linearGradient>
<linearGradient id="paint29_linear_372_892" x1="94.5244" y1="385.79" x2="80.4465" y2="385.79" gradientUnits="userSpaceOnUse">
<stop stop-color="#152F6C"/>
<stop offset="1" stop-color="#2E4A8B"/>
</linearGradient>
<linearGradient id="paint30_linear_372_892" x1="123.984" y1="353.915" x2="53.0336" y2="378.178" gradientUnits="userSpaceOnUse">
<stop stop-color="#FEBBBA"/>
<stop offset="1" stop-color="#FF928E"/>
</linearGradient>
<linearGradient id="paint31_linear_372_892" x1="110.212" y1="388.173" x2="93.3868" y2="388.173" gradientUnits="userSpaceOnUse">
<stop stop-color="#152F6C"/>
<stop offset="1" stop-color="#2E4A8B"/>
</linearGradient>
<linearGradient id="paint32_linear_372_892" x1="92.962" y1="287.031" x2="134.254" y2="326.766" gradientUnits="userSpaceOnUse">
<stop stop-color="#2E4A8B"/>
<stop offset="1" stop-color="#152F6C"/>
</linearGradient>
<linearGradient id="paint33_linear_372_892" x1="74.7935" y1="288.128" x2="139.143" y2="189.338" gradientUnits="userSpaceOnUse">
<stop stop-color="#FEBBBA"/>
<stop offset="1" stop-color="#FF928E"/>
</linearGradient>
</defs>
</svg>
