<svg width="400" height="400" viewBox="0 0 400 400" fill="none" xmlns="http://www.w3.org/2000/svg">
<path d="M349.863 344.754C341.84 353.205 334.248 358.655 328.25 362.961C257.744 413.576 174.316 398.821 156.586 395.218C130.403 389.898 79.7925 379.613 43.2021 336.561C-12.1563 271.428 -3.53614 168.811 39.4035 101.072C47.2579 88.6815 88.7467 19.9111 173.073 8.88237C224.106 2.20795 283.594 15.6695 326.674 51.7804C417.102 127.581 410.665 280.71 349.863 344.754Z" fill="#D9F4FF"/>
<path d="M300.713 146.07C297.337 223.008 227.312 282.424 144.307 278.778C61.3025 275.132 -3.24923 209.806 0.126597 132.867C3.50242 55.9289 73.5277 -3.48652 156.532 0.159193C239.537 3.80505 304.089 69.1315 300.713 146.07Z" fill="#2C68F0"/>
<path opacity="0.19" d="M142.278 240.982C207.473 240.982 260.325 191.028 260.325 129.407C260.325 67.7866 207.473 17.833 142.278 17.833C77.082 17.833 24.2305 67.7866 24.2305 129.407C24.2305 191.028 77.082 240.982 142.278 240.982Z" fill="#457CF6"/>
<g opacity="0.68">
<path d="M188.852 140.14C188.816 164.734 187.13 189.378 182.798 213.624C181.701 219.68 180.43 225.708 178.915 231.678C177.396 237.646 175.641 243.562 173.493 249.346C171.327 255.115 168.814 260.801 165.405 265.998C163.687 268.578 161.739 271.049 159.334 273.082C158.132 274.093 156.812 274.988 155.36 275.645C153.912 276.297 152.328 276.71 150.721 276.738C149.116 276.785 147.509 276.471 146.031 275.876C144.548 275.286 143.196 274.431 141.965 273.454C139.503 271.484 137.512 269.04 135.764 266.48C132.294 261.321 129.746 255.646 127.558 249.886C125.383 244.112 123.611 238.2 122.079 232.236C120.548 226.27 119.264 220.245 118.159 214.191C115.952 202.079 114.447 189.851 113.431 177.589C112.423 165.326 111.917 153.023 111.855 140.718C111.825 134.567 111.993 128.416 112.211 122.269C112.442 116.123 112.78 109.98 113.232 103.846C114.141 91.5785 115.5 79.3387 117.519 67.1994C118.532 61.1311 119.714 55.0885 121.135 49.0994C122.559 43.1123 124.215 37.1727 126.268 31.362C127.301 28.4592 128.429 25.5875 129.716 22.7834C131.001 19.9798 132.44 17.2374 134.13 14.6447C135.824 12.0632 137.771 9.59925 140.196 7.62697C141.409 6.6494 142.744 5.79882 144.208 5.22254C145.665 4.63882 147.247 4.34325 148.82 4.40311C150.394 4.44797 151.945 4.84054 153.377 5.47139C154.811 6.10525 156.128 6.96725 157.337 7.9444C159.756 9.91111 161.759 12.3158 163.535 14.841C167.066 19.9264 169.728 25.5348 172.034 31.2413C174.323 36.9634 176.213 42.8337 177.86 48.7645C179.5 54.6983 180.889 60.6981 182.091 66.7332C186.848 90.8947 188.781 115.542 188.852 140.14ZM187.032 140.14C187.055 127.886 186.589 115.628 185.571 103.416C184.568 91.2043 183.048 79.0278 180.783 66.9861C179.652 60.9661 178.335 54.9803 176.767 49.0607C175.194 43.1441 173.379 37.2878 171.168 31.5831C168.942 25.8945 166.36 20.3057 162.935 15.2564C161.212 12.7495 159.27 10.3687 156.939 8.43153C155.774 7.46882 154.509 6.62282 153.14 5.99982C151.773 5.38425 150.3 4.98082 148.802 4.94154C147.305 4.89411 145.811 5.1954 144.426 5.7654C143.036 6.32982 141.761 7.16025 140.598 8.11925C138.271 10.0533 136.386 12.486 134.748 15.0444C133.112 17.6138 131.72 20.339 130.478 23.1283C129.235 25.9181 128.146 28.7784 127.153 31.6707C125.178 37.4611 123.596 43.3848 122.243 49.3567C120.895 55.3308 119.784 61.3593 118.841 67.413C116.963 79.5233 115.743 91.7328 114.97 103.965C114.19 116.198 113.92 128.46 113.942 140.716C113.91 152.97 114.319 165.227 115.229 177.448C116.147 189.667 117.552 201.855 119.656 213.923C120.71 219.956 121.941 225.958 123.416 231.898C124.893 237.836 126.607 243.718 128.717 249.453C130.839 255.173 133.319 260.8 136.672 265.868C138.359 268.381 140.279 270.764 142.606 272.654C143.769 273.591 145.034 274.402 146.402 274.958C147.766 275.515 149.229 275.824 150.695 275.775C152.16 275.737 153.604 275.35 154.945 274.734C156.288 274.115 157.526 273.263 158.663 272.291C160.94 270.337 162.819 267.923 164.476 265.389C167.77 260.281 170.215 254.641 172.313 248.912C174.395 243.167 176.09 237.279 177.552 231.338C179.011 225.393 180.227 219.389 181.27 213.354C183.359 201.283 184.747 189.094 185.67 176.875C186.605 164.656 187.037 152.397 187.032 140.14Z" fill="white"/>
<path d="M250.861 140.143C250.776 155.981 248.741 171.825 244.504 187.099C240.192 202.337 233.693 216.996 224.869 230.157C220.456 236.731 215.457 242.918 209.872 248.532C204.288 254.144 198.113 259.181 191.411 263.402C184.702 267.606 177.456 270.972 169.871 273.255C162.29 275.544 154.376 276.738 146.455 276.746C138.534 276.746 130.618 275.559 123.033 273.276C115.444 270.999 108.192 267.639 101.476 263.438C94.7666 259.222 88.5826 254.19 82.9903 248.58C77.3953 242.969 72.3865 236.782 67.9641 230.209C59.1224 217.046 52.6092 202.38 48.2774 187.134C46.1452 179.497 44.5607 171.71 43.511 163.853C42.4668 155.995 41.9422 148.07 41.9062 140.143C41.9472 132.215 42.4767 124.291 43.5257 116.434C44.5804 108.578 46.1709 100.793 48.3081 93.1593C52.6507 77.9199 59.1738 63.2639 68.0213 50.1146C72.4458 43.5472 77.4552 37.3677 83.0494 31.764C88.6418 26.1627 94.8215 21.1354 101.53 16.9323C108.244 12.7429 115.494 9.40731 123.07 7.13088C130.641 4.84502 138.544 3.65288 146.455 3.64502C154.365 3.65945 162.267 4.85831 169.834 7.14988C177.406 9.43231 184.65 12.7745 191.357 16.9685C198.058 21.1763 204.229 26.2077 209.812 31.8116C215.397 37.4179 220.397 43.5986 224.811 50.166C233.641 63.3136 240.151 77.9632 244.473 93.1952C248.72 108.463 250.765 124.305 250.861 140.143ZM248.775 140.143C248.752 124.485 246.803 108.81 242.673 93.6949C238.521 78.6033 232.269 64.0336 223.662 50.931C219.361 44.3864 214.476 38.2177 209.004 32.6103C203.531 27.0116 197.485 21.9463 190.873 17.7362C184.252 13.5496 177.103 10.1799 169.607 7.90059C162.115 5.61959 154.292 4.42059 146.455 4.39459C138.618 4.42731 130.798 5.63302 123.309 7.91959C115.816 10.2049 108.674 13.5813 102.06 17.7723C95.4554 21.9872 89.4184 27.0567 83.9539 32.6577C78.4918 38.2677 73.6164 44.4376 69.3252 50.9823C60.7361 64.0832 54.4975 78.6463 50.3657 93.7306C48.3074 101.281 46.817 108.981 45.8071 116.737C44.7948 124.494 44.2953 132.317 44.2779 140.143C44.3003 147.968 44.8048 155.79 45.8218 163.546C46.8367 171.302 48.3331 178.999 50.3964 186.546C54.5389 201.624 60.7876 216.178 69.3826 229.265C73.6755 235.803 78.5516 241.966 84.0132 247.569C89.4777 253.161 95.5103 258.226 102.114 262.428C108.725 266.608 115.866 269.959 123.346 272.244C130.821 274.534 138.629 275.745 146.455 275.784C154.282 275.752 162.092 274.548 169.571 272.265C177.054 269.986 184.201 266.64 190.819 262.464C197.43 258.267 203.472 253.207 208.945 247.616C214.416 242.016 219.302 235.855 223.605 229.316C232.218 216.227 238.48 201.667 242.642 186.582C246.781 171.473 248.741 155.801 248.775 140.143Z" fill="white"/>
<path d="M24.6244 86.0878L55.9787 85.8345L87.3332 85.691L150.042 85.5752L212.751 85.7026L244.105 85.8593L275.46 86.1328C275.51 86.1332 275.551 86.1747 275.551 86.2257C275.55 86.276 275.51 86.3165 275.46 86.317L244.105 86.5904L212.751 86.7472L150.042 86.8747L87.3332 86.7589L55.9787 86.6154L24.6244 86.3621C24.5487 86.3614 24.4877 86.2995 24.4883 86.2239C24.489 86.1489 24.5498 86.0885 24.6244 86.0878Z" fill="white"/>
<path d="M60.9982 33.5448C68.4184 33.4272 75.8387 33.3769 83.2589 33.2915L105.52 33.148C112.94 33.0869 120.36 33.0935 127.78 33.0746L150.041 33.0322L194.562 33.1597L216.823 33.3165C224.243 33.4096 231.663 33.464 239.084 33.5899C239.134 33.5908 239.175 33.6328 239.174 33.6836C239.173 33.7333 239.133 33.7733 239.084 33.7741C231.663 33.9001 224.243 33.9545 216.823 34.0476L194.562 34.2043L150.041 34.3318L127.78 34.2894C120.36 34.2706 112.94 34.2772 105.52 34.216L83.2589 34.0725C75.8387 33.9873 68.4184 33.9369 60.9982 33.8192C60.9226 33.8181 60.8622 33.7557 60.8633 33.6799C60.8644 33.6055 60.9246 33.546 60.9982 33.5448Z" fill="white"/>
<path d="M13.7269 138.63L47.8053 138.377L81.8837 138.233L150.04 138.117L218.197 138.245L252.276 138.402L286.354 138.675C286.405 138.675 286.446 138.717 286.445 138.768C286.445 138.818 286.404 138.859 286.354 138.859L252.276 139.132L218.197 139.289L150.04 139.417L81.8837 139.301L47.8053 139.157L13.7269 138.904C13.6512 138.904 13.5903 138.842 13.5908 138.766C13.5914 138.691 13.6521 138.63 13.7269 138.63Z" fill="white"/>
<path d="M24.6244 191.172L55.9787 190.919L87.3332 190.775L150.042 190.66L212.751 190.787L244.105 190.944L275.46 191.217C275.51 191.218 275.551 191.259 275.551 191.31C275.55 191.361 275.51 191.401 275.46 191.402L244.105 191.675L212.751 191.832L150.042 191.959L87.3332 191.843L55.9787 191.7L24.6244 191.447C24.5487 191.446 24.4877 191.384 24.4883 191.308C24.489 191.233 24.5498 191.173 24.6244 191.172Z" fill="white"/>
<path d="M243.57 244.335H65.4847C65.2189 244.335 65.0039 244.119 65.0039 243.854C65.0039 243.588 65.2189 243.373 65.4847 243.373H243.57C243.836 243.373 244.051 243.588 244.051 243.854C244.051 244.119 243.836 244.335 243.57 244.335Z" fill="white"/>
</g>
<path d="M152.304 298.92L142.963 382.744H251.343L237.226 298.92H152.304Z" fill="url(#paint0_linear_372_1559)"/>
<path d="M274.688 399.895H116.067C111.758 399.895 108.522 396.826 109.355 393.529L111.39 385.475C112.003 383.053 114.666 381.275 117.829 381.176L270.745 376.402C274.05 376.299 276.976 378.054 277.696 380.571L281.365 393.399C282.319 396.732 279.067 399.895 274.688 399.895Z" fill="url(#paint1_linear_372_1559)"/>
<path d="M16.3438 118.098V310.076C16.3438 325.869 28.9221 338.784 44.7015 339.191C114.785 340.999 295.294 345.383 362.008 344.399C373.475 344.23 382.764 335.049 383.095 323.58C384.381 278.981 386.47 171.735 378.738 121.945C377.11 111.46 368.264 103.62 357.664 103.28C298.943 101.401 103.711 95.4328 37.0276 96.9312C25.527 97.1895 16.3438 106.589 16.3438 118.098Z" fill="url(#paint2_linear_372_1559)"/>
<path d="M28.3838 117.162V299.554C28.3838 308.775 35.7817 316.288 44.9965 316.426L352.411 321.024C361.546 321.161 369.035 313.807 369.069 304.666L369.692 123.903C369.716 117.366 364.511 112.011 357.98 111.852L41.7062 104.153C34.4014 103.975 28.3838 109.851 28.3838 117.162Z" fill="#20BDFF"/>
<path d="M371.869 328.461C371.866 328.461 371.863 328.461 371.859 328.461L28.3735 321.504C28.1108 321.498 27.9022 321.281 27.9073 321.018C27.9127 320.756 28.1393 320.542 28.3925 320.552L371.878 327.509C372.141 327.515 372.35 327.732 372.345 327.995C372.339 328.254 372.127 328.461 371.869 328.461Z" fill="#91B3FA"/>
<path d="M201.456 383.317C201.197 383.317 200.985 383.108 200.981 382.848C200.977 382.585 201.187 382.369 201.449 382.365L208.002 382.27C208.004 382.27 208.007 382.27 208.009 382.27C208.269 382.27 208.481 382.478 208.485 382.738C208.488 383.001 208.279 383.217 208.016 383.221L201.463 383.317C201.461 383.317 201.459 383.317 201.456 383.317Z" fill="#91B3FA"/>
<path d="M115.226 395.413C115.201 395.413 115.176 395.411 115.151 395.407C114.891 395.365 114.715 395.121 114.756 394.862L115.691 389.004C116.19 385.876 118.85 383.572 122.015 383.526L191.516 382.509C191.764 382.52 191.995 382.715 191.999 382.978C192.003 383.24 191.793 383.457 191.53 383.461L122.029 384.478C119.327 384.517 117.057 386.484 116.63 389.154L115.695 395.012C115.658 395.246 115.456 395.413 115.226 395.413Z" fill="#91B3FA"/>
<g opacity="0.49">
<path opacity="0.5" d="M86.1005 203.879H45.0088C39.3945 203.879 34.922 207.842 35.1966 212.574L39.8727 293.162C40.129 297.577 44.4462 301.046 49.6849 301.046H86.1008C91.5263 301.046 95.9246 297.334 95.9246 292.756V212.169C95.9245 207.59 91.5262 203.879 86.1005 203.879Z" fill="white"/>
<path opacity="0.5" d="M173.457 203.879H112.52C107.597 203.879 103.606 207.59 103.606 212.169V292.756C103.606 297.334 107.597 301.046 112.52 301.046H173.457C178.379 301.046 182.37 297.334 182.37 292.756V212.169C182.37 207.59 178.379 203.879 173.457 203.879Z" fill="white"/>
<path d="M77.3506 122.203V161.259L37.4385 162.656C39.0738 181.76 55.0884 196.757 74.6064 196.757C95.2113 196.757 111.915 180.045 111.915 159.429C111.915 139.737 96.6739 123.608 77.3506 122.203Z" fill="white"/>
<path d="M181.572 149.286H121.292C120.799 149.286 120.396 148.883 120.396 148.389V144.114C120.396 143.621 120.799 143.217 121.292 143.217H181.572C182.065 143.217 182.469 143.621 182.469 144.114V148.389C182.469 148.883 182.065 149.286 181.572 149.286Z" fill="white"/>
<path d="M181.572 135.312H121.292C120.799 135.312 120.396 134.908 120.396 134.415V130.14C120.396 129.647 120.799 129.243 121.292 129.243H181.572C182.065 129.243 182.469 129.647 182.469 130.14V134.415C182.469 134.908 182.065 135.312 181.572 135.312Z" fill="white"/>
<path d="M181.572 162.673H121.292C120.799 162.673 120.396 162.269 120.396 161.776V157.501C120.396 157.008 120.799 156.604 121.292 156.604H181.572C182.065 156.604 182.469 157.008 182.469 157.501V161.776C182.469 162.269 182.065 162.673 181.572 162.673Z" fill="white"/>
<path d="M181.572 177.647H121.292C120.799 177.647 120.396 177.244 120.396 176.751V172.475C120.396 171.982 120.799 171.579 121.292 171.579H181.572C182.065 171.579 182.469 171.982 182.469 172.475V176.751C182.469 177.244 182.065 177.647 181.572 177.647Z" fill="white"/>
<path d="M181.572 191.357H121.292C120.799 191.357 120.396 190.954 120.396 190.461V186.185C120.396 185.692 120.799 185.289 121.292 185.289H181.572C182.065 185.289 182.469 185.692 182.469 186.185V190.461C182.469 190.954 182.065 191.357 181.572 191.357Z" fill="white"/>
</g>
<g opacity="0.64">
<path opacity="0.5" d="M237.872 259.3H201.396C199.107 259.3 197.251 261.026 197.251 263.155C197.251 265.285 199.107 267.011 201.396 267.011H237.872C240.161 267.011 242.018 265.285 242.018 263.155C242.018 261.026 240.161 259.3 237.872 259.3Z" fill="white"/>
<path opacity="0.5" d="M293.502 259.3H257.026C254.737 259.3 252.881 261.026 252.881 263.155C252.881 265.285 254.737 267.011 257.026 267.011H293.502C295.791 267.011 297.647 265.285 297.647 263.155C297.647 261.026 295.791 259.3 293.502 259.3Z" fill="white"/>
<path opacity="0.5" d="M312.654 267.011H349.13C351.419 267.011 353.275 265.285 353.275 263.155C353.275 261.026 351.419 259.3 349.13 259.3H312.654C310.365 259.3 308.509 261.026 308.509 263.155C308.509 265.284 310.365 267.011 312.654 267.011Z" fill="white"/>
<path opacity="0.5" d="M237.872 271.294H201.396C199.107 271.294 197.251 273.021 197.251 275.15V297.853C197.251 299.983 199.107 301.709 201.396 301.709H237.872C240.161 301.709 242.018 299.983 242.018 297.853V275.15C242.018 273.021 240.161 271.294 237.872 271.294Z" fill="white"/>
<path opacity="0.5" d="M293.502 271.294H257.026C254.737 271.294 252.881 273.021 252.881 275.15V297.853C252.881 299.983 254.737 301.709 257.026 301.709H293.502C295.791 301.709 297.647 299.983 297.647 297.853V275.15C297.647 273.021 295.791 271.294 293.502 271.294Z" fill="white"/>
<path opacity="0.5" d="M349.13 271.294H312.654C310.365 271.294 308.509 273.021 308.509 275.15V297.853C308.509 299.983 310.365 301.709 312.654 301.709H349.13C351.419 301.709 353.275 299.983 353.275 297.853V275.15C353.275 273.021 351.419 271.294 349.13 271.294Z" fill="white"/>
</g>
<path d="M110.706 255.756V286.35C110.706 291.133 114.876 295.011 120.019 295.011H165.075C170.357 295.011 174.639 291.029 174.639 286.116V240.052C174.639 236.175 169.494 234.346 166.714 237.236L158.007 246.285C154.656 249.769 148.983 250.259 144.999 247.409L144.166 246.812C141.093 244.614 136.787 244.712 133.833 247.047L129.065 250.818C125.394 253.721 120.265 254.423 115.85 252.627C113.424 251.64 110.706 253.293 110.706 255.756Z" fill="#00E5D1"/>
<path d="M74.5485 158.868V122.541C54.3923 122.947 38.1439 139.272 37.8438 159.464L74.5485 158.868Z" fill="#AFE8FF"/>
<path d="M359.729 173.891L192.207 173.085C190.188 173.067 188.548 175.301 188.564 178.05L188.935 244.364C188.95 247.129 190.633 249.335 192.662 249.252L359.23 245.683C361.168 245.603 362.715 243.46 362.74 240.821L363.324 178.882C363.35 176.149 361.737 173.909 359.729 173.891Z" fill="url(#paint3_linear_372_1559)"/>
<path opacity="0.5" d="M192.557 245.001C192.247 245.001 192.006 244.708 192.004 244.333L191.633 178.02C191.632 177.846 191.679 177.693 191.771 177.566C191.906 177.381 192.071 177.343 192.185 177.343L359.709 178.149C359.823 178.15 359.986 178.19 360.119 178.375C360.211 178.503 360.258 178.655 360.256 178.828L359.672 240.767C359.669 241.134 359.44 241.419 359.141 241.431H359.137L192.557 245.001ZM192.184 177.772C192.174 177.772 192.152 177.773 192.118 177.819C192.08 177.872 192.062 177.936 192.062 178.017L192.433 244.331C192.434 244.478 192.512 244.571 192.552 244.571L359.127 241.001C359.171 240.998 359.241 240.903 359.243 240.763L359.826 178.824C359.827 178.744 359.809 178.679 359.771 178.626C359.737 178.579 359.715 178.578 359.706 178.578L192.184 177.772Z" fill="white"/>
<g opacity="0.6">
<path d="M207.152 208.16H198.999V239.33H207.152V208.16Z" fill="white"/>
<path d="M220.774 218.873H212.621V239.33H220.774V218.873Z" fill="white"/>
<path d="M234.397 192.398H226.244V239.331H234.397V192.398Z" fill="white"/>
<path d="M248.017 228.055H239.864V239.33H248.017V228.055Z" fill="white"/>
<path d="M261.64 198.67H253.487V239.329H261.64V198.67Z" fill="white"/>
<path d="M275.259 205.711H267.106V239.33H275.259V205.711Z" fill="white"/>
<path d="M288.884 213.362H280.731V239.329H288.884V213.362Z" fill="white"/>
<path d="M302.506 182.909H294.354V239.331H302.506V182.909Z" fill="white"/>
<path d="M316.127 188.877H307.975V239.33H316.127V188.877Z" fill="white"/>
<path d="M329.748 197.905H321.596V239.329H329.748V197.905Z" fill="white"/>
<path d="M343.372 229.103H335.22V239.331H343.372V229.103Z" fill="white"/>
<path d="M356.993 209.231H348.841V239.33H356.993V209.231Z" fill="white"/>
</g>
<path d="M354.364 89.7798L197.055 89.0231C195.159 89.0058 193.619 91.1039 193.634 93.6852L193.982 155.956C193.997 158.552 195.577 160.624 197.483 160.546L353.895 157.194C355.715 157.12 357.168 155.107 357.192 152.629L357.74 94.4659C357.764 91.8996 356.249 89.7969 354.364 89.7798Z" fill="url(#paint4_linear_372_1559)"/>
<path opacity="0.5" d="M197.384 156.553C197.093 156.553 196.867 156.277 196.865 155.926L196.517 93.6555C196.516 93.4924 196.56 93.349 196.647 93.2288C196.774 93.0558 196.928 93.0195 197.035 93.0195L354.345 93.7765C354.453 93.7772 354.605 93.8151 354.731 93.9885C354.817 94.1091 354.861 94.2521 354.859 94.4145L354.311 152.577C354.308 152.922 354.093 153.189 353.812 153.201H353.808L197.384 156.553ZM197.034 93.4231C197.024 93.4231 197.004 93.4231 196.973 93.4668C196.937 93.5157 196.92 93.5771 196.92 93.6533L197.268 155.924C197.269 156.062 197.342 156.149 197.38 156.149L353.8 152.797C353.84 152.795 353.907 152.705 353.908 152.573L354.456 94.4111C354.457 94.3354 354.44 94.2748 354.404 94.2247C354.372 94.1805 354.352 94.1801 354.343 94.1801L197.034 93.4231Z" fill="white"/>
<path d="M236.456 128.168C242.816 121.805 242.816 111.487 236.456 105.124C230.096 98.7603 219.784 98.7603 213.423 105.124C207.063 111.487 207.063 121.805 213.423 128.168C219.784 134.532 230.096 134.532 236.456 128.168Z" fill="white"/>
<path d="M276.796 128.168C283.156 121.805 283.156 111.487 276.796 105.124C270.436 98.7603 260.124 98.7603 253.763 105.124C247.403 111.487 247.403 121.805 253.763 128.168C260.124 134.532 270.436 134.532 276.796 128.168Z" fill="white"/>
<path d="M317.271 128.7C323.632 122.337 323.632 112.02 317.271 105.656C310.911 99.2925 300.599 99.2925 294.239 105.656C287.879 112.02 287.879 122.337 294.239 128.7C300.599 135.064 310.911 135.064 317.271 128.7Z" fill="white"/>
<path d="M234.622 113.201C235.126 114.427 235.406 115.77 235.406 117.178C235.406 122.959 230.722 127.645 224.944 127.645C219.167 127.645 214.483 122.959 214.483 117.178C214.483 111.397 219.167 106.711 224.944 106.711C225.121 106.711 225.297 106.716 225.472 106.725V104.071C225.297 104.065 225.121 104.06 224.944 104.06C217.703 104.06 211.833 109.933 211.833 117.178C211.833 124.423 217.703 130.296 224.944 130.296C232.185 130.296 238.056 124.423 238.056 117.178C238.056 115.394 237.699 113.694 237.055 112.143L234.622 113.201Z" fill="#01D9C5"/>
<path d="M270.816 126.034C269.202 127.053 267.292 127.645 265.242 127.645C259.464 127.645 254.781 122.959 254.781 117.178C254.781 111.397 259.464 106.711 265.242 106.711C265.419 106.711 265.595 106.716 265.77 106.725V104.071C265.595 104.065 265.419 104.06 265.242 104.06C258.001 104.06 252.131 109.933 252.131 117.178C252.131 124.423 258.001 130.296 265.242 130.296C267.769 130.296 270.129 129.58 272.131 128.341L270.816 126.034Z" fill="#01D9C5"/>
<path d="M314.631 123.063C312.748 125.828 309.576 127.645 305.98 127.645C300.202 127.645 295.518 122.959 295.518 117.178C295.518 111.397 300.202 106.711 305.98 106.711C306.157 106.711 306.332 106.716 306.507 106.725V104.071C306.332 104.065 306.156 104.06 305.98 104.06C298.738 104.06 292.868 109.933 292.868 117.178C292.868 124.423 298.738 130.296 305.98 130.296C310.459 130.296 314.413 128.048 316.778 124.618L314.631 123.063Z" fill="#01D9C5"/>
<path opacity="0.5" d="M238.331 139.841H211.791C210.125 139.841 208.774 141.192 208.774 142.859C208.774 144.526 210.125 145.877 211.791 145.877H238.331C239.997 145.877 241.348 144.526 241.348 142.859C241.348 141.192 239.997 139.841 238.331 139.841Z" fill="white"/>
<path opacity="0.5" d="M278.809 139.841H252.268C250.602 139.841 249.252 141.192 249.252 142.859C249.252 144.526 250.602 145.877 252.268 145.877H278.809C280.475 145.877 281.825 144.526 281.825 142.859C281.825 141.192 280.475 139.841 278.809 139.841Z" fill="white"/>
<path opacity="0.5" d="M292.49 145.877H319.03C320.696 145.877 322.047 144.526 322.047 142.859C322.047 141.193 320.696 139.841 319.03 139.841H292.49C290.824 139.841 289.474 141.192 289.474 142.859C289.474 144.526 290.824 145.877 292.49 145.877Z" fill="white"/>
<path d="M92.5216 252.628C92.5216 252.628 83.1582 274.247 77.3961 271.364C71.6341 268.482 67.3125 244.701 67.3125 244.701C67.3125 244.701 85.319 240.377 92.5216 252.628Z" fill="url(#paint5_linear_372_1559)"/>
<path d="M59.9202 386.788C59.9202 386.788 59.1375 391.221 58.7538 395.61C58.6037 397.325 59.9255 398.815 61.6449 398.886C67.4866 399.13 79.9821 399.603 84.4659 399.403C85.14 399.373 85.5807 398.682 85.3314 398.055C85.1223 397.53 84.719 397.105 84.2055 396.868L63.565 387.377L59.9202 386.788Z" fill="#2C68F0"/>
<path d="M59.2793 384.182L59.9081 389.485C59.9081 389.485 63.5238 391.169 65.993 389.273L64.4956 383.363L59.2793 384.182Z" fill="url(#paint6_linear_372_1559)"/>
<path d="M59.7519 284.478C59.4803 285.863 58.2938 353.588 65.5295 383.939C65.6474 384.434 65.3965 384.944 64.9255 385.137C63.8158 385.591 61.6402 386.248 59.0327 386.335C58.2252 386.362 57.5012 385.837 57.2735 385.062C55.2051 378.02 45.2944 342.739 44.0015 309.036C42.5568 271.377 44.0015 307.754 44.0015 307.754L44.8486 284.475L59.7519 284.478Z" fill="#2C68F0"/>
<path d="M36.1775 389.099C36.1775 389.099 34.9314 391.337 33.7252 397.284C33.5074 398.359 34.2575 399.387 35.3476 399.494C37.2766 399.684 40.246 399.928 42.6247 399.911C43.7212 399.904 44.5769 398.948 44.4448 397.859C44.1814 395.689 43.3605 392.127 40.8248 389.35L36.1775 389.099Z" fill="#2C68F0"/>
<path d="M35.082 382.277L36.5516 390.297C36.5516 390.297 38.0045 391.379 40.8787 390.595L40.1774 381.966L35.082 382.277Z" fill="url(#paint7_linear_372_1559)"/>
<path d="M31.1121 286.557C25.1943 322.289 32.3957 374.873 34.8246 385.165C34.9733 385.795 35.4816 386.278 36.12 386.384C37.204 386.563 38.9888 386.71 40.7486 386.199C41.3548 386.023 41.7809 385.476 41.8056 384.844C42.1314 376.524 41.545 325.443 47.0589 305.255C47.3384 304.232 47.9628 303.34 48.8267 302.726L59.5291 295.113L60.3496 282.809L31.1121 286.557Z" fill="#2C68F0"/>
<path d="M69.4742 220.198C47.8664 218.036 31.52 223.507 31.52 223.507C26.2336 254.369 30.5956 289.965 30.5956 289.965C44.3252 293.567 59.8129 287.762 59.8129 287.762C62.0947 274.863 72.7417 238.56 72.7417 238.56C81.4068 237.484 74.9177 220.743 69.4742 220.198Z" fill="url(#paint8_linear_372_1559)"/>
<path d="M38.3209 240.69L31.5187 223.509C31.5187 223.509 14.9537 234.77 12.2295 249.048C15.3594 249.279 21.0548 250.093 26.6298 252.909C27.8547 246.168 38.3209 240.69 38.3209 240.69Z" fill="url(#paint9_linear_372_1559)"/>
<path d="M52.945 256.938C52.945 256.938 34.3466 267.454 28.0712 258.475C26.7683 256.61 26.4569 254.757 26.7779 252.99C21.2029 250.174 15.5076 249.359 12.3776 249.129C11.5562 253.433 11.9906 258.011 14.5185 262.638C25.5108 282.756 55.4063 261.526 55.4063 261.526L52.945 256.938Z" fill="url(#paint10_linear_372_1559)"/>
<path d="M52.0045 270.161L62.1549 234.695C62.2701 234.293 62.6133 233.999 63.0291 233.951C64.8682 233.736 70.197 233.133 76.3497 232.613C83.761 231.985 92.3674 231.477 97.5105 231.909C98.2415 231.971 98.6834 232.745 98.3582 233.403C95.4335 239.323 83.4036 263.403 77.3793 271.292C77.1797 271.553 76.871 271.706 76.5424 271.703L52.9922 271.484C52.3068 271.478 51.8159 270.82 52.0045 270.161Z" fill="url(#paint11_linear_372_1559)"/>
<path d="M77.4004 229.538L84.7596 228.312C85.1516 228.246 85.4726 228.621 85.3481 228.999L84.6194 231.207C84.556 231.4 84.3886 231.539 84.1878 231.566L77.1062 232.512C76.7398 232.561 76.4378 232.228 76.522 231.868L76.973 229.939C77.0215 229.732 77.19 229.574 77.4004 229.538Z" fill="url(#paint12_linear_372_1559)"/>
<path d="M71.8913 235.773L72.4976 232.613C72.5584 232.296 72.82 232.057 73.1408 232.024L88.0044 230.515C88.5047 230.464 88.9054 230.923 88.788 231.412L87.8429 235.349C87.7673 235.664 87.4933 235.892 87.1699 235.908L72.6451 236.639C72.172 236.663 71.8019 236.237 71.8913 235.773Z" fill="url(#paint13_linear_372_1559)"/>
<path d="M54.4557 261.593C54.4557 261.593 53.0418 255.776 53.6121 253.712C54.1824 251.648 55.2875 248.995 58.971 249.585C62.6544 250.174 66.9995 251.727 66.9995 251.727C66.9995 251.727 66.78 254.415 63.9804 253.548L65.7165 254.892C65.7165 254.892 65.4682 257.044 63.1036 255.894L64.7182 257.676C64.7182 257.676 63.7027 259.444 61.9631 258.31C60.2234 257.176 59.3892 262.294 54.4557 261.593Z" fill="url(#paint14_linear_372_1559)"/>
<path d="M92.1948 252.939C92.1948 252.939 96.4811 248.762 97.0938 246.71C97.7064 244.658 98.1788 241.823 94.745 240.365C91.3114 238.907 86.8057 237.913 86.8057 237.913C86.8057 237.913 85.5645 240.307 88.3967 241.06L86.2123 241.276C86.2123 241.276 85.2799 243.231 87.8937 243.514L85.5795 244.166C85.5795 244.166 85.5011 246.203 87.5772 246.167C89.6532 246.131 87.6428 250.91 92.1948 252.939Z" fill="url(#paint15_linear_372_1559)"/>
<path d="M53.0196 205.787L47.3766 222.114C47.2831 222.384 47.3943 222.684 47.6446 222.822C49.1828 223.673 54.7247 226.133 61.4028 221.896C62.0986 221.455 62.572 220.735 62.6779 219.918L64.5052 205.787H53.0196Z" fill="url(#paint16_linear_372_1559)"/>
<path d="M65.2965 190.668C65.2965 190.668 71.4928 202.339 70.6986 207.053C69.9044 211.767 62.2248 211.428 55.5189 207.6L50.833 194.999L65.2965 190.668Z" fill="url(#paint17_linear_372_1559)"/>
<path d="M55.814 201.41C56.0865 201.289 56.1871 200.956 56.0239 200.706C55.5274 199.948 54.5969 198.4 54.2999 197.044C54.2999 197.044 53.1859 196.33 57.1351 195.385C61.0842 194.439 66.9733 192.971 68.2111 189.608C69.4181 186.329 66.2472 178.083 61.1881 184.653C60.9956 184.903 60.6185 184.909 60.4263 184.658C59.5969 183.578 57.4166 181.337 54.3894 182.696C51.5565 183.968 51.2376 186.045 51.2765 187.091C51.2877 187.399 51.0127 187.639 50.71 187.581C49.2778 187.308 45.8408 187.073 44.2367 190.6C42.9152 193.506 43.7741 195.151 44.5562 195.955C44.8097 196.216 44.6987 196.645 44.3512 196.752C43.41 197.04 42.1943 197.838 42.3161 200.045C42.4843 203.095 45.893 202.827 46.8635 202.687C47.0227 202.665 47.1827 202.719 47.2904 202.838C48.1225 203.76 51.8717 207.672 55.9296 208.143C56.281 208.184 56.5532 207.837 56.4382 207.503L54.682 202.395C54.6006 202.158 54.714 201.898 54.9433 201.796L55.814 201.41Z" fill="url(#paint18_linear_372_1559)"/>
<path d="M56.5208 202.136C56.5208 202.136 52.109 199.107 51.7867 201.658C51.4643 204.208 55.7595 205.352 57.887 204.401L56.5208 202.136Z" fill="url(#paint19_linear_372_1559)"/>
<path d="M379.978 336.884C381.432 323.78 376.102 309.016 373.188 295.337C371.648 288.105 370.781 280.901 371.656 273.517C372.526 266.176 375.635 258.149 372.185 251.008C365.234 236.621 350.37 243.891 342.145 255.262C332.6 268.456 330.688 289.468 327.513 305.716C325.599 315.511 322.529 325.603 321.71 335.539C320.354 351.999 324.511 363.222 332.65 370.588C340.457 377.652 351.958 378.721 360.941 373.232C369.056 368.274 377.632 358.024 379.978 336.884Z" fill="#2C68F0"/>
<path d="M347.614 398.534C347.513 398.488 347.434 398.396 347.409 398.278C345.988 391.5 343.048 372.889 342.101 350.968C341.406 334.877 341.831 319.322 343.366 304.735C345.285 286.495 348.953 269.724 354.269 254.889C354.337 254.7 354.545 254.602 354.734 254.669C354.924 254.736 355.021 254.945 354.953 255.134C349.658 269.913 346.003 286.624 344.09 304.803C342.558 319.352 342.134 334.869 342.827 350.922C343.771 372.798 346.702 391.367 348.121 398.129C348.162 398.325 348.036 398.518 347.84 398.559C347.761 398.576 347.683 398.565 347.614 398.534Z" fill="url(#paint20_linear_372_1559)"/>
<path d="M399.835 357.254C400.807 348.496 397.245 338.629 395.298 329.487C394.268 324.654 393.689 319.839 394.273 314.904C394.855 309.998 396.933 304.634 394.627 299.861C389.982 290.246 380.048 295.105 374.551 302.704C368.172 311.522 366.894 325.565 364.772 336.424C363.493 342.97 361.441 349.714 360.894 356.355C359.987 367.355 362.766 374.856 368.205 379.779C373.422 384.5 381.109 385.214 387.113 381.546C392.536 378.232 398.268 371.382 399.835 357.254Z" fill="#457CF6"/>
<path d="M378.209 398.454C378.141 398.423 378.088 398.361 378.072 398.282C377.121 393.752 375.157 381.314 374.524 366.664C374.059 355.91 374.344 345.515 375.369 335.766C376.652 323.575 379.103 312.367 382.656 302.453C382.701 302.326 382.841 302.261 382.967 302.306C383.094 302.35 383.159 302.49 383.113 302.617C379.574 312.493 377.131 323.661 375.853 335.811C374.829 345.535 374.546 355.905 375.009 366.634C375.64 381.254 377.599 393.663 378.547 398.183C378.574 398.314 378.49 398.443 378.359 398.47C378.306 398.481 378.254 398.474 378.209 398.454Z" fill="url(#paint21_linear_372_1559)"/>
<defs>
<linearGradient id="paint0_linear_372_1559" x1="204.824" y1="268.89" x2="191.769" y2="462.451" gradientUnits="userSpaceOnUse">
<stop stop-color="#152F6C"/>
<stop offset="1" stop-color="#2E4A8B"/>
</linearGradient>
<linearGradient id="paint1_linear_372_1559" x1="207.575" y1="367.98" x2="206.927" y2="422.478" gradientUnits="userSpaceOnUse">
<stop stop-color="#152F6C"/>
<stop offset="1" stop-color="#2E4A8B"/>
</linearGradient>
<linearGradient id="paint2_linear_372_1559" x1="226.399" y1="7.89759" x2="192.747" y2="580.845" gradientUnits="userSpaceOnUse">
<stop stop-color="#152F6C"/>
<stop offset="1" stop-color="#2E4A8B"/>
</linearGradient>
<linearGradient id="paint3_linear_372_1559" x1="275.944" y1="173.085" x2="275.944" y2="249.254" gradientUnits="userSpaceOnUse">
<stop stop-color="#00FFE8"/>
<stop offset="1" stop-color="#00CFBC"/>
</linearGradient>
<linearGradient id="paint4_linear_372_1559" x1="275.687" y1="89.0229" x2="275.687" y2="160.548" gradientUnits="userSpaceOnUse">
<stop stop-color="#00FFE8"/>
<stop offset="1" stop-color="#00CFBC"/>
</linearGradient>
<linearGradient id="paint5_linear_372_1559" x1="67.3124" y1="257.795" x2="92.5216" y2="257.795" gradientUnits="userSpaceOnUse">
<stop stop-color="#FEBBBA"/>
<stop offset="1" stop-color="#FF928E"/>
</linearGradient>
<linearGradient id="paint6_linear_372_1559" x1="59.2792" y1="386.769" x2="65.993" y2="386.769" gradientUnits="userSpaceOnUse">
<stop stop-color="#FEBBBA"/>
<stop offset="1" stop-color="#FF928E"/>
</linearGradient>
<linearGradient id="paint7_linear_372_1559" x1="35.082" y1="386.423" x2="40.8786" y2="386.423" gradientUnits="userSpaceOnUse">
<stop stop-color="#FEBBBA"/>
<stop offset="1" stop-color="#FF928E"/>
</linearGradient>
<linearGradient id="paint8_linear_372_1559" x1="52.9349" y1="219.692" x2="52.9349" y2="291.143" gradientUnits="userSpaceOnUse">
<stop stop-color="#00FFE8"/>
<stop offset="1" stop-color="#00CFBC"/>
</linearGradient>
<linearGradient id="paint9_linear_372_1559" x1="33.9986" y1="228.119" x2="28.4932" y2="252.13" gradientUnits="userSpaceOnUse">
<stop stop-color="#00FFE8"/>
<stop offset="1" stop-color="#00CFBC"/>
</linearGradient>
<linearGradient id="paint10_linear_372_1559" x1="12" y1="260.214" x2="55.4061" y2="260.214" gradientUnits="userSpaceOnUse">
<stop stop-color="#FEBBBA"/>
<stop offset="1" stop-color="#FF928E"/>
</linearGradient>
<linearGradient id="paint11_linear_372_1559" x1="60.5326" y1="217.231" x2="79.5523" y2="261.831" gradientUnits="userSpaceOnUse">
<stop stop-color="#09005D"/>
<stop offset="1" stop-color="#1A0F91"/>
</linearGradient>
<linearGradient id="paint12_linear_372_1559" x1="84.7736" y1="213.573" x2="79.6855" y2="235.905" gradientUnits="userSpaceOnUse">
<stop stop-color="#09005D"/>
<stop offset="1" stop-color="#1A0F91"/>
</linearGradient>
<linearGradient id="paint13_linear_372_1559" x1="82.1145" y1="222.942" x2="79.681" y2="237.535" gradientUnits="userSpaceOnUse">
<stop stop-color="#09005D"/>
<stop offset="1" stop-color="#1A0F91"/>
</linearGradient>
<linearGradient id="paint14_linear_372_1559" x1="53.4765" y1="255.58" x2="66.9994" y2="255.58" gradientUnits="userSpaceOnUse">
<stop stop-color="#FEBBBA"/>
<stop offset="1" stop-color="#FF928E"/>
</linearGradient>
<linearGradient id="paint15_linear_372_1559" x1="96.2169" y1="248.365" x2="84.7565" y2="241.183" gradientUnits="userSpaceOnUse">
<stop stop-color="#FEBBBA"/>
<stop offset="1" stop-color="#FF928E"/>
</linearGradient>
<linearGradient id="paint16_linear_372_1559" x1="47.3438" y1="215.047" x2="64.5053" y2="215.047" gradientUnits="userSpaceOnUse">
<stop stop-color="#FEBBBA"/>
<stop offset="1" stop-color="#FF928E"/>
</linearGradient>
<linearGradient id="paint17_linear_372_1559" x1="68.5858" y1="204.125" x2="49.7116" y2="192.619" gradientUnits="userSpaceOnUse">
<stop stop-color="#FEBBBA"/>
<stop offset="1" stop-color="#FF928E"/>
</linearGradient>
<linearGradient id="paint18_linear_372_1559" x1="39.7274" y1="180.471" x2="64.1137" y2="199.722" gradientUnits="userSpaceOnUse">
<stop stop-color="#09005D"/>
<stop offset="1" stop-color="#1A0F91"/>
</linearGradient>
<linearGradient id="paint19_linear_372_1559" x1="63.6293" y1="208.419" x2="46.648" y2="198.067" gradientUnits="userSpaceOnUse">
<stop stop-color="#FEBBBA"/>
<stop offset="1" stop-color="#FF928E"/>
</linearGradient>
<linearGradient id="paint20_linear_372_1559" x1="486.945" y1="178.146" x2="424.596" y2="246.259" gradientUnits="userSpaceOnUse">
<stop stop-color="#09005D"/>
<stop offset="1" stop-color="#1A0F91"/>
</linearGradient>
<linearGradient id="paint21_linear_372_1559" x1="426.631" y1="87.7058" x2="392.269" y2="279.862" gradientUnits="userSpaceOnUse">
<stop stop-color="#4F52FF"/>
<stop offset="1" stop-color="#4042E2"/>
</linearGradient>
</defs>
</svg>
