<svg width="400" height="400" viewBox="0 0 400 400" fill="none" xmlns="http://www.w3.org/2000/svg">
<path d="M383.234 270.232C344.425 360.757 241.048 411.469 151.4 397.79C136.812 395.564 96.8196 388.933 61.4118 357.652C-6.75061 297.433 -21.3276 178.191 33.6569 94.1588C73.6759 32.998 145.414 -1.67205 213.58 0.0620901C228.262 0.435662 284.533 2.73781 333.985 43.1341C341.249 49.0675 357.269 63.1669 371.708 85.5348C405.612 138.059 408.526 211.236 383.234 270.232Z" fill="#D9F4FF"/>
<path d="M382.925 19.768C388.737 22.896 394.273 27.44 395.829 31.915C402.85 52.1025 381.06 74.255 371.896 89.933C356.152 116.867 346.423 147.599 347.394 178.982C348.446 212.987 346.709 245.953 336.159 278.653C330.724 295.499 322.214 312.862 308.371 324.531C282.212 346.574 231.447 322.169 226.838 291.027C223.162 266.191 231.286 241.448 241.791 219.294C259.462 182.026 283.01 147.924 300.914 110.784C314.605 82.3842 322.857 22.2383 360.662 15.7706C367.576 14.5878 376.759 16.4495 382.925 19.768Z" fill="#20BDFF"/>
<path d="M260.666 378.561C260.681 378.561 260.695 378.561 260.71 378.561C261.389 378.538 261.921 377.971 261.899 377.293C260.387 330.657 265.474 283.449 277.018 236.981C286.255 199.801 299.623 163.007 316.751 127.624C345.909 67.3897 376.234 31.7123 376.537 31.3587C376.978 30.8436 376.918 30.0681 376.402 29.627C375.887 29.185 375.11 29.2457 374.669 29.7609C374.363 30.1164 343.831 66.037 314.537 126.554C297.335 162.091 283.909 199.045 274.631 236.389C263.032 283.077 257.922 330.511 259.441 377.373C259.463 378.036 260.007 378.56 260.666 378.561Z" fill="#80D9FF"/>
<path d="M182.426 230.464C171.578 201.775 144.893 176.821 124.373 151.559C113.523 138.202 104.101 124.192 98.104 107.967C92.1416 91.8355 90.102 71.9155 75.386 60.7672C45.7367 38.3092 22.582 69.0914 17.5426 101.349C11.6944 138.782 29.9598 184.341 40.5625 221.365C46.9545 243.685 51.2601 267.842 60.0749 289.295C74.6775 324.835 95.1804 343.693 119.865 350.348C143.542 356.731 168.541 346.782 181.378 325.91C192.974 307.054 199.925 276.747 182.426 230.464Z" fill="#80D9FF"/>
<path d="M180.555 393.761C179.887 393.79 179.215 393.514 178.763 392.954C178.47 392.59 149.064 355.966 117.565 300.36C88.4787 249.009 51.5834 170.472 40.9945 87.9288C40.8416 86.7378 41.6842 85.6484 42.876 85.4961C44.0733 85.3261 45.1583 86.1851 45.3114 87.3755C65.4084 244.035 180.987 388.781 182.152 390.225C182.907 391.159 182.76 392.528 181.824 393.282C181.448 393.585 181.003 393.741 180.555 393.761Z" fill="#20BDFF"/>
<path d="M182.475 399.352H265.712C266.604 399.352 267.327 398.63 267.327 397.739V314.594C267.327 313.703 266.604 312.98 265.712 312.98H182.475C181.583 312.98 180.86 313.703 180.86 314.594V397.739C180.86 398.63 181.583 399.352 182.475 399.352Z" fill="#2C68F0"/>
<path d="M146.058 313.725H229.563C230.381 313.725 231.044 313.063 231.044 312.246V228.833C231.044 228.016 230.381 227.354 229.563 227.354H146.058C145.24 227.354 144.577 228.016 144.577 228.833V312.246C144.577 313.063 145.24 313.725 146.058 313.725Z" fill="#04D0BE"/>
<path d="M166.223 230.516H249.056C250.06 230.516 250.873 229.703 250.873 228.701V145.959C250.873 144.956 250.06 144.144 249.056 144.144H166.223C165.22 144.144 164.406 144.956 164.406 145.959V228.701C164.406 229.703 165.22 230.516 166.223 230.516Z" fill="#2C68F0"/>
<path d="M269.431 106.539C269.431 106.539 270.666 160.248 327.201 169.667L337.35 159.658C337.35 159.658 288.395 143.032 275.652 108.286L278.374 89.8588L276.455 77.6641L269.431 106.539Z" fill="url(#paint0_linear_372_1225)"/>
<path d="M222.224 87.3732H306.04C306.772 87.3732 307.365 86.7805 307.365 86.0495V2.32518C307.365 1.59404 306.772 1.00146 306.04 1.00146H222.224C221.492 1.00146 220.898 1.59418 220.898 2.32518V86.0493C220.898 86.7805 221.492 87.3732 222.224 87.3732Z" fill="#2C68F0"/>
<path d="M324.091 290.559C324.091 290.559 350.913 348.955 364.986 373.143C364.986 373.143 367.781 388.362 364.986 393.148L362.604 394.205L373.721 393.875C373.721 393.875 374.708 373.403 373.937 372.26C373.166 371.116 371.623 371.191 371.623 371.191C371.623 371.191 366.856 333.467 353.051 325.416L339.673 279.387L324.091 290.559Z" fill="url(#paint1_linear_372_1225)"/>
<path d="M357.855 397.072C357.839 397.34 366.536 397.218 371.261 397.131C373.005 397.1 374.492 395.875 374.864 394.172L378.432 375.448C378.771 373.669 377.64 371.94 375.872 371.537L373.881 371.082C373.881 371.082 371.04 374.975 371.934 378.64C372.829 382.305 373.624 391.799 371.364 392.906C369.104 394.012 362.603 394.205 362.603 394.205C362.603 394.205 358.004 394.661 357.855 397.072Z" fill="#2C68F0"/>
<path d="M298.665 397.412C297.786 397.913 298.149 399.254 299.161 399.244C307.067 399.165 324.784 398.915 326.358 398.261C328.39 397.417 325.617 390.121 322.699 387.652L306.584 392.906L298.665 397.412Z" fill="#2C68F0"/>
<path d="M293.664 286.835C293.664 286.835 310.997 370.596 315.901 386.935L304.301 394.206C304.301 394.206 310.114 393.218 314.424 392.906C318.735 392.594 322.7 387.652 322.7 387.652L321.31 385.438C321.31 385.438 316.963 302.134 318.021 292.675L293.664 286.835Z" fill="url(#paint2_linear_372_1225)"/>
<path d="M250.638 91.4638C250.638 91.4638 248.247 135.035 287.959 157.3L278.398 179.082C278.398 179.082 242.444 157.359 243.774 98.1109C243.812 96.4106 243.198 94.7595 242.086 93.4712L234.445 84.6159C231.533 81.242 230.445 76.6652 231.528 72.344L232.533 68.3279C232.87 66.9835 234.403 66.3365 235.603 67.0325L236.402 67.4962C238.946 68.972 240.961 71.2095 242.163 73.892L245.915 82.2703C247.316 85.3999 250.548 87.3 253.967 87.005L256.287 86.805L250.638 91.4638Z" fill="url(#paint3_linear_372_1225)"/>
<path d="M286.578 154.035C293.222 155.876 315.73 161.79 329.782 161.549L321.154 210.181L321.841 218.113L293.712 217.987C293.712 217.987 285.793 199.617 279.546 190.459C277.741 187.814 279.084 184.659 280.107 181.625L278.702 180.691C277.272 179.74 276.652 177.954 277.186 176.323L284.036 155.388C284.391 154.333 285.504 153.738 286.578 154.035Z" fill="url(#paint4_linear_372_1225)"/>
<path d="M291.457 213.837L292.011 218.642C292.011 218.642 284.062 242.422 295.985 297.963C295.985 297.963 321.81 305.271 343.035 287.784C343.035 287.784 337.047 235.362 335.412 232.92C327.267 220.758 321.84 218.114 321.84 218.114L321.595 212.864C321.595 212.864 298.894 216.963 291.457 213.837Z" fill="url(#paint5_linear_372_1225)"/>
<path d="M302.466 157.955C302.367 157.825 308.339 139.947 308.339 139.947L316.892 140.722L320.233 161.004C320.233 161.004 306.828 163.707 302.466 157.955Z" fill="url(#paint6_linear_372_1225)"/>
<path d="M314.847 111.754C314.276 112.109 296.57 119.419 300.374 137.781C300.599 138.866 301.324 139.786 302.337 140.237C304.935 141.395 310.529 143.378 317.22 142.698C326.496 141.757 332.574 125.588 332.315 120.883C332.057 116.178 320.499 108.239 314.847 111.754Z" fill="url(#paint7_linear_372_1225)"/>
<path d="M320.236 104.614C319.77 104.675 310.003 108.073 314.847 115.143C319.69 122.212 321.507 126.374 319.216 129.478C317.129 132.307 312.506 130.695 312.909 136.579C312.99 137.757 312.48 138.9 311.501 139.562C307.144 142.508 296.515 151.576 307.046 164.507C307.902 165.558 308.078 167.009 307.418 168.193C304.334 173.719 297.854 189.909 321.311 198.89C344.49 207.764 352.859 192.629 355.198 186.579C355.703 185.271 356.993 184.47 358.396 184.536C360.942 184.656 364.552 184.233 364.386 180.833C364.285 178.768 362.995 176.917 361.471 175.433C359.962 173.965 360.26 171.394 362.092 170.354C363.475 169.569 364.7 168.343 365.217 166.43C366.621 161.23 363.817 145.683 348.898 143.049C347.654 142.829 346.351 141.664 346.17 140.414C346.167 140.396 346.164 140.377 346.161 140.358C345.961 139.15 346.37 137.915 347.359 137.19C349.741 135.445 352.796 131.931 350.315 126.295C348.114 121.296 343.893 119.61 340.758 119.073C338.917 118.758 337.707 117.019 338.095 115.194C339.153 110.221 338.231 102.257 320.236 104.614Z" fill="url(#paint8_linear_372_1225)"/>
<path d="M22.2633 383.589C22.2633 383.589 19.9243 387.272 19.3358 397.583C19.281 398.544 20.0428 399.363 21.0062 399.363H39.2996C40.0356 399.363 40.5609 398.642 40.3253 397.945C39.2532 394.776 36.0121 387.049 28.78 382.634L22.2633 383.589Z" fill="url(#paint9_linear_372_1225)"/>
<path d="M21.4678 376.6L22.5025 385.267C22.5917 386.014 23.1784 386.613 23.9272 386.699C24.9277 386.814 26.382 386.895 27.7953 386.662C29.08 386.451 30.0046 385.308 30.0046 384.007V375.64L21.4678 376.6Z" fill="url(#paint10_linear_372_1225)"/>
<path d="M67.5243 382.634C67.5243 382.634 64.0231 388.07 64.0979 395.533C64.1155 397.29 65.5886 398.69 67.3484 398.69H95.76C97.0904 398.69 97.6305 396.983 96.5417 396.219C91.1656 392.448 80.5985 385.403 72.9556 382.634L67.5243 382.634Z" fill="url(#paint11_linear_372_1225)"/>
<path d="M64.5986 373.275L66.8055 383.978C67.0525 385.175 68.2246 385.98 69.4189 385.714C70.145 385.552 71.0015 385.242 71.9167 384.67C72.7865 384.127 73.2272 383.093 73.0495 382.084L70.7667 369.117L64.5986 373.275Z" fill="url(#paint12_linear_372_1225)"/>
<path d="M27.8288 221.083C27.8288 221.083 17.8474 231.221 16.4034 239.352C14.9593 247.482 20.4949 379.629 20.4949 379.629C20.4949 379.629 28.1682 380.904 32.1238 378.51C32.1238 378.51 36.8153 292.748 40.3815 272.93C40.3815 272.93 59.083 361.769 64.2648 377.821C64.2648 377.821 71.6574 378.719 74.0411 377.314C74.0411 377.314 69.5897 260.014 63.434 239.54L27.8288 221.083Z" fill="url(#paint13_linear_372_1225)"/>
<path d="M99.2448 139.922C67.2565 134.69 58.3096 140.676 58.3096 140.676L71.8383 166.311C71.8383 166.311 103.529 168.204 127.593 152.553C123.714 147.651 121.169 142.372 119.592 138.293C113.552 140.255 106.707 141.143 99.2448 139.922Z" fill="#2C68F0"/>
<path d="M153.439 96.7176C153.478 95.6835 152.102 95.2918 151.589 96.1911L146.782 104.622C145.853 106.252 145.447 108.126 145.62 109.993L146.654 115.205C146.887 117.726 146.034 120.221 144.299 122.066C140.148 126.48 131.42 134.451 119.595 138.292C121.171 142.37 123.716 147.649 127.595 152.551C136.425 146.809 144.229 138.707 149.062 127.279C150.975 126.854 152.363 125.198 152.444 123.242L153.439 96.7176Z" fill="url(#paint14_linear_372_1225)"/>
<path d="M98.3359 143.607C84.4938 134.243 62.1424 133.733 49.4116 134.344C43.8342 134.612 39.2469 138.807 38.5302 144.339C36.4524 160.374 30.3972 202.243 29.0278 209.516C28.2959 213.402 23.6503 222.542 26.1498 225.987C27.0539 227.233 28.5131 227.934 29.9221 228.557C34.001 230.36 38.18 231.926 42.3564 233.491C45.4803 234.661 48.6041 235.831 51.728 237.002C55.8851 238.559 62.9945 241.513 66.7626 237.999C70.5231 234.492 70.5582 228.419 71.9502 223.816C73.2064 219.662 74.6286 215.551 75.9665 211.423C79.3919 200.853 82.8173 190.283 86.2427 179.713C86.3879 179.265 88.7817 172.952 88.4981 172.754C110.742 188.268 126.659 186.477 137.574 179.433C134.139 173.714 131.394 167.824 129.328 161.764C111.038 162.821 98.3359 143.607 98.3359 143.607Z" fill="#2C68F0"/>
<path d="M157.642 151.753L153.487 148.259C144.842 157.686 136.637 161.344 129.325 161.766C131.391 167.825 134.136 173.715 137.571 179.434C151.949 170.154 157.642 151.753 157.642 151.753Z" fill="url(#paint15_linear_372_1225)"/>
<path d="M155.419 152.347L173.468 148.909L187.808 135.914C185.101 134.98 172.434 141.096 172.434 141.096C172.434 141.096 157.97 142.215 154.187 143.084C151.044 143.806 152.538 148.215 153.135 149.688C153.257 149.989 153.341 150.167 153.341 150.167L155.419 152.347Z" fill="url(#paint16_linear_372_1225)"/>
<path d="M61.1402 108.558L57.0322 133.744C57.0322 133.744 69.6129 138.734 78.1717 136.004L78.0895 114.23L61.1402 108.558Z" fill="url(#paint17_linear_372_1225)"/>
<path d="M73.4487 89.1904C73.7358 89.4464 85.8744 111.776 85.8744 111.776L72.9632 118.428L58.3105 98.9718C58.3105 98.9718 68.6437 84.906 73.4487 89.1904Z" fill="url(#paint18_linear_372_1225)"/>
<path d="M64.2421 101.072L71.1525 111.917C71.2412 112.056 71.3453 112.18 71.4683 112.29C72.221 112.963 74.9807 115.089 76.9859 112.136C78.8054 109.456 80.5056 107.038 82.4066 106.231C83.26 105.868 84.2475 106.211 84.6898 107.026C85.7922 109.055 88.1915 113.673 89.6633 118.003C89.9619 118.882 89.5285 119.838 88.6785 120.213C86.1169 121.34 80.6481 123.567 75.8282 124.33C75.1751 124.433 74.5204 124.178 74.1168 123.655C72.149 121.105 66.1393 113.375 64.1311 111.48C62.2462 109.701 58.833 110.552 57.4253 111.011C56.9638 111.162 56.4654 111.117 56.0375 110.888C54.5253 110.078 51.4811 107.82 54.0676 103.678C54.6089 102.811 54.3268 101.679 53.4428 101.165C51.6829 100.141 49.579 98.0908 51.2956 94.5477C53.0402 90.9464 56.3836 90.6825 58.5305 90.9465C59.3988 91.0531 60.1936 90.5134 60.4592 89.681C60.6105 89.207 60.9695 88.7918 61.7338 88.6831C62.7636 88.5364 63.4176 87.4984 63.1649 86.4905C62.6795 84.554 62.8072 81.9361 65.9411 80.1055C71.5019 76.8574 76.5785 81.7764 77.9484 86.006C79.3182 90.2355 73.0888 93.415 69.1335 94.0225C66.1262 94.4847 64.6093 97.9188 64.055 99.5384C63.879 100.052 63.9506 100.614 64.2421 101.072Z" fill="url(#paint19_linear_372_1225)"/>
<path d="M66.6846 115.404C66.6846 115.404 63.981 108.136 60.7762 108.491C57.5716 108.845 55.1283 112.108 59.2041 115.596C64.2739 119.934 66.6846 115.404 66.6846 115.404Z" fill="url(#paint20_linear_372_1225)"/>
<path d="M132.041 141.753H215.857C216.589 141.753 217.182 141.16 217.182 140.429V56.7051C217.182 55.9739 216.589 55.3813 215.857 55.3813H132.041C131.309 55.3813 130.716 55.9741 130.716 56.7051V140.429C130.716 141.16 131.309 141.753 132.041 141.753Z" fill="#04D0BE"/>
<path d="M252.617 13.3938C252.617 9.70525 255.416 6.62968 259.09 6.25154C260.86 6.06925 262.771 5.95239 264.61 5.95239C270.161 5.95239 273.042 6.62368 275.817 8.63825C278.802 10.7491 281.211 15.45 281.211 22.3573C281.211 27.8258 279.536 33.0063 275.241 35.7884V35.9803C279.64 38.0907 282.416 43.847 282.416 51.9055C282.416 58.2377 280.583 63.2263 278.017 66.4881C275.189 69.9417 270.58 71.9563 262.725 71.9563C261.492 71.9563 260.355 71.9185 259.314 71.853C255.542 71.6151 252.617 68.4668 252.617 64.6921V13.3938ZM262.41 30.9915H264.505C269.114 30.9915 271.209 28.6888 271.209 24.6598C271.209 21.014 269.48 18.9035 265.972 18.9035C264.086 18.9035 263.091 19.0954 262.41 19.2873L262.41 30.9915ZM262.41 58.6213C263.196 58.8131 264.139 58.8131 265.605 58.8131C269.062 58.8131 271.942 56.6064 271.942 50.9464C271.942 45.4778 268.957 43.6551 264.977 43.6551H262.41V58.6213Z" fill="white"/>
<path d="M155.432 70.6444C155.432 68.2147 157.217 66.1611 159.622 65.8035C161.958 65.4563 164.755 65.2241 167.896 65.2241C173.814 65.2241 177.742 66.7587 180.465 70.3085C182.717 73.2825 184.131 77.9834 184.131 84.507C184.131 93.1414 180.308 98.6095 177.846 100.049V100.432C180.203 102.255 181.512 106.476 182.507 111.849C183.235 115.847 183.962 120.895 184.574 124.816C185.037 127.783 182.742 130.46 179.736 130.46H179.421C177.09 130.46 175.078 128.821 174.621 126.538C174.121 124.038 173.513 120.5 172.819 115.686C171.719 107.915 170.305 106.38 167.005 106.38H165.225V125.569C165.225 128.271 163.033 130.46 160.328 130.46C157.624 130.46 155.432 128.271 155.432 125.569L155.432 70.6444ZM165.225 93.6211H168.158C172.033 93.6211 174.337 90.743 174.337 85.8503C174.337 80.9575 172.347 78.4631 168.996 78.4631C166.796 78.4631 165.749 78.655 165.225 78.8468V93.6211Z" fill="white"/>
<path d="M201.737 205.633L200.197 216.018C199.969 217.554 198.648 218.692 197.093 218.692H193.107C191.16 218.692 189.683 216.939 190.016 215.023L200.164 156.629C200.425 155.127 201.729 154.031 203.254 154.031H211.51C213.026 154.031 214.324 155.113 214.596 156.603L225.258 214.997C225.609 216.921 224.13 218.692 222.172 218.692H217.607C216.067 218.692 214.755 217.576 214.51 216.057L212.823 205.594C212.578 204.075 211.266 202.959 209.726 202.959H204.84C203.285 202.959 201.965 204.097 201.737 205.633ZM207.183 189.719C209.119 189.719 210.593 187.984 210.278 186.076L208.994 178.303C208.501 175.44 207.942 171.926 207.421 168.737C207.348 168.292 206.706 168.297 206.642 168.744C206.239 171.538 205.598 175.964 205.223 178.399L204.079 186.128C203.799 188.02 205.268 189.719 207.183 189.719Z" fill="white"/>
<path d="M171.223 300.302L171.297 241.908C171.299 240.179 172.703 238.778 174.434 238.778H181.402C182.776 238.778 183.99 239.672 184.398 240.983L189.526 257.486C191.397 263.466 193.233 270.572 194.821 277.649C194.93 278.135 195.647 278.047 195.634 277.549C195.479 271.785 195.234 261.702 195.234 255.663V241.912C195.234 240.181 196.638 238.778 198.371 238.778H201.258C202.992 238.778 204.397 240.183 204.395 241.915L204.321 300.31C204.319 302.039 202.915 303.439 201.184 303.439H195.823C194.432 303.439 193.206 302.524 192.813 301.191L187.169 282.045C185.214 275.548 183.061 268.111 181.191 260.487C181.075 260.013 180.377 260.097 180.379 260.585C180.409 266.609 180.466 278.814 180.466 285.979L180.398 300.32C180.39 302.045 178.988 303.439 177.261 303.439H174.36C172.625 303.439 171.221 302.034 171.223 300.302Z" fill="white"/>
<path d="M207.898 327.466C207.898 325.957 208.976 324.668 210.46 324.385C213.401 323.824 216.825 323.543 220.31 323.543C227.747 323.543 232.303 325.558 236.179 330.067C240.316 334.863 243.196 342.73 243.196 354.53C243.196 367.961 240.159 376.116 236.702 380.913C232.355 386.957 225.809 389.547 218.373 389.547C215.011 389.547 212.447 389.31 210.53 388.988C209.013 388.733 207.898 387.431 207.898 385.895V327.466ZM217.796 375.444C218.372 375.636 219.368 375.636 220.101 375.636C227.328 375.828 232.617 369.593 232.617 355.49C232.617 342.634 227.642 337.262 221.253 337.262C219.42 337.262 218.32 337.55 217.797 337.742V375.444H217.796Z" fill="white"/>
<defs>
<linearGradient id="paint0_linear_372_1225" x1="279.145" y1="75.3792" x2="310.872" y2="157.104" gradientUnits="userSpaceOnUse">
<stop stop-color="#FEBBBA"/>
<stop offset="1" stop-color="#FF928E"/>
</linearGradient>
<linearGradient id="paint1_linear_372_1225" x1="324.091" y1="336.796" x2="374.232" y2="336.796" gradientUnits="userSpaceOnUse">
<stop stop-color="#FEBBBA"/>
<stop offset="1" stop-color="#FF928E"/>
</linearGradient>
<linearGradient id="paint2_linear_372_1225" x1="293.664" y1="340.521" x2="322.7" y2="340.521" gradientUnits="userSpaceOnUse">
<stop stop-color="#FEBBBA"/>
<stop offset="1" stop-color="#FF928E"/>
</linearGradient>
<linearGradient id="paint3_linear_372_1225" x1="231.117" y1="122.916" x2="287.96" y2="122.916" gradientUnits="userSpaceOnUse">
<stop stop-color="#FEBBBA"/>
<stop offset="1" stop-color="#FF928E"/>
</linearGradient>
<linearGradient id="paint4_linear_372_1225" x1="303.389" y1="153.959" x2="303.389" y2="218.113" gradientUnits="userSpaceOnUse">
<stop stop-color="#00FFE8"/>
<stop offset="1" stop-color="#00CFBC"/>
</linearGradient>
<linearGradient id="paint5_linear_372_1225" x1="373.287" y1="209.964" x2="336.014" y2="309.498" gradientUnits="userSpaceOnUse">
<stop stop-color="#152F6C"/>
<stop offset="1" stop-color="#2E4A8B"/>
</linearGradient>
<linearGradient id="paint6_linear_372_1225" x1="302.465" y1="150.793" x2="320.233" y2="150.793" gradientUnits="userSpaceOnUse">
<stop stop-color="#FEBBBA"/>
<stop offset="1" stop-color="#FF928E"/>
</linearGradient>
<linearGradient id="paint7_linear_372_1225" x1="330.707" y1="127.857" x2="460.035" y2="136.661" gradientUnits="userSpaceOnUse">
<stop stop-color="#FEBBBA"/>
<stop offset="1" stop-color="#FF928E"/>
</linearGradient>
<linearGradient id="paint8_linear_372_1225" x1="401.085" y1="100.927" x2="360.533" y2="214.047" gradientUnits="userSpaceOnUse">
<stop stop-color="#152F6C"/>
<stop offset="1" stop-color="#2E4A8B"/>
</linearGradient>
<linearGradient id="paint9_linear_372_1225" x1="52.2585" y1="382.074" x2="48.3525" y2="403.274" gradientUnits="userSpaceOnUse">
<stop stop-color="#152F6C"/>
<stop offset="1" stop-color="#2E4A8B"/>
</linearGradient>
<linearGradient id="paint10_linear_372_1225" x1="21.4678" y1="381.226" x2="30.0047" y2="381.226" gradientUnits="userSpaceOnUse">
<stop stop-color="#FEBBBA"/>
<stop offset="1" stop-color="#FF928E"/>
</linearGradient>
<linearGradient id="paint11_linear_372_1225" x1="115.758" y1="382.096" x2="113.417" y2="402.871" gradientUnits="userSpaceOnUse">
<stop stop-color="#152F6C"/>
<stop offset="1" stop-color="#2E4A8B"/>
</linearGradient>
<linearGradient id="paint12_linear_372_1225" x1="64.5986" y1="377.441" x2="73.0884" y2="377.441" gradientUnits="userSpaceOnUse">
<stop stop-color="#FEBBBA"/>
<stop offset="1" stop-color="#FF928E"/>
</linearGradient>
<linearGradient id="paint13_linear_372_1225" x1="106.697" y1="215.764" x2="12.3962" y2="363.941" gradientUnits="userSpaceOnUse">
<stop stop-color="#152F6C"/>
<stop offset="1" stop-color="#2E4A8B"/>
</linearGradient>
<linearGradient id="paint14_linear_372_1225" x1="124.931" y1="146.456" x2="194.459" y2="55.0998" gradientUnits="userSpaceOnUse">
<stop stop-color="#FEBBBA"/>
<stop offset="1" stop-color="#FF928E"/>
</linearGradient>
<linearGradient id="paint15_linear_372_1225" x1="146.08" y1="143.614" x2="167.275" y2="36.0761" gradientUnits="userSpaceOnUse">
<stop stop-color="#FEBBBA"/>
<stop offset="1" stop-color="#FF928E"/>
</linearGradient>
<linearGradient id="paint16_linear_372_1225" x1="168.572" y1="148.047" x2="189.766" y2="40.512" gradientUnits="userSpaceOnUse">
<stop stop-color="#FEBBBA"/>
<stop offset="1" stop-color="#FF928E"/>
</linearGradient>
<linearGradient id="paint17_linear_372_1225" x1="84.994" y1="67.1298" x2="48.0974" y2="200.091" gradientUnits="userSpaceOnUse">
<stop stop-color="#FEBBBA"/>
<stop offset="1" stop-color="#FF928E"/>
</linearGradient>
<linearGradient id="paint18_linear_372_1225" x1="69.7602" y1="93.5705" x2="79.1111" y2="141" gradientUnits="userSpaceOnUse">
<stop stop-color="#FEBBBA"/>
<stop offset="1" stop-color="#FF928E"/>
</linearGradient>
<linearGradient id="paint19_linear_372_1225" x1="111.818" y1="77.536" x2="96.9481" y2="132.899" gradientUnits="userSpaceOnUse">
<stop stop-color="#152F6C"/>
<stop offset="1" stop-color="#2E4A8B"/>
</linearGradient>
<linearGradient id="paint20_linear_372_1225" x1="84.6573" y1="74.4432" x2="43.626" y2="144.515" gradientUnits="userSpaceOnUse">
<stop stop-color="#FEBBBA"/>
<stop offset="1" stop-color="#FF928E"/>
</linearGradient>
</defs>
</svg>
