<svg width="400" height="400" viewBox="0 0 400 400" fill="none" xmlns="http://www.w3.org/2000/svg">
<path d="M378.875 274.668C337.331 368.523 231.269 407.274 148.837 398.886C126.329 396.596 81.0441 391.988 46.2189 357.419C-20.6605 291.032 -7.83787 154.968 58.644 75.9051C67.2055 65.7234 126.427 -2.45973 216.838 0.0685531C283.031 1.9197 328.847 40.6496 334.416 45.4721C341.451 51.5643 356.95 66.0197 370.751 88.761C403.178 142.195 404.837 216.017 378.875 274.668Z" fill="#D9F4FF"/>
<path d="M27.5232 350.693C27.5232 354.187 30.3465 357.046 33.7974 357.046H373.079C376.53 357.046 379.353 354.187 379.353 350.693L382.177 153.068C382.177 149.573 378.115 142.751 370.671 143.264L39.0873 134.568C34.7576 134.454 30.5712 136.143 27.5052 139.241C24.4391 142.339 22.7615 146.574 22.8638 150.958L27.5232 350.693Z" fill="url(#paint0_linear_372_630)"/>
<path d="M33.7191 344.595C33.7191 347.904 36.3902 350.612 39.6549 350.612H364.899C368.164 350.612 370.835 347.904 370.835 344.595L373.499 165.189C373.185 154.393 363.847 150.512 358.186 150.741L40.393 142.1C37.3512 142.017 34.4101 143.205 32.2557 145.383C30.1012 147.561 28.9163 150.542 28.9927 153.625L33.7191 344.595Z" fill="#2C68F2"/>
<path d="M367.318 259.365C367.314 259.365 367.31 259.365 367.305 259.365C366.825 259.358 366.441 258.958 366.448 258.47L366.659 243.92C366.666 243.438 367.054 243.052 367.528 243.052C367.532 243.052 367.537 243.052 367.541 243.052C368.022 243.059 368.406 243.459 368.398 243.947L368.188 258.496C368.181 258.979 367.793 259.365 367.318 259.365Z" fill="#80D9FF"/>
<path d="M367.835 223.711C367.831 223.711 367.826 223.711 367.822 223.711C367.342 223.704 366.958 223.303 366.965 222.816L367.772 167.091C367.757 163.781 366.766 161.138 364.826 159.254C361.204 155.737 355.454 155.917 355.212 155.928L253.638 153.167C253.158 153.155 252.779 152.749 252.792 152.263C252.805 151.776 253.174 151.362 253.685 151.406L355.199 154.166C355.83 154.129 361.952 154.021 366.029 157.981C368.323 160.208 369.494 163.277 369.512 167.1L368.704 222.843C368.697 223.325 368.309 223.711 367.835 223.711Z" fill="#80D9FF"/>
<path d="M0.796885 373.451H399.203C399.641 373.451 400 373.087 400 372.643V356.894C400 356.45 399.641 356.086 399.203 356.086H0.796885C0.358696 356.086 0 356.45 0 356.894V372.643C0 373.087 0.358555 373.451 0.796885 373.451Z" fill="url(#paint1_linear_372_630)"/>
<path d="M298.328 47.1996L94.8185 45.9368C88.1302 45.8952 82.781 51.5578 83.1123 58.3286L97.1131 351.397H323.582L336.156 89.556L298.328 47.1996Z" fill="#80D9FF"/>
<path d="M306.791 88.3014C300.162 88.065 295.065 82.2737 295.588 75.5711L297.769 47.5864L336.197 89.385L306.791 88.3014Z" fill="#20BDFF"/>
<path d="M128.941 233.284C157.152 232.821 265.448 230.928 292.794 230.449C296.244 230.389 299.08 232.507 299.061 235.124C299.044 237.616 296.432 239.642 293.149 239.711L129.397 243.148C126.242 243.214 123.531 241.446 123.142 239.069L123.044 238.468C122.598 235.75 125.333 233.344 128.941 233.284Z" fill="#B6E9FF"/>
<path d="M126.968 262.379C127.442 262.992 128.314 263.365 129.248 263.356L241.68 262.31C243.092 262.297 244.227 261.43 244.235 260.358L244.274 254.736C244.282 253.619 243.065 252.717 241.593 252.748L132.288 255.064C127.419 255.167 124.495 259.188 126.968 262.379Z" fill="#B6E9FF"/>
<path d="M128.397 284.14C156.608 283.677 264.904 281.783 292.25 281.304C295.7 281.244 298.536 283.362 298.518 285.98C298.5 288.471 295.888 290.498 292.605 290.567L128.853 294.003C125.699 294.069 122.987 292.302 122.598 289.925L122.5 289.323C122.055 286.606 124.79 284.199 128.397 284.14Z" fill="#B6E9FF"/>
<path d="M126.423 313.233C126.898 313.846 127.769 314.219 128.703 314.21L241.135 313.164C242.548 313.151 243.682 312.284 243.69 311.212L243.729 305.59C243.737 304.473 242.52 303.571 241.049 303.602L131.743 305.918C126.874 306.021 123.95 310.042 126.423 313.233Z" fill="#B6E9FF"/>
<g opacity="0.8">
<path d="M258.404 113.372C257.807 112.628 256.87 112.32 255.877 112.341L165.45 114.263L163.166 106.909C162.849 105.884 161.898 105.228 160.823 105.257L148.408 105.587C147.076 105.623 145.998 106.561 145.998 107.908C145.998 109.255 147.076 110.138 148.408 110.107L159.017 109.852L178.216 172.032C178.539 173.079 179.508 173.799 180.607 173.814L244.077 174.677C245.567 174.698 246.776 173.75 246.776 172.323C246.776 170.895 245.567 169.918 244.077 169.902L182.459 169.228L177.514 153.084L245.227 153.188C246.613 153.19 247.835 152.27 248.224 150.995L258.911 115.971C259.189 115.057 259.002 114.117 258.404 113.372Z" fill="white"/>
<path d="M189.89 177.65C184.667 177.568 180.442 181.688 180.442 186.833C180.442 191.979 184.667 196.278 189.89 196.417C195.143 196.557 199.441 192.439 199.441 187.236C199.441 182.033 195.143 177.733 189.89 177.65ZM189.89 191.412C187.449 191.354 185.468 189.348 185.468 186.94C185.468 184.531 187.449 182.609 189.89 182.655C192.337 182.7 194.334 184.707 194.334 187.128C194.334 189.548 192.337 191.47 189.89 191.412Z" fill="white"/>
<path d="M232.205 178.318C226.724 178.231 222.29 182.45 222.29 187.721C222.29 192.992 226.724 197.399 232.205 197.544C237.72 197.691 242.232 193.475 242.232 188.144C242.232 182.813 237.72 178.404 232.205 178.318ZM232.205 192.417C229.643 192.356 227.564 190.3 227.564 187.833C227.564 185.366 229.643 183.397 232.205 183.445C234.774 183.493 236.87 185.55 236.87 188.03C236.87 190.51 234.774 192.478 232.205 192.417Z" fill="white"/>
</g>
<path opacity="0.81" d="M206.617 219.443C163.803 219.443 128.971 184.138 128.971 140.741C128.971 97.345 163.803 62.0396 206.617 62.0396C249.432 62.0396 284.264 97.345 284.264 140.741C284.264 184.138 249.432 219.443 206.617 219.443ZM206.617 65.9557C165.933 65.9557 132.834 99.5043 132.834 140.741C132.834 181.978 165.933 215.527 206.617 215.527C247.301 215.527 280.4 181.978 280.4 140.741C280.4 99.5043 247.301 65.9557 206.617 65.9557Z" fill="white"/>
<path d="M61.4596 213.804C60.8097 213.804 60.2734 213.28 60.2532 212.617C60.24 212.172 59.9611 201.594 63.0336 190.298C67.1724 175.082 75.4724 166.065 87.0373 164.219C92.7034 163.315 97.7537 164.671 102.046 168.249C116.037 179.913 117.367 211.207 117.417 212.533C117.443 213.209 116.923 213.777 116.257 213.803C115.585 213.819 115.03 213.302 115.004 212.626C114.992 212.313 113.664 181.101 100.51 170.138C96.774 167.025 92.3683 165.846 87.4127 166.638C61.7085 170.739 62.6543 212.125 62.6671 212.543C62.6874 213.218 62.1634 213.782 61.497 213.803C61.4845 213.803 61.472 213.804 61.4596 213.804Z" fill="#04D0BE"/>
<path d="M10.5959 347.801L31.343 202.785L109.282 201.457L134.403 355.861H17.3446C13.1808 355.861 9.98815 352.049 10.5959 347.801Z" fill="url(#paint2_linear_372_630)"/>
<path d="M124.421 202.785L109.284 201.457L134.405 355.861H149.432C152.479 355.861 154.756 352.975 154.135 349.899L124.421 202.785Z" fill="#04D0BE"/>
<path d="M99.46 213.472C98.8143 213.472 98.2792 212.954 98.2543 212.295C98.2423 211.981 96.9143 180.769 83.7599 169.806C80.0244 166.693 75.6187 165.514 70.663 166.306C44.9788 170.404 45.9046 211.794 45.9171 212.211C45.937 212.887 45.4131 213.451 44.7468 213.471C44.0731 213.5 43.5238 212.961 43.5032 212.285C43.49 211.841 43.2111 201.262 46.2839 189.966C50.4224 174.751 58.7227 165.733 70.2877 163.888C75.9545 162.984 81.0041 164.339 85.2962 167.918C99.2868 179.581 100.618 210.875 100.667 212.202C100.693 212.877 100.173 213.445 99.5068 213.471C99.4912 213.471 99.4754 213.472 99.46 213.472Z" fill="#04D0BE"/>
<path d="M307.432 387.036C312.539 387.483 321.402 388.21 328.39 388.522C332.59 388.709 335.008 388.292 336.401 387.727C336.399 387.886 336.394 388.036 336.388 388.176C336.355 388.921 335.758 389.518 335.015 389.56C321.812 390.307 311.311 389.818 307.573 389.588C306.8 389.54 306.339 388.689 306.734 388.021C306.932 387.686 307.172 387.359 307.432 387.036Z" fill="url(#paint3_linear_372_630)"/>
<path d="M328.388 388.52C321.4 388.209 312.537 387.482 307.43 387.034C312.451 380.79 328.388 376.582 328.388 376.582H332.889C335.985 381.105 336.433 385.412 336.399 387.726C335.006 388.291 332.588 388.708 328.388 388.52Z" fill="url(#paint4_linear_372_630)"/>
<path d="M333.646 369.136L333.225 377.585C333.179 378.5 332.504 379.269 331.6 379.4C330.7 379.53 329.496 379.547 328.219 379.116C327.433 378.85 326.849 378.179 326.705 377.361L325.249 369.136L333.646 369.136Z" fill="url(#paint5_linear_372_630)"/>
<path d="M385.888 396.782C388.102 396.378 389.104 394.871 389.524 393.259C389.527 393.274 389.53 393.288 389.533 393.303C389.859 395.002 389.103 396.764 387.593 397.601C385.768 398.614 383.772 398.786 382.223 398.703C380.561 398.613 379.035 397.712 378.196 396.27L378.184 396.248C379.852 397.33 382.194 397.457 385.888 396.782Z" fill="#20BDFF"/>
<path d="M375.446 371.737H379.158C384.812 371.586 388.363 387.208 389.525 393.258C389.105 394.869 388.103 396.376 385.888 396.781C382.195 397.456 379.853 397.328 378.184 396.247C375.13 390.981 373.615 383.269 372.887 378.768C372.059 373.65 375.446 371.737 375.446 371.737Z" fill="url(#paint6_linear_372_630)"/>
<path d="M378.681 363.895L380.742 372.204C380.995 373.223 380.514 374.277 379.584 374.76C378.431 375.36 376.808 375.99 375.316 375.808C374.614 375.722 374.031 375.221 373.799 374.551L370.773 365.809L378.681 363.895Z" fill="url(#paint7_linear_372_630)"/>
<path d="M306.172 254.454C306.172 254.454 324.592 371.159 324.288 371.8C324.288 371.8 329.376 374.144 334.922 372.099C334.922 372.099 333.256 309.712 329.353 285.791C329.353 285.791 360.79 341.553 370.773 369.338C370.773 369.338 375.98 368.709 380.29 365.834C380.29 365.834 346.441 265.465 337.411 252.096L306.172 254.454Z" fill="url(#paint8_linear_372_630)"/>
<path d="M221.646 140.174C221.646 140.174 234.075 142.953 241.635 146.491C243.136 147.193 244.334 148.422 245.016 149.936C247.277 154.957 254.042 167.545 267.161 173.553C265.272 176.094 262.229 181.381 260.904 190.267C253.025 184.323 246.223 174.396 242.957 158.115C242.957 158.115 240.47 159.486 237.368 157.959C235.729 157.152 233.836 156.007 232.415 155.107C231 154.21 229.946 152.816 229.536 151.188C228.996 149.038 229.314 147.148 229.314 145.12L222.925 143.113C222.925 143.113 221.005 142.378 221.646 140.174Z" fill="url(#paint9_linear_372_630)"/>
<path d="M260.901 190.267C262.227 181.381 265.269 176.094 267.158 173.553C275.307 177.285 285.909 178.478 299.408 173.737C300.653 173.3 301.951 173.044 303.267 172.965C310.453 172.538 334.135 171.759 353.731 178.321C357.855 179.702 361.196 182.792 362.917 186.796C368.218 199.127 376.8 227.207 352.975 241.384C351.145 236.777 349.032 233.075 347.225 230.355C351.062 223.795 352.199 214.836 345.39 203.169C340.425 216.756 338.096 236.583 337.61 245.357C337.449 248.246 337.949 251.129 339.068 253.796L339.19 254.087C339.429 254.658 339.1 255.314 338.498 255.451C325.085 258.504 311.135 257.675 306.967 257.326C306.223 257.263 305.605 256.724 305.434 255.995C298.912 228.14 298.897 209.139 300.494 197.127C294.393 198.51 275.736 201.459 260.901 190.267Z" fill="url(#paint10_linear_372_630)"/>
<path d="M333.568 156.738C333.568 156.738 334.924 171.28 336.119 175.581C336.3 176.234 336.021 176.922 335.436 177.261C333.408 178.435 328.545 180.35 321.893 177.046C320.815 176.511 320.167 175.372 320.218 174.167L320.804 160.115L333.568 156.738Z" fill="url(#paint11_linear_372_630)"/>
<path d="M320.511 138.135C320.511 138.135 316.171 148.24 315.88 153.543C315.588 158.847 314.461 162.288 320.511 163.356C326.561 164.424 331.658 161.37 334.419 156.087C334.419 156.087 338.746 147.946 337.775 144.612C336.805 141.278 320.511 138.135 320.511 138.135Z" fill="url(#paint12_linear_372_630)"/>
<path d="M332.354 152.289L332.009 152.135C331.571 151.939 331.383 151.41 331.603 150.979C332.457 149.308 334.12 145.479 331.971 144.586C329.202 143.435 318.233 141.168 315.867 137.223C313.592 133.432 315.608 128.537 318.636 127.145C318.839 127.052 319.078 127.126 319.182 127.326L319.434 127.81C319.607 128.141 320.09 128.091 320.193 127.731C320.292 127.385 320.745 127.318 320.933 127.623C321.661 128.803 323.625 130.717 328.877 131.699C336.341 133.096 341.275 136.157 341.398 141.385C341.406 141.717 341.755 141.902 342.034 141.729C342.586 141.388 343.468 141.229 344.646 142.233C346.696 143.98 345.857 148.512 341.364 152.24C341.15 152.417 341.152 152.755 341.383 152.908C342.198 153.445 343.412 154.724 340.265 156.429C337.011 158.192 334.58 158.048 333.644 157.891C333.411 157.852 333.261 157.624 333.312 157.39L334.311 152.795C334.368 152.535 334.172 152.289 333.909 152.289L332.354 152.289Z" fill="url(#paint13_linear_372_630)"/>
<path d="M332.166 153.259C332.166 153.259 333.822 146.804 336.677 148.614C339.532 150.423 335.195 155.846 332.9 156.088L332.166 153.259Z" fill="url(#paint14_linear_372_630)"/>
<path d="M239.643 156.616C239.763 156.616 239.885 156.575 239.985 156.492C240.219 156.3 240.254 155.953 240.064 155.716C239.594 155.13 235.423 149.961 233.816 149.041C233.231 148.706 232.883 148.36 232.809 148.041C232.773 147.889 232.797 147.717 232.882 147.522L237.782 148.518L240.559 150.933C240.786 151.131 241.131 151.105 241.326 150.874C241.522 150.642 241.496 150.295 241.268 150.096L238.383 147.587C238.312 147.525 238.228 147.483 238.136 147.465L232.71 146.363C232.493 146.318 232.275 146.411 232.152 146.595C231.754 147.193 231.623 147.749 231.75 148.294C231.9 148.938 232.4 149.497 233.281 150.001C234.489 150.693 237.978 154.864 239.22 156.412C239.327 156.547 239.484 156.616 239.643 156.616Z" fill="url(#paint15_linear_372_630)"/>
<path d="M332.373 248.373L313.19 248.613L319.904 242.208C321.573 240.616 324.12 240.358 326.046 241.624C327.174 242.366 328.397 243.372 329.457 244.705C329.457 244.705 341.423 240.272 347.224 230.355C349.031 233.075 351.144 236.778 352.974 241.384C347.774 244.479 341.033 246.912 332.373 248.373Z" fill="url(#paint16_linear_372_630)"/>
<path d="M330.313 250.882C330.276 250.884 330.239 250.885 330.201 250.885L281.507 250.831C280.304 250.83 279.329 249.851 279.33 248.643C279.331 247.436 280.312 246.438 281.512 246.46L330.206 246.513C331.41 246.514 332.385 247.494 332.383 248.701C332.382 249.871 331.465 250.825 330.313 250.882Z" fill="url(#paint17_linear_372_630)"/>
<path d="M237.729 206.543H278.282C281.273 206.543 283.996 208.274 285.272 210.988L304.02 250.856H253.624C251.696 250.856 249.964 249.674 249.255 247.876L234.717 210.985C233.877 208.853 235.443 206.543 237.729 206.543Z" fill="url(#paint18_linear_372_630)"/>
<path d="M266.299 226.984C267.177 229.722 266.528 232.381 264.848 232.924C263.169 233.466 261.095 231.686 260.216 228.947C259.337 226.209 259.986 223.55 261.666 223.008C263.346 222.466 265.42 224.246 266.299 226.984Z" fill="#20BDFF"/>
<defs>
<linearGradient id="paint0_linear_372_630" x1="202.518" y1="134.562" x2="202.518" y2="357.046" gradientUnits="userSpaceOnUse">
<stop stop-color="#152F6C"/>
<stop offset="1" stop-color="#2E4A8B"/>
</linearGradient>
<linearGradient id="paint1_linear_372_630" x1="200" y1="356.086" x2="200" y2="373.451" gradientUnits="userSpaceOnUse">
<stop stop-color="#152F6C"/>
<stop offset="1" stop-color="#2E4A8B"/>
</linearGradient>
<linearGradient id="paint2_linear_372_630" x1="72.462" y1="201.457" x2="72.462" y2="355.861" gradientUnits="userSpaceOnUse">
<stop stop-color="#00FFE8"/>
<stop offset="1" stop-color="#00CFBC"/>
</linearGradient>
<linearGradient id="paint3_linear_372_630" x1="336.401" y1="388.497" x2="306.59" y2="388.497" gradientUnits="userSpaceOnUse">
<stop stop-color="#4042E2"/>
<stop offset="1" stop-color="#4F52FF"/>
</linearGradient>
<linearGradient id="paint4_linear_372_630" x1="321.915" y1="376.582" x2="321.915" y2="388.566" gradientUnits="userSpaceOnUse">
<stop stop-color="#152F6C"/>
<stop offset="1" stop-color="#2E4A8B"/>
</linearGradient>
<linearGradient id="paint5_linear_372_630" x1="333.646" y1="374.308" x2="325.249" y2="374.308" gradientUnits="userSpaceOnUse">
<stop stop-color="#FEBBBA"/>
<stop offset="1" stop-color="#FF928E"/>
</linearGradient>
<linearGradient id="paint6_linear_372_630" x1="381.141" y1="371.736" x2="381.141" y2="397.196" gradientUnits="userSpaceOnUse">
<stop stop-color="#152F6C"/>
<stop offset="1" stop-color="#2E4A8B"/>
</linearGradient>
<linearGradient id="paint7_linear_372_630" x1="380.809" y1="369.867" x2="370.773" y2="369.867" gradientUnits="userSpaceOnUse">
<stop stop-color="#FEBBBA"/>
<stop offset="1" stop-color="#FF928E"/>
</linearGradient>
<linearGradient id="paint8_linear_372_630" x1="343.231" y1="252.096" x2="343.231" y2="372.936" gradientUnits="userSpaceOnUse">
<stop stop-color="#152F6C"/>
<stop offset="1" stop-color="#2E4A8B"/>
</linearGradient>
<linearGradient id="paint9_linear_372_630" x1="242.777" y1="155.608" x2="283.2" y2="207.492" gradientUnits="userSpaceOnUse">
<stop stop-color="#FEBBBA"/>
<stop offset="1" stop-color="#FF928E"/>
</linearGradient>
<linearGradient id="paint10_linear_372_630" x1="314.888" y1="172.692" x2="314.888" y2="257.697" gradientUnits="userSpaceOnUse">
<stop stop-color="#00FFE8"/>
<stop offset="1" stop-color="#00CFBC"/>
</linearGradient>
<linearGradient id="paint11_linear_372_630" x1="331.367" y1="189.482" x2="326.904" y2="166.365" gradientUnits="userSpaceOnUse">
<stop stop-color="#FEBBBA"/>
<stop offset="1" stop-color="#FF928E"/>
</linearGradient>
<linearGradient id="paint12_linear_372_630" x1="319.601" y1="147.029" x2="344.657" y2="165.944" gradientUnits="userSpaceOnUse">
<stop stop-color="#FEBBBA"/>
<stop offset="1" stop-color="#FF928E"/>
</linearGradient>
<linearGradient id="paint13_linear_372_630" x1="330.297" y1="127.105" x2="330.297" y2="157.978" gradientUnits="userSpaceOnUse">
<stop stop-color="#152F6C"/>
<stop offset="1" stop-color="#2E4A8B"/>
</linearGradient>
<linearGradient id="paint14_linear_372_630" x1="322.681" y1="142.954" x2="347.737" y2="161.868" gradientUnits="userSpaceOnUse">
<stop stop-color="#FEBBBA"/>
<stop offset="1" stop-color="#FF928E"/>
</linearGradient>
<linearGradient id="paint15_linear_372_630" x1="231.703" y1="151.484" x2="241.457" y2="151.484" gradientUnits="userSpaceOnUse">
<stop stop-color="#FF928E"/>
<stop offset="1" stop-color="#FE7062"/>
</linearGradient>
<linearGradient id="paint16_linear_372_630" x1="308.132" y1="205.92" x2="325.823" y2="232.101" gradientUnits="userSpaceOnUse">
<stop stop-color="#FEBBBA"/>
<stop offset="1" stop-color="#FF928E"/>
</linearGradient>
<linearGradient id="paint17_linear_372_630" x1="305.857" y1="246.459" x2="305.857" y2="250.885" gradientUnits="userSpaceOnUse">
<stop stop-color="#152F6C"/>
<stop offset="1" stop-color="#2E4A8B"/>
</linearGradient>
<linearGradient id="paint18_linear_372_630" x1="269.254" y1="206.543" x2="269.254" y2="250.856" gradientUnits="userSpaceOnUse">
<stop stop-color="#152F6C"/>
<stop offset="1" stop-color="#2E4A8B"/>
</linearGradient>
</defs>
</svg>
