<svg width="151" height="38" viewBox="0 0 151 38" fill="none" xmlns="http://www.w3.org/2000/svg">
<path d="M18.6233 0C8.3358 0 0 8.5044 0 19C0 29.4956 8.3358 38 18.6233 38C28.9109 38 37.2467 29.4956 37.2467 19C37.2467 8.5044 28.9109 0 18.6233 0ZM18.6233 28.5C13.4833 28.5 9.31167 24.244 9.31167 19C9.31167 13.756 13.4833 9.5 18.6233 9.5C23.7634 9.5 27.935 13.756 27.935 19C27.935 24.244 23.7634 28.5 18.6233 28.5Z" fill="url(#paint0_linear_403_588)"/>
<path d="M27.935 28.5H18.6233C13.4833 28.5 9.31167 24.244 9.31167 19C9.31167 13.756 13.4833 9.5 18.6233 9.5V0C8.3358 0 0 8.5044 0 19C0 29.4956 8.3358 38 18.6233 38H37.2467C37.2467 32.756 33.075 28.5 27.935 28.5Z" fill="url(#paint1_linear_403_588)"/>
<path d="M49.2731 31.3709C47.2546 31.3709 45.3201 31.1038 43.4697 30.5695C41.6193 30.011 40.1294 29.2947 39 28.4205L40.9825 23.9768C42.0639 24.7539 43.3375 25.3974 44.8034 25.9073C46.2933 26.3929 47.7952 26.6358 49.3092 26.6358C50.4627 26.6358 51.3878 26.5265 52.0847 26.3079C52.8057 26.0651 53.3343 25.7373 53.6708 25.3245C54.0072 24.9117 54.1754 24.4382 54.1754 23.904C54.1754 23.2241 53.9111 22.6898 53.3824 22.3013C52.8537 21.8885 52.1568 21.5607 51.2917 21.3179C50.4266 21.0508 49.4654 20.8079 48.408 20.5894C47.3747 20.3466 46.3294 20.0552 45.272 19.7152C44.2387 19.3753 43.2895 18.9382 42.4244 18.404C41.5593 17.8698 40.8504 17.1656 40.2977 16.2914C39.769 15.4172 39.5046 14.3002 39.5046 12.9404C39.5046 11.4834 39.8891 10.16 40.6581 8.9702C41.4511 7.75607 42.6286 6.79691 44.1906 6.09271C45.7767 5.36424 47.7592 5 50.1382 5C51.7243 5 53.2863 5.19426 54.8242 5.58278C56.3622 5.94702 57.7199 6.50552 58.8974 7.25828L57.0951 11.7384C55.9176 11.0585 54.7401 10.5607 53.5626 10.245C52.3851 9.90508 51.2316 9.7351 50.1022 9.7351C48.9728 9.7351 48.0476 9.86865 47.3266 10.1358C46.6057 10.4029 46.0891 10.755 45.7767 11.1921C45.4643 11.6049 45.3081 12.0905 45.3081 12.649C45.3081 13.3046 45.5724 13.8389 46.1011 14.2517C46.6298 14.6402 47.3266 14.9558 48.1918 15.1987C49.0569 15.4415 50.0061 15.6843 51.0394 15.9272C52.0967 16.17 53.1421 16.4492 54.1754 16.7649C55.2328 17.0806 56.194 17.5055 57.0591 18.0397C57.9242 18.574 58.6211 19.2781 59.1498 20.1523C59.7025 21.0265 59.9788 22.1313 59.9788 23.4669C59.9788 24.8996 59.5823 26.2108 58.7893 27.4007C57.9963 28.5905 56.8068 29.5497 55.2207 30.2781C53.6587 31.0066 51.6762 31.3709 49.2731 31.3709Z" fill="#2E4A8B"/>
<path d="M72.9444 31.2252C70.8538 31.2252 68.9914 30.8002 67.3573 29.9503C65.7232 29.0762 64.4376 27.8742 63.5004 26.3444C62.5872 24.8146 62.1306 23.0784 62.1306 21.1358C62.1306 19.1689 62.5872 17.4327 63.5004 15.9272C64.4376 14.3974 65.7232 13.2075 67.3573 12.3576C68.9914 11.4834 70.8538 11.0464 72.9444 11.0464C74.9871 11.0464 76.7653 11.4834 78.2793 12.3576C79.7932 13.2075 80.9106 14.4338 81.6315 16.0364L77.27 18.404C76.7653 17.4812 76.1285 16.8013 75.3595 16.3642C74.6146 15.9272 73.7975 15.7086 72.9084 15.7086C71.9472 15.7086 71.0821 15.9272 70.3131 16.3642C69.5441 16.8013 68.9313 17.4205 68.4747 18.2219C68.0422 19.0232 67.8259 19.9945 67.8259 21.1358C67.8259 22.277 68.0422 23.2483 68.4747 24.0497C68.9313 24.851 69.5441 25.4702 70.3131 25.9073C71.0821 26.3444 71.9472 26.5629 72.9084 26.5629C73.7975 26.5629 74.6146 26.3565 75.3595 25.9437C76.1285 25.5066 76.7653 24.8146 77.27 23.8676L81.6315 26.2715C80.9106 27.8499 79.7932 29.0762 78.2793 29.9503C76.7653 30.8002 74.9871 31.2252 72.9444 31.2252Z" fill="#2E4A8B"/>
<path d="M96.7644 30.9338V27.1093L96.404 26.2715V19.4238C96.404 18.2097 96.0315 17.2627 95.2865 16.5828C94.5656 15.9029 93.4482 15.5629 91.9343 15.5629C90.9009 15.5629 89.8796 15.7329 88.8703 16.0728C87.8851 16.3885 87.044 16.8256 86.3471 17.3841L84.3285 13.4139C85.3859 12.6611 86.6595 12.0784 88.1494 11.6656C89.6393 11.2528 91.1533 11.0464 92.6912 11.0464C95.647 11.0464 97.9419 11.7506 99.576 13.1589C101.21 14.5673 102.027 16.7649 102.027 19.7517V30.9338H96.7644ZM90.8529 31.2252C89.3389 31.2252 88.0413 30.9702 86.9599 30.4603C85.8785 29.926 85.0494 29.2097 84.4727 28.3113C83.896 27.4128 83.6076 26.4051 83.6076 25.2881C83.6076 24.1225 83.884 23.1026 84.4367 22.2285C85.0134 21.3543 85.9146 20.6744 87.1401 20.1887C88.3657 19.6788 89.9637 19.4238 91.9343 19.4238H97.0888V22.7384H92.547C91.2253 22.7384 90.3122 22.957 89.8075 23.394C89.3269 23.8311 89.0866 24.3775 89.0866 25.0331C89.0866 25.7616 89.363 26.3444 89.9157 26.7815C90.4924 27.1943 91.2734 27.4007 92.2587 27.4007C93.1959 27.4007 94.0369 27.1821 94.7819 26.745C95.5269 26.2837 96.0675 25.6159 96.404 24.7417L97.2691 27.3642C96.8606 28.6269 96.1156 29.5861 95.0342 30.2417C93.9528 30.8974 92.5591 31.2252 90.8529 31.2252Z" fill="#2E4A8B"/>
<path d="M118.579 31.2252C116.945 31.2252 115.515 30.8609 114.29 30.1325C113.064 29.404 112.103 28.2991 111.406 26.8179C110.733 25.3124 110.397 23.4183 110.397 21.1358C110.397 18.8289 110.721 16.9349 111.37 15.4536C112.019 13.9724 112.956 12.8675 114.181 12.1391C115.407 11.4106 116.873 11.0464 118.579 11.0464C120.405 11.0464 122.04 11.4713 123.481 12.3212C124.947 13.1468 126.101 14.3124 126.942 15.8179C127.807 17.3234 128.239 19.096 128.239 21.1358C128.239 23.1998 127.807 24.9845 126.942 26.4901C126.101 27.9956 124.947 29.1611 123.481 29.9868C122.04 30.8124 120.405 31.2252 118.579 31.2252ZM107.116 38V11.3377H112.487V15.3444L112.379 21.1722L112.74 26.9636V38H107.116ZM117.606 26.5629C118.543 26.5629 119.372 26.3444 120.093 25.9073C120.838 25.4702 121.427 24.851 121.859 24.0497C122.316 23.2241 122.544 22.2528 122.544 21.1358C122.544 19.9945 122.316 19.0232 121.859 18.2219C121.427 17.4205 120.838 16.8013 120.093 16.3642C119.372 15.9272 118.543 15.7086 117.606 15.7086C116.669 15.7086 115.828 15.9272 115.083 16.3642C114.338 16.8013 113.749 17.4205 113.316 18.2219C112.884 19.0232 112.668 19.9945 112.668 21.1358C112.668 22.2528 112.884 23.2241 113.316 24.0497C113.749 24.851 114.338 25.4702 115.083 25.9073C115.828 26.3444 116.669 26.5629 117.606 26.5629Z" fill="#2E4A8B"/>
<path d="M141.628 31.2252C139.417 31.2252 137.471 30.7881 135.789 29.9139C134.13 29.0397 132.845 27.8499 131.932 26.3444C131.018 24.8146 130.562 23.0784 130.562 21.1358C130.562 19.1689 131.006 17.4327 131.896 15.9272C132.809 14.3974 134.046 13.2075 135.608 12.3576C137.17 11.4834 138.937 11.0464 140.907 11.0464C142.806 11.0464 144.512 11.4592 146.026 12.2848C147.564 13.0861 148.777 14.2517 149.666 15.7815C150.555 17.287 151 19.096 151 21.2086C151 21.4272 150.988 21.6821 150.964 21.9735C150.94 22.2406 150.916 22.4956 150.892 22.7384H135.14V19.4238H147.936L145.773 20.4073C145.773 19.3874 145.569 18.5011 145.161 17.7483C144.752 16.9956 144.187 16.4128 143.466 16C142.745 15.5629 141.904 15.3444 140.943 15.3444C139.982 15.3444 139.129 15.5629 138.384 16C137.663 16.4128 137.098 17.0077 136.69 17.7848C136.281 18.5375 136.077 19.436 136.077 20.4801V21.3543C136.077 22.4227 136.305 23.3698 136.762 24.1954C137.242 24.9967 137.903 25.6159 138.744 26.053C139.609 26.4658 140.619 26.6722 141.772 26.6722C142.806 26.6722 143.707 26.5143 144.476 26.1987C145.269 25.883 145.99 25.4095 146.638 24.7781L149.63 28.0563C148.741 29.0762 147.624 29.8653 146.278 30.4238C144.932 30.9581 143.382 31.2252 141.628 31.2252Z" fill="#2E4A8B"/>
<defs>
<linearGradient id="paint0_linear_403_588" x1="18.6233" y1="9.5988" x2="18.6233" y2="29.1992" gradientUnits="userSpaceOnUse">
<stop stop-color="#20BDFF"/>
<stop offset="1" stop-color="#2E4A8B"/>
</linearGradient>
<linearGradient id="paint1_linear_403_588" x1="18.6233" y1="9.5532" x2="18.6233" y2="28.5" gradientUnits="userSpaceOnUse">
<stop stop-color="#20BDFF"/>
<stop offset="1" stop-color="#4CFEEF"/>
</linearGradient>
</defs>
</svg>
